<svg height="32" viewBox="0 0 32 32" width="32" xmlns="http://www.w3.org/2000/svg"><g fill="none" fill-rule="evenodd"><path d="m0 0h32v32h-32z"/><path d="m13.4865599 0c2.7868092 0 5.0459644 2.25915522 5.0459644 5.04596441 0 .15157581-.0068297.30307464-.0204685.45403559l-.4575151 5.064008c-.0198778.2200178.1423677.4144916.3623855.4343694l.035992.0016226h6.054657c3.2603999 0 5.9034763 2.6430763 5.9034763 5.9034763 0 .1868834-.0088741.3736615-.0265924.5597032l-.5223725 5.4849114c-.4887959 5.1323568-4.7993745 9.0519091-9.9549547 9.0519091h-12.9071319c-3.3137085 0-6-2.6862915-6-6v-11.4845015c0-1.9415562 1.57394228-3.5154985 3.51549848-3.5154985h.45794003c1.80491838 0 3.38624365-1.20874862 3.85984333-2.95042415l2.18885576-8.04957585zm-2.7233564 8.57436377c-.6888723 2.53334623-2.94015637 4.31501593-5.5446006 4.42066963l-.24516439.0049666h-.45794003c-.79048744 0-1.43961916.6052158-1.50930513 1.3775572l-.00619335.1379413v11.4845015c0 2.1421954 1.68396847 3.8910789 3.80035966 3.9951047l.19964034.0048953h12.9071319c4.0385378 0 7.4289477-3.0063511 7.9355644-6.9861923l.0283993-.255335.5223726-5.4849114c.0117156-.1230138.0175833-.2465146.0175833-.370085 0-2.0884608-1.6401247-3.7938498-3.7026039-3.8983971l-.2008724-.0050792-6.1447284-.0020292-.1258805-.0077062c-1.2651022-.1142975-2.2118551-1.1906916-2.1835837-2.4420661l.009271-.1641504.457515-5.06400799c.008233-.09112662.0123557-.18257793.0123557-.2740757 0-1.6221597-1.2680552-2.94814923-2.8669908-3.04079369l-.1789736-.00517072h-.9355599z" fill="#000" fill-rule="nonzero"/></g></svg>