<svg height="32" viewBox="0 0 32 32" width="32" xmlns="http://www.w3.org/2000/svg"><g fill="none" fill-rule="evenodd"><path d="m0 0h32v32h-32z"/><g fill="#000"><path d="m24.9027672 9.87291929c4.1666275 1.72815861 7.0972328 5.83537991 7.0972328 10.62708071 0 6.3512746-5.1487254 11.5-11.5 11.5-4.7917008 0-8.8989221-2.9306053-10.62708071-7.0972328.53344431.0642625 1.07641221.0972328 1.62708071.0972328 7.4558441 0 13.5-6.0441559 13.5-13.5 0-.517767-.0291481-1.028726-.085893-1.53132572z"/><path d="m11 0c5.4462366 0 9.968032 3.95800286 10.845858 9.15448014-.6003932-.10170367-1.2169623-.15448014-1.845858-.15448014-6.0751322 0-11 4.9248678-11 11 0 .6288957.05277647 1.2454648.15414205 1.8455199-5.19613919-.8774879-9.15414205-5.3992833-9.15414205-10.8455199 0-6.07513225 4.92486775-11 11-11z"/><path d="m21 11c.6796264 0 1.3434177.064408 1.9849796.1871493-.5710703 6.0511569-5.4516664 10.9042709-11.6658985 11.6987611-.2087914-.7634212-.3190811-1.56243-.3190811-2.3859104 0-5.2467051 4.4771525-9.5 10-9.5z"/></g></g></svg>