<svg height="32" viewBox="0 0 32 32" width="32" xmlns="http://www.w3.org/2000/svg"><g fill="none" fill-rule="evenodd"><path d="m0 0h32v32h-32z"/><path d="m16 0c.2189636 0 .4214902.07037521.586195.18974082.0456726.02378301.0909361.05230317.134441.0848029l8.3257196 6.21960969c.0430371.03215027.0826738.06716323.1188432.10457736.0450366.0315503.0886402.06819629.1295775.10913361.3905243.39052429.3905243 1.02368927 0 1.41421356l-7.8793102 7.87892206 7.8693102 7.8695627c.3905243.3905243.3905243 1.0236893 0 1.4142136-.0626074.0626074-.131451.1151779-.2045313.1577113-.0110244.0108033-.0232027.0207948-.0356814.0305442l-.0158775.0121461-8.3355043 6.2427899-.032897.0230644c-.1761371.1549761-.4072345.2489678-.6602848.2489678-.5522847 0-1-.4477153-1-1l-.0005339-12.583-10.21078644 10.2111746-1.41421357-1.4142136 11.21300001-11.212961-11.22300001-11.22232034 1.41421357-1.41421357 10.22078644 10.22053391.0005339-12.585c0-.55228475.4477153-1 1-1zm.9994661 18.413v10.586l6.053-4.533zm0-15.434v10.609l6.073-6.073z" fill="#000"/></g></svg>