<svg height="32" viewBox="0 0 32 32" width="32" xmlns="http://www.w3.org/2000/svg"><g fill="none" fill-rule="evenodd"><path d="m0 0h32v32h-32z"/><path d="m17 0 .00047 3.03844976c5.8978047.45480211 10.7892662 4.89740154 11.7374255 10.82339724l2.2621045 14.138153h-10.429l-.0053146.040202c-.3245878 2.2721151-2.2705026 3.959798-4.5656854 3.959798-2.2234584 0-4.1191368-1.5838508-4.5305442-3.7485331l-.0414558-.2514669h-10.428l2.26210449-14.138153c.94821314-5.92633216 5.84017627-10.3690996 11.73843011-10.82347467l-.0005346-3.03837233zm1.5409395 28.0009132-5.080207-.00018c.2795085 1.1621314 1.3227649 1.9992668 2.5392675 1.9992668 1.2224477 0 2.2699517-.8453376 2.5409395-1.9990868zm-2.5409395-23.0009132c-5.2577175 0-9.75081332 3.74983311-10.7131984 8.8908023l-.04981585.2870257-1.89298575 11.822172h25.311l-1.8919858-11.822172c-.8306694-5.19168394-5.2432734-9.0359113-10.471723-9.17398513z" fill="#000" fill-rule="nonzero"/></g></svg>