<svg height="32" viewBox="0 0 32 32" width="32" xmlns="http://www.w3.org/2000/svg"><g fill="none" fill-rule="evenodd"><path d="m0 0h32v32h-32z"/><path d="m24 0c2.209139 0 4 1.790861 4 4v25.3836626c0 .7731986-.6268014 1.4-1.4 1.4-.2764577 0-.5467269-.0818503-.7767334-.2352317l-9.5979877-6.4004817c-.134348-.0895908-.3093886-.0896138-.4437602-.0000583l-9.60509155 6.4015709c-.64339653.4288088-1.51259076.2548512-1.94139963-.3885454-.15325135-.2299425-.23502752-.5000948-.23502752-.7764271v-25.3844893c0-2.209139 1.790861-4 4-4zm0 2h-16c-1.0543618 0-1.91816512.81587779-1.99451426 1.85073766l-.00548574.14926234v24.263l8.6723371-5.7793555c.7524806-.5015109 1.7175251-.5348247 2.4982326-.0999935l.1643284.1003435 8.6651019 5.7780055v-24.262c0-1.0543618-.8158778-1.91816512-1.8507377-1.99451426z" fill="#000" fill-rule="nonzero"/></g></svg>