<svg height="32" viewBox="0 0 32 32" width="32" xmlns="http://www.w3.org/2000/svg"><g fill="none" fill-rule="evenodd"><path d="m0 0h32v32h-32z"/><path d="m24 2c4.418278 0 8 3.581722 8 8v9c0 4.418278-3.581722 8-8 8h-14.65568992c-.8644422 0-1.70562318.280039-2.39757043.7981793l-3.74795444 2.8065233c-.88415838.6620708-2.13762479.4820332-2.79969558-.4021251-.25907013-.3459737-.39908963-.7665641-.39908963-1.1987852v-19.0037923c0-4.418278 3.581722-8 8-8zm0 2h-16c-3.23839694 0-5.87757176 2.56557489-5.99586153 5.77506174l-.00413847.22493826v19.0037923l3.74795444-2.8065234c.96378366-.7216954 2.12058137-1.1354383 3.31910214-1.1908624l.2772535-.0064065h14.65568992c3.2383969 0 5.8775718-2.5655749 5.9958615-5.7750617l.0041385-.2249383v-9c0-3.23839694-2.5655749-5.87757176-5.7750617-5.99586153zm-2.571997 8.0964585c.4991418.2363808.7121517.8326397.4757709 1.3317815-1.0147484 2.1427431-3.3743976 3.5719947-5.9072405 3.5719947-2.5295477 0-4.8788249-1.4193527-5.8988448-3.5543444-.23808431-.4983315-.0271123-1.0953145.4712193-1.3333988.4983315-.2380843 1.0953145-.0271123 1.3333988.4712192.6812794 1.4259781 2.3208063 2.416524 4.0942267 2.416524 1.7746853 0 3.4225233-.9981039 4.099688-2.4280053.2363808-.4991419.8326397-.7121518 1.3317816-.4757709z" fill="#000" fill-rule="nonzero"/></g></svg>