<svg height="32" viewBox="0 0 32 32" width="32" xmlns="http://www.w3.org/2000/svg"><g fill="none" fill-rule="evenodd"><path d="m0 0h32v32h-32z"/><path d="m16 0c8.836556 0 16 7.163444 16 16s-7.163444 16-16 16-16-7.163444-16-16 7.163444-16 16-16zm0 6c-.5522847 0-1 .44771525-1 1v6.586l-4.5644661-4.56467966c-.3905243-.39052429-1.02368926-.39052429-1.41421356 0-.39052429.3905243-.39052429 1.02368926 0 1.41421356l4.56467966 4.5644661h-6.586c-.55228475 0-1 .4477153-1 1s.44771525 1 1 1h6.588l-4.55667966 4.5571068c-.39052429.3905243-.39052429 1.0236893 0 1.4142135.3905243.3905243 1.02368926.3905243 1.41421356 0l4.5544661-4.5553203v6.584c0 .5522847.4477153 1 1 1s1-.4477153 1-1v-6.586l4.5571068 4.5573203c.3905243.3905243 1.0236893.3905243 1.4142135 0 .3905243-.3905242.3905243-1.0236892 0-1.4142135l-4.5573203-4.5571068h6.586c.5522847 0 1-.4477153 1-1s-.4477153-1-1-1h-6.584l4.5653203-4.5644661c.3905243-.3905243.3905243-1.02368926 0-1.41421356-.3905242-.39052429-1.0236892-.39052429-1.4142135 0l-4.5671068 4.56667966v-6.588c0-.55228475-.4477153-1-1-1z" fill="#202327"/></g></svg>