<svg height="32" viewBox="0 0 32 32" width="32" xmlns="http://www.w3.org/2000/svg"><g fill="none" fill-rule="evenodd"><path d="m0 0h32v32h-32z"/><path d="m28.5755339 2.10598128 1.4142136 1.41421357-4.0980982 4.09842955c1.4551056 1.73621296 2.4666663 3.8708481 2.8462462 6.2432226l2.2621045 14.138153h-10.429l-.0053146.040202c-.3245878 2.2721151-2.2705026 3.959798-4.5656854 3.959798-2.2234584 0-4.1191368-1.5838508-4.5305442-3.7485331l-.0414558-.2514669h-5.91892206l-2.38938816 2.3902525-1.41421356-1.4142135zm-4.1047165 6.93336712-16.96173946 16.9606516h5.62930096l.2758347 1.7573593c.183831 1.2868176 1.2859043 2.2426407 2.5857864 2.2426407 1.2433655 0 2.305749-.8745149 2.5541654-2.0585817l.0340848-.2035313.2297429-1.737887h9.8370069l-1.8919858-11.822172c-.3108307-1.9426925-1.1232058-3.6967135-2.2921968-5.1384796zm-7.4708174-9.0393484.000106 3.0384217c2.1384795.16484561 4.144664.85396967 5.878552 1.94799016l-1.4566368 1.45707542c-1.5254556-.87575247-3.2768047-1.39068562-5.13073-1.43964441l-.2912912-.00384287c-5.2577175 0-9.75081332 3.74983311-10.7131984 8.8908023l-.04981585.2870257-1.61190781 10.062172-2.409 2.409 2.04602655-12.787153c.94816917-5.92605737 5.83972262-10.36868759 11.73760961-10.82341143l.0002859-3.03843557z" fill="#000" fill-rule="nonzero"/></g></svg>