<svg height="32" viewBox="0 0 32 32" width="32" xmlns="http://www.w3.org/2000/svg"><g fill="none" fill-rule="evenodd"><path d="m0 0h32v32h-32z"/><path d="m24 2c4.418278 0 8 3.581722 8 8v9c0 4.418278-3.581722 8-8 8h-14.65568992c-.8644422 0-1.70562318.280039-2.39757043.7981793l-3.74795444 2.8065233c-.88415838.6620708-2.13762479.4820332-2.79969558-.4021251-.25907013-.3459737-.39908963-.7665641-.39908963-1.1987852v-19.0037923c0-4.418278 3.581722-8 8-8zm-2.571997 10.0964585c-.4991419-.2363809-1.0954008-.023371-1.3317816.4757709-.6771647 1.4299014-2.3250027 2.4280053-4.099688 2.4280053-1.7734204 0-3.4129473-.9905459-4.0942267-2.416524-.2380843-.4983315-.8350673-.7093035-1.3333988-.4712192-.4983316.2380843-.70930361.8350673-.4712193 1.3333988 1.0200199 2.1349917 3.3692971 3.5543444 5.8988448 3.5543444 2.5328429 0 4.8924921-1.4292516 5.9072405-3.5719947.2363808-.4991418.0233709-1.0954007-.4757709-1.3317815z" fill="#202327"/></g></svg>