<svg height="32" viewBox="0 0 32 32" width="32" xmlns="http://www.w3.org/2000/svg"><path d="m16 0c8.836556 0 16 7.163444 16 16s-7.163444 16-16 16-16-7.163444-16-16 7.163444-16 16-16zm0 2c-7.7319865 0-14 6.2680135-14 14s6.2680135 14 14 14 14-6.2680135 14-14-6.2680135-14-14-14zm0 18.5c.7731986 0 1.4.6268014 1.4 1.4s-.6268014 1.4-1.4 1.4-1.4-.6268014-1.4-1.4.6268014-1.4 1.4-1.4zm0-11.5c2.209139 0 4 1.790861 4 4 0 1.8635652-1.2743978 3.429479-2.9992387 3.8737865l-.0007613 1.1262135c0 .5522847-.4477153 1-1 1s-1-.4477153-1-1v-2c0-.5522847.4477153-1 1-1 1.1045695 0 2-.8954305 2-2s-.8954305-2-2-2-2 .8954305-2 2c0 .5522847-.4477153 1-1 1s-1-.4477153-1-1c0-2.209139 1.790861-4 4-4z"/></svg>