<svg height="32" viewBox="0 0 32 32" width="32" xmlns="http://www.w3.org/2000/svg"><g fill="none" fill-rule="evenodd"><path d="m0 0h32v32h-32z"/><path d="m31 6c.5522847 0 1 .44771525 1 1s-.4477153 1-1 1l-3-.001v18.001c0 3.3137085-2.6862915 6-6 6h-12c-3.3137085 0-6-2.6862915-6-6v-18h-3c-.55228475 0-1-.44771525-1-1s.44771525-1 1-1zm-18 8c-.5522847 0-1 .4477153-1 1v7c0 .5522847.4477153 1 1 1s1-.4477153 1-1v-7c0-.5522847-.4477153-1-1-1zm6 0c-.5522847 0-1 .4477153-1 1v7c0 .5522847.4477153 1 1 1s1-.4477153 1-1v-7c0-.5522847-.4477153-1-1-1zm4.5-13c.8284271 0 1.5.67157288 1.5 1.5s-.6715729 1.5-1.5 1.5h-15c-.82842712 0-1.5-.67157288-1.5-1.5s.67157288-1.5 1.5-1.5z" fill="#202327"/></g></svg>