<svg height="32" viewBox="0 0 32 32" width="32" xmlns="http://www.w3.org/2000/svg"><g fill="none" fill-rule="evenodd"><path d="m0 0h32v32h-32z"/><path d="m30 21.002121c.5128358 0 .9355072.3860402.9932723.8833788l.0067277.1166212v4.0617542c0 2.6544058-2.0951942 4.8194527-4.722006 4.9315643l-.2141188.0045605h-4.0605793c-.5522848 0-1-.4477153-1-1 0-.5128358.3860402-.9355072.8833789-.9932723l.1166211-.0067277h4.0605793c1.5636635 0 2.8418369-1.2223283 2.9311405-2.7636052l.0049843-.1725196v-4.0617542c0-.5522848.4477153-1 1-1zm-28 .0036773c.51283584 0 .93550716.3860402.99327227.8833789l.00672773.1166211v4.0594968c0 1.5629073 1.22173716 2.8404626 2.76226866 2.929723l.1724362.0049819h4.06641844c.5522847 0 1 .4477153 1 1 0 .5128358-.3860402.9355072-.8833789.9932723l-.1166211.0067277h-4.06641844c-2.65364218 0-4.81806632-2.0945914-4.93014567-4.7206476l-.00455919-.2140573v-4.0594968c0-.5522847.44771525-1 1-1zm24.0582526-20.0057983c2.6574293 0 4.8249424 2.09758074 4.9371817 4.72738467l.0045657.21436274v4.06279749c0 .5522847-.4477153 1-1 1-.5128358 0-.9355072-.3860402-.9932723-.8833789l-.0067277-.1166211v-4.06279749c0-1.56665787-1.224669-2.84727896-2.7688974-2.9367536l-.17285-.00499381h-4.0546015c-.5522847 0-1-.44771525-1-1 0-.51283584.3860402-.93550716.8833789-.99327227l.1166211-.00672773zm-16.0551568 0c.5522848 0 1 .44771525 1 1 0 .51283584-.3860401.93550716-.8833788.99327227l-.1166212.00672773h-4.06405649c-1.56521564 0-2.84465782 1.22354162-2.9340501 2.76634842l-.00498921.17269089v4.05951434c0 .55228475-.44771525 1.00000005-1 1.00000005-.51283584 0-.93550716-.3860402-.99327227-.8833789l-.00672773-.11662115v-4.05951434c0-2.65597304 2.09643125-4.82229831 4.72479403-4.93447612l.21424528-.00456319z" fill="#000" fill-rule="nonzero"/></g></svg>