<svg height="32" viewBox="0 0 32 32" width="32" xmlns="http://www.w3.org/2000/svg"><path d="m16 0c8.836556 0 16 7.163444 16 16s-7.163444 16-16 16-16-7.163444-16-16 7.163444-16 16-16zm0 24c-.5522847 0-1 .4477153-1 1v3c0 .5522847.4477153 1 1 1s1-.4477153 1-1v-3c0-.5522847-.4477153-1-1-1zm0-13c-2.7614237 0-5 2.2385763-5 5s2.2385763 5 5 5 5-2.2385763 5-5-2.2385763-5-5-5zm0 2c1.6568542 0 3 1.3431458 3 3s-1.3431458 3-3 3-3-1.3431458-3-3 1.3431458-3 3-3zm-9 2h-3c-.55228475 0-1 .4477153-1 1s.44771525 1 1 1h3c.55228475 0 1-.4477153 1-1s-.44771525-1-1-1zm21 0h-3c-.5522847 0-1 .4477153-1 1s.4477153 1 1 1h3c.5522847 0 1-.4477153 1-1s-.4477153-1-1-1zm-12-12c-.5522847 0-1 .44771525-1 1v3c0 .55228475.4477153 1 1 1s1-.44771525 1-1v-3c0-.55228475-.4477153-1-1-1z" fill="#202327" fill-rule="evenodd"/></svg>