<svg height="32" viewBox="0 0 32 32" width="32" xmlns="http://www.w3.org/2000/svg"><g fill="none" fill-rule="evenodd"><path d="m0 0h32v32h-32z"/><path d="m29.784768 18.838435c2.1985878-3.0737402 2.215232-4.6673224 2.215232-7.1599086 0-3.8396034-3.504074-8.6785264-8.4317228-8.6785264s-7.5682772 2.90055339-7.5682772 2.90055339-2.6406284-2.90055339-7.56827721-2.90055339c-4.92764879 0-8.43172279 4.838923-8.43172279 8.6785264 0 3.8396033 1.83194611 7.6268851 5.12706376 10.4418366 3.29511764 2.8149515 5.49751934 4.4983953 7.87293624 5.9509354 2.3754169 1.45254 2.9500689 1.9353689 3 1.9285614 0 0 1.8187904-1.1116041 3-1.9285614 1.1812096-.8169574 2.5394341-1.7683558 2.5394341-1.7683558s6.0467462-4.3907674 8.2453339-7.4645076z" fill="#202327"/></g></svg>