<svg height="32" viewBox="0 0 32 32" width="32" xmlns="http://www.w3.org/2000/svg"><g fill="none" fill-rule="evenodd"><path d="m0 0h32v32h-32z"/><path d="m24 2c3.3137085 0 6 2.6862915 6 6v16c0 3.3137085-2.6862915 6-6 6h-16c-3.3137085 0-6-2.6862915-6-6v-16c0-3.3137085 2.6862915-6 6-6zm-1.7573593 7.92893219c-.3905243-.39052429-1.0236893-.39052429-1.4142136 0l-8.6558932 8.65706781-.000961-4.586c0-.5522847-.4477153-1-1-1-.5522848 0-1 .4477153-1 1v7c0 .5522847.4477152 1 1 1h7c.5522847 0 1-.4477153 1-1s-.4477153-1-1-1l-4.586039.001 8.6571068-8.6578542c.3905243-.3905243.3905243-1.0236893 0-1.41421361z" fill="#202327"/></g></svg>