<svg height="32" viewBox="0 0 32 32" width="32" xmlns="http://www.w3.org/2000/svg"><g fill="none" fill-rule="evenodd"><path d="m0 0h32v32h-32z"/><path d="m16 0c8.836556 0 16 7.163444 16 16s-7.163444 16-16 16-16-7.163444-16-16 7.163444-16 16-16zm0 2c-7.7319865 0-14 6.2680135-14 14s6.2680135 14 14 14 14-6.2680135 14-14-6.2680135-14-14-14zm0 22c.5522847 0 1 .4477153 1 1v2c0 .5522847-.4477153 1-1 1s-1-.4477153-1-1v-2c0-.5522847.4477153-1 1-1zm6.9713203-2.4428932 1.4142136 1.4142135c.3905243.3905243.3905243 1.0236893 0 1.4142136s-1.0236893.3905243-1.4142136 0l-1.4142135-1.4142136c-.3905243-.3905242-.3905243-1.0236892 0-1.4142135s1.0236893-.3905243 1.4142135 0zm-12.5257864 0c.3905243.3905243.3905243 1.0236893 0 1.4142135l-1.41421356 1.4142136c-.39052429.3905243-1.02368927.3905243-1.41421356 0s-.39052429-1.0236893 0-1.4142136l1.41421356-1.4142135c.3905243-.3905243 1.02368926-.3905243 1.41421356 0zm-3.4455339-6.5571068c.55228475 0 1 .4477153 1 1s-.44771525 1-1 1h-2c-.55228475 0-1-.4477153-1-1s.44771525-1 1-1zm20 0c.5522847 0 1 .4477153 1 1s-.4477153 1-1 1h-2c-.5522847 0-1-.4477153-1-1s.4477153-1 1-1zm-17.97867966-7.39289322 1.41421356 1.41421356c.3905243.3905243.3905243 1.02368926 0 1.41421356s-1.02368926.3905243-1.41421356 0l-1.41421356-1.41421356c-.39052429-.39052429-.39052429-1.02368927 0-1.41421356s1.02368927-.39052429 1.41421356 0zm15.37421356 0c.3905243.39052429.3905243 1.02368927 0 1.41421356l-1.4142136 1.41421356c-.3905242.3905243-1.0236892.3905243-1.4142135 0s-.3905243-1.02368926 0-1.41421356l1.4142135-1.41421356c.3905243-.39052429 1.0236893-.39052429 1.4142136 0zm-8.3955339-3.60710678c.5522847 0 1 .44771525 1 1v2c0 .55228475-.4477153 1-1 1s-1-.44771525-1-1v-2c0-.55228475.4477153-1 1-1z" fill="#000" fill-rule="nonzero"/></g></svg>