<svg height="32" viewBox="0 0 32 32" width="32" xmlns="http://www.w3.org/2000/svg"><g fill="none" fill-rule="evenodd"><path d="m0 0h32v32h-32z"/><path d="m16 0c8.836556 0 16 7.163444 16 16s-7.163444 16-16 16-16-7.163444-16-16 7.163444-16 16-16zm1 24h-2v4h2zm5.2642136-3.15-1.4142136 1.4142136 2.8284271 2.8284271 1.4142136-1.4142136zm-12.52578648 0-2.82842712 2.8284271 1.41421356 1.4142136 2.82842714-2.8284271zm-1.73842712-5.85h-4v2h4zm20 0h-4v2h4zm-19.68578644-8.1-1.41421356 1.41421356 2.82842712 2.82842714 1.41421358-1.41421358zm15.37421354 0-2.8284271 2.82842712 1.4142136 1.41421358 2.8284271-2.82842714zm-6.6884271-2.9h-2v4h2z" fill="#202327"/></g></svg>