<svg height="32" viewBox="0 0 32 32" width="32" xmlns="http://www.w3.org/2000/svg"><g fill="none" fill-rule="evenodd"><path d="m0 0h32v32h-32z"/><path d="m12.4748737 16.9644661c.3905243.3905243.3905243 1.0236893 0 1.4142136l-2.56401434 2.5638932 15.44269404.0005729c.5522847 0 1 .4477152 1 1 0 .5522847-.4477153 1-1 1l-15.42869404-.0005729 2.55001434 2.5503203c.3905243.3905243.3905243 1.0236893 0 1.4142136s-1.0236892.3905243-1.4142135 0l-4.24264072-4.2426407c-.18024198-.180242-.27729535-.4121707-.29116012-.6480754v-.1612085c.01386477-.2359047.11091814-.4678334.29116012-.6480754l4.24264072-4.2426407c.3905243-.3905243 1.0236892-.3905243 1.4142135 0zm9.0535534-11.87157288 4.2426407 4.24264069c.180242.18024198.2772954.41217073.2911601.64807539v.1612085c-.0138647.2359047-.1109181.4678334-.2911601.6480754l-4.2426407 4.2426407c-.3905243.3905243-1.0236892.3905243-1.4142135 0s-.3905243-1.0236893 0-1.4142136l2.5640143-2.5638932-15.4182279-.0005729c-.55228475 0-1-.4477152-1-1 0-.5522847.44771525-.99999995 1-.99999995l15.4042279.00057287-2.5500143-2.55032034c-.3905243-.39052429-.3905243-1.02368927 0-1.41421356s1.0236892-.39052429 1.4142135 0z" fill="#000"/></g></svg>