<svg height="32" viewBox="0 0 32 32" width="32" xmlns="http://www.w3.org/2000/svg"><g fill="none" fill-rule="evenodd"><path d="m0 0h32v32h-32z"/><path d="m16 0c4.418278 0 8 3.581722 8 8v2c3.3137085 0 6 2.6862915 6 6v10c0 3.3137085-2.6862915 6-6 6h-16c-3.3137085 0-6-2.6862915-6-6v-10c0-3.3137085 2.6862915-6 6-6v-2c0-4.418278 3.581722-8 8-8zm4 20h-8c-.5522847 0-1 .4477153-1 1s.4477153 1 1 1h8c.5522847 0 1-.4477153 1-1s-.4477153-1-1-1zm-4-18c-3.2383969 0-5.8775718 2.56557489-5.9958615 5.77506174l-.0041385.22493826v2h12v-2c0-3.23839694-2.5655749-5.87757176-5.7750617-5.99586153z" fill="#202327"/></g></svg>