<svg height="32" viewBox="0 0 32 32" width="32" xmlns="http://www.w3.org/2000/svg"><g fill="none" fill-rule="evenodd"><path d="m0 0h32v32h-32z"/><path d="m15 2c.5522847 0 1 .44771525 1 1s-.4477153 1-1 1c-7.17970175 0-13 5.82029825-13 13 0 7.1797017 5.82029825 13 13 13 7.1797017 0 13-5.8202983 13-13 0-4.2891824-2.094027-8.21231038-5.4977584-10.61874906l-.0008897 4.61874906c0 .5522847-.4477152 1-1 1-.5522847 0-1-.4477153-1-1v-7c0-.55228475.4477153-1 1-1h7c.5522848 0 1 .44771525 1 1s-.4477152 1-1 1l-4.4992882-.00033065c3.7221733 2.79318402 5.9979363 7.19873195 5.9979363 12.00033065 0 8.2842712-6.7157288 15-15 15-8.28427125 0-15-6.7157288-15-15 0-8.28427125 6.71572875-15 15-15z" fill="#000" fill-rule="nonzero"/></g></svg>