<svg height="32" viewBox="0 0 32 32" width="32" xmlns="http://www.w3.org/2000/svg"><g fill="none" fill-rule="evenodd"><path d="m0 0h32v32h-32z"/><path d="m22 0c4.418278 0 8 3.581722 8 8v16c0 4.418278-3.581722 8-8 8h-12c-4.418278 0-8-3.581722-8-8v-16c0-4.418278 3.581722-8 8-8zm1 20h-14c-.55228475 0-1 .4477153-1 1s.44771525 1 1 1h14c.5522847 0 1-.4477153 1-1s-.4477153-1-1-1zm-10.5380879-11.89948029c-.4067253-.03141459-.807702.1898436-.9867316.58195178l-3.16443312 6.93069731c-.22636673.5083195-.00159156 1.0938789.49820759 1.3164038.50975345.2269569 1.09712703.0046588 1.32498293-.4943879l2.2610621-4.9536143 2.2194631 4.9308454c.2260173.5021984.815536.7271345 1.3186392.5031385l.0036662-.0016323c.5052642-.2273882.7288904-.8170304.5031385-1.3186391l-3.1079467-6.90569314c-.1586268-.35246033-.4963043-.56834899-.8574942-.58831896zm7.5657016 1.89948029c-1.9329966 0-3.5 1.5670034-3.5 3.5s1.5670034 3.5 3.5 3.5c.6088532 0 1.1813955-.1554651 1.6790036-.4289125.1806809.2592615.4810266.4289125.8209964.4289125.5522848 0 1-.4477153 1-1v-2.5l-.0051788-.1920352c-.0996947-1.8436872-1.6262578-3.3079648-3.4948212-3.3079648zm0 2c.8284272 0 1.5.6715729 1.5 1.5s-.6715728 1.5-1.5 1.5c-.8284271 0-1.5-.6715729-1.5-1.5s.6715729-1.5 1.5-1.5z" fill="#202327"/></g></svg>