<svg height="32" viewBox="0 0 32 32" width="32" xmlns="http://www.w3.org/2000/svg"><g fill="none" fill-rule="evenodd"><path d="m0 0h32v32h-32z"/><path d="m24 2.14359354 8 13.85640646-8 13.8564065h-16l-8-13.8564065 8-13.85640646zm-1.155 1.99940646h-13.689l-6.846 11.857 6.846 11.856h13.689l6.846-11.856zm-6.845 5.857c3.3137085 0 6 2.6862915 6 6s-2.6862915 6-6 6-6-2.6862915-6-6 2.6862915-6 6-6zm0 2c-2.209139 0-4 1.790861-4 4s1.790861 4 4 4 4-1.790861 4-4-1.790861-4-4-4z" fill="#000" fill-rule="nonzero"/></g></svg>