<svg height="32" viewBox="0 0 32 32" width="32" xmlns="http://www.w3.org/2000/svg"><g fill="none" fill-rule="evenodd"><path d="m0 0h32v32h-32z"/><path d="m9.05825259 18c2.65742931 0 4.82494241 2.0975807 4.93718171 4.7273847l.0045657.2143627v5.0627975c0 .5522847-.4477153 1-1 1-.5128358 0-.9355072-.3860402-.9932723-.8833789l-.0067277-.1166211v-5.0627975c0-1.5666579-1.224669-2.8472789-2.7688974-2.9367536l-.17285001-.0049938h-5.05460145c-.55228475 0-1-.4477153-1-1 0-.5128358.38604019-.9355072.88337887-.9932723l.11662113-.0067277zm18.94484321 0c.5522848 0 1 .4477153 1 1 0 .5128358-.3860401.9355072-.8833788.9932723l-.1166212.0067277h-5.0640565c-1.5652156 0-2.8446578 1.2235416-2.9340501 2.7663484l-.0049892.1726909v5.0595144c0 .5522847-.4477153 1-1 1-.5128358 0-.9355072-.3860402-.9932723-.8833789l-.0067277-.1166211v-5.0595144c0-2.655973 2.0964313-4.8222983 4.724794-4.9344761l.2142453-.0045632zm-15.0030958-14.99787903c.5128358 0 .9355072.38604019.9932723.88337888l.0067277.11662112v5.06175423c0 2.6544058-2.0951942 4.8194527-4.72200595 4.9315643l-.21411885.0045605h-5.0605793c-.55228475 0-1-.4477153-1-1 0-.5128358.38604019-.9355072.88337887-.9932723l.11662113-.0067277h5.0605793c1.5636635 0 2.8418369-1.2223283 2.9311405-2.76360517l.0049843-.17251963v-5.06175423c0-.55228475.4477153-1 1-1zm6 .00367737c.5128358 0 .9355072.38604019.9932723.88337887l.0067277.11662113v5.0594968c0 1.56290726 1.2217372 2.84046256 2.7622687 2.92972296l.1724362.0049819h5.0664184c.5522847 0 1 .4477153 1 1 0 .5128358-.3860402.9355072-.8833789.9932723l-.1166211.0067277h-5.0664184c-2.6536422 0-4.8180664-2.0945914-4.9301457-4.72064761l-.0045592-.21405725v-5.0594968c0-.55228475.4477153-1 1-1z" fill="#000" fill-rule="nonzero"/></g></svg>