<svg height="32" viewBox="0 0 32 32" width="32" xmlns="http://www.w3.org/2000/svg"><g fill="none" fill-rule="evenodd"><path d="m0 0h32v32h-32z"/><path d="m30 0v32h-28v-32zm-2 2h-24v28h24zm-4 18v2h-16v-2zm-11.9434039-11.67369407.8924039.01769407.7565729-.00990711 4.2944271 8.66590711h-2.6487611l-2.4892389-5.53-2.5546159 5.5442074h-2.32535829zm8.4434039 1.67369407c1.8685634 0 3.3951264 1.4642776 3.4948211 3.3079648l.0051789.1920352v3.5h-2l.0010375-.3373087c-.4548914.2162792-.9638305.3373087-1.5010375.3373087-1.9329966 0-3.5-1.5670034-3.5-3.5s1.5670034-3.5 3.5-3.5zm0 2c-.8284271 0-1.5.6715729-1.5 1.5s.6715729 1.5 1.5 1.5 1.5-.6715729 1.5-1.5-.6715729-1.5-1.5-1.5z" fill="#000" fill-rule="nonzero"/></g></svg>