<svg height="32" viewBox="0 0 32 32" width="32" xmlns="http://www.w3.org/2000/svg"><g fill="none" fill-rule="evenodd"><path d="m0 0h32v32h-32z"/><path d="m22 0c4.418278 0 8 3.581722 8 8v16c0 4.418278-3.581722 8-8 8h-12c-4.418278 0-8-3.581722-8-8v-16c0-4.418278 3.581722-8 8-8zm0 2h-12c-3.23839694 0-5.87757176 2.56557489-5.99586153 5.77506174l-.00413847.22493826v16c0 3.2383969 2.56557489 5.8775718 5.77506174 5.9958615l.22493826.0041385h12c3.2383969 0 5.8775718-2.5655749 5.9958615-5.7750617l.0041385-.2249383v-16c0-3.23839694-2.5655749-5.87757176-5.7750617-5.99586153zm1 18c.5522847 0 1 .4477153 1 1s-.4477153 1-1 1h-14c-.55228475 0-1-.4477153-1-1s.44771525-1 1-1zm-10.5380879-11.89948029.012554.00075109c.3611899.01996997.6988674.23585863.8574942.58831896l3.1079467 6.90569314c.2257519.5016087.0021257 1.0912509-.4994829 1.3170027l-.0036556.0016364-.0036662.0016323c-.5031032.223996-1.0926219-.0009401-1.3186392-.5031385l-2.2194471-4.9308454-2.2610781 4.9536143c-.2278559.4990467-.81522948.7213448-1.31640388.4982076l-.00857905-.0038197c-.49979915-.2225249-.72457432-.8080843-.5020494-1.3078834l.00384181-.0085204 3.16443312-6.93069731c.1790296-.39210818.5800063-.61336637.9867316-.58195178zm7.5657016 1.89948029c1.8685634 0 3.3951265 1.4642776 3.4948212 3.3079648l.0051788.1920352v2.5c0 .5522847-.4477152 1-1 1-.3399698 0-.6403155-.169651-.8209964-.4289125-.4976081.2734474-1.0701504.4289125-1.6790036.4289125-1.9329966 0-3.5-1.5670034-3.5-3.5s1.5670034-3.5 3.5-3.5zm0 2c-.8284271 0-1.5.6715729-1.5 1.5s.6715729 1.5 1.5 1.5c.8284272 0 1.5-.6715729 1.5-1.5s-.6715728-1.5-1.5-1.5z" fill="#000" fill-rule="nonzero"/></g></svg>