<svg height="32" viewBox="0 0 32 32" width="32" xmlns="http://www.w3.org/2000/svg"><path d="m16 0c8.836556 0 16 7.163444 16 16s-7.163444 16-16 16-16-7.163444-16-16 7.163444-16 16-16zm.0790314 11.11h-.1612085c-.2359047.0138648-.4678335.1109181-.6480754.2911601l-5.65685428 5.6568543c-.39052429.3905243-.39052429 1.0236892 0 1.4142135.39052428.3905243 1.02368928.3905243 1.41421358 0l4.9717474-4.9712279 4.9708933 4.9712279c.3905243.3905243 1.0236892.3905243 1.4142135 0s.3905243-1.0236892 0-1.4142135l-5.6568542-5.6568543c-.180242-.180242-.4121708-.2772953-.6480754-.2911601z" fill="#202327" fill-rule="evenodd"/></svg>