<svg height="32" viewBox="0 0 32 32" width="32" xmlns="http://www.w3.org/2000/svg"><path d="m16 0c8.836556 0 16 7.163444 16 16s-7.163444 16-16 16-16-7.163444-16-16 7.163444-16 16-16zm0 2c-7.7319865 0-14 6.2680135-14 14s6.2680135 14 14 14 14-6.2680135 14-14-6.2680135-14-14-14zm0 7.49868601c.5522847 0 1 .44771526 1 .99999999l-.000151 5.0860434 5.0261495 5.0407519c.3905243.3905243.3905243 1.0236892 0 1.4142135s-1.0236893.3905243-1.4142136 0l-5.1473188-5.1610151c-.0301163-.0301163-.0579101-.0616756-.0833814-.0944554-.2324036-.1824191-.3810847-.4659585-.3810847-.7842243v-5.501314c0-.55228473.4477153-.99999999 1-.99999999z"/></svg>