<svg height="32" viewBox="0 0 32 32" width="32" xmlns="http://www.w3.org/2000/svg"><g fill="none" fill-rule="evenodd"><path d="m0 0h32v32h-32z"/><path d="m22.7971381 2.19755844 7.0710678 7.07106781c1.5620971 1.56209715 1.5620971 4.09475705 0 5.65685425l-14.385091 14.385091c-.7499594.7499594-1.7670647 1.1713714-2.8276674 1.1715728l-9.06909584.0017226c-1.05436177.0002004-1.91832005-.8155133-1.99486575-1.8503587l-.00551394-.1492614-.00172268-9.07304c-.00020147-1.0611292.4212412-2.078855 1.17157281-2.8291866l14.3844617-14.38446176c1.5620972-1.56209717 4.0947571-1.56209717 5.6568543 0zm-3.2971381 6.80244156c-1.9329966 0-3.5 1.5670034-3.5 3.5s1.5670034 3.5 3.5 3.5 3.5-1.5670034 3.5-3.5-1.5670034-3.5-3.5-3.5zm0 2c.8284271 0 1.5.6715729 1.5 1.5s-.6715729 1.5-1.5 1.5-1.5-.6715729-1.5-1.5.6715729-1.5 1.5-1.5z" fill="#202327"/></g></svg>