<svg height="32" viewBox="0 0 32 32" width="32" xmlns="http://www.w3.org/2000/svg"><g fill="none" fill-rule="evenodd"><path d="m0 0h32v32h-32z"/><path d="m16 0c8.836556 0 16 7.163444 16 16s-7.163444 16-16 16-16-7.163444-16-16 7.163444-16 16-16zm.4786797 9.26446609c-.3905243-.39052429-1.0236893-.39052429-1.4142136 0-.3905243.3905243-.3905243 1.02368931 0 1.41421361l3.9642279 3.9647474-9.428694-.0007864c-.55228475 0-1 .4477152-1 1 0 .5522847.44771525 1 1 1l9.442694.0007864-3.9782279 3.9778932c-.3905243.3905243-.3905243 1.0236893 0 1.4142136s1.0236893.3905243 1.4142136 0l5.6568542-5.6568542c.180242-.180242.2772954-.4121708.2911601-.6480754v-.1612086c-.0138647-.2359046-.1109181-.4678334-.2911601-.6480754z" fill="#202327"/></g></svg>