<svg height="32" viewBox="0 0 32 32" width="32" xmlns="http://www.w3.org/2000/svg"><g fill="none" fill-rule="evenodd"><path d="m0 0h32v32h-32z"/><path d="m15.9997281 0c3.2102362 0 6.0778717 1.83022104 7.3397138 4.6120861.0754233.1662785.1446865.33519295.2076311.50646262.1905154.51838434-.0752749 1.09306113-.5936593 1.28357652-.5183843.19051539-1.0930611-.07527491-1.2835765-.59365926-.0459782-.1251047-.0966062-.24857285-.1517793-.37020782-.9361907-2.06393194-3.089519-3.43825816-5.5183298-3.43825816-3.2487737 0-5.8780434 2.43374663-5.9958776 5.45495477l-.00412237.2117119-.00072813 2.33333333h14.001c3.3137085 0 6 2.6862915 6 6v10c0 3.3137085-2.6862915 6-6 6h-16c-3.3137085 0-6-2.6862915-6-6v-10c0-3.3133738 2.68574884-5.9994573 5.99899587-5.9999999l.00073226-2.33333343c0-4.2453904 3.59234007-7.66666667 7.99999997-7.66666667zm8.0002719 12h-16c-2.14219539 0-3.89107888 1.6839685-3.99510469 3.8003597l-.00489531.1996403v10c0 2.1421954 1.68396847 3.8910789 3.80035966 3.9951047l.19964034.0048953h16c2.1421954 0 3.8910789-1.6839685 3.9951047-3.8003597l.0048953-.1996403v-10c0-2.1421954-1.6839685-3.8910789-3.8003597-3.9951047zm-4.4644661 5.4644661c.3905243.3905243.3905243 1.0236893 0 1.4142136l-5.6568542 5.6568542c-.3905243.3905243-1.0236893.3905243-1.4142136 0s-.3905243-1.0236893 0-1.4142136l5.6568542-5.6568542c.3905243-.3905243 1.0236893-.3905243 1.4142136 0z" fill="#000" fill-rule="nonzero"/></g></svg>