<svg height="32" viewBox="0 0 32 32" width="32" xmlns="http://www.w3.org/2000/svg"><g fill="none" fill-rule="evenodd"><path d="m0 0h32v32h-32z"/><path d="m12.2300776 17.5932233c.3905242.3905243.3905242 1.0236893 0 1.4142136l-2.56401442 2.5638932 15.44269402.0005729c.5522848 0 1 .4477152 1 1 0 .5522847-.4477152 1-1 1l-15.42869402-.0005729 2.55001442 2.5503203c.3905242.3905243.3905242 1.0236893 0 1.4142136-.3905243.3905243-1.0236893.3905243-1.4142136 0l-4.2426407-4.2426407c-.18024198-.180242-.27729535-.4121707-.29116012-.6480754v-.1612085c.01386477-.2359047.11091814-.4678334.29116012-.6480754l4.2426407-4.2426407c.3905243-.3905243 1.0236893-.3905243 1.4142136 0zm8.932233-13.11421356 4.2426407 4.24264069c.180242.18024198.2772953.41217073.2911601.64807539v.16120853c-.0138648.23590466-.1109181.46783341-.2911601.64807535l-4.2426407 4.2426407c-.3905243.3905243-1.0236893.3905243-1.4142136 0s-.3905243-1.0236892 0-1.4142135l2.5640144-2.5638933-15.41822792-.0005728c-.55228475 0-1-.44771528-1-1.00000003s.44771525-1 1-1l15.40422792.00057288-2.5500144-2.55032035c-.3905243-.39052429-.3905243-1.02368927 0-1.41421356s1.0236893-.39052429 1.4142136 0z" fill="#000" transform="matrix(0 1 -1 0 32.008757 .006117)"/></g></svg>