<svg height="32" viewBox="0 0 32 32" width="32" xmlns="http://www.w3.org/2000/svg"><g fill="none" fill-rule="evenodd"><path d="m0 0h32v32h-32z"/><path d="m16 0c8.836556 0 16 7.163444 16 16s-7.163444 16-16 16-16-7.163444-16-16 7.163444-16 16-16zm0 20.5c-.8284271 0-1.5.6715729-1.5 1.5s.6715729 1.5 1.5 1.5 1.5-.6715729 1.5-1.5-.6715729-1.5-1.5-1.5zm0-4.03c-1.7187483 0-3.304503 1.0532247-3.9796071 2.616395-.2189726.5070201.0145362 1.0955535.5215563 1.3145261.5070202.2189726 1.0955536-.0145362 1.3145262-.5215563l.0733509-.1532555c.395304-.7503571 1.2105033-1.2561093 2.0701737-1.2561093.916582 0 1.7781721.5707955 2.1405645 1.4025409.2206014.5063136.8098824.7379291 1.316196.5173277.5063136-.2206013.7379292-.8098824.5173278-1.316196-.6786144-1.5575227-2.2577305-2.6036726-3.9740883-2.6036726zm.0036952-3.74c-2.4837175 0-5.2195951 1.6587984-6.24736551 3.9194655-.2285729.5027652-.00629609 1.0956319.49646911 1.3242048.5027653.2285729 1.095632.0062961 1.3242048-.4964691.6940987-1.5267281 2.7070407-2.7472012 4.4266916-2.7472012 1.718258 0 3.7226246 1.212066 4.4206832 2.7340434.2302444.502002.8238473.722305 1.3258493.4920606.5020019-.2302444.722305-.8238474.4920606-1.3258493-1.0329854-2.2522184-3.7583064-3.9002547-6.2385931-3.9002547zm.0018476-3.73c-3.5677545 0-7.27639649 2.2129034-8.88089348 5.1178274-.26702336.4834428-.09158071 1.0918159.39186212 1.3588393.48344284.2670233 1.09181589.0915807 1.35883924-.3918622 1.25426942-2.2708409 4.29432162-4.0848045 7.13019212-4.0848045 2.8357492 0 5.8876757 1.8147628 7.1174784 4.059187.2653888.484342.8731658.6618386 1.3575078.3964498s.6618387-.8731658.3964498-1.3575078c-1.5802166-2.8839397-5.3038676-5.098129-8.871436-5.098129z" fill="#202327"/></g></svg>