<svg height="32" viewBox="0 0 32 32" width="32" xmlns="http://www.w3.org/2000/svg"><g fill="none" fill-rule="evenodd"><path d="m0 0h32v32h-32z"/><path d="m16 0c8.836556 0 16 7.163444 16 16s-7.163444 16-16 16-16-7.163444-16-16 7.163444-16 16-16zm0 21.22c-.6844555 0-1.2993138.2979808-1.7234575.7706374.5064124.4434945 1.0780922.9441856 1.7234575 1.5094519.5677139-.490293 1.0787362-.9316079 1.5387308-1.3288412l.1940803-.1676764c-.4229015-.4804312-1.0424552-.7835717-1.7328111-.7835717zm0-3.97c-1.7860986 0-3.4585731.9190173-4.4449013 2.3579459.3771224.3300155.8719001.7631295 1.5215763 1.3311037.5946428-1.0162056 1.7268443-1.6890496 2.923325-1.6890496 1.2090784 0 2.3476728.6825906 2.9380331 1.7129216.6529323-.5637906 1.1507075-.9935591 1.5307153-1.321904-.9836795-1.4588833-2.666187-2.3910176-4.4687484-2.3910176zm.00485-4.375c-2.8190321 0-5.9099161 1.6990876-7.44936317 4.1111606.84848432.7433617 1.29399897 1.1334508 1.52657877 1.3379628 1.0884236-1.954628 3.6749367-3.4491234 5.9227844-3.4491234 2.266463 0 4.8692648 1.5117094 5.9417109 3.4868414.2342943-.2037535.6814779-.5918878 1.5380537-1.3329533-1.5296201-2.4354587-4.6392289-4.1538881-7.4797646-4.1538881zm-.0005701-4.37499959c-4.1581044.00113053-8.47706671 2.35641669-10.76368036 5.58138619.56471932.4949058 1.0669136.935001 1.51211175 1.3254664 1.87654984-2.7831534 5.67773191-4.906853 9.25456361-4.906853 3.608473 0 7.4596757 2.1626252 9.2926192 4.9548265.4488183-.388747.953439-.8257719 1.5231425-1.3188285-2.2522211-3.2417341-6.6241845-5.635998-10.8190186-5.63599747z" fill="#202327"/></g></svg>