<svg height="32" viewBox="0 0 32 32" width="32" xmlns="http://www.w3.org/2000/svg"><g fill="none" fill-rule="evenodd"><path d="m0 0h32v32h-32z"/><path d="m17.6111333 2.16774355c.380374.23934099.7021155.56108252.9414565.94145652l11.4995928 18.27579283c.882388 1.4023401.4608835 3.254478-.9414565 4.136866-.4785067.3010885-1.0323526.4608387-1.5977047.4608387h-22.99918561c-1.65685425 0-3-1.3431457-3-3 0-.5653521.15975021-1.1191979.46083878-1.5977047l11.49959283-18.27579283c.8823879-1.40234001 2.7345259-1.82384446 4.1368659-.94145652zm-2.3762888 1.91146935-.067803.09512364-11.49959278 18.27579286c-.10036286.1595022-.15361293.3441175-.15361293.5325682 0 .5098013.38148519.930502.87456213.9922086l.12543787.0077914h22.99918561c.1884507 0 .373066-.05325.5325683-.1536129.4340576-.2731201.5862084-.8249608.3702332-1.2766657l-.0564144-.1022896-11.4995928-18.27579286c-.0797803-.12679134-.1870275-.23403851-.3138189-.31381884-.4340576-.27312008-.9973939-.17148197-1.3111523.2186952zm.7651555 15.4207871c.7731986 0 1.4.6268014 1.4 1.4s-.6268014 1.4-1.4 1.4-1.4-.6268014-1.4-1.4.6268014-1.4 1.4-1.4zm0-10.5c.5522847 0 1 .44771525 1 1v7c0 .5522847-.4477153 1-1 1s-1-.4477153-1-1v-7c0-.55228475.4477153-1 1-1z" fill="#000" fill-rule="nonzero"/></g></svg>