<svg height="32" viewBox="0 0 32 32" width="32" xmlns="http://www.w3.org/2000/svg"><g fill="none" fill-rule="evenodd"><path d="m0 0h32v32h-32z"/><path d="m16 4c7.7319865 0 14 6.2680135 14 14s-6.2680135 14-14 14-14-6.2680135-14-14 6.2680135-14 14-14zm0 8c-.5522847 0-1 .4477153-1 1v5c0 .3180812.1485086.6014763.3804588.783418.0256417.0330686.0536442.0648985.0840073.0952617l4.2426407 4.2426406c.3905243.3905243 1.0236893.3905243 1.4142135 0 .3905243-.3905242.3905243-1.0236892 0-1.4142135l-4.1214713-4.1222264.000151-4.5848804c0-.5522847-.4477153-1-1-1zm9.8786797-9.53553391 4.9497474 4.94974747c.3905243.39052429.3905243 1.02368927 0 1.41421356-.3905243.3905243-1.0236892.3905243-1.4142135 0l-4.9497475-4.94974746c-.3905243-.3905243-.3905243-1.02368927 0-1.41421357.3905243-.39052429 1.0236893-.39052429 1.4142136 0zm-18.34314579 0c.39052429.3905243.39052429 1.02368927 0 1.41421357l-4.94974747 4.94974746c-.39052429.3905243-1.02368927.3905243-1.41421356 0-.3905243-.39052429-.3905243-1.02368927 0-1.41421356l4.94974746-4.94974747c.3905243-.39052429 1.02368927-.39052429 1.41421357 0z" fill="#202327"/></g></svg>