<svg height="32" viewBox="0 0 32 32" width="32" xmlns="http://www.w3.org/2000/svg"><g fill="none" fill-rule="evenodd"><path d="m0 0h32v32h-32z"/><path d="m2.76396103 2.16547622.7155626.7165849c.0260324.03373606.05451491.06619098.08544753.0971236l25.45584414 25.45584408c.0309326.0309327.0633875.0594152.0971236.0854476l.5160798.5150575-1.4142135 1.4142136-4.5957624-4.5951023c-2.1141937 1.2735918-4.6482164 2.1453548-7.6240428 2.1453548-11.04076111 0-16-12-16-12s1.85821362-4.4731442 5.81247855-7.95734431l-4.46273108-4.46296591zm13.23603897 1.83452378c11.0150135 0 16 12 16 12s-1.6574849 4.0106595-5.189302 7.3947012l-5.2172934-5.2191166c.2625411-.6745042.4065954-1.4082215.4065954-2.1755846 0-3.3137085-2.6862915-6-6-6-.7678726 0-1.5020548.1442457-2.176928.4071185l-4.68700794-4.68626936c1.95470664-1.03883897 4.23796544-1.72084914 6.86393594-1.72084914zm-5.2096924 9.0215137c-.5028478.877641-.7903076 1.8944937-.7903076 2.9784863 0 3.3137085 2.6862915 6 6 6 1.0841554 0 2.1011507-.2875462 2.9788817-.7905342l-1.4942742-1.494031c-.4590315.183584-.9600268.2845652-1.4846075.2845652-2.209139 0-4-1.790861-4-4 0-.5245807.1009812-1.025576.2845652-1.4846075z" fill="#202327"/></g></svg>