<svg height="32" viewBox="0 0 32 32" width="32" xmlns="http://www.w3.org/2000/svg"><g fill="none" fill-rule="evenodd"><path d="m0 0h32v32h-32z"/><path d="m3.47106781 2.872583c.03125802.03951954.0612124.07391077.09390335.10660172l25.45180394 25.45213148c.2979246.3919399.2679702.9534911-.0898632 1.3113245-.3905243.3905243-1.0236892.3905243-1.4142135 0l-3.7752175-3.7758638c-2.2931142 1.2278416-4.9309095 2.0332231-7.7374809 2.0332231-8.836556 0-16-7.983908-16-12 0-2.2018894 2.15330503-5.5964897 5.55507022-8.21407378l-3.49821597-3.49912966c-.39052429-.39052429-.39052429-1.02368927 0-1.41421356s1.02368927-.39052429 1.41421356 0zm3.51136785 6.3397761c-.33752074.25261511-.66772878.5181634-.98968663.7959276-2.43541832 2.10112-3.99274903 4.6271328-3.99274903 5.9917133s1.55733071 3.8905933 3.99274903 5.9917133c2.89572307 2.4982409 6.45883647 4.0082867 10.00725097 4.0082867 2.1280519 0 4.2613905-.5431076 6.2528914-1.5167613l-3.2740097-3.2737729c-.877731.502988-1.8947263.7905342-2.9788817.7905342-3.3137085 0-6-2.6862915-6-6 0-1.0839926.2874598-2.1008453.7903076-2.9784863zm9.01756434-5.2123591c8.836556 0 16 7.983908 16 12 0 2.0567146-1.8787225 5.1540495-4.8987562 7.6867583l-1.420298-1.4200358c.1096708-.0902809.2184509-.1819596.3263052-.2750092 2.4354183-2.10112 3.992749-4.6271328 3.992749-5.9917133s-1.5573307-3.8905933-3.992749-5.9917133c-2.8957231-2.49824089-6.4588365-4.0082867-10.007251-4.0082867-1.8411766 0-3.6863106.40654847-5.440117 1.14674508l-1.51024746-1.51150153c2.10190236-1.00095094 4.45967206-1.63524355 6.95036446-1.63524355zm-3.7153701 10.5152308c-.183625.4590755-.2846299.9601269-.2846299 1.4847692 0 2.209139 1.790861 4 4 4 .5245807 0 1.025576-.1009812 1.4846075-.2845652z" fill="#000" fill-rule="nonzero"/></g></svg>