<svg height="32" viewBox="0 0 32 32" width="32" xmlns="http://www.w3.org/2000/svg"><g fill="none" fill-rule="evenodd"><path d="m0 0h32v32h-32z"/><path d="m16 24c.5522847 0 1 .4477153 1 1v6c0 .5522847-.4477153 1-1 1s-1-.4477153-1-1v-6c0-.5522847.4477153-1 1-1zm6.9713203-2.4428932 4.2426407 4.2426407c.3905243.3905243.3905243 1.0236892 0 1.4142135s-1.0236892.3905243-1.4142135 0l-4.2426407-4.2426407c-.3905243-.3905242-.3905243-1.0236892 0-1.4142135s1.0236893-.3905243 1.4142135 0zm-12.4273593 0c.3905243.3905243.3905243 1.0236893 0 1.4142135l-4.24264066 4.2426407c-.39052429.3905243-1.02368927.3905243-1.41421356 0s-.39052429-1.0236892 0-1.4142135l4.24264069-4.2426407c.39052429-.3905243 1.02368923-.3905243 1.41421353 0zm-3.543961-6.5571068c.55228475 0 1 .4477153 1 1s-.44771525 1-1 1h-6c-.55228475 0-1-.4477153-1-1s.44771525-1 1-1zm24 0c.5522847 0 1 .4477153 1 1s-.4477153 1-1 1h-6c-.5522847 0-1-.4477153-1-1s.4477153-1 1-1zm-24.80710678-10.22132034 4.24264068 4.24264068c.3905243.3905243.3905243 1.02368926 0 1.41421356s-1.02368926.3905243-1.41421356 0l-4.24264068-4.24264068c-.3905243-.39052429-.3905243-1.02368927 0-1.41421356.39052429-.3905243 1.02368927-.3905243 1.41421356 0zm21.03106778 0c.3905243.39052429.3905243 1.02368927 0 1.41421356l-4.2426407 4.24264068c-.3905242.3905243-1.0236892.3905243-1.4142135 0s-.3905243-1.02368926 0-1.41421356l4.2426407-4.24264068c.3905243-.3905243 1.0236892-.3905243 1.4142135 0zm-11.223961-4.77867966c.5522847 0 1 .44771525 1 1v6c0 .55228475-.4477153 1-1 1s-1-.44771525-1-1v-6c0-.55228475.4477153-1 1-1z" fill="#000"/></g></svg>