<svg height="32" viewBox="0 0 32 32" width="32" xmlns="http://www.w3.org/2000/svg"><g fill="none" fill-rule="evenodd"><path d="m0 0h32v32h-32z"/><path d="m17.0058746 2c.5522848 0 1 .44771525 1 1 0 .51283584-.3860402.93550716-.8833788.99327227l-.1166212.00672773h-10.0058746c-1.59768088 0-2.90366088 1.24891996-2.99490731 2.82372721l-.00509269.17627279v18c0 1.5976809 1.24891996 2.9036609 2.82372721 2.9949073l.17627279.0050927h18c1.5976809 0 2.9036609-1.24892 2.9949073-2.8237272l.0050927-.1762728v-9.9962769c0-.5522847.4477153-1 1-1 .5128358 0 .9355072.3860402.9932723.8833789l.0067277.1166211v9.9962769c0 2.6887547-2.1223067 4.8818181-4.7831104 4.9953805l-.2168896.0046195h-18c-2.6887547 0-4.88181811-2.1223067-4.99538049-4.7831104l-.00461951-.2168896v-18c0-2.6887547 2.12230671-4.88181811 4.78311038-4.99538049l.21688962-.00461951zm11.6814522 1.99910108c1.1715728 1.17157287 1.1715728 3.07106781 0 4.24264069l-9.6830326 9.68303263c-.5243715.5243714-1.1588178.9255367-1.8573747 1.1744323l-3.6013076 1.2831446c-.5202485.1853643-1.0922608-.0861129-1.2776251-.6063614-.0795311-.2232142-.0772135-.4674177.0065399-.6890821l1.4674833-3.8838907c.2006363-.5310108.5119964-1.0132364.9133862-1.4146261l9.7892899-9.78928992c1.1715729-1.17157288 3.0710678-1.17157288 4.2426407 0zm-2.7412063 1.3365072-.0872209.07770636-9.7892899 9.78928996c-.1605559.1605559-.2923023.3469792-.3899415.5510651l-.0667516.1562479-.7037369 1.8639532 1.5664761-.5586506c.3492785-.1244478.6718442-.3123413.9517373-.553589l.1626875-.1510704 9.6830326-9.6830326c.3905243-.39052429.3905243-1.02368927 0-1.41421356-.3626297-.3626297-.9344751-.38853182-1.3269927-.07770636z" fill="#000" fill-rule="nonzero"/></g></svg>