<svg height="32" viewBox="0 0 32 32" width="32" xmlns="http://www.w3.org/2000/svg"><g fill="none" fill-rule="evenodd"><path d="m0 0h32v32h-32z"/><path d="m4 0h24c2.209139 0 4 1.790861 4 4v3.2213516c0 1.13231688-.4799086 2.21158275-1.320667 2.9700462l-8.3259857 7.511024c-.2100147.1894581-.3299753.4589917-.3301666.7418353l-.0072925 10.783007c-.000747 1.1045693-.8967828 1.999394-2.0013521 1.998647-.2144786-.0001451-.4275377-.0347886-.6310133-.1026031l-8.0062199-2.6683197c-.8155406-.2718041-1.3661668-1.034349-1.3676312-1.8939896l-.01382652-8.1168035c-.00048175-.2828075-.12068896-.5521873-.33085226-.7414272l-8.34157806-7.5111093c-.84241713-.75854802-1.32341486-1.83891729-1.32341486-2.97252288v-3.21913582c0-2.209139 1.790861-4 4-4z" fill="#202327"/></g></svg>