<svg height="32" viewBox="0 0 32 32" width="32" xmlns="http://www.w3.org/2000/svg"><g fill="none" fill-rule="evenodd"><path d="m0 0h32v32h-32z"/><path d="m24.5017258 3.59832657c4.5723093 2.4016738 7.4982742 7.14261893 7.4982742 12.40167343 0 5.2644771-2.9320223 10.0095121-7.5116973 12.4087148-.489217.2562913-1.0935708.0674677-1.3498621-.4217493-.2562912-.4892169-.0674676-1.0935707.4217493-1.349862 3.9269919-2.0572748 6.4398101-6.1238911 6.4398101-10.6371035 0-4.5085687-2.5076208-8.57167026-6.4283097-10.63107074-.4889385-.25682221-.6771058-.86138067-.4202836-1.35031911.2568222-.48893843.8613807-.6771058 1.3503191-.42028358zm-4.8849106 1.1546799c.2490268.3420102.3831848.75417963.3831848 1.17724615v20.14360518c0 1.1045695-.8954305 2-2 2-.4224882 0-.8341246-.1337919-1.1758776-.3821892l-7.30495508-5.3094794c-.34175302-.2483972-.7533894-.3821892-1.17587763-.3821892h-5.34328969c-1.65685425 0-3-1.3431458-3-3v-6c0-1.6568542 1.34314575-3 3-3h5.3619145c.42306653 0 .83523595-.13415805 1.17724616-.38318477l7.28359314-5.30337784c.8929424-.65017509 2.1438863-.45337331 2.7940614.43956908zm4.3597753 4.51780927c1.9091867 1.69675786 3.0234095 4.12417636 3.0234095 6.72918426 0 2.6367351-1.1416674 5.090778-3.0912778 6.7888969-.4164603.3627386-1.0481258.3191886-1.4108644-.0972716-.3627386-.4164603-.3191886-1.0481258.0972716-1.4108644 1.5180176-1.3221997 2.4048706-3.2285126 2.4048706-5.2807609 0-2.027591-.865495-3.9131371-2.3520073-5.2342502-.4128146-.3668821-.4500502-.99895128-.0831681-1.41176593.3668822-.41281464.9989513-.45005028 1.4117659-.08316813z" fill="#202327"/></g></svg>