<svg height="32" viewBox="0 0 32 32" width="32" xmlns="http://www.w3.org/2000/svg"><g fill="none" fill-rule="evenodd"><path d="m0 0h32v32h-32z"/><path d="m0 20v-6c0-3.3137085 2.6862915-6 6-6v-2c0-3.3137085 2.6862915-6 6-6h8c3.3137085 0 6 2.6862915 6 6v2c3.3137085 0 6 2.6862915 6 6v6c0 3.2383969-2.5655749 5.8775718-5.7750617 5.9958615l-.2249383.0041385c0 3.3137085-2.6862915 6-6 6h-8c-3.3137085 0-6-2.6862915-6-6-3.3137085 0-6-2.6862915-6-6zm22-2h-12c-1.0543618 0-1.91816512.8158778-1.99451426 1.8507377l-.00548574.1492623v6c0 2.1421954 1.68396847 3.8910789 3.8003597 3.9951047l.1996403.0048953h8c2.1421954 0 3.8910789-1.6839685 3.9951047-3.8003597l.0048953-.1996403v-6c0-1.0543618-.8158778-1.9181651-1.8507377-1.9945143zm-15.93990533 1.3065039.00927465-.0521226c.00562754-.029849.01158668-.0595809.01787344-.0891918.00745358-.0342369.01521018-.0685451.02340225-.1026785.00592558-.025403.01219202-.0504099.01869261-.0753221.01033392-.0390148.02114693-.0780348.03252888-.1168046.00692173-.0240266.01423174-.0480594.02176071-.0719951.01016604-.0319678.02055763-.0636267.03132932-.0951047.01229441-.0361651.02523274-.0722285.03867005-.108048.00875097-.0231925.01761091-.0461739.02667504-.0690499.01471404-.0371977.0300626-.0742549.04594709-.1110265.00894133-.0207145.0180588-.041351.02734422-.0618935.01709059-.0377425.03475157-.0752159.05297168-.1123653.01127888-.023118.02282652-.0461087.03458732-.0689695.01378107-.0266342.02776589-.0530676.04203616-.0793233.04805222-.0886368.09963463-.1755243.15431892-.2601899.00949658-.0144914.01915978-.0292385.02891734-.0439175.02225562-.0336891.04488863-.0666493.06799606-.0992449.01723334-.0241079.03479211-.0483025.05261316-.0722906.05746915-.0775483.11782745-.152932.18077333-.2259987.02113677-.024414.04278756-.0489469.06473173-.0732094.01891566-.0210103.03790875-.0415639.05711218-.0619148.01692987-.0178673.03397542-.0356097.05118187-.053194.06853254-.0700681.13970203-.1376414.21326466-.2025399.02149394-.0190099.04304779-.0376296.06480067-.0560212.0745459-.0629342.15158664-.123372.23080825-.1809643.08412986-.0613558.17099822-.1195151.26017841-.1742751.019963-.0120246.04005896-.0241186.06026787-.0360395.13874739-.0821192.28300769-.1559204.4319937-.2209107.08153767-.0352968.1644671-.0682228.24868276-.0984016.04531187-.0164879.09123058-.0320009.1375142-.0466946.01557084-.004716.03161514-.0097028.04770159-.0145908.0342613-.0106211.06808725-.0203988.10209436-.0297388.02848599-.0076271.05707516-.0151438.08578495-.0223498.14225624-.0358775.28810063-.0640309.43652711-.0840436.06577584-.0088159.13255233-.01615.19978672-.0218174.11185058-.009449.22524433-.0142614.33976207-.0142614h12l.05.001.023455.0003494.022545.0006506.1036403.0028953c.0194719.0009571.0389072.0020534.0583049.003288l.0384718.0027234.0585312.0046264c.028386.002496.0566868.0052884.0848995.0083742l-.1434307-.0130006c.082543.0060898.1643599.014666.2453785.0256524.0162905.002028.0328092.0043693.0492952.0068112l.1024054.0167244c.0090622.0015843.0181136.003199.0271541.0048439.0382591.0067667.0763086.0142678.1141603.0223042.0342369.0074535.0685451.0152101.1026785.0234022.025403.0059256.0504099.012192.0753221.0186926.0379962.0100684.07601.0205863.1137865.0316442.0250697.0072061.050094.0148071.0750132.0226454.0319678.0101661.0636267.0205576.0951047.0313293.0361651.0122944.0722285.0252328.108048.0386701.0231925.0087509.0461739.0176109.0690499.026675.0371977.0147141.0742549.0300626.1110265.0459471.0186725.0080599.0372841.016264.0558196.0246049.0398759.0179747.079337.0365332.1184392.055711.023118.0112789.0461087.0228265.0689695.0345873.0225595.0116838.0449672.0234893.067248.0355.0384288.0206151.0766451.0420265.1144627.0640386.0089158.0053055.0175894.0104005.0262421.0155271.0443028.0261197.0882227.0532982.1315604.0812894.0117724.0077405.0238229.0156159.0358282.0235542.0364893.0239915.0721244.0483986.1073342.0733592.0241079.0172334.0483025.0347921.0722906.0526132.0775483.0574691.152932.1178274.2259987.1807733.0144567.0125632.0292024.0254485.043852.0384397.0312661.0276418.0614862.0552977.0912722.0834042.0158157.0149947.0315401.0300698.0471408.0452712.0327418.0318589.0648879.0642819.0964724.097242.0578599.060361.1139895.1226848.1681419.186734.0629342.0745459.123372.1515867.1809643.2308083.0613558.0841298.1195151.1709982.1742751.2601784.0120246.019963.0241186.0400589.0360395.0602678.0104714.0173354.0206485.0348848.0306953.052518.0124268.0222558.024888.0446292.0371392.0671321l-.0371392-.0671321c.0610862.1072122.1173579.2175237.1685208.33064.0194317.0435636.0384369.0876788.0566619.13219.0603673.1468171.1119464.2978514.1544585.4526387.0049674.0188092.0099976.0376513.014893.0565466l-.014893-.0565466c.016324.059436.0313111.1194253.0449269.1799337.0352273.1571302.0613355.3174841.0776203.4806349.0085281.0861133.0141094.1684009.017166.2513334l.002759.1499588v4l.1996403-.0048953c2.050254-.100775 3.6946894-1.7452104 3.7954644-3.7954644l.0048953-.1996403v-6c0-2.1421954-1.6839685-3.8910789-3.8003597-3.9951047l-.1996403-.0048953h-20c-2.14219539 0-3.89107888 1.6839685-3.99510469 3.8003597l-.00489531.1996403v6c0 2.1421954 1.68396847 3.8910789 3.80035966 3.9951047l.19964034.0048953v-4c0-.0866529.00275538-.1726622.00818331-.2579452l.00272339-.0384718.00462642-.0585312c.00287959-.0327492.00615385-.0653852.00981798-.0979031l-.0144444.1564343c.0060898-.082543.01466595-.1643599.02565241-.2453785.00202803-.0162905.0043693-.0328092.00681116-.0492952zm13.93990533-17.3065039h-8c-2.14219539 0-3.89107888 1.68396847-3.99510469 3.80035966l-.00489531.19964034v2h16v-2c0-2.14219539-1.6839685-3.89107888-3.8003597-3.99510469z" fill="#000" fill-rule="nonzero"/></g></svg>