<svg height="32" viewBox="0 0 32 32" width="32" xmlns="http://www.w3.org/2000/svg"><g fill="none" fill-rule="evenodd"><path d="m0 0h32v32h-32z"/><path d="m24 2c4.418278 0 8 3.581722 8 8v12c0 4.418278-3.581722 8-8 8h-16c-4.418278 0-8-3.581722-8-8v-12c0-4.418278 3.581722-8 8-8zm3.9664169 10.0170472c-.3931622-.3878686-1.0263128-.383604-1.4141979.0095418l-8.064877 8.174411-7.3096788-7.3096867-.1065935-.0974039c-.6578416-.5483979-1.63218518-.4507514-2.24541524.1624787l-5.15541928 5.1554192-.07770636.0872208c-.31082546.3925177-.28492334.9643631.07770636 1.3269928l.08722082.0777064c.39251765.3108254.96436305.2849233 1.32699275-.0777064l4.95025505-4.950354 9.8989874 9.9001015.0872208.0777063c.3925176.3108255.964363.2849234 1.3269927-.0777063.3905243-.3905243.3905243-1.0236893 0-1.4142136l-1.4465627-1.4465548 8.0745839-8.1837549.0771171-.0877422c.3081746-.3946023.2784215-.9662603-.0866261-1.3264557zm-9.3664169-5.0170472c-2.209139 0-4 1.790861-4 4s1.790861 4 4 4 4-1.790861 4-4-1.790861-4-4-4zm0 2c1.1045695 0 2 .8954305 2 2s-.8954305 2-2 2-2-.8954305-2-2 .8954305-2 2-2z" fill="#202327"/></g></svg>