<svg height="32" viewBox="0 0 32 32" width="32" xmlns="http://www.w3.org/2000/svg"><g fill="none" fill-rule="evenodd"><path d="m0 0h32v32h-32z"/><path d="m24 2c3.3137085 0 6 2.6862915 6 6v16c0 3.3137085-2.6862915 6-6 6h-16c-3.3137085 0-6-2.6862915-6-6v-16c0-3.3137085 2.6862915-6 6-6zm-3 8h-7c-.5522847 0-1 .4477153-1 1s.4477153 1 1 1h4.585039l-8.65610681 8.6568542c-.39052429.3905243-.39052429 1.0236893 0 1.4142136.39052431.3905243 1.02368931.3905243 1.41421361 0l8.6558932-8.6570678.000961 4.586c0 .5522847.4477153 1 1 1s1-.4477153 1-1v-7c0-.5522847-.4477153-1-1-1z" fill="#202327"/></g></svg>