<svg height="32" viewBox="0 0 32 32" width="32" xmlns="http://www.w3.org/2000/svg"><g fill="none" fill-rule="evenodd"><path d="m0 0h32v32h-32z"/><path d="m30 0v32h-28v-32zm-6 20h-16v2h16zm-11.9434039-11.67369407-4.07457029 8.68790147h2.32535829l2.5546417-5.5449015 2.4892131 5.5306941h2.6487611l-4.2944271-8.66590711-.7855471.01021304zm8.4434039 1.67369407c-1.9329966 0-3.5 1.5670034-3.5 3.5s1.5670034 3.5 3.5 3.5c.5368117 0 1.0453971-.1208514 1.5000333-.3368314l-.0000333.3368314h2v-3.5l-.0051789-.1920352c-.0996947-1.8436872-1.6262577-3.3079648-3.4948211-3.3079648zm0 2c.8284271 0 1.5.6715729 1.5 1.5s-.6715729 1.5-1.5 1.5-1.5-.6715729-1.5-1.5.6715729-1.5 1.5-1.5z" fill="#202327"/></g></svg>