<svg height="32" viewBox="0 0 32 32" width="32" xmlns="http://www.w3.org/2000/svg"><g fill="none" fill-rule="evenodd"><path d="m0 0h32v32h-32z"/><path d="m16 23.3333333c.7054971 0 1.3378647.3131046 1.7657251.8079361-.5364679.4639137-1.1239266.9712419-1.7657251 1.5255163-.6383398-.5591127-1.2226122-1.0708429-1.7573994-1.5392067.4304214-.4865055 1.0579721-.7942457 1.7573994-.7942457zm0-5.6666666c2.3048894 0 4.4576506 1.2009433 5.704885 3.0752846-.4130934.3552245-.9166883.7900247-1.5310671 1.3205162-.8551473-1.4455488-2.4631903-2.3958008-4.1738179-2.3958008-1.6939811 0-3.2935514.9375716-4.153541 2.3633155-.6104727-.535199-1.1109102-.9732794-1.5210712-1.3322518 1.2518588-1.8474905 3.3914515-3.0310637 5.6746122-3.0310637zm.0064666-5.8333334c3.6910267 0 7.7501479 2.2543887 9.7175152 5.4253088-.7374102.6387525-1.2199186 1.0573621-1.5362933 1.3321302-1.5123244-2.7101472-5.0642122-4.757439-8.1812219-4.757439-3.0920156 0-6.62217548 2.0244039-8.15333066 4.7080787-.3127146-.2753249-.79333049-.6962176-1.52619224-1.3382492 1.98147431-3.140502 6.0163913-5.3698295 9.6795229-5.3698295zm.0032333-5.8333333c5.4911176 0 11.2324815 3.15266123 14.167125 7.4001118-.5539993.4804544-1.0599156.9185988-1.5234281 1.3200576-2.5144049-3.7988077-7.7353145-6.7201694-12.6436969-6.7201694-4.8664206 0-10.02085911 2.8700013-12.59269965 6.655398-.45802592-.4033711-.96136471-.8444698-1.51080184-1.3259792 2.98225947-4.22806264 8.65545979-7.3294188 14.10350149-7.3294188z" fill="#000"/></g></svg>