<svg height="32" viewBox="0 0 32 32" width="32" xmlns="http://www.w3.org/2000/svg"><g fill="none" fill-rule="evenodd"><path d="m0 0h32v32h-32z"/><path d="m12 0c5.4151823 0 9.9925965 3.58691186 11.4859504 8.51444349 4.9271377 1.49296001 8.5140496 6.07037421 8.5140496 11.48555651 0 6.627417-5.372583 12-12 12-5.4151823 0-9.9925965-3.5869119-11.4859504-8.5144435-4.92713774-1.49296-8.5140496-6.0703742-8.5140496-11.4855565 0-6.627417 5.372583-12 12-12zm11.9402563 10.8062169.0258149.2845646c.0224842.30013.0339288.6033377.0339288.9092185 0 6.627417-5.372583 12-12 12-.402726 0-.8008184-.0198387-1.1933532-.0585922 1.5288963 3.5625361 5.0696322 6.0585922 9.1933532 6.0585922 5.5228475 0 10-4.4771525 10-10 0-4.123721-2.4960561-7.6644569-6.0597437-9.1937831zm-3.9402563-.8062169c-5.5228475 0-10 4.4771525-10 10 0 .6258035.0574846 1.2381808.1674616 1.8321394.5943576.110376 1.2067349.1678606 1.8325384.1678606 5.5228475 0 10-4.4771525 10-10 0-.6258035-.0574846-1.2381808-.1674616-1.8321394-.5943576-.110376-1.2067349-.1678606-1.8325384-.1678606zm-8-8c-5.5228475 0-10 4.4771525-10 10 0 4.123721 2.49605607 7.6644569 6.05974369 9.1937831-.03990496-.3929647-.05974369-.7910571-.05974369-1.1937831 0-6.627417 5.372583-12 12-12 .402726 0 .8008184.01983873 1.1933532.05859222-1.5288963-3.56253615-5.0696322-6.05859222-9.1933532-6.05859222z" fill="#000" fill-rule="nonzero"/></g></svg>