<svg height="32" viewBox="0 0 32 32" width="32" xmlns="http://www.w3.org/2000/svg"><g fill="none" fill-rule="evenodd"><path d="m0 0h32v32h-32z"/><path d="m16.3898122 5c.5522847 0 1 .44771525 1 1 0 .51283584-.3860402.93550716-.8833789.99327227l-.1166211.00672773h-9.85135066c-1.34587545 0-2.44711619 1.04740572-2.53306205 2.37155699l-.00539949.16690455v15.92307696c0 1.3458754 1.04740572 2.4471162 2.37155699 2.533062l.16690455.0053995h15.92307696c1.3458754 0 2.4471162-1.0474057 2.533062-2.371557l.0053995-.1669045v-9.8428603c0-.5522848.4477153-1 1-1 .5128358 0 .9355072.3860402.9932723.8833788l.0067277.1166212v9.8428603c0 2.4349081-1.9174864 4.4219633-4.3248153 4.5335216l-.2136462.0049399h-15.92307696c-2.43490815 0-4.42196336-1.9174864-4.53352169-4.3248153l-.00493985-.2136462v-15.92307696c0-2.43490815 1.9174864-4.42196336 4.32481527-4.53352169l.21364627-.00493985zm9.6101878-4c.5522847 0 1 .44771525 1 1v3h3c.5522847 0 1 .44771525 1 1s-.4477153 1-1 1h-3v3c0 .5522847-.4477153 1-1 1s-1-.4477153-1-1v-3h-3c-.5522847 0-1-.44771525-1-1s.4477153-1 1-1h3v-3c0-.55228475.4477153-1 1-1z" fill="#000" fill-rule="nonzero"/></g></svg>