<svg height="32" viewBox="0 0 32 32" width="32" xmlns="http://www.w3.org/2000/svg"><g fill="none" fill-rule="evenodd"><path d="m0 0h32v32h-32z"/><path d="m4.51549848 11h.45794003c1.80491838 0 3.38624365-1.20874862 3.85984333-2.95042415l2.18885576-8.04957585h2.4644223c2.7868092 0 5.0459644 2.25915522 5.0459644 5.04596441 0 .15157581-.0068297.30307464-.0204685.45403559l-.4575151 5.064008c-.0198778.2200178.1423677.4144916.3623855.4343694.0119669.0010812.0239764.0016226.035992.0016226h6.054657c3.2603999 0 5.9034763 2.6430763 5.9034763 5.9034763 0 .1868834-.0088741.3736615-.0265924.5597032l-.5223725 5.4849114c-.4887959 5.1323568-4.7993745 9.0519091-9.9549547 9.0519091h-12.9071319c-3.3137085 0-6-2.6862915-6-6v-11.4845015c0-1.9415562 1.57394228-3.5154985 3.51549848-3.5154985z" fill="#202327"/></g></svg>