<svg height="32" viewBox="0 0 32 32" width="32" xmlns="http://www.w3.org/2000/svg"><g fill="none" fill-rule="evenodd"><path d="m0 0h32v32h-32z"/><path d="m16 0c8.836556 0 16 7.163444 16 16s-7.163444 16-16 16-16-7.163444-16-16 7.163444-16 16-16zm0 2c-7.7319865 0-14 6.2680135-14 14s6.2680135 14 14 14 14-6.2680135 14-14-6.2680135-14-14-14zm0 8c.5522847 0 1 .4477153 1 1v4h4c.5522847 0 1 .4477153 1 1s-.4477153 1-1 1h-4v4c0 .5522847-.4477153 1-1 1s-1-.4477153-1-1v-4h-4c-.5522847 0-1-.4477153-1-1s.4477153-1 1-1h4v-4c0-.5522847.4477153-1 1-1z" fill="#202327" fill-rule="nonzero"/></g></svg>