<svg height="32" viewBox="0 0 32 32" width="32" xmlns="http://www.w3.org/2000/svg"><g fill="none" fill-rule="evenodd"><path d="m0 0h32v32h-32z"/><path d="m19.120106 0c1.8257724 0 3.5522076.83131873 4.6906771 2.25867017l4.8798939 6.11814718c.847677 1.06277155 1.309323 2.38190365 1.309323 3.74132985v13.8818528c0 3.3137085-2.6862915 6-6 6h-16c-3.3137085 0-6-2.6862915-6-6v-20c0-3.3137085 2.6862915-6 6-6zm0 2h-11.120106c-2.14219539 0-3.89107888 1.68396847-3.99510469 3.80035966l-.00489531.19964034v20c0 2.1421954 1.68396847 3.8910789 3.80035966 3.9951047l.19964034.0048953h16c2.1421954 0 3.8910789-1.6839685 3.9951047-3.8003597l.0048953-.1996403v-13.8818528c0-.8238947-.2543504-1.6255887-.7251774-2.29685957l-.1477046-.19736034-4.8798939-6.11814718c-.7115434-.89209465-1.767598-1.43495138-2.8997521-1.49932373zm3.0349301 9.3431507c1.9012301 1.9012301 1.9512627 4.9526575.1500911 6.9144306l-.1500911.1566372-2.8675702 2.8735965-.0627792.0706888-2.3122913 2.2983554c-1.9526214 1.9526214-5.1184529 1.9526148-7.07106778 0-1.95262804-1.9526281-1.95262146-5.1184464.00305149-7.0741193l.69753509-.6927859.6318556-.6314771.0870101-.0779423.8729293-.8734295c1.1715729-1.1715729 3.0710678-1.1715729 4.2426407 0 1.129731 1.129731 1.1700785 2.9363181.1210426 4.1143959l-.1210426.1282448-2.2615342 2.2615341c-.3905242.3905243-1.0236892.3905243-1.4142135 0-.3626297-.3626297-.3885318-.9344751-.0777064-1.3269927l.0777064-.0872208 2.2615341-2.2615342c.3905243-.3905243.3905243-1.0236892 0-1.4142135-.3626297-.3626297-.9344751-.3885319-1.3269927-.0777064l-.0872208.0777064-2.2879008 2.2879007-.0837779.0732805-.0417521.0457432c-1.0490359 1.1780778-1.0086884 2.9846649.1210492 4.1144025 1.1297244 1.1297244 2.9363115 1.1700719 4.1163095.1191216l.1284695-.1212599 1.7153229-1.7064682 3.5251795-3.5340342c1.1715728-1.1715729 1.1715662-3.0710744 0-4.2426407-1.0637631-1.0637631-2.7475493-1.171514-3.9329591-.2705219-.4396938.3341972-1.0670564.2486753-1.4012537-.1910185-.3341972-.4396938-.2486753-1.0670564.1910185-1.4012537 1.979088-1.50424155 4.7840867-1.32474055 6.5574078.4485806z" fill="#000" fill-rule="nonzero"/></g></svg>