<svg height="32" viewBox="0 0 32 32" width="32" xmlns="http://www.w3.org/2000/svg"><g fill="none" fill-rule="evenodd"><path d="m0 0h32v32h-32z"/><path d="m22.0092457 0 7.9907543 10.0183757v21.9816243h-28v-32zm-.9632457 2h-17.046v28h24v-19.282zm1.1090361 9.3431507c1.9012301 1.9012301 1.9512627 4.9526575.1500911 6.9144306l-.1500911.1566372-2.9340382 2.9400645.0036888.0042208-2.3122913 2.2983554c-1.9526214 1.9526214-5.1184529 1.9526148-7.07106778 0-1.95262804-1.9526281-1.95262146-5.1184464.00305149-7.0741193l.69753509-.6927859.6318556-.6314771.0045956.0033741.9553438-.9547459c1.1715729-1.1715729 3.0710678-1.1715729 4.2426407 0 1.129731 1.129731 1.1700785 2.9363181.1210426 4.1143959l-.1210426.1282448-2.2615342 2.2615341-1.4142135-1.4142135 2.2615341-2.2615342c.3905243-.3905243.3905243-1.0236892 0-1.4142135-.3626297-.3626297-.9344751-.3885319-1.3269927-.0777064l-.0872208.0777064-2.2879008 2.2879007-.0067033-.0080368-.1188267.1270605c-1.0490359 1.1780778-1.0086884 2.9846649.1210492 4.1144025 1.1297244 1.1297244 2.9363115 1.1700719 4.1163095.1191216l.1284695-.1212599 1.5610145-1.5509575 3.6794879-3.6895449c1.1715728-1.1715729 1.1715662-3.0710744 0-4.2426407-1.0212129-1.0212128-2.6138384-1.1613643-3.7883893-.3738024l-.1445698.1032805-1.2102352-1.5922722c1.979088-1.50424155 4.7840867-1.32474055 6.5574078.4485806z" fill="#000" fill-rule="nonzero"/></g></svg>