<svg height="32" viewBox="0 0 32 32" width="32" xmlns="http://www.w3.org/2000/svg"><g fill="none" fill-rule="evenodd"><path d="m0 0h32v32h-32z"/><path d="m16 0c.5522847 0 1 .44771525 1 1v2l-.0025778.03638753c6.4023217.46862162 11.6564815 5.41281031 12.4323204 11.87813457l.7644728 6.3706066c.3948126 3.2901044-1.9522852 6.2773198-5.2423897 6.6721323-.2372269.0284673-.4759424.042739-.7148713.042739l-3.3372135.0011864c-.4637287 2.2816492-2.4812022 3.9988136-4.8997409 3.9988136s-4.4360122-1.7171644-4.8997409-3.9988136l-3.33721351-.0011864c-3.3137085 0-6-2.6862915-6-6 0-.2389289.01427174-.4776444.04273897-.7148713l.76447279-6.3706066c.77579844-6.46498705 6.02945071-11.4089972 12.43131865-11.87806121-.0013436-.01134949-.001576-.02387805-.001576-.03646089v-2c0-.55228475.4477153-1 1-1z" fill="#202327"/></g></svg>