<svg height="32" viewBox="0 0 32 32" width="32" xmlns="http://www.w3.org/2000/svg"><path d="m16 0c8.836556 0 16 7.163444 16 16s-7.163444 16-16 16-16-7.163444-16-16 7.163444-16 16-16zm-4.9728932 13.4028932c-.3905243-.3905243-1.0236893-.3905243-1.41421358 0-.39052429.3905243-.39052429 1.0236893 0 1.4142136l5.65685428 5.6568542c.1802419.180242.4121707.2772954.6480754.2911602h.1612085c.2359046-.0138648.4678334-.1109182.6480754-.2911602l5.6568542-5.6568542c.3905243-.3905243.3905243-1.0236893 0-1.4142136s-1.0236892-.3905243-1.4142135 0l-4.9717475 4.971228z" fill="#202327" fill-rule="evenodd"/></svg>