<svg height="32" viewBox="0 0 32 32" width="32" xmlns="http://www.w3.org/2000/svg"><g fill="none" fill-rule="evenodd"><path d="m0 0h32v32h-32z"/><path d="m16 0c.5522847 0 1 .44771525 1 1v2l-.0025778.03638753c6.4023217.46862162 11.6564815 5.41281031 12.4323204 11.87813457l.7644728 6.3706066c.3948126 3.2901044-1.9522852 6.2773198-5.2423897 6.6721323-.1581512.0189782-.3169641.0316472-.4760608.0379846l-.2388105.0047544-3.3372135.0011864c-.4637287 2.2816492-2.4812022 3.9988136-4.8997409 3.9988136s-4.4360122-1.7171644-4.8997409-3.9988136l-3.33721351-.0011864c-3.3137085 0-6-2.6862915-6-6 0-.2389289.01427174-.4776444.04273897-.7148713l.76447279-6.3706066c.77579844-6.46498705 6.02945071-11.4089972 12.43131865-11.87806121-.0013436-.01134949-.001576-.02387805-.001576-.03646089v-2c0-.55228475.4477153-1 1-1zm2.8297121 28.0009666-5.6593686.0001574c.415095 1.1759522 1.5383717 1.998876 2.8296565 1.998876 1.2913424 0 2.4146618-.8229973 2.8297121-1.9990334zm-2.8297121-23.0009666c-5.7356297 0-10.58198255 4.21331369-11.405022 9.8595046l-.03896697.2933079-.76447279 6.3706066c-.01897816.1581513-.02849265.317295-.02849265.4765809l.003.128.00221494.0780394c.10387883 2.0472756 1.74704513 3.6883952 3.79579303 3.7890654l.19899203.0048952h16.47390881c.1592859 0 .3184296-.0095145.4765809-.0284926 2.1269362-.2552324 3.6627253-2.1355768 3.5138522-4.2492868l-.0189257-.1988015-.7644728-6.3706066c-.6951552-5.79295966-5.6094691-10.1528125-11.443989-10.1528125z" fill="#000" fill-rule="nonzero"/></g></svg>