<svg height="32" viewBox="0 0 32 32" width="32" xmlns="http://www.w3.org/2000/svg"><g fill="none" fill-rule="evenodd"><path d="m0 0h32v32h-32z"/><path d="m16 0c6.0751322 0 11 4.92486775 11 11 0 .2561334-.0087542.5102221-.0259797.7619834 3.0245045 1.9597349 5.0259797 5.3651409 5.0259797 9.2380166 0 6.0751322-4.9248678 11-11 11-1.8003048 0-3.4995964-.4324891-4.9996452-1.1992378-1.5000062.7665572-3.1996515 1.1992378-5.0003548 1.1992378-6.07513225 0-11-4.9248678-11-11 0-3.8728757 2.00147518-7.2782817 5.0265023-9.238295-.01774812-.2514829-.0265023-.5055716-.0265023-.761705 0-6.07513225 4.92486775-11 11-11zm10.5973638 13.9518923-.0276941.1050258c-.7428149 2.5729367-2.399666 4.7581894-4.596172 6.1813769.0177481.2514829.0265023.5055716.0265023.761705 0 3.4167983-1.5578362 6.4697444-4.0019836 8.4873136.9384797.3318946 1.9491186.5126864 3.0019836.5126864 4.9705627 0 9-4.0294373 9-9 0-2.8548873-1.3292639-5.3993084-3.4026362-7.0481077zm-21.19641636.0013319-.02998836.0239747c-2.05522447 1.6494642-3.37095908 4.1824795-3.37095908 7.0228011 0 4.9705627 4.02943725 9 9 9 1.052865 0 2.0635039-.1807918 3.0025655-.5130243-2.4447293-2.0172313-4.0025655-5.0701774-4.0025655-8.4869757 0-.2561334.0087542-.5102221.0259797-.7619834-2.22543185-1.4419897-3.89716414-3.666894-4.62503226-6.2847924zm14.59563666 7.2971674-.1583277.0614206c-1.1950008.4449845-2.488227.6881878-3.8382564.6881878-1.4100138 0-2.7580646-.2652955-3.9969596-.7486938l-.0030404-.2513062c0 3.1203231 1.5879338 5.8697643 3.9997843 7.4843066 2.3480008-1.5719623 3.9144075-4.2176607 3.9967998-7.233915zm-3.9953741-7.7340325-.0331956.0206996c-1.9067307 1.2881619-3.2932889 3.2878101-3.7787416 5.6180117 1.1570659.5423104 2.4485563.8449296 3.8107272.8449296s2.6536613-.3026192 3.8109089-.8442953c-.4882424-2.3433545-1.8871166-4.35196-3.8096989-5.6393456zm-5.00121-1.5163591c-1.36217089 0-2.65366127.3026192-3.81090892.8442953.43624807 2.0937785 1.59940232 3.9202043 3.21354512 5.2038124.6096942-2.200272 1.8870104-4.1219393 3.5993474-5.5354213-.9384797-.3318946-1.9491186-.5126864-3.0019836-.5126864zm10 0c-1.052865 0-2.0635039.1807918-3.0025655.5130243 1.7129189 1.4131441 2.9902351 3.3348114 3.6016181 5.5337515 1.612454-1.2822762 2.7756082-3.108702 3.2116746-5.2018462-1.1570659-.5423104-2.4485563-.8449296-3.8107272-.8449296zm-5-10c-4.886808 0-8.86393945 3.89478799-8.99658257 8.7495521 1.23851801-.4842566 2.58656875-.7495521 3.99658257-.7495521 1.8007033 0 3.5003486.4326806 5.0006412 1.199747 1.4997624-.7672579 3.199054-1.199747 4.9993588-1.199747 1.4100138 0 2.7580646.2652955 3.9969596.7486938l.0030404.2513062c0-4.97056275-4.0294373-9-9-9z" fill="#000" fill-rule="nonzero"/></g></svg>