<svg height="32" viewBox="0 0 32 32" width="32" xmlns="http://www.w3.org/2000/svg"><g fill="none" fill-rule="evenodd"><path d="m0 0h32v32h-32z"/><path d="m2.76396103 2.16547622.71481235.71561139c.02623514.0340853.05496773.06686706.08619778.09809711l25.45584414 25.45584408c.0309326.0309327.0633875.0594152.0971236.0854476l.5160798.5150575-1.4142135 1.4142136-4.5954117-4.5953135c-2.1142642 1.2737066-4.6484025 2.145566-7.6243935 2.145566-11.04076111 0-16-12-16-12l.20597836-.4534962c.58226456-1.2228336 2.40889918-4.6860118 5.60559121-7.50304713l-4.4618221-4.46376689zm4.46282951 7.29191021c-.64184921.55977397-1.25895974 1.18107217-1.85180056 1.85908927-1.05260055 1.2038327-1.94868398 2.5010175-2.68522749 3.7968323-.10258904.1804868-.19889524.3554408-.28892371.5240975l-.18983878.3645945.05882917.1151222c.08340368.1620928.17307493.3308648.26902115.5055516l.14862647.2663707c.73394455 1.2953171 1.6277449 2.5920162 2.6786584 3.7953959 2.92580077 3.3502752 6.45027301 5.3155596 10.63386481 5.3155596 2.2412953 0 4.2934156-.5640596 6.1656556-1.6029515l-3.1867739-3.1875827c-.877731.502988-1.8947263.7905342-2.9788817.7905342-3.3137085 0-6-2.6862915-6-6 0-1.0839926.2874598-2.1008453.7903076-2.9784863zm8.77320946-5.45738643c11.0150135 0 16 12 16 12l-.1998001.4424215c-.5365634 1.1337265-2.1630578 4.2445467-4.9907298 6.9534561l-1.4133259-1.4126567c.4239379-.4058786.8364594-.8393044 1.2377206-1.2987805 1.0509135-1.2033797 1.9447139-2.5000788 2.6786584-3.7953959.1533346-.2706157.2925421-.5287831.4176476-.7719223l.0578292-.1151222-.0585037-.116428c-.0837521-.1621683-.1737792-.3310161-.2700867-.505779l-.1491721-.266485c-.7365435-1.2958148-1.6326269-2.5929996-2.6852275-3.7968323-2.9299839-3.35094879-6.4527825-5.3164757-10.62501-5.3164757-1.9306648 0-3.7222673.42087856-5.3804173 1.2051548l-1.48446708-1.48380156c1.95491648-1.03912244 4.23848918-1.72135324 6.86488438-1.72135324zm-3.7154348 10.5153925c-.183584.4590315-.2845652.9600268-.2845652 1.4846075 0 2.209139 1.790861 4 4 4 .5245807 0 1.025576-.1009812 1.4846075-.2845652z" fill="#000" fill-rule="nonzero"/></g></svg>