<svg height="32" viewBox="0 0 32 32" width="32" xmlns="http://www.w3.org/2000/svg"><g fill="none" fill-rule="evenodd"><path d="m0 0h32v32h-32z"/><path d="m11 10c.8959417 0 1.7668658.1071131 2.600665.3092321-3.3844371 2.3476354-5.600665 6.2603878-5.600665 10.6907679s2.2162279 8.3431325 5.6005281 10.6901016c-.8336623.2027853-1.7045864.3098984-2.6005281.3098984-6.07513225 0-11-4.9248678-11-11s4.92486775-11 11-11zm10 0c6.0751322 0 11 4.9248678 11 11s-4.9248678 11-11 11-11-4.9248678-11-11 4.9248678-11 11-11zm-5-10c5.5338762 0 10.1133202 4.08641041 10.8853932 9.40629265-1.7677089-.89979074-3.7674011-1.40629265-5.8853932-1.40629265-1.7724529 0-3.4620572.35471685-5.0016968.99703443-1.5379833-.64268219-3.2267615-.99703443-4.9983032-.99703443-2.11839115 0-4.11843786.50669281-5.88555685 1.40549516.77223669-5.31908475 5.35168065-9.40549516 10.88555685-9.40549516z" fill="#202327"/></g></svg>