<svg height="32" viewBox="0 0 32 32" width="32" xmlns="http://www.w3.org/2000/svg"><g fill="none" fill-rule="evenodd"><path d="m0 0h32v32h-32z"/><path d="m27 0c2.7614237 0 5 2.23857625 5 5v14c0 2.7614237-2.2385763 5-5 5h-3v3.3333333c0 2.5057364-1.9748757 4.5502158-4.4530532 4.6618646l-.2136135.0048021h-14.66666663c-2.50573637 0-4.55021581-1.9748757-4.66186456-4.4530532l-.00480211-.2136135v-14.6666666c0-2.5057364 1.97487565-4.55021584 4.4530532-4.66186459l.21361347-.00480211h3.33333333v-3c0-2.76142375 2.2385763-5 5-5zm-19 10h-3.33333333c-1.41611475 0-2.57441514 1.1038344-2.66142033 2.4980225l-.00524634.1686442v14.6666666c0 1.4161148 1.10383444 2.5744152 2.49802247 2.6614204l.1686442.0052463h14.66666663c1.4161148 0 2.5744152-1.1038344 2.6614204-2.4980225l.0052463-.1686442v-3.3333333h-9c-2.7614237 0-5-2.2385763-5-5zm19-8h-14c-1.5976809 0-2.9036609 1.24891996-2.9949073 2.82372721l-.0050927.17627279v14c0 1.5976809 1.24892 2.9036609 2.8237272 2.9949073l.1762728.0050927h14c1.5976809 0 2.9036609-1.24892 2.9949073-2.8237272l.0050927-.1762728v-14c0-1.59768088-1.24892-2.90366088-2.8237272-2.99490731z" fill="#000" fill-rule="nonzero"/></g></svg>