<svg height="32" viewBox="0 0 32 32" width="32" xmlns="http://www.w3.org/2000/svg"><g fill="none" fill-rule="evenodd"><path d="m0 0h32v32h-32z"/><path d="m21.4462967 0c1.6654635 0 3.2215973.82925913 4.1503556 2.21171235l3.5537033 5.28967395c.553858.82441552.8496444 1.79510106.8496444 2.7882877v12.710326c0 2.4485235-1.7600068 4.4859755-4.0839347 4.91627-.4300898 2.3237232-2.4675418 4.08373-4.9160653 4.08373h-14c-2.76142375 0-5-2.2385763-5-5v-18c0-2.44852354 1.7600068-4.48597546 4.08393468-4.91627003.43008986-2.32372317 2.46754178-4.08372997 4.91606532-4.08372997zm-17.44120401 8.82372721-.00509269.17627279v18c0 1.5976809 1.24891996 2.9036609 2.82372721 2.9949073l.17627279.0050927h14c1.3058822 0 2.4168852-.8343774 2.8289758-1.9990993l-12.8289758-.0009007c-2.76142375 0-5-2.2385763-5-5l.00008893-16.82932572c-1.11245338.3931562-1.92377333 1.42382839-1.99499624 2.65305293z" fill="#202327" fill-rule="nonzero"/></g></svg>