<svg height="32" viewBox="0 0 32 32" width="32" xmlns="http://www.w3.org/2000/svg"><g fill="none" fill-rule="evenodd"><path d="m0 0h32v32h-32z"/><path d="m22.0092457 0 7.9907543 10.0183757v21.9816243h-28v-32zm-.9632457 2h-17.046v28h24v-19.282zm-5.046 9c3.3137085 0 6 2.6862915 6 6s-2.6862915 6-6 6-6-2.6862915-6-6 2.6862915-6 6-6zm3.3535888 3.818907-5.5346818 5.5346818c.6273275.4088337 1.3764656.6464112 2.181093.6464112 2.209139 0 4-1.790861 4-4 0-.8046274-.2375775-1.5537655-.6464112-2.181093zm-3.3535888-1.818907c-2.209139 0-4 1.790861-4 4 0 .6780081.1686885 1.3166169.4663854 1.8761461l5.4097607-5.4097607c-.5595292-.2976969-1.198138-.4663854-1.8761461-.4663854z" fill="#000" fill-rule="nonzero"/></g></svg>