<svg height="32" viewBox="0 0 32 32" width="32" xmlns="http://www.w3.org/2000/svg"><g fill="none" fill-rule="evenodd"><path d="m0 0h32v32h-32z"/><path d="m24 2c3.3137085 0 6 2.6862915 6 6v16c0 3.3137085-2.6862915 6-6 6h-16c-3.3137085 0-6-2.6862915-6-6v-16c0-3.3137085 2.6862915-6 6-6zm-8.232233 5.97487373c-.5522848 0-1 .44771525-1 1l.0006795 10.24226317-3.2433202-3.2422632c-.3905243-.3905243-1.0236893-.3905243-1.4142136 0-.39052429.3905243-.39052429 1.0236893 0 1.4142136l4.9497475 4.9497475c.3905243.3905243 1.0236892.3905243 1.4142135 0l4.9497475-4.9497475c.3905243-.3905243.3905243-1.0236893 0-1.4142136s-1.0236893-.3905243-1.4142136 0l-3.2422631 3.2436774-.0003775-10.24367737c0-.55228475-.4477153-1-1-1z" fill="#202327"/></g></svg>