<svg height="32" viewBox="0 0 32 32" width="32" xmlns="http://www.w3.org/2000/svg"><g fill="none" fill-rule="evenodd"><path d="m0 0h32v32h-32z"/><path d="m25 0c2.209139 0 4 1.790861 4 4v24c0 2.1421954-1.6839685 3.8910789-3.8003597 3.9951047l-.1996403.0048953h-18c-2.209139 0-4-1.790861-4-4v-24c0-2.209139 1.790861-4 4-4zm0 26h-18c-1.1045695 0-2 .8954305-2 2 0 1.0543618.81587779 1.9181651 1.85073766 1.9945143l.14926234.0054857h18c.1026797 0 .2035521-.0077378.302066-.022662.0214436-.0032434.0432245-.0069106.0648829-.0109269l-.0648829.0109269c.0508636-.0077055.1010984-.0173267.1506287-.0287878l-.0857458.0178609c.0401023-.0074363.0797844-.0160691.1190081-.02586l-.0332623.0079991c.0505328-.011693.1003323-.0253012.1493177-.0407439l-.1160554.0327448c.0450003-.0112328.0893971-.0239899.1331324-.0382133l-.017077.0054685c.044331-.0139753.0879952-.0294531.1309332-.0463737l-.1138562.0409052c.0533214-.0173409.1056595-.0368612.1569093-.0584559l-.0430531.0175507c.0481283-.0189659.0953439-.0397444.1415629-.0622514l-.0985098.0447007c.0417535-.0175933.0827847-.0365635.1230366-.0568536l-.0245268.0121529c.0415718-.020244.0823372-.0418864.1222351-.064866l-.0977083.0527131c.0481292-.0242609.0951443-.0504089.140948-.0783469l-.0432397.0256338c.0406655-.0234216.0804296-.0482324.1192278-.0743675l-.0759881.0487337c.0427819-.0260948.0845069-.0537511.125096-.0828898l-.0491079.0341561c.0396421-.0267037.0782757-.0547899.1158316-.0841896l-.0667237.0500335c.0386901-.0277754.076348-.0568977.1129052-.0872982l-.0461815.0372647c.0380719-.0298035.0750362-.0609569.1108211-.0933881l-.0646396.0561234c.0360692-.0299948.0710668-.0612339.104927-.0936516l-.0402874.0375282c.0412985-.0374279.081026-.0765578.1190718-.1172788l-.0787844.0797506c.0332827-.0318648.0654664-.0648682.0964886-.0989478l-.0177042.0191972c.0274696-.029401.0540624-.0596315.079737-.0906498l-.0620328.0714526c.0351419-.0386053.0687932-.0785914.100863-.1198675l-.0388302.0484149c.0316122-.0381918.0618323-.0775779.0905824-.1180806l-.0517522.0696657c.0285928-.0368009.0559284-.0746271.0819424-.1134142l-.0301902.0437485c.0256857-.0361854.050198-.0732621.0734817-.1111745l-.0432915.067426c.0271754-.0405188.0529085-.0820862.0771258-.1246288l-.0338343.0572028c.0751711-.1224002.1375351-.2535118.1852257-.3914687.0498938-.1442157.0838075-.2964201.0994306-.4540034.0016557-.0166914.0031134-.0335424.004361-.0504519l.0054857-.1492623c0-1.0543618-.8158778-1.9181651-1.8507377-1.9945143zm0-24h-18c-1.0543618 0-1.91816512.81587779-1.99451426 1.85073766l-.00548574.14926234-.00012044 20.5351985c.58837395-.3403833 1.27149644-.5351985 2.00012044-.5351985h18c.7290322 0 1.4125119.1950335 2.0011092.5357707l-.0011092-20.5357707c0-1.0543618-.8158778-1.91816512-1.8507377-1.99451426zm-4 3c1.6568542 0 3 1.34314575 3 3s-1.3431458 3-3 3h-10c-1.65685425 0-3-1.34314575-3-3s1.34314575-3 3-3zm0 2h-10c-.5522847 0-1 .44771525-1 1 0 .51283584.3860402.93550716.8833789.99327227l.1166211.00672773h10c.5522847 0 1-.44771525 1-1 0-.51283584-.3860402-.93550716-.8833789-.99327227z" fill="#000" fill-rule="nonzero"/></g></svg>