<svg height="32" viewBox="0 0 32 32" width="32" xmlns="http://www.w3.org/2000/svg"><g fill="none" fill-rule="evenodd"><path d="m0 0h32v32h-32z"/><path d="m22.0092457 0 7.9907543 10.0183757v21.9816243h-28v-32zm-6.0092457 11c-3.3137085 0-6 2.6862915-6 6s2.6862915 6 6 6 6-2.6862915 6-6-2.6862915-6-6-6zm3.3535888 3.818907c.4088337.6273275.6464112 1.3764656.6464112 2.181093 0 2.209139-1.790861 4-4 4-.8046274 0-1.5537655-.2375775-2.181093-.6464112zm-3.3535888-1.818907c.6780081 0 1.3166169.1686885 1.8761461.4663854l-5.4097607 5.4097607c-.2976969-.5595292-.4663854-1.198138-.4663854-1.8761461 0-2.209139 1.790861-4 4-4z" fill="#202327"/></g></svg>