<svg height="32" viewBox="0 0 32 32" width="32" xmlns="http://www.w3.org/2000/svg"><g fill="none" fill-rule="evenodd"><path d="m0 0h32v32h-32z"/><path d="m20 2c2.209139 0 4 1.790861 4 4h2c3.3137085 0 6 2.6862915 6 6v12c0 3.3137085-2.6862915 6-6 6h-20c-3.3137085 0-6-2.6862915-6-6v-12c0-3.3137085 2.6862915-6 6-6h2c0-2.209139 1.790861-4 4-4zm10 12h-28v10c0 2.1421954 1.68396847 3.8910789 3.80035966 3.9951047l.19964034.0048953h20c2.1421954 0 3.8910789-1.6839685 3.9951047-3.8003597l.0048953-.1996403zm-4-6h-20c-2.14219539 0-3.89107888 1.68396847-3.99510469 3.8003597l-.00489531.1996403h28c0-2.14219539-1.6839685-3.89107888-3.8003597-3.99510469zm-6-4h-8c-1.0543618 0-1.9181651.81587779-1.9945143 1.85073766l-.0054857.14926234h12c0-1.0543618-.8158778-1.91816512-1.8507377-1.99451426z" fill="#000" fill-rule="nonzero"/></g></svg>