<svg height="32" viewBox="0 0 32 32" width="32" xmlns="http://www.w3.org/2000/svg"><g fill="none" fill-rule="evenodd"><path d="m0 0h32v32h-32z"/><path d="m28 0c2.209139 0 4 1.790861 4 4v3.2213516c0 1.13231688-.4799086 2.21158275-1.320667 2.9700462l-8.3259857 7.511024c-.2100147.1894581-.3299753.4589917-.3301666.7418353l-.0072925 10.783007c-.000747 1.1045693-.8967828 1.999394-2.0013521 1.9986474-.2144786 0-.4275377-.034789-.6310133-.1026035l-8.0062199-2.6683197c-.8155406-.2718041-1.3661668-1.034349-1.3676312-1.8939896l-.01382652-8.1168035c-.00048175-.2828075-.12068896-.5521873-.33085226-.7414272l-8.34157806-7.5111093c-.84241713-.75854802-1.32341486-1.83891729-1.32341486-2.97252288v-3.21913582c0-2.209139 1.790861-4 4-4zm0 2h-24c-1.0543618 0-1.91816512.81587779-1.99451426 1.85073766l-.00548574.14926234v3.21913582c0 .50382471.19002379.98661778.52807954 1.35406132l.13362789.1322001 8.34157807 7.51110936c.5779491.5204097.9291338 1.2428387.9847643 2.0131311l.0077925.2111507.0138265 8.1168034 8.0062199 2.6683197.0072925-10.783007c.000526-.7778199.3029705-1.5220875.8386685-2.0785235l.1518311-.1469823 8.3259857-7.51102398c.3736704-.33709488.6047829-.80092651.651528-1.29746971l.0088055-.18755341v-3.2213516c0-1.0543618-.8158778-1.91816512-1.8507377-1.99451426z" fill="#000" fill-rule="nonzero"/></g></svg>