<svg height="32" viewBox="0 0 32 32" width="32" xmlns="http://www.w3.org/2000/svg"><g fill="none" fill-rule="evenodd"><path d="m0 0h32v32h-32z"/><path d="m17 2c2.4188928 0 4.4366029 1.7176672 4.8999445 3.99981569l5.1000555.00018431c2.6887547 0 4.8818181 2.12230671 4.9953805 4.7831104l.0046195.2168896v12c0 3.7854517-3.0047834 6.8690987-6.7593502 6.995941l-.2406498.004059h-18c-3.78545172 0-6.86909868-3.0047834-6.99594098-6.7593502l-.00405902-.2406498v-16c0-2.6887547 2.12230671-4.88181811 4.78311038-4.99538049l.21688962-.00461951zm13 11h-28v10c0 2.6887547 2.12230671 4.8818181 4.78311038 4.9953805l.21688962.0046195h18c2.6887547 0 4.8818181-2.1223067 4.9953805-4.7831104l.0046195-.2168896zm-13-9h-12c-1.59768088 0-2.90366088 1.24891996-2.99490731 2.82372721l-.00509269.17627279v4h28c0-1.59768088-1.24892-2.90366088-2.8237272-2.99490731l-.1762728-.00509269-5.8651475.00152914c-.0441039.00594506-.0891197.00901501-.1348525.00901501-.5128358 0-.9355072-.38604019-.9932723-.88337887l-.0067277-.12716528c0-1.59768088-1.24892-2.90366088-2.8237272-2.99490731z" fill="#000" fill-rule="nonzero"/></g></svg>