<svg height="32" viewBox="0 0 32 32" width="32" xmlns="http://www.w3.org/2000/svg"><g fill="none" fill-rule="evenodd"><path d="m0 0h32v32h-32z"/><path d="m13.5080329.61133571c.1874528-.21549604 15.2113577 3.18343875 16.4919671 15.38866429.8255005 9.0856144-6.2680135 16-14 16s-14.72110404-6.4560021-13.8776988-15.2315327c.6389822-6.6485334 7.29629995-10.54416956 7.41596325-10.29200229l.13245842.61713478c.67599873 3.04013881 1.78077213 6.31763461 3.83731003 5.41064341 3.657102-1.6128851-.1777744-11.64832332 0-11.89290749zm2.7929671 2.83066429.0737331.29697613c.2190241.92145273.392785 1.79280649.516735 2.63377287.5811224 3.9427544.0734866 6.7927633-2.5763819 7.96143-2.2077753.9736912-4.0151896-.1805981-5.14424317-2.3659023-.30833001-.5967784-.57739033-1.2721037-.82239374-2.04294193l-.07844929-.25233477-.22397256.19724636c-.10097487.09100684-.201791.18438634-.30208978.27994144l-.29898572.292995c-1.87496928 1.8902051-3.10045516 4.1092538-3.33182413 6.5166203-.69258428 7.2062566 4.92058296 13.0401969 11.88687219 13.0401969 6.9238958 0 12.6942342-6.2684558 12.0109188-13.7912995-.4870023-4.641519-3.2894994-8.21905759-7.6909366-10.84289229-1.2526861-.74676543-2.5716353-1.37274769-3.8633107-1.86675126z" fill="#000" fill-rule="nonzero"/></g></svg>