<svg height="32" viewBox="0 0 32 32" width="32" xmlns="http://www.w3.org/2000/svg"><path d="m16 0c8.836556 0 16 7.163444 16 16s-7.163444 16-16 16-16-7.163444-16-16 7.163444-16 16-16zm1.0008661 2.0352252-.0008661 4.9647748h-2l.0001337-4.96484538c-6.9350811.48937684-12.47560224 6.02989798-12.96497908 12.96497908l4.96484538-.0001337v2l-4.9647748.0008661c.48983875 6.9346138 6.03016066 12.474626 12.9649085 12.9639793l-.0001337-4.9648454h2l.0008661 4.9647748c6.9342805-.4898152 12.4740935-6.0296282 12.9639087-12.9639087l-4.9647748-.0008661v-2l4.9648454.0001337c-.4893533-6.93474784-6.0293655-12.47506975-12.9639793-12.9649085zm-1.0008661 8.9647748c2.7614237 0 5 2.2385763 5 5s-2.2385763 5-5 5-5-2.2385763-5-5 2.2385763-5 5-5zm0 2c-1.6568542 0-3 1.3431458-3 3s1.3431458 3 3 3 3-1.3431458 3-3-1.3431458-3-3-3z"/></svg>