<svg height="32" viewBox="0 0 32 32" width="32" xmlns="http://www.w3.org/2000/svg"><g fill="none" fill-rule="evenodd"><path d="m0 0h32v32h-32z"/><path d="m23.5682772 3c4.9276488 0 8.4317228 4.838923 8.4317228 8.6785264l-.0026646.7231849c-.0224837 2.1029193-.2338384 3.6703575-2.2125674 6.4367237-1.8252426 2.5517843-6.302687 6.0112813-7.770696 7.1126218l-.5405544.3980353c-.2853913.1997542-1.4463788 1.0118086-2.4735176 1.7222063l-.6555802.4438084c-.1140905.0758872-.2295918.1521316-.3449997.2278293-.9846352.6458366-2.457542.9195792-4.0146911-.0610374l-.7150496-.445113-.2696794-.1654873c-2.3754169-1.4525401-4.5778186-3.1359839-7.87293624-5.9509354-3.29511765-2.8149515-5.12706376-6.6022333-5.12706376-10.4418366 0-3.8396034 3.504074-8.6785264 8.43172279-8.6785264 3.17234121 0 5.39680901 1.20215691 6.57905331 2.05861208.2069963.14995463.3820425.28931155.5246323.40976275.6383649.45112549.2855585.45339481.9408107-.00980343.1416438-.11919513.3145282-.25637936.5181749-.40370211l.2915296-.20296447c1.2395555-.83056211 3.3583018-1.85190482 6.2823536-1.85190482zm0 2c-2.2056191 0-4.0066339.66613532-5.4016232 1.67530332l-.1431872.106177-.259506.20735952-.2811077.21650024-.055492.04634662c-.1072649.08991449-.1696698.13914229-.2836825.21274864-.3116074.20117306-.6671244.33596059-1.1185736.34174502-.4628576.00593061-.8354829-.12783881-1.1584582-.33348929-.0803137-.05113875-.136293-.0912339-.1972301-.13970964l-.2528841-.20600515-.171749-.13076384c-.1217532-.10284975-.2576283-.2094869-.4073391-.31794212-1.3951148-1.01066528-3.1975348-1.67827032-5.40572171-1.67827032-3.37951689 0-6.43172279 3.45666397-6.43172279 6.6785264 0 3.2577651 1.58116034 6.4907707 4.42613468 8.921174l1.13755932.9628091c2.6652626 2.2323885 4.5249208 3.6072023 6.4796748 4.8025118l.6880946.4246481c.1090712.0679778.2153907.1345835.3190394.1998564.7120736.4484292 1.3283225.4245427 1.8519965.0810573l.5106549-.3385643.8907463-.6115304 2.1057063-1.4689552.3205377-.2376262c.2245689-.1678574.4688696-.3529332.7291273-.5530281l.2654371-.2050199c1.0294602-.7987606 2.0583323-1.6380264 3.0135351-2.4742421.5956069-.5214137 1.1431543-1.0250567 1.6318796-1.5038598.7788598-.7630473 1.3878658-1.4435407 1.7879435-2.0028702l.3382913-.4827101c1.31709-1.9257078 1.5036416-2.8543542 1.5036416-5.5136504 0-3.22186243-3.0522059-6.6785264-6.4317228-6.6785264z" fill="#000" fill-rule="nonzero"/></g></svg>