<svg height="32" viewBox="0 0 32 32" width="32" xmlns="http://www.w3.org/2000/svg"><g fill="none" fill-rule="evenodd"><path d="m0 0h32v32h-32z"/><path d="m7 32c-3.3137085 0-6-2.6862915-6-6v-11.958697c0-1.9117507.91103125-3.7090683 2.45293825-4.83925127l9.00556125-6.60087271c2.1123042-1.54827125 4.9847775-1.54760604 7.0963644.00164338l8.9944388 6.59912643c1.5405939 1.13031777 2.4506973 2.92683637 2.4506973 4.83760787v11.9604433c0 3.3137085-2.6862915 6-6 6zm6.8273226-27.91451343-.1864692.12877621-9.00556124 6.60087272c-.96747105.7091344-1.56238342 1.8122399-1.62902546 3.0021226l-.0062667.2240449v11.958697c0 2.1421954 1.68396847 3.8910789 3.80035966 3.9951047l.19964034.0048953 4-.0005697v-4.9994303c0-2.7614237 2.2385763-5 5-5s5 2.2385763 5 5v4.9994303l4 .0005697c2.1421954 0 3.8910789-1.6839685 3.9951047-3.8003597l.0048953-.1996403v-11.9604433c0-1.1989154-.5374544-2.3303598-1.456953-3.0875579l-.1768452-.137514-8.9944388-6.59912644c-1.3465192-.98792716-3.1571455-1.03128627-4.5444404-.12987179zm2.1726774 17.91451343c-1.5976809 0-2.9036609 1.24892-2.9949073 2.8237272l-.0050927.1762728v5h6v-5c0-1.5976809-1.24892-2.9036609-2.8237272-2.9949073z" fill="#000" fill-rule="nonzero"/></g></svg>