<svg height="32" viewBox="0 0 32 32" width="32" xmlns="http://www.w3.org/2000/svg"><g fill="none" fill-rule="evenodd"><path d="m0 0h32v32h-32z"/><path d="m19.120106 0c1.8257724 0 3.5522076.83131873 4.6906771 2.25867017l4.8798939 6.11814718c.847677 1.06277155 1.309323 2.38190365 1.309323 3.74132985v13.8818528c0 3.3137085-2.6862915 6-6 6h-16c-3.3137085 0-6-2.6862915-6-6v-20c0-3.3137085 2.6862915-6 6-6zm0 2h-11.120106c-2.14219539 0-3.89107888 1.68396847-3.99510469 3.80035966l-.00489531.19964034v20c0 2.1421954 1.68396847 3.8910789 3.80035966 3.9951047l.19964034.0048953h16c2.1421954 0 3.8910789-1.6839685 3.9951047-3.8003597l.0048953-.1996403v-13.8818528c0-.8238947-.2543504-1.6255887-.7251774-2.29685957l-.1477046-.19736034-4.8798939-6.11814718c-.7115434-.89209465-1.767598-1.43495138-2.8997521-1.49932373zm.1466814 9.099674c.2248199.1098548.4002861.3000032.4917597.5329081l3.3236359 8.4624578c.2018968.5140584-.0511602 1.0944549-.5652187 1.2963517-.1164527.0457369-.2404541.0692148-.3655665.0692148h-12.38787024c-.55228475 0-1-.4477153-1-1 0-.1438801.03104809-.2860659.09102439-.4168493l3.30195785-7.2002018c.2302195-.5020134.8238115-.7223459 1.3258249-.4921264.1714172.0786107.3171123.2040899.4202707.3619564l1.9619341 3.0024068c.0060422.0092465.0184362.0118442.0276828.005802l.0070291-.0079619 2.0300359-4.1545091c.2424671-.4962138.8412863-.7019162 1.3375001-.4594491zm-.5389294 3.3808607-1.0316575 2.1111486-.1542707.2504843c-.1066675.1659067-.1748373.2431228-.3262412.3695343l-.2294278.1841322c-.8914537.5825238-2.0725557.3699485-2.7088574-.4628343l-.087104-.1231692-.9715103-1.4857175-1.8971675 4.1372818h9.3620938z" fill="#000" fill-rule="nonzero"/></g></svg>