<svg height="32" viewBox="0 0 32 32" width="32" xmlns="http://www.w3.org/2000/svg"><g fill="none" fill-rule="evenodd"><path d="m0 0h32v32h-32z"/><path d="m22.0092457 0 7.9907543 10.0183757v21.9816243h-28v-32zm-10.0571611 13.9768476-1.6089388 1.6089388-.1500977.1566306c-1.80117158 1.9617731-1.75113903 5.0132006.1500977 6.9144372 1.9526214 1.9526215 5.1184463 1.9526215 7.0710678 0l1.4032434-1.4032434-1.4142135-1.4142136-1.4032435 1.4032435-.1282448.1210426c-1.1780778 1.0490359-2.9846649 1.0086884-4.1143959-.1210426-1.1715729-1.1715729-1.1715729-3.0710678 0-4.2426407l1.6089389-1.6089389zm5.4576629.2102592-4.2426407 4.2426407 1.4142135 1.4142135 4.2426407-4.2426407zm4.2471067-2.843961c-1.9526214-1.95262151-5.1184463-1.95262151-7.0710678 0l-1.066864 1.066864 1.4142136 1.4142135 1.066864-1.066864.1282448-.1210426c1.1780778-1.0490359 2.9846649-1.0086884 4.1143959.1210426 1.1715729 1.1715729 1.1715729 3.0710678 0 4.2426407l-1.2683222 1.2683222 1.4142136 1.4142135 1.2683221-1.2683221.1500977-.1566306c1.8011716-1.9617731 1.751139-5.0132006-.1500977-6.9144372z" fill="#202327"/></g></svg>