<svg height="32" viewBox="0 0 32 32" width="32" xmlns="http://www.w3.org/2000/svg"><g fill="none" fill-rule="evenodd"><path d="m0 0h32v32h-32z"/><path d="m19.120106 0c1.8257724 0 3.5522076.83131873 4.6906771 2.25867017l4.8798939 6.11814718c.847677 1.06277155 1.309323 2.38190365 1.309323 3.74132985v13.8818528c0 3.3137085-2.6862915 6-6 6h-16c-3.3137085 0-6-2.6862915-6-6v-20c0-3.3137085 2.6862915-6 6-6zm-6.4609146 14.6839543c-.3905243-.3905243-1.0236893-.3905243-1.4142135 0l-.9018321.9018321-.1500977.1566306c-1.80117158 1.9617731-1.75113903 5.0132006.1500977 6.9144372 1.9526214 1.9526215 5.1184463 1.9526215 7.0710678 0l.6961366-.6961366.0777064-.0872208c.3108255-.3925177.2849233-.9643631-.0777064-1.3269928-.3905242-.3905243-1.0236892-.3905243-1.4142135 0l-.6961367.6961367-.1282448.1210426c-1.1780778 1.0490359-2.9846649 1.0086884-4.1143959-.1210426-1.1715729-1.1715729-1.1715729-3.0710678 0-4.2426407l.9018321-.9018321.0777064-.0872208c.3108254-.3925177.2849233-.9643631-.0777064-1.3269928zm5.4576628.2102593c-.3905242-.3905243-1.0236892-.3905243-1.4142135 0l-2.8284271 2.8284271c-.3905243.3905243-.3905243 1.0236893 0 1.4142135.3905243.3905243 1.0236892.3905243 1.4142135 0l2.8284271-2.8284271c.3905243-.3905243.3905243-1.0236892 0-1.4142135zm3.54-3.5510678c-1.9526214-1.95262151-5.1184463-1.95262151-7.0710678 0l-.3597572.3597572-.0777063.0872208c-.3108255.3925176-.2849234.964363.0777063 1.3269927.3905243.3905243 1.0236893.3905243 1.4142136 0l.3597572-.3597572.1282448-.1210426c1.1780778-1.0490359 2.9846649-1.0086884 4.1143959.1210426 1.1715729 1.1715729 1.1715729 3.0710678 0 4.2426407l-.5612154.5612154-.0777064.0872208c-.3108254.3925177-.2849233.9643631.0777064 1.3269928.3905243.3905243 1.0236893.3905243 1.4142135 0l.5612154-.5612154.1500977-.1566306c1.8011716-1.9617731 1.751139-5.0132006-.1500977-6.9144372z" fill="#202327"/></g></svg>