<svg height="32" viewBox="0 0 32 32" width="32" xmlns="http://www.w3.org/2000/svg"><g fill="none" fill-rule="evenodd"><path d="m0 0h32v32h-32z"/><path d="m19.120106 0c1.8257724 0 3.5522076.83131873 4.6906771 2.25867017l4.8798939 6.11814718c.847677 1.06277155 1.309323 2.38190365 1.309323 3.74132985v13.8818528c0 3.3137085-2.6862915 6-6 6h-16c-3.3137085 0-6-2.6862915-6-6v-20c0-3.3137085 2.6862915-6 6-6zm0 2h-11.120106c-2.14219539 0-3.89107888 1.68396847-3.99510469 3.80035966l-.00489531.19964034v20c0 2.1421954 1.68396847 3.8910789 3.80035966 3.9951047l.19964034.0048953h16c2.1421954 0 3.8910789-1.6839685 3.9951047-3.8003597l.0048953-.1996403v-13.8818528c0-.8238947-.2543504-1.6255887-.7251774-2.29685957l-.1477046-.19736034-4.8798939-6.11814718c-.7115434-.89209465-1.767598-1.43495138-2.8997521-1.49932373zm-6.4609146 12.6839543c.3626297.3626297.3885318.9344751.0777064 1.3269928l-.0777064.0872208-.9018321.9018321c-1.1715729 1.1715729-1.1715729 3.0710678 0 4.2426407 1.129731 1.129731 2.9363181 1.1700785 4.1143959.1210426l.1282448-.1210426.6961367-.6961367c.3905243-.3905243 1.0236893-.3905243 1.4142135 0 .3626297.3626297.3885319.9344751.0777064 1.3269928l-.0777064.0872208-.6961366.6961366c-1.9526215 1.9526215-5.1184464 1.9526215-7.0710678 0-1.90123673-1.9012366-1.95126928-4.9526641-.1500977-6.9144372l.1500977-.1566306.9018321-.9018321c.3905242-.3905243 1.0236892-.3905243 1.4142135 0zm5.4576628.2102593c.3905243.3905243.3905243 1.0236892 0 1.4142135l-2.8284271 2.8284271c-.3905243.3905243-1.0236892.3905243-1.4142135 0-.3905243-.3905242-.3905243-1.0236892 0-1.4142135l2.8284271-2.8284271c.3905243-.3905243 1.0236893-.3905243 1.4142135 0zm3.54-3.5510678c1.9012367 1.9012366 1.9512693 4.9526641.1500977 6.9144372l-.1500977.1566306-.5612154.5612154c-.3905242.3905243-1.0236892.3905243-1.4142135 0-.3626297-.3626297-.3885318-.9344751-.0777064-1.3269928l.0777064-.0872208.5612154-.5612154c1.1715729-1.1715729 1.1715729-3.0710678 0-4.2426407-1.129731-1.129731-2.9363181-1.1700785-4.1143959-.1210426l-.1282448.1210426-.3597572.3597572c-.3905243.3905243-1.0236893.3905243-1.4142136 0-.3626297-.3626297-.3885318-.9344751-.0777063-1.3269927l.0777063-.0872208.3597572-.3597572c1.9526215-1.95262151 5.1184464-1.95262151 7.0710678 0z" fill="#000" fill-rule="nonzero"/></g></svg>