<svg height="32" viewBox="0 0 32 32" width="32" xmlns="http://www.w3.org/2000/svg"><g fill="none" fill-rule="evenodd"><path d="m0 0h32v32h-32z"/><path d="m12.2048686 5.36446609c.3905243.3905243.3905243 1.02368927 0 1.41421357l-8.2218686 8.22089324 26.443694.0004271c.5522848 0 1 .4477153 1 1s-.4477152 1-1 1l-26.429694-.0004271 8.2078686 8.2070288c.3905243.3905243.3905243 1.0236893 0 1.4142136s-1.0236892.3905243-1.4142135 0l-9.89949498-9.899495c-.18024198-.1802419-.27729535-.4121707-.29116012-.6480754v-.1612085c.01386477-.2359046.11091814-.4678334.29116012-.6480754l9.89949498-9.89949491c.3905243-.39052429 1.0236892-.39052429 1.4142135 0z" fill="#000" transform="matrix(-1 0 0 -1 32.026694 31.985282)"/></g></svg>