<svg height="32" viewBox="0 0 32 32" width="32" xmlns="http://www.w3.org/2000/svg"><g fill="none" fill-rule="evenodd"><path d="m0 0h32v32h-32z"/><path d="m26.3213203 10.3213203 4.9497475 4.9497475c.180242.180242.2772954.4121707.2911601.6480754v.1612085c-.0138647.2359047-.1109181.4678334-.2911601.6480754l-4.9497475 4.9497475c-.3905242.3905243-1.0236892.3905243-1.4142135 0s-.3905243-1.0236893 0-1.4142136l3.2711211-3.2708932-9.4182279-.0006796c-.5522847 0-1-.4477153-1-1 0-.5522848.4477153-1 1-1l9.4042279.0006796-3.2571211-3.2575339c-.3905243-.3905243-.3905243-1.0236893 0-1.4142136.3905243-.39052425 1.0236893-.39052425 1.4142135 0zm-19.25025249-.0071067c.39052429.3905243.39052429 1.0236892 0 1.4142135l-3.27112115 3.2708932 9.44269404.0006797c.5522847 0 1 .4477153 1 1s-.4477153 1-1 1l-9.42869404-.0006797 3.25712115 3.2575339c.39052429.3905243.39052429 1.0236893 0 1.4142136s-1.02368927.3905243-1.41421356 0l-4.94974747-4.9497475c-.18024198-.1802419-.27729535-.4121707-.29116012-.6480754v-.1612085c.01386477-.2359046.11091814-.4678334.29116012-.6480754l4.94974747-4.9497474c.39052429-.39052433 1.02368927-.39052433 1.41421356 0z" fill="#000"/></g></svg>