<svg height="32" viewBox="0 0 32 32" width="32" xmlns="http://www.w3.org/2000/svg"><g fill="none" fill-rule="evenodd"><path d="m0 0h32v32h-32z"/><path d="m19.120106 0c1.8257724 0 3.5522076.83131873 4.6906771 2.25867017l4.8798939 6.11814718c.847677 1.06277155 1.309323 2.38190365 1.309323 3.74132985v13.8818528c0 3.3137085-2.6862915 6-6 6h-16c-3.3137085 0-6-2.6862915-6-6v-20c0-3.3137085 2.6862915-6 6-6zm-4.120106 9.30601937c-1.6568542 0-3 1.34314573-3 3.00000003l.0009007 4.8650048c-.3130334-.1107544-.6499287-.1710242-1.0009007-.1710242-1.65685425 0-3 1.3431458-3 3s1.34314575 3 3 3c1.6568542 0 3-1.3431458 3-3v-7.6939806l.0067277-.1166212c.0577651-.4973386.4804365-.8833788.9932723-.8833788.0473189 0 .0945781.0033586.1414214.0100505l3 .4285714.1113298.022356c.4354505.1133814.7472488.5082239.7472488.9675935l.0009007 5.4364334c-.3130334-.1107544-.6499287-.1710242-1.0009007-.1710242-1.6568542 0-3 1.3431458-3 3s1.3431458 3 3 3 3-1.3431458 3-3v-8.2654092l-.0052235-.1780107c-.0832079-1.414514-1.1516841-2.58914801-2.5705124-2.79183778l-3-.42857143-.211597-.02260414zm3 10.69398063c.5522847 0 1 .4477153 1 1s-.4477153 1-1 1-1-.4477153-1-1 .4477153-1 1-1zm-7-1c.5522847 0 1 .4477153 1 1s-.4477153 1-1 1-1-.4477153-1-1 .4477153-1 1-1z" fill="#202327"/></g></svg>