<svg height="32" viewBox="0 0 32 32" width="32" xmlns="http://www.w3.org/2000/svg"><g fill="none" fill-rule="evenodd"><path d="m0 0h32v32h-32z"/><path d="m15 0c8.2842712 0 15 6.71572875 15 15 0 3.7818764-1.3995847 7.2368622-3.7090554 9.8752589l4.6588029 4.660275c.3905243.3905243.3905243 1.0236893 0 1.4142136s-1.0236893.3905243-1.4142136 0l-4.660275-4.6588029c-2.6383967 2.3094707-6.0933825 3.7090554-9.8752589 3.7090554-8.28427125 0-15-6.7157288-15-15 0-8.28427125 6.71572875-15 15-15zm5 14h-10c-.55228475 0-1 .4477153-1 1s.44771525 1 1 1h10c.5522847 0 1-.4477153 1-1s-.4477153-1-1-1z" fill="#202327"/></g></svg>