<svg height="32" viewBox="0 0 32 32" width="32" xmlns="http://www.w3.org/2000/svg"><g fill="none" fill-rule="evenodd"><path d="m0 0h32v32h-32z"/><path d="m14.9273089 0c1.3507578 0 2.6102792.68171893 3.3489347 1.81261877l3.0726911 4.70436588c.2951634.45190253.4944594.95672835.5886217 1.4833462l.4588284-.00033085c1.6221897 0 3.1381067.78648551 4.0730768 2.0999637l.135829.2009418 2.6036153 4.0600177c.4648783.7249205.7337619 1.5561936.7828898 2.4127504l.0082043.2863441v9.9399823c0 2.6887547-2.1223067 4.8818181-4.7831104 4.9953805l-.2168896.0046195h-10c-2.6887547 0-4.8818181-2.1223067-4.9953805-4.7831104l-.0046195-.2168896v-3h-4c-2.209139 0-4-1.790861-4-4v-16c0-2.209139 1.790861-4 4-4zm7.4690759 10h-.3963848v10c0 2.209139-1.790861 4-4 4h-6v3c0 1.5976809 1.24892 2.9036609 2.8237272 2.9949073l.1762728.0050927h10c1.5976809 0 2.9036609-1.24892 2.9949073-2.8237272l.0050927-.1762728v-9.9399823c0-.5023517-.1261272-.995473-.3652805-1.4346641l-.109376-.1847926-2.6036152-4.0600177c-.514905-.8029309-1.3782511-1.3096641-2.3219827-1.3736599zm-7.4690759-8h-8.9273089c-1.0543618 0-1.91816512.81587779-1.99451426 1.85073766l-.00548574.14926234v16c0 1.0543618.81587779 1.9181651 1.85073766 1.9945143l.14926234.0054857h12c1.0543618 0 1.9181651-.8158778 1.9945143-1.8507377l.0054857-.1492623v-11.29563412c0-.33294911-.0831054-.65972223-.2406168-.95109157l-.0849159-.14259904-3.072691-4.70436588c-.3385505-.5183291-.8959369-.84793982-1.5066973-.89927544zm9.1136282-1.27007337c2.3863353.37795839 4.2843115 2.08884529 4.9278435 4.30259104l.2292956-.39854307c.2761424-.47829263.8877328-.64216778 1.3660254-.36602541.4782926.27614238.6421678.88773278.3660254 1.36602541l-1.5 2.59807621c-.2761424.47829262-.8877328.64216778-1.3660254.3660254l-2.5980762-1.5c-.4782926-.27614237-.6421678-.88773278-.3660254-1.3660254.2761424-.47829263.8877328-.64216778 1.3660254-.36602541l.6178227.35577716c-.3911224-1.54121271-1.6955517-2.75354493-3.35578-3.01649925-.5123516-.08114853-1.024617-.06771098-1.5181432.03601038-.5404776.11358885-1.0707032-.23247285-1.184292-.77295043-.1135889-.54047759.2324728-1.07070319.7729504-1.18429204.7310284-.15363573 1.4887051-.17351081 2.2423538-.05414459z" fill="#000" fill-rule="nonzero"/></g></svg>