<svg height="32" viewBox="0 0 32 32" width="32" xmlns="http://www.w3.org/2000/svg"><g fill="none" fill-rule="evenodd"><path d="m0 0h32v32h-32z"/><path d="m14.9273089 0c1.3507578 0 2.6102792.68171893 3.3489347 1.81261877l3.0726911 4.70436588c.2951634.45190253.4944594.95672835.5886217 1.4833462l.9897525-.00033085c1.3507578 0 2.6102792.68171892 3.3489347 1.81261877l3.0726911 4.70436593c.4248338.6504311.6510653 1.4104999.6510653 2.1873812v11.2956341c0 2.209139-1.790861 4-4 4h-12c-2.209139 0-4-1.790861-4-4v-4h-4c-2.209139 0-4-1.790861-4-4v-16c0-2.209139 1.790861-4 4-4zm8 10h-.9273089v10c0 2.209139-1.790861 4-4 4h-6v4c0 1.0543618.8158778 1.9181651 1.8507377 1.9945143l.1492623.0054857h12c1.0543618 0 1.9181651-.8158778 1.9945143-1.8507377l.0054857-.1492623v-11.2956341c0-.3329491-.0831054-.6597222-.2406168-.9510916l-.0849159-.142599-3.072691-4.7043659c-.3385505-.5183291-.8959369-.8479398-1.5066973-.8992754zm1.1136282-9.27007337c2.3863353.37795839 4.2843115 2.08884529 4.9278435 4.30259104l.2292956-.39854307c.2761424-.47829263.8877328-.64216778 1.3660254-.36602541.4782926.27614238.6421678.88773278.3660254 1.36602541l-1.5 2.59807621c-.2761424.47829262-.8877328.64216778-1.3660254.3660254l-2.5980762-1.5c-.4782926-.27614237-.6421678-.88773278-.3660254-1.3660254.2761424-.47829263.8877328-.64216778 1.3660254-.36602541l.6178227.35577716c-.3911224-1.54121271-1.6955517-2.75354493-3.35578-3.01649925-.5123516-.08114853-1.024617-.06771098-1.5181432.03601038-.5404776.11358885-1.0707032-.23247285-1.184292-.77295043-.1135889-.54047759.2324728-1.07070319.7729504-1.18429204.7310284-.15363573 1.4887051-.17351081 2.2423538-.05414459z" fill="#202327" fill-rule="nonzero"/></g></svg>