<svg height="32" viewBox="0 0 32 32" width="32" xmlns="http://www.w3.org/2000/svg"><g fill="none" fill-rule="evenodd"><path d="m0 0h32v32h-32z"/><path d="m19.120106 0c1.8257724 0 3.5522076.83131873 4.6906771 2.25867017l4.8798939 6.11814718c.847677 1.06277155 1.309323 2.38190365 1.309323 3.74132985v13.8818528c0 3.3137085-2.6862915 6-6 6h-16c-3.3137085 0-6-2.6862915-6-6v-20c0-3.3137085 2.6862915-6 6-6zm-2.620106 11c-.9362541 0-1.8057271.2859241-2.5252762.7756007-.1018531-.4442368-.4995913-.7756007-.9747238-.7756007-.5522847 0-1 .4477153-1 1v11c0 .5522847.4477153 1 1 1s1-.4477153 1-1l.0004998-3.75744c.7149499.4784342 1.5746424.75744 2.4995002.75744 2.4852814 0 4.5-2.0147186 4.5-4.5s-2.0147186-4.5-4.5-4.5zm0 2c1.3807119 0 2.5 1.1192881 2.5 2.5s-1.1192881 2.5-2.5 2.5-2.5-1.1192881-2.5-2.5 1.1192881-2.5 2.5-2.5z" fill="#202327"/></g></svg>