<svg height="32" viewBox="0 0 32 32" width="32" xmlns="http://www.w3.org/2000/svg"><g fill="none" fill-rule="evenodd"><path d="m0 0h32v32h-32z"/><path d="m32 2v28h-32v-28zm-23.52659653 11.3991869-6.47340347 6.4608131v8.14h21.071zm21.52659653-1.8701869-10.285 10.285 6.185 6.186h4.1zm0-7.529h-28v13.034l6.47508449-6.4614429 9.82591551 9.8264429 11.699-11.699zm-11.4 2c2.209139 0 4 1.790861 4 4s-1.790861 4-4 4-4-1.790861-4-4 1.790861-4 4-4zm0 2c-1.1045695 0-2 .8954305-2 2s.8954305 2 2 2 2-.8954305 2-2-.8954305-2-2-2z" fill="#000" fill-rule="nonzero"/></g></svg>