<svg height="32" viewBox="0 0 32 32" width="32" xmlns="http://www.w3.org/2000/svg"><g fill="none" fill-rule="evenodd"><path d="m0 0h32v32h-32z"/><path d="m16 4c8.836556 0 16 7.983908 16 12s-7.163444 12-16 12-16-7.983908-16-12 7.163444-12 16-12zm0 2c-3.5484145 0-7.1115279 1.51004581-10.00725097 4.0082867-2.43541832 2.10112-3.99274903 4.6271328-3.99274903 5.9917133s1.55733071 3.8905933 3.99274903 5.9917133c2.89572307 2.4982409 6.45883647 4.0082867 10.00725097 4.0082867s7.1115279-1.5100458 10.007251-4.0082867c2.4354183-2.10112 3.992749-4.6271328 3.992749-5.9917133s-1.5573307-3.8905933-3.992749-5.9917133c-2.8957231-2.49824089-6.4588365-4.0082867-10.007251-4.0082867zm0 4c3.3137085 0 6 2.6862915 6 6s-2.6862915 6-6 6-6-2.6862915-6-6 2.6862915-6 6-6zm0 2c-2.209139 0-4 1.790861-4 4s1.790861 4 4 4 4-1.790861 4-4-1.790861-4-4-4z" fill="#000" fill-rule="nonzero"/></g></svg>