<svg height="32" viewBox="0 0 32 32" width="32" xmlns="http://www.w3.org/2000/svg"><g fill="none" fill-rule="evenodd"><path d="m0 0h32v32h-32z"/><path d="m22.0092457 0 7.9907543 10.0183757v21.9816243h-28v-32zm-.9632457 2h-17.046v28h24v-19.282zm-3.746 19.5v2.6h-2.6v-2.6zm-1.3-11.5c2.209139 0 4 1.790861 4 4 0 1.8636009-1.2744465 3.4295388-2.9993376 3.873812l-.0006624 2.126188h-2v-4h1c1.1045695 0 2-.8954305 2-2s-.8954305-2-2-2c-1.0543618 0-1.9181651.8158778-1.9945143 1.8507377l-.0054857.1492623h-2c0-2.209139 1.790861-4 4-4z" fill="#000" fill-rule="nonzero"/></g></svg>