<svg height="32" viewBox="0 0 32 32" width="32" xmlns="http://www.w3.org/2000/svg"><g fill="none" fill-rule="evenodd"><path d="m0 0h32v32h-32z"/><path d="m16 0c8.836556 0 16 7.163444 16 16s-7.163444 16-16 16-16-7.163444-16-16 7.163444-16 16-16zm7.5013519 8h-5c-.5522847 0-1 .44771525-1 1v5c0 .5522847.4477153 1 1 1 .5522848 0 1-.4477153 1-1l.0011164-2.872584c1.5476338 1.1131888 2.4975317 2.9096298 2.4975317 4.872584 0 3.3137085-2.6862915 6-6 6s-6-2.6862915-6-6c0-2.6791615 1.771854-5.0121287 4.3028795-5.7568853.5298238-.1559011.832948-.71179106.6770468-1.24161488-.1559011-.52982382-.711791-.83294803-1.2416148-.67704688-3.3764809.99353263-5.7383115 4.10331096-5.7383115 7.67554706 0 4.418278 3.581722 8 8 8s8-3.581722 8-8c0-2.3423774-1.015734-4.5083081-2.7082286-6.00072306l2.2095805.00072306c.5522848 0 1-.44771525 1-1s-.4477152-1-1-1z" fill="#202327"/></g></svg>