<svg height="32" viewBox="0 0 32 32" width="32" xmlns="http://www.w3.org/2000/svg"><path d="m16 0c8.836556 0 16 7.163444 16 16s-7.163444 16-16 16-16-7.163444-16-16 7.163444-16 16-16zm-.8769466 9.60710678c-.3905243-.39052429-1.0236892-.39052429-1.4142135 0s-.3905243 1.02368932 0 1.41421352l4.9712279 4.9717475-4.9712279 4.9708932c-.3905243.3905243-.3905243 1.0236893 0 1.4142136s1.0236892.3905243 1.4142135 0l5.6568543-5.6568543c.180242-.1802419.2772953-.4121707.2911601-.6480754v-.1612085c-.0138648-.2359046-.1109181-.4678334-.2911601-.6480754z" fill="#202327" fill-rule="evenodd"/></svg>