<svg height="32" viewBox="0 0 32 32" width="32" xmlns="http://www.w3.org/2000/svg"><g fill="none" fill-rule="evenodd"><path d="m0 0h32v32h-32z"/><path d="m16 0c8.836556 0 16 7.163444 16 16s-7.163444 16-16 16-16-7.163444-16-16 7.163444-16 16-16zm8.5013519 8h-7v7h2l.0009746-3.872686c1.5477176 1.1131811 2.4976735 2.9096719 2.4976735 4.872686 0 3.3137085-2.6862915 6-6 6s-6-2.6862915-6-6c0-2.9936676 2.2064004-5.518383 5.1397019-5.9389154l-.2838277-1.97975799-.2539113.04055603c-3.7873548.66730412-6.6019629 3.97286936-6.6019629 7.87811736 0 4.418278 3.581722 8 8 8s8-3.581722 8-8c0-2.3423774-1.015734-4.5083081-2.7082286-6.00072306l3.2095805.00072306z" fill="#202327"/></g></svg>