<svg height="32" viewBox="0 0 32 32" width="32" xmlns="http://www.w3.org/2000/svg"><g fill="none" fill-rule="evenodd"><path d="m0 0h32v32h-32z"/><path d="m19.120106 0c1.8257724 0 3.5522076.83131873 4.6906771 2.25867017l4.8798939 6.11814718c.847677 1.06277155 1.309323 2.38190365 1.309323 3.74132985v13.8818528c0 3.3137085-2.6862915 6-6 6h-16c-3.3137085 0-6-2.6862915-6-6v-20c0-3.3137085 2.6862915-6 6-6zm0 2h-11.120106c-2.14219539 0-3.89107888 1.68396847-3.99510469 3.80035966l-.00489531.19964034v20c0 2.1421954 1.68396847 3.8910789 3.80035966 3.9951047l.19964034.0048953h16c2.1421954 0 3.8910789-1.6839685 3.9951047-3.8003597l.0048953-.1996403v-13.8818528c0-.8238947-.2543504-1.6255887-.7251774-2.29685957l-.1477046-.19736034-4.8798939-6.11814718c-.7115434-.89209465-1.767598-1.43495138-2.8997521-1.49932373zm-3.120106 8c2.1906507 0 4 1.6585702 4 3.75 0 .5522847-.4477153 1-1 1-.5128358 0-.9355072-.3860402-.9932723-.8833789l-.0067277-.1166211c0-.9461363-.8769422-1.75-2-1.75-1.0996677 0-2 .8367916-2 1.75 0 .8552988.8573381 1.5845404 2.2826223 1.7608965l.0063777.0001035.2198162.0317143c2.3355852.3725641 3.9911838 2.0189177 3.9911838 4.2072857 0 2.3644467-2.0305959 4.25-4.5 4.25s-4.5-1.8855533-4.5-4.25c0-.5522847.4477153-1 1-1s1 .4477153 1 1c0 1.2254042 1.1034109 2.25 2.5 2.25s2.5-1.0245958 2.5-2.25c0-1.1680347-.9450724-2.0690529-2.4600387-2.2538807-.0015842-.000193-.0022591-.0002758-.0029341-.0003593-2.3304683-.2883582-4.0370272-1.739937-4.0370272-3.74576 0-2.0518082 1.8271417-3.75 4-3.75z" fill="#000" fill-rule="nonzero"/></g></svg>