<svg height="32" viewBox="0 0 32 32" width="32" xmlns="http://www.w3.org/2000/svg"><g fill="none" fill-rule="evenodd"><path d="m0 0h32v32h-32z"/><path d="m20.5358984 2.14359354c2.1435935 0 4.1243556 1.14359354 5.1961524 3l4.5358984 7.85640646c1.0717968 1.8564065 1.0717968 4.1435935 0 6l-4.5358984 7.8564065c-1.0717968 1.8564064-3.0525589 3-5.1961524 3h-9.0717968c-2.14359352 0-4.12435564-1.1435936-5.19615241-3l-4.53589838-7.8564065c-1.07179677-1.8564065-1.07179677-4.1435935 0-6l4.53589838-7.85640646c1.07179677-1.85640646 3.05255889-3 5.19615241-3zm0 2h-9.0717968c-1.3538485 0-2.61026887.68425541-3.34631759 1.80857977l-.11778401.19142023-4.53589838 7.85640646c-.67483501 1.1688485-.71232584 2.5938608-.11247251 3.791172l.11247251.208828 4.53589838 7.8564065c.67692428 1.1724672 1.89771701 1.9184314 3.2394348 1.9937061l.2246668.0062939h9.0717968c1.3538485 0 2.6102689-.6842555 3.3463176-1.8085798l.117784-.1914202 4.5358984-7.8564065c.674835-1.1688485.7123258-2.5938608.1124725-3.791172l-.1124725-.208828-4.5358984-7.85640646c-.6769243-1.17246724-1.897717-1.91843145-3.2394348-1.99370617zm-4.5358984 5.85640646c3.3137085 0 6 2.6862915 6 6s-2.6862915 6-6 6-6-2.6862915-6-6 2.6862915-6 6-6zm0 2c-2.209139 0-4 1.790861-4 4s1.790861 4 4 4 4-1.790861 4-4-1.790861-4-4-4z" fill="#000" fill-rule="nonzero"/></g></svg>