<svg height="32" viewBox="0 0 32 32" width="32" xmlns="http://www.w3.org/2000/svg"><g fill="none" fill-rule="evenodd"><path d="m0 0h32v32h-32z"/><path d="m22 6c5.5228475 0 10 4.4771525 10 10s-4.4771525 10-10 10h-12c-5.5228475 0-10-4.4771525-10-10s4.4771525-10 10-10zm0 2h-12c-4.418278 0-8 3.581722-8 8 0 4.3349143 3.44783777 7.8645429 7.75082067 7.9961932l.24917933.0038068h12c4.418278 0 8-3.581722 8-8 0-4.3349143-3.4478378-7.86454287-7.7508207-7.99619318zm0 2c3.3137085 0 6 2.6862915 6 6s-2.6862915 6-6 6-6-2.6862915-6-6 2.6862915-6 6-6zm0 2c-2.209139 0-4 1.790861-4 4s1.790861 4 4 4 4-1.790861 4-4-1.790861-4-4-4z" fill="#000" fill-rule="nonzero"/></g></svg>