<svg height="32" viewBox="0 0 32 32" width="32" xmlns="http://www.w3.org/2000/svg"><g fill="none" fill-rule="evenodd"><path d="m0 0h32v32h-32z"/><path d="m22.0092457 0 7.9907543 10.0183757v21.9816243h-28v-32zm-7.0092457 11c-2.7614237 0-5 2.2385763-5 5s2.2385763 5 5 5c1.0191072 0 1.9670032-.3048917 2.7574478-.8284349l3.5354454 3.5355417 1.4142136-1.4142136-3.5355417-3.5354454c.5235432-.7904446.8284349-1.7383406.8284349-2.7574478 0-2.7614237-2.2385763-5-5-5zm0 2c1.6568542 0 3 1.3431458 3 3s-1.3431458 3-3 3-3-1.3431458-3-3 1.3431458-3 3-3z" fill="#202327"/></g></svg>