<svg height="32" viewBox="0 0 32 32" width="32" xmlns="http://www.w3.org/2000/svg"><g fill="none" fill-rule="evenodd"><path d="m0 0h32v32h-32z"/><path d="m19.120106 0c1.8257724 0 3.5522076.83131873 4.6906771 2.25867017l4.8798939 6.11814718c.847677 1.06277155 1.309323 2.38190365 1.309323 3.74132985v13.8818528c0 3.3137085-2.6862915 6-6 6h-16c-3.3137085 0-6-2.6862915-6-6v-20c0-3.3137085 2.6862915-6 6-6zm-3.120106 10c-2.1728583 0-4 1.6981918-4 3.75 0 2.005823 1.7065589 3.4574018 4.0370272 3.74576.000675.0000835.0013499.0001663.0029341.0003593 1.5149663.1848278 2.4600387 1.085846 2.4600387 2.2538807 0 1.2254042-1.1034109 2.25-2.5 2.25s-2.5-1.0245958-2.5-2.25c0-.5522847-.4477153-1-1-1s-1 .4477153-1 1c0 2.3644467 2.0305959 4.25 4.5 4.25s4.5-1.8855533 4.5-4.25c0-2.188368-1.6555986-3.8347216-3.9911838-4.2072857l-.2198162-.0317143c-1.4316619-.1764596-2.289-.9057012-2.289-1.761 0-.9132084.9003323-1.75 2-1.75 1.1230578 0 2 .8038637 2 1.75l.0067277.1166211c.0577651.4973387.4804365.8833789.9932723.8833789.5522847 0 1-.4477153 1-1 0-2.0914298-1.8093493-3.75-4-3.75z" fill="#202327"/></g></svg>