<svg height="32" viewBox="0 0 32 32" width="32" xmlns="http://www.w3.org/2000/svg"><g fill="none" fill-rule="evenodd"><path d="m0 0h32v32h-32z"/><path d="m19.120106 0c1.8257724 0 3.5522076.83131873 4.6906771 2.25867017l4.8798939 6.11814718c.847677 1.06277155 1.309323 2.38190365 1.309323 3.74132985v13.8818528c0 3.3137085-2.6862915 6-6 6h-16c-3.3137085 0-6-2.6862915-6-6v-20c0-3.3137085 2.6862915-6 6-6zm3.3722822 12.9071068c-.3905243-.3905243-1.0236893-.3905243-1.4142136 0l-6.373961 6.3721068-3.5528933-3.5521068c-.3905242-.3905243-1.0236892-.3905243-1.41421352 0-.39052429.3905243-.39052429 1.0236893 0 1.4142135l4.24264072 4.2426407c.1248227.1248228.2744342.2097486.4324593.2548429.3444091.108768.7360684.0266294 1.0091135-.2464157l7.0710679-7.0710679c.3905242-.3905242.3905242-1.0236892 0-1.4142135z" fill="#202327"/></g></svg>