<svg height="32" viewBox="0 0 32 32" width="32" xmlns="http://www.w3.org/2000/svg"><g fill="none" fill-rule="evenodd"><path d="m0 0h32v32h-32z"/><path d="m19.120106 0c1.8257724 0 3.5522076.83131873 4.6906771 2.25867017l4.8798939 6.11814718c.847677 1.06277155 1.309323 2.38190365 1.309323 3.74132985v13.8818528c0 3.3137085-2.6862915 6-6 6h-16c-3.3137085 0-6-2.6862915-6-6v-20c0-3.3137085 2.6862915-6 6-6zm-4.120106 11c-2.7614237 0-5 2.2385763-5 5s2.2385763 5 5 5c1.0173666 0 1.9637651-.3038511 2.7573593-.8284271l2.8284271 2.8284271c.3905243.3905243 1.0236893.3905243 1.4142136 0s.3905243-1.0236893 0-1.4142136l-2.8284271-2.8284271c.524576-.7935942.8284271-1.7399927.8284271-2.7573593 0-2.7614237-2.2385763-5-5-5zm0 2c1.6568542 0 3 1.3431458 3 3s-1.3431458 3-3 3-3-1.3431458-3-3 1.3431458-3 3-3z" fill="#202327"/></g></svg>