<svg height="32" viewBox="0 0 32 32" width="32" xmlns="http://www.w3.org/2000/svg"><g fill="none" fill-rule="evenodd"><path d="m0 0h32v32h-32z"/><path d="m16 0c8.836556 0 16 7.163444 16 16s-7.163444 16-16 16-16-7.163444-16-16 7.163444-16 16-16zm.0073593 8.8c-.5522847 0-1 .44771525-1 1l-.0007864 9.442694-3.9778932-3.9782279c-.3905243-.3905243-1.0236893-.3905243-1.41421361 0-.39052429.3905243-.39052429 1.0236893 0 1.4142136l5.65685421 5.6568542c.180242.180242.4121708.2772954.6480754.2911601h.1612086c.2359046-.0138647.4678334-.1109181.6480754-.2911601l5.6568542-5.6568542c.3905243-.3905243.3905243-1.0236893 0-1.4142136s-1.0236893-.3905243-1.4142136 0l-3.9647474 3.9642279.0007864-9.428694c0-.55228475-.4477152-1-1-1z" fill="#202327"/></g></svg>