<svg height="32" viewBox="0 0 32 32" width="32" xmlns="http://www.w3.org/2000/svg"><g fill="none" fill-rule="evenodd"><path d="m0 0h32v32h-32z"/><path d="m22.5042449 2.42842712 7.0710678 7.07106782c1.5620972 1.56209716 1.5620972 4.09475706 0 5.65685426l-14.385091 14.385091c-.7499593.7499593-1.7670647 1.1713713-2.8276674 1.1715728l-9.06909581.0017226c-1.04643424.0001989-1.90531743-.8032931-1.99300587-1.8270537l-.00737382-.1725664-.00172268-9.0730401c-.00020147-1.0611291.4212412-2.078855 1.17157281-2.8291866l14.38446167-14.38446168c1.5620972-1.56209716 4.0947571-1.56209716 5.6568543 0zm-4.1332173 1.31254815-.1094234.10166542-14.38446171 14.38446171c-.33348071.3334807-.53703.7725987-.57807537 1.2386958l-.00771103.1758975-.00010068 8.9880369.00191453.085101 9.06900456-.0018206c.4713789-.0000895.9255738-.1665832 1.2840467-.4669409l.1297869-.1188455 14.385091-14.385091c.7455464-.7455464.7794349-1.9332603.1016655-2.7190037l-.1016655-.1094234-7.0710678-7.07106781c-.7455463-.74554638-1.9332603-.77943485-2.7190037-.10166542zm1.1289724 5.25902473c1.9329966 0 3.5 1.5670034 3.5 3.5s-1.5670034 3.5-3.5 3.5-3.5-1.5670034-3.5-3.5 1.5670034-3.5 3.5-3.5zm0 2c-.8284271 0-1.5.6715729-1.5 1.5s.6715729 1.5 1.5 1.5 1.5-.6715729 1.5-1.5-.6715729-1.5-1.5-1.5z" fill="#000" fill-rule="nonzero"/></g></svg>