<svg height="32" viewBox="0 0 32 32" width="32" xmlns="http://www.w3.org/2000/svg"><path d="m16 0c8.836556 0 16 7.163444 16 16s-7.163444 16-16 16-16-7.163444-16-16 7.163444-16 16-16zm0 9c-.5522847 0-1 .44771525-1 1v6c0 .3182658.1486811.6018052.3810847.7842243.0254713.0327798.0532651.0643391.0833814.0944554l5.6568542 5.6568542c.3905243.3905243 1.0236893.3905243 1.4142136 0s.3905243-1.0236893 0-1.4142136l-5.5356849-5.5365909.000151-5.5847294c0-.55228475-.4477153-1-1-1z" fill="#202327" fill-rule="evenodd"/></svg>