<svg height="32" viewBox="0 0 32 32" width="32" xmlns="http://www.w3.org/2000/svg"><g fill="none" fill-rule="evenodd"><path d="m0 0h32v32h-32z"/><path d="m16 0c8.836556 0 16 7.163444 16 16s-7.163444 16-16 16-16-7.163444-16-16 7.163444-16 16-16zm0 2c-7.7319865 0-14 6.2680135-14 14s6.2680135 14 14 14 14-6.2680135 14-14-6.2680135-14-14-14zm.0790314 9.1650801c.2359046.0138648.4678334.1109182.6480754.2911601l5.6568542 5.6568543c.3905243.3905243.3905243 1.0236893 0 1.4142135-.3905243.3905243-1.0236892.3905243-1.4142135 0l-4.9708933-4.9712279-4.9717474 4.9712279c-.3905243.3905243-1.0236893.3905243-1.41421358 0-.39052429-.3905242-.39052429-1.0236892 0-1.4142135l5.65685428-5.6568543c.1802419-.1802419.4121707-.2772953.6480754-.2911601z" fill="#000" fill-rule="nonzero"/></g></svg>