<svg height="32" viewBox="0 0 32 32" width="32" xmlns="http://www.w3.org/2000/svg"><g fill="none" fill-rule="evenodd"><path d="m0 0h32v32h-32z"/><path d="m19.120106 0c1.8257724 0 3.5522076.83131873 4.6906771 2.25867017l4.8798939 6.11814718c.847677 1.06277155 1.309323 2.38190365 1.309323 3.74132985v13.8818528c0 3.3137085-2.6862915 6-6 6h-16c-3.3137085 0-6-2.6862915-6-6v-20c0-3.3137085 2.6862915-6 6-6zm0 2h-11.120106c-2.14219539 0-3.89107888 1.68396847-3.99510469 3.80035966l-.00489531.19964034v20c0 2.1421954 1.68396847 3.8910789 3.80035966 3.9951047l.19964034.0048953h16c2.1421954 0 3.8910789-1.6839685 3.9951047-3.8003597l.0048953-.1996403v-13.8818528c0-.8238947-.2543504-1.6255887-.7251774-2.29685957l-.1477046-.19736034-4.8798939-6.11814718c-.7115434-.89209465-1.767598-1.43495138-2.8997521-1.49932373zm-3.120106 8c1.0047863 0 1.954033.373228 2.6840264 1.0341634.4094091.3706786.4408064 1.0030646.0701278 1.4124737-.3421649.3779161-.9073231.4337393-1.3142572.1485425l-.0982166-.0784147c-.3656963-.3311012-.8379029-.5167649-1.3416804-.5167649-1.0543618 0-1.9181651.8158778-1.9945143 1.8507377l-.0054857.1492623h5l.031.001.1452728.0040927c1.5748072.0912464 2.8237272 1.3972264 2.8237272 2.9949073v4c0 1.6568542-1.3431458 3-3 3h-6c-1.6568542 0-3-1.3431458-3-3v-4c0-1.3062521.8348501-2.4175144 2.0000889-2.8293257l-.0000889-.1706743c0-2.209139 1.790861-4 4-4zm3 6h-6c-.5128358 0-.9355072.3860402-.9932723.8833789l-.0067277.1166211v4c0 .5128358.3860402.9355072.8833789.9932723l.1166211.0067277h6c.5128358 0 .9355072-.3860402.9932723-.8833789l.0067277-.1166211v-4c0-.5128358-.3860402-.9355072-.8833789-.9932723z" fill="#000" fill-rule="nonzero"/></g></svg>