<svg height="32" viewBox="0 0 32 32" width="32" xmlns="http://www.w3.org/2000/svg"><g fill="none" fill-rule="evenodd"><path d="m0 0h32v32h-32z"/><path d="m19.120106 0c1.8257724 0 3.5522076.83131873 4.6906771 2.25867017l4.8798939 6.11814718c.847677 1.06277155 1.309323 2.38190365 1.309323 3.74132985v13.8818528c0 3.3137085-2.6862915 6-6 6h-16c-3.3137085 0-6-2.6862915-6-6v-20c0-3.3137085 2.6862915-6 6-6zm0 2h-11.120106c-2.14219539 0-3.89107888 1.68396847-3.99510469 3.80035966l-.00489531.19964034v20c0 2.1421954 1.68396847 3.8910789 3.80035966 3.9951047l.19964034.0048953h16c2.1421954 0 3.8910789-1.6839685 3.9951047-3.8003597l.0048953-.1996403v-13.8818528c0-.8238947-.2543504-1.6255887-.7251774-2.29685957l-.1477046-.19736034-4.8798939-6.11814718c-.7115434-.89209465-1.767598-1.43495138-2.8997521-1.49932373zm2.3812459 9c.5522848 0 1 .4477153 1 1s-.4477152 1-1 1l-1.4861752.0003892c1.24224 1.1376841 1.9848233 2.7722199 1.9848233 4.5361625 0 3.3663097-2.681656 6.1034483-6 6.1034483s-6-2.7371386-6-6.1034483c0-2.7204066 1.7659114-5.0936556 4.298494-5.8542886.5289435-.1588623 1.0865202.1411478 1.2453825.6700913s-.1411478 1.0865202-.6700912 1.2453825c-1.6870648.5066911-2.8737853 2.1015522-2.8737853 3.9388148 0 2.2708036 1.7954965 4.1034483 4 4.1034483s4-1.8326447 4-4.1034483c0-1.2699108-.5662037-2.435897-1.4980887-3.2022671l-.0005594 1.6657154c0 .5522847-.4477152 1-1 1-.5522847 0-1-.4477153-1-1v-4c0-.5522847.4477153-1 1-1z" fill="#000" fill-rule="nonzero"/></g></svg>