<svg height="32" viewBox="0 0 32 32" width="32" xmlns="http://www.w3.org/2000/svg"><g fill="none" fill-rule="evenodd"><path d="m0 0h32v32h-32z"/><path d="m19.120106 0c1.8257724 0 3.5522076.83131873 4.6906771 2.25867017l4.8798939 6.11814718c.847677 1.06277155 1.309323 2.38190365 1.309323 3.74132985v13.8818528c0 3.3137085-2.6862915 6-6 6h-16c-3.3137085 0-6-2.6862915-6-6v-20c0-3.3137085 2.6862915-6 6-6zm2.3812459 11h-4c-.5522847 0-1 .4477153-1 1v4c0 .5522847.4477153 1 1 1 .5522848 0 1-.4477153 1-1l.0005594-1.6657154c.931885.7663701 1.4980887 1.9323563 1.4980887 3.2022671 0 2.2708036-1.7954965 4.1034483-4 4.1034483s-4-1.8326447-4-4.1034483c0-1.8372626 1.1867205-3.4321237 2.8737853-3.9388148.5289434-.1588623.8289535-.716439.6700912-1.2453825s-.716439-.8289536-1.2453825-.6700913c-2.5325826.760633-4.298494 3.133882-4.298494 5.8542886 0 3.3663097 2.681656 6.1034483 6 6.1034483s6-2.7371386 6-6.1034483c0-1.7639426-.7425833-3.3984784-1.9848233-4.5361625l1.4861752-.0003892c.5522848 0 1-.4477153 1-1s-.4477152-1-1-1z" fill="#202327"/></g></svg>