<svg height="32" viewBox="0 0 32 32" width="32" xmlns="http://www.w3.org/2000/svg"><g fill="none" fill-rule="evenodd"><path d="m0 0h32v32h-32z"/><path d="m19.120106 0c1.8257724 0 3.5522076.83131873 4.6906771 2.25867017l4.8798939 6.11814718c.847677 1.06277155 1.309323 2.38190365 1.309323 3.74132985v13.8818528c0 3.3137085-2.6862915 6-6 6h-16c-3.3137085 0-6-2.6862915-6-6v-20c0-3.3137085 2.6862915-6 6-6zm-3.120106 10c-2.209139 0-4 1.790861-4 4l.0000889.1706743c-1.1652388.4118113-2.0000889 1.5230736-2.0000889 2.8293257v4c0 1.6568542 1.3431458 3 3 3h6c1.6568542 0 3-1.3431458 3-3v-4c0-1.5976809-1.24892-2.9036609-2.8237272-2.9949073l-.1452728-.0040927-.031-.001h-5l.0054857-.1492623c.0763492-1.0348599.9401525-1.8507377 1.9945143-1.8507377.5037775 0 .9759841.1856637 1.3416804.5167649l.0982166.0784147c.4069341.2851968.9720923.2293736 1.3142572-.1485425.3706786-.4094091.3392813-1.0417951-.0701278-1.4124737-.7299934-.6609354-1.6792401-1.0341634-2.6840264-1.0341634zm3 6 .1166211.0067277c.4973387.0577651.8833789.4804365.8833789.9932723v4l-.0067277.1166211c-.0577651.4973387-.4804365.8833789-.9932723.8833789h-6l-.1166211-.0067277c-.4973387-.0577651-.8833789-.4804365-.8833789-.9932723v-4l.0067277-.1166211c.0577651-.4973387.4804365-.8833789.9932723-.8833789z" fill="#202327"/></g></svg>