<svg height="32" viewBox="0 0 32 32" width="32" xmlns="http://www.w3.org/2000/svg"><g fill="none" fill-rule="evenodd"><path d="m0 0h32v32h-32z"/><path d="m19.120106 0c1.8257724 0 3.5522076.83131873 4.6906771 2.25867017l4.8798939 6.11814718c.847677 1.06277155 1.309323 2.38190365 1.309323 3.74132985v13.8818528c0 3.3137085-2.6862915 6-6 6h-16c-3.3137085 0-6-2.6862915-6-6v-20c0-3.3137085 2.6862915-6 6-6zm-5.2540806 21.0980762 2.1338076-3.6963448 2.1341416 3.6963448c.0040669.0070441.0082066.01402.0121331.0208121.0128314.0210798.0264724.0417291.0414558.0623632l.0241643.0325816c.0138689.017767.0283845.0351155.0440527.0524827.0119721.0133604.0242582.0263438.0367698.0388752l.0399369.0378467c.0146214.0131062.0295845.0257358.0449592.0377876l.0485536.0361747.047.03-.0362611-.0225894.0098635.006848.0246537.0158309.0287439.0170121c.00657.0037932.0131651.0075033.0194476.0111064.017707.0096792.0356815.0188085.0544503.0276044l.0436887.0193094c.0178209.0073601.0358411.0142017.0547495.0209435.0196295.0068307.0393786.0130138.0586724.0181538.013259.0037021.0265934.007132.0402806.0106224.0232395.0054677.0465783.0100734.0701165.0136106l.0279526.0043177c.027056.0035533.0541624.0059795.0805287.0071692.0026667.0001363.0053345.000262.0080031.000377l.0923339-.0002905c.0268114-.0013261.0536393-.0037388.0803295-.0074572l.0281851-.0038979c.0233941-.0037555.0467329-.0083612.0702589-.0141641l.0394471-.0098844c.0181437-.0050687.0362107-.0106728.0543363-.0170574.0218286-.0074344.0434109-.0156227.0649203-.0245882l.0432989-.0209763.059-.03-.0084293.0056506.0184293-.010549.0267648-.0157852c.0190178-.0117594.0376785-.0241819.0564105-.0378037.010214-.0073133.0202545-.0147922.0296152-.0218577.0206166-.0159682.0406755-.0328033.0602491-.0506887l.0340752-.0324404c.011162-.0111708.0220913-.022642.0329746-.0345414.0176861-.0194423.0345212-.0395012.0499162-.0596133l.0229773-.0305862c.0130754-.0182655.0254979-.0369262.0372573-.055944l.0097598-.016841.0060254-.0099238 3.5-6.0621778c.2761424-.4782926.1122672-1.089883-.3660254-1.3660254s-1.089883-.1122672-1.3660254.3660254l-2.6341416 4.561833-2.1338076-3.6958076c-.0056356-.0097611-.0114108-.0193912-.0170121-.0287439l-.0332515-.0497591c-.0106522-.0150582-.0216626-.0297434-.0329181-.0441453-.0121465-.0152801-.0247761-.0302431-.0377616-.0446274l-.0378972-.0401035c-.0126015-.0125822-.0255849-.0248683-.0394204-.0373567-.0168921-.0151518-.0342406-.0296674-.0513717-.0428614l-.0573928-.0413265.0237088.0159409c-.0100838-.0072185-.020288-.014238-.0306063-.0210568l-.0301025-.0188841-.0011879-.0009685-.0208121-.0121331c-.0042298-.0024421-.00847-.0048498-.0123318-.007179-.0216079-.0120408-.0436232-.0232575-.0658629-.0335489-.0139362-.0065023-.0279594-.0126558-.0424399-.0185453-.0160728-.0065764-.0323061-.0127319-.0486802-.0186337-.0206239-.0072512-.0413816-.0137861-.0617905-.0192376-.0171764-.0047941-.0344794-.0091313-.0521441-.0133314-.0156256-.003473-.0312926-.0065583-.047025-.0090157-.0255808-.0044197-.0513497-.0078513-.0772696-.0104427l-.0321823-.002332c-.0199101-.0012206-.0398798-.0018479-.0602857-.0018748-.0200739.000019-.0401153.000643-.0593429.0017109-.011704.0006865-.0234098.0015805-.0356543.0029002-.0250447.0024116-.0499685.0057626-.0747537.0097947-.0156951.0027011-.0313621.0057864-.0472427.0095844-.0174424.0038824-.0347777.0082286-.0514389.0126306-.0228956.0063962-.0456691.013645-.06889.0221389l-.0364351.0137505-.0612304.0267325-.02.01.0174861-.0083343-.020385.0101176-.0297693.0159361-.0361231.0211327-.0537444.0356265c-.0168337.0118785-.0332025.0242042-.0490313.0367328l-.0358695.0303336c-.0154112.0135943-.0303298.0276031-.0449427.0421939-.0143964.0144186-.0284053.0293371-.0421313.0447824l-.0299834.0357674-.0415061.0547113-.0038433.0064764-.0096044.0139628-.0176239.0276933-.0059284.0088675-.0080254.0149238-2.1341416 3.6958076-2.6338076-4.561833c-.2761424-.4782926-.88773278-.6421678-1.3660254-.3660254s-.64216778.8877328-.3660254 1.3660254l3.5 6.0621778c.0040669.0070441.0082066.01402.0121331.0208121.0128314.0210798.0264724.0417291.0414558.0623632l.0241643.0325816c.0138689.017767.0283845.0351155.0440527.0524827.0119721.0133604.0242582.0263438.0367698.0388752l.0399369.0378467c.0146214.0131062.0295845.0257358.0449592.0377876l.0485536.0361747.047.03-.0362611-.0225894.0098635.006848.0246537.0158309.0287439.0170121c.00657.0037932.0131651.0075033.0194476.0111064.017707.0096792.0356815.0188085.0544503.0276044l.0436887.0193094c.0178209.0073601.0358411.0142017.0547495.0209435.0196295.0068307.0393786.0130138.0586724.0181538.013259.0037021.0265934.007132.0402806.0106224.0232395.0054677.0465783.0100734.0701165.0136106l.0279526.0043177c.027056.0035533.0541624.0059795.0885318.0075462l.0923339-.0002905c.0268114-.0013261.0536393-.0037388.0803295-.0074572l.0281851-.0038979c.0233941-.0037555.0467329-.0083612.0702589-.0141641l.0394471-.0098844c.0181437-.0050687.0362107-.0106728.0543363-.0170574.0218286-.0074344.0434109-.0156227.0649203-.0245882l.0432989-.0209763.059-.03-.0084293.0056506.0184293-.010549c.0102139-.005897.0202844-.011947.0297325-.0176274.0179922-.0112126.0356618-.0230205.0534428-.0359615.010214-.0073133.0202545-.0147922.0296152-.0218577.0206166-.0159682.0406755-.0328033.0602491-.0506887l.0340752-.0324404c.011162-.0111708.0220913-.022642.0329746-.0345414.0176861-.0194423.0345212-.0395012.0499162-.0596133l.0229773-.0305862c.0130754-.0182655.0254979-.0369262.0372573-.055944l.0097598-.016841z" fill="#202327"/></g></svg>