<svg height="32" viewBox="0 0 32 32" width="32" xmlns="http://www.w3.org/2000/svg"><g fill="none" fill-rule="evenodd"><path d="m0 0h32v32h-32z"/><path d="m17.600755 2.75782884c.380374.23934099.7021155.56108252.9414565.94145653l11.4995928 18.27579283c.8823879 1.4023401.4608835 3.254478-.9414565 4.136866-.4785067.3010885-1.0323526.4608387-1.5977047.4608387h-22.99918566c-1.65685425 0-3-1.3431457-3-3 0-.5653521.15975021-1.1191979.46083878-1.5977047l11.49959278-18.27579283c.882388-1.40234002 2.7345259-1.82384446 4.136866-.94145653zm-1.600755 17.14217116c-.7731986 0-1.4.6268014-1.4 1.4s.6268014 1.4 1.4 1.4 1.4-.6268014 1.4-1.4-.6268014-1.4-1.4-1.4zm0-10.5c-.5522847 0-1 .44771525-1 1v7c0 .5522847.4477153 1 1 1s1-.4477153 1-1v-7c0-.55228475-.4477153-1-1-1z" fill="#202327"/></g></svg>