<svg height="32" viewBox="0 0 32 32" width="32" xmlns="http://www.w3.org/2000/svg"><g fill="none" fill-rule="evenodd"><path d="m0 0h32v32h-32z"/><path d="m15.8003597.00489531c-2.1163912.10402581-3.8003597 1.8529093-3.8003597 3.99510469v5.304l-12 4.0189658v5.9122678l12.086-2.0282336.567 7.35-3.0609657 2.349477c-.53644978.4116206-.82859327 1.0664273-.77657096 1.7405962l.07305513.9467377c.01991567.2580918.08974461.509863.20561185.7413425.49441371.9877393 1.69593608 1.3876586 2.68367538.8932449l4.2160838-2.1103642 4.2298871 2.1126187c.2310026.1153744.4821611.1849253.7396062.204812 1.1012887.0850708 2.063023-.7387367 2.1480937-1.8400253l.0759691-.9834623.005906-.1681312c-.0042487-.6140475-.2911073-1.1960898-.7834488-1.5733811l-3.0619028-2.3464649.565-7.304 12.087 2.0216472v-5.8991468l-12-4.0365004v-5.306c0-2.209139-1.790861-4-4-4z" fill="#202327" fill-rule="nonzero"/></g></svg>