<svg height="32" viewBox="0 0 32 32" width="32" xmlns="http://www.w3.org/2000/svg"><g fill="none" fill-rule="evenodd"><path d="m0 0h32v32h-32z"/><path d="m16 17c.5522847 0 1 .4477153 1 1v10c0 .5522847-.4477153 1-1 1s-1-.4477153-1-1v-10c0-.5522847.4477153-1 1-1zm6 0c.5522847 0 1 .4477153 1 1 0 3.5960656 1.7367768 6.8992385 4.6073687 8.9529161.4491716.3213461.5527946.9459741.2314484 1.3951457-.3213461.4491716-.9459741.5527946-1.3951457.2314485-3.3900202-2.4252868-5.4436714-6.3311225-5.4436714-10.5795103 0-.5522847.4477153-1 1-1zm-12 0c.5522847 0 1 .4477153 1 1 0 4.2435001-2.04890255 8.1453882-5.43243138 10.5714599-.44883053.3218223-1.0735681.2188618-1.3953904-.2299687-.32182231-.4488306-.2188618-1.0735681.22996874-1.3953904 2.86509777-2.0543441 4.59785304-5.3541679 4.59785304-8.9461008 0-.5522847.44771525-1 1-1zm17-15c2.7614237 0 5 2.23857625 5 5v4c0 2.7614237-2.2385763 5-5 5h-22c-2.76142375 0-5-2.2385763-5-5v-4c0-2.76142375 2.23857625-5 5-5zm0 2h-22c-1.65685425 0-3 1.34314575-3 3v4c0 1.6568542 1.34314575 3 3 3h22c1.6568542 0 3-1.3431458 3-3v-4c0-1.65685425-1.3431458-3-3-3zm0 6c.5522847 0 1 .4477153 1 1s-.4477153 1-1 1h-22c-.55228475 0-1-.4477153-1-1s.44771525-1 1-1z" fill="#000" fill-rule="nonzero"/></g></svg>