<svg height="32" viewBox="0 0 32 32" width="32" xmlns="http://www.w3.org/2000/svg"><g fill="none" fill-rule="evenodd"><path d="m0 0h32v32h-32z"/><path d="m23 17v1c0 3.4836886 1.6299243 6.6925042 4.3415908 8.7567524l.2657779.1961637.8132971.5818486-1.1636973 1.6265942-.8132971-.5818486c-3.2931625-2.3559929-5.325229-6.1091405-5.4386588-10.2162282l-.0050126-.3632821v-1zm-12 0v1c0 4.1222573-1.93349498 7.9221443-5.14569975 10.3599231l-.28673163.2115368-.81267957.5827108-1.16542166-1.6253591.81267957-.5827108c2.77556346-1.9901459 4.48845003-5.1491452 4.59279493-8.610242l.00505811-.3358588v-1zm6 0v12h-2v-12zm15-15v14h-32v-14zm-4 8h-24v2h24z" fill="#202327"/></g></svg>