<svg height="32" viewBox="0 0 32 32" width="32" xmlns="http://www.w3.org/2000/svg"><g fill="none" fill-rule="evenodd"><path d="m0 0h32v32h-32z"/><path d="m16 0c-2.209139 0-4 1.790861-4 4v4.58572643c0 .42994827-.2748234.8117724-.6825297.94826821l-8.7332815 2.92381166c-1.54365445.5167994-2.5841888 1.9624591-2.5841888 3.590326v.8237031c0 .1108525.00921618.2215131.02755332.3308385.18271705 1.0893522 1.21393294 1.8243252 2.30328516 1.6416082l9.75624752-1.6364154.5670875 7.3490151-3.0621392 2.3495952c-.53644978.4116206-.82859327 1.0664273-.77657096 1.7405962l.07305513.9467377c.01991567.2580918.08974461.509863.20561185.7413425.49441371.9877393 1.69593608 1.3876586 2.68367538.8932449l4.2160838-2.1103642 4.2298871 2.1126187c.2310026.1153744.4821611.1849253.7396062.204812 1.1012887.0850708 2.063023-.7387367 2.1480937-1.8400253l.0759691-.9834623c.0521152-.6746606-.240443-1.3299218-.7775428-1.7415123l-3.0612141-2.3458707.5641829-7.3036664 9.7573463 1.6312277c.1089824.0182196.2192872.0273764.3297821.0273764 1.1045695 0 2-.8954305 2-2v-.8186299c0-1.6242722-1.0370463-3.0671913-2.5765766-3.5849815l-8.7422063-2.94026564c-.407034-.13689774-.6812171-.51838893-.6812171-.94782778v-4.58782708c0-2.209139-1.790861-4-4-4zm0 2c1.1045695 0 2 .8954305 2 2v4.58782708c0 1.28831655.8225492 2.43279012 2.0436514 2.84348332l8.7422063 2.9402657c.7254622.2439946 1.2141423.9239314 1.2141423 1.6893259v.8186299l-9.7573463-1.6312277c-1.0894499-.1821336-2.120272.5533916-2.3024056 1.6428415-.0097361.0582375-.0168885.1168775-.021436.1757479l-.564183 7.3036664c-.0521152.6746606.240443 1.3299218.7775428 1.7415123l3.0612141 2.3458707-.075969.9834623-4.2298872-2.1126188c-.5631792-.2812801-1.2259242-.2809883-1.7888556.0007874l-4.2160837 2.1103643-.0730551-.9467378 3.0621392-2.3495952c.5364497-.4116207.8285932-1.0664273.7765709-1.7405962l-.5670875-7.3490151c-.0849816-1.1012955-1.0466492-1.9251808-2.1479448-1.8401992-.0592807.0045744-.1183279.01179-.1769657.0216253l-9.7562475 1.6364154v-.8237031c0-.7679704.49088753-1.4499818 1.21912944-1.6937896l8.73328156-2.9238116c1.2231188-.4094875 2.047589-1.55495987 2.047589-2.84480467v-4.58572643c0-1.1045695.8954305-2 2-2z" fill="#000" fill-rule="nonzero"/></g></svg>