<svg height="32" viewBox="0 0 32 32" width="32" xmlns="http://www.w3.org/2000/svg"><g fill="none" fill-rule="evenodd"><path d="m0 0h32v32h-32z"/><path d="m19.120106 0c1.8257724 0 3.5522076.83131873 4.6906771 2.25867017l4.8798939 6.11814718c.847677 1.06277155 1.309323 2.38190365 1.309323 3.74132985v13.8818528c0 3.3137085-2.6862915 6-6 6h-16c-3.3137085 0-6-2.6862915-6-6v-20c0-3.3137085 2.6862915-6 6-6zm3.0349301 11.3431507c-1.7733211-1.77332115-4.5783198-1.95282215-6.5574078-.4485806-.4396938.3341973-.5252157.9615599-.1910185 1.4012537.3341973.4396938.9615599.5252157 1.4012537.1910185 1.1854098-.9009921 2.869196-.7932412 3.9329591.2705219 1.1715662 1.1715663 1.1715728 3.0710678 0 4.2426407l-3.5251795 3.5340342-1.7153229 1.7064682-.1284695.1212599c-1.179998 1.0509503-2.9865851 1.0106028-4.1163095-.1191216-1.1297376-1.1297376-1.1700851-2.9363247-.1210492-4.1144025l.0417521-.0457432.0837779-.0732805 2.2879008-2.2879007.0872208-.0777064c.3925176-.3108255.964363-.2849233 1.3269927.0777064.3905243.3905243.3905243 1.0236892 0 1.4142135l-2.2615341 2.2615342-.0777064.0872208c-.3108254.3925176-.2849233.964363.0777064 1.3269927.3905243.3905243 1.0236893.3905243 1.4142135 0l2.2615342-2.2615341.1210426-.1282448c1.0490359-1.1780778 1.0086884-2.9846649-.1210426-4.1143959-1.1715729-1.1715729-3.0710678-1.1715729-4.2426407 0l-.8729293.8734295-.0870101.0779423-.6318556.6314771-.69753509.6927859c-1.95567295 1.9556729-1.95567953 5.1214912-.00305149 7.0741193 1.95261488 1.9526148 5.11844638 1.9526214 7.07106778 0l2.3122913-2.2983554.0627792-.0706888 2.8675702-2.8735965.1500911-.1566372c1.8011716-1.9617731 1.751139-5.0132005-.1500911-6.9144306z" fill="#202327"/></g></svg>