<svg height="32" viewBox="0 0 32 32" width="32" xmlns="http://www.w3.org/2000/svg"><g fill="none" fill-rule="evenodd"><path d="m0 0h32v32h-32z"/><path d="m22.0092457 0 7.9907543 10.0183757v21.9816243h-28v-32zm.1457904 11.3431507c-1.7733211-1.77332115-4.5783198-1.95282215-6.5574078-.4485806l1.2102352 1.5922722.1445698-.1032805c1.1745509-.7875619 2.7671764-.6474104 3.7883893.3738024 1.1715662 1.1715663 1.1715728 3.0710678 0 4.2426407l-3.6794879 3.6895449-1.5610145 1.5509575-.1284695.1212599c-1.179998 1.0509503-2.9865851 1.0106028-4.1163095-.1191216-1.1297376-1.1297376-1.1700851-2.9363247-.1210492-4.1144025l.1188267-.1270605.0067033.0080368 2.2879008-2.2879007.0872208-.0777064c.3925176-.3108255.964363-.2849233 1.3269927.0777064.3905243.3905243.3905243 1.0236892 0 1.4142135l-2.2615341 2.2615342 1.4142135 1.4142135 2.2615342-2.2615341.1210426-.1282448c1.0490359-1.1780778 1.0086884-2.9846649-.1210426-4.1143959-1.1715729-1.1715729-3.0710678-1.1715729-4.2426407 0l-.9553438.9547459-.0045956-.0033741-.6318556.6314771-.69753509.6927859c-1.95567295 1.9556729-1.95567953 5.1214912-.00305149 7.0741193 1.95261488 1.9526148 5.11844638 1.9526214 7.07106778 0l2.3122913-2.2983554-.0036888-.0042208 2.9340382-2.9400645.1500911-.1566372c1.8011716-1.9617731 1.751139-5.0132005-.1500911-6.9144306z" fill="#202327"/></g></svg>