<svg height="32" viewBox="0 0 32 32" width="32" xmlns="http://www.w3.org/2000/svg"><g fill="none" fill-rule="evenodd"><path d="m0 0h32v32h-32z"/><path d="m24 2c3.3137085 0 6 2.6862915 6 6v16c0 3.3137085-2.6862915 6-6 6h-16c-3.3137085 0-6-2.6862915-6-6v-16c0-3.3137085 2.6862915-6 6-6zm-4 5c-.5522847 0-1 .44771525-1 1v3h-3c-.5522847 0-1 .4477153-1 1s.4477153 1 1 1h3v3c0 .5522847.4477153 1 1 1s1-.4477153 1-1v-3h3c.5522847 0 1-.4477153 1-1s-.4477153-1-1-1h-3v-3c0-.55228475-.4477153-1-1-1z" fill="#202327"/></g></svg>