<svg height="32" viewBox="0 0 32 32" width="32" xmlns="http://www.w3.org/2000/svg"><g fill="none" fill-rule="evenodd"><path d="m0 0h32v32h-32z"/><path d="m16 4c7.7319865 0 14 6.2680135 14 14s-6.2680135 14-14 14-14-6.2680135-14-14 6.2680135-14 14-14zm0 2c-6.627417 0-12 5.372583-12 12s5.372583 12 12 12 12-5.372583 12-12-5.372583-12-12-12zm1 6-.000151 5.5845783 4.8285781 4.8296353-1.4142135 1.4142135-5.4142136-5.4119493v-6.4164778zm8.1715729-10.24264069 6.363961 6.36396103-1.4142136 1.41421357-6.363961-6.36396103zm-18.34314578 0 1.41421357 1.41421357-6.36396103 6.36396103-1.41421357-1.41421357z" fill="#000" fill-rule="nonzero"/></g></svg>