<svg height="32" viewBox="0 0 32 32" width="32" xmlns="http://www.w3.org/2000/svg"><g fill="none" fill-rule="evenodd"><path d="m0 0h32v32h-32z"/><path d="m22.5 0c1.9329966 0 3.5 1.56700338 3.5 3.5v1.5c0 .32936254-.0796149.64013003-.2206496.91410747.165863.25563399.2753465.55371607.3093177.87644186l1.7894736 16.99999997c.0419238.3982752-.0360896.7815318-.2049355 1.1138172.2068267.315045.3267938.6913294.3267938 1.0956335v2c0 1.1045695-.8954305 2-2 2h-1v1c0 .5522847-.4477153 1-1 1s-1-.4477153-1-1v-1h-14v1c0 .5522847-.44771525 1-1 1s-1-.4477153-1-1v-1h-1c-1.0543618 0-1.91816512-.8158778-1.99451426-1.8507377l-.00548574-.1492623v-2c0-.4047446.12022861-.7814082.32692039-1.0962256-.13852854-.2713079-.21621343-.5785096-.21621343-.9038555 0-.069934.00366807-.1398198.0109891-.2093696l1.78947368-16.99999997c.03401625-.32315437.14374564-.62159955.31043636-.87845398-.14218529-.27272331-.2216061-.58313447-.2216061-.91209535v-1.5c0-1.93299662 1.56700338-3.5 3.5-3.5zm3.5 26h-20v2h20zm-18.02506755-19.00015387-.0747518.00007277-1.78947369 17h19.77842384l-1.7894736-17-.0996572.0000811h-16c-.00836795 0-.0167239-.00005139-.02506755-.00015387zm6.02506755 2.00015387c.5522847 0 1 .44771525 1 1 0 .5522847-.4477153 1-1 1h-3c-.5522847 0-1-.4477153-1-1 0-.55228475.4477153-1 1-1zm7 0c.5522847 0 1 .44771525 1 1 0 .5522847-.4477153 1-1 1h-3c-.5522847 0-1-.4477153-1-1 0-.55228475.4477153-1 1-1zm1.5-7h-13c-.82842712 0-1.5.67157288-1.5 1.5v1.499l16 .001v-1.5c0-.82842712-.6715729-1.5-1.5-1.5z" fill="#000" fill-rule="nonzero"/></g></svg>