<svg height="32" viewBox="0 0 32 32" width="32" xmlns="http://www.w3.org/2000/svg"><g fill="none" fill-rule="evenodd"><path d="m0 0h32v32h-32z"/><path d="m19.120106 0c1.8257724 0 3.5522076.83131873 4.6906771 2.25867017l4.8798939 6.11814718c.847677 1.06277155 1.309323 2.38190365 1.309323 3.74132985v13.8818528c0 3.3137085-2.6862915 6-6 6h-16c-3.3137085 0-6-2.6862915-6-6v-20c0-3.3137085 2.6862915-6 6-6zm-2.9086619 11.7616966c-.3905243-.3905243-1.0236893-.3905243-1.4142136 0l-4.2426407 4.2426407c-.180242.180242-.2772954.4121707-.2911601.6480754v.1683153c.0138647.2359046.1109181.4678334.2911601.6480754l4.2426407 4.2426407c.3905243.3905242 1.0236893.3905242 1.4142136 0 .3905242-.3905243.3905242-1.0236893 0-1.4142136l-2.5598738-2.5614271 7.085.0007669c.5522848 0 1-.4477152 1-1 0-.5522847-.4477152-1-1-1l-7.085-.0007669 2.5598738-2.5598933c.3905242-.3905242.3905242-1.0236892 0-1.4142135z" fill="#202327"/></g></svg>