<svg height="32" viewBox="0 0 32 32" width="32" xmlns="http://www.w3.org/2000/svg"><g fill="none" fill-rule="evenodd"><path d="m0 0h32v32h-32z"/><path d="m21 1c1.6568542 0 3 1.34314575 3 3v3c0 2.22044953-1.206164 4.1591844-2.999037 5.1967496l-.000963 13.8032504c0 2.7614237-2.2385763 5-5 5-2.6887547 0-4.8818181-2.1223067-4.9953805-4.7831104l-.0046195-.2168896.0000394-13.8026704c-1.79342585-1.0374226-3.0000394-2.97646627-3.0000394-5.1973296v-3c0-1.65685425 1.34314575-3 3-3zm-3 12h-4c-.3406453 0-.6746604-.0283876-.9998085-.0829263l-.0001915 13.0829263c0 1.6568542 1.3431458 3 3 3 1.5976809 0 2.9036609-1.24892 2.9949073-2.8237272l.0050927-.1762728.0008069-13.0830939c-.3254628.0546481-.6598129.0830939-1.0008069.0830939zm-2 2c.5522847 0 1 .4477153 1 1v3c0 .5522847-.4477153 1-1 1s-1-.4477153-1-1v-3c0-.5522847.4477153-1 1-1zm5-12h-10c-.5128358 0-.9355072.38604019-.9932723.88337887l-.0067277.11662113v3c0 2.14219539 1.6839685 3.8910789 3.8003597 3.9951047l.1996403.0048953h4c2.1421954 0 3.8910789-1.68396847 3.9951047-3.80035966l.0048953-.19964034v-3c0-.51283584-.3860402-.93550716-.8833789-.99327227z" fill="#000" fill-rule="nonzero"/></g></svg>