<svg height="32" viewBox="0 0 32 32" width="32" xmlns="http://www.w3.org/2000/svg"><g fill="none" fill-rule="evenodd"><path d="m0 0h32v32h-32z"/><path d="m25 0c2.209139 0 4 1.790861 4 4v22c0 2.209139-1.790861 4-4 4v1c0 .5522847-.4477153 1-1 1s-1-.4477153-1-1v-1h-14v1c0 .5522847-.44771525 1-1 1s-1-.4477153-1-1v-1c-2.209139 0-4-1.790861-4-4v-22c0-2.209139 1.790861-4 4-4zm-15 25c-.55228475 0-1 .4477153-1 1s.44771525 1 1 1c.5522847 0 1-.4477153 1-1s-.4477153-1-1-1zm12 0c-.5522847 0-1 .4477153-1 1s.4477153 1 1 1 1-.4477153 1-1-.4477153-1-1-1zm-9-16h-5c-1.1045695 0-2 .8954305-2 2v9c0 1.1045695.8954305 2 2 2h5c1.1045695 0 2-.8954305 2-2v-9c0-1.1045695-.8954305-2-2-2zm11 0h-5c-1.1045695 0-2 .8954305-2 2v9c0 1.1045695.8954305 2 2 2h5c1.1045695 0 2-.8954305 2-2v-9c0-1.1045695-.8954305-2-2-2zm-16.5-6c-.82842712 0-1.5.67157288-1.5 1.5s.67157288 1.5 1.5 1.5h17c.8284271 0 1.5-.67157288 1.5-1.5s-.6715729-1.5-1.5-1.5z" fill="#202327"/></g></svg>