<svg height="32" viewBox="0 0 32 32" width="32" xmlns="http://www.w3.org/2000/svg"><g fill="none" fill-rule="evenodd"><path d="m0 0h32v32h-32z"/><path d="m9.23482587.00572139c.93930353 0 1.78507463.08059702 2.55621893.24875622.7711443.16119403 1.4238806.4358209 1.9781094.80895523.5472637.37313432.9701493.87064676 1.280597 1.49253731.2985075.6159204.4477612 1.38706468.4477612 2.30149254 0 .98905472-.2238806 1.80995025-.6716418 2.46865671-.4537313.65870647-1.1134328 1.19402985-1.9960199 1.61691543 1.2069652.3482587 2.0955224.95721393 2.6925374 1.82189057.5970149.8706467.882587 1.9154229.882587 3.1472637 0 .9950248-.1930348 1.8467661-.5721393 2.5681592-.3684795.7049773-.8991275 1.3123578-1.5482587 1.7721393-.6467662.4597015-1.3930348.7960199-2.2258706 1.0139303-.8268657.2179105-1.679602.3293532-2.56218909.3293532h-9.49651741v-19.59004971zm-.55920398 7.91144279c.76517413 0 1.39900501-.1800995 1.89651741-.54726368.4975124-.36119403.7343284-.95820896.7343284-1.77810946 0-.45373134-.0805971-.83383084-.2427861-1.12537313-.1563744-.28384056-.3863204-.52031723-.6656716-.68457711-.2919609-.17454135-.61500999-.29078495-.95124383-.34228856-.36515082-.06830429-.73598443-.10162267-1.10746269-.09950249h-4.02985074v4.57711443zm.2358209 8.33930352c.42288557 0 .82686567-.037811 1.20696521-.1243781.3850746-.0865672.7273631-.2179105 1.0139303-.4169155.2855721-.1930348.5283582-.4477612.7024876-.7840796.1741293-.3293532.2547263-.7522388.2547263-1.2686567 0-1.0069652-.2855721-1.7293532-.8517413-2.1641791-.5661691-.4288557-1.31840791-.640796-2.25074622-.640796h-4.67661692v5.3920398h4.60199005zm13.63880601-.0686568c.5840796.5721393 1.4238806.8587065 2.5184079.8587065.7840796 0 1.4676617-.199005 2.0338309-.5970149.5661691-.39801.9084577-.8208955 1.0388059-1.2557214h3.4328359c-.5532339 1.7104478-1.3870647 2.9233831-2.5313433 3.6567164-1.1253732.7343284-2.5064677 1.1074627-4.1044776 1.1074627-1.119403 0-2.1203981-.1800995-3.0228856-.5353234-.8636868-.3370018-1.6443538-.8566545-2.2885572-1.5233831-.6338195-.6835481-1.1243869-1.4870636-1.4427861-2.363184-.3353234-.9144279-.5094527-1.9283583-.5094527-3.0228856-.0091524-1.0123846.1679209-2.0178236.522388-2.96616917.3542289-.92039801.839801-1.71044777 1.4865672-2.37512438.6467662-.66467662 1.4059701-1.19402985 2.3014925-1.58009951.8895523-.38507462 1.8716418-.57810945 2.960199-.57810945 1.2 0 2.2507463.22985075 3.1532339.70248756.8955224.46666667 1.6358209 1.09452737 2.2139303 1.87761194.5781095.78308458.9890547 1.68557214 1.2437811 2.69253731.2552003 1.0323882.3475244 2.0983117.2736318 3.159204h-10.242786c0 1.1134328.3731343 2.1771144.9641791 2.7422885zm4.4706467-7.4497512c-.4597015-.50945273-1.2497512-.79004975-2.200995-.79004975-.6218905 0-1.1383085.10547264-1.5482587.31741294-.3790972.1916945-.7155223.45805924-.9890547.78308457-.2487563.31144279-.4228856.64676617-.5223881 1.00099504-.0995025.3422885-.162189.6597015-.1800995.9333333h6.3432836c-.0935324-.99502485-.4358209-1.72935321-.9014926-2.2447761zm-6.2378109-7.1522388h7.9412935v1.93432835h-7.9412935z" fill="#000" fill-rule="nonzero" transform="translate(0 6)"/></g></svg>