<svg height="32" viewBox="0 0 32 32" width="32" xmlns="http://www.w3.org/2000/svg"><g fill="none" fill-rule="evenodd"><path d="m0 0h32v32h-32z"/><path d="m24 0v2h-1.269l1.6161904 6.03003794c.1362918-.01260449.2737161-.02130181.4121598-.02597892l.2406498-.00405902c3.8659932 0 7 3.1340068 7 7s-3.1340068 7-7 7-7-3.1340068-7-7c0-2.9479725 1.8223199-5.47031946 4.4019251-6.50200624l-.2609251-.97499376-10.0345187 2.6890815c1.1232566 1.1975132 1.830103 2.7902961 1.8894597 4.5472687l.004059.2406498c0 3.8659932-3.1340068 7-7 7-3.86599325 0-7-3.1340068-7-7s3.13400675-7 7-7c.83552424 0 1.63685849.14638476 2.37975505.41490657l-1.18375505-4.41490657h-2.196v-2h6v2h-1.733l1.159 4.324 10.197-2.733-.962-3.591h-3.661v-2zm-17 10c-2.76142375 0-5 2.2385763-5 5s2.23857625 5 5 5c2.41853874 0 4.4360122-1.7171644 4.8997409-3.9988136l-5.8997409-.0011864v-2l5.8999437-.000188c-.4633429-2.2821466-2.4810522-3.999812-4.8999437-3.999812zm18 0c-.04186 0-.0836.0005144-.1252137.0015372l1.5675585 5.8477908-1.9318516.517638-1.5849529-5.9176597c-1.7260388.7880965-2.9255403 2.5293158-2.9255403 4.5506937 0 2.7614237 2.2385763 5 5 5s5-2.2385763 5-5-2.2385763-5-5-5z" fill="#000" fill-rule="nonzero" transform="translate(0 4)"/></g></svg>