<svg height="32" viewBox="0 0 32 32" width="32" xmlns="http://www.w3.org/2000/svg"><g fill="none" fill-rule="evenodd"><path d="m0 0h32v32h-32z"/><path d="m26 0v5.949l1.8781417 17.8415493c.0252968.2403194.0069255.4751707-.0487199.6966553.0330097.0727011.0639282.1634687.098523.2770285l.0720552.2457669v4.99h-3v2h-2v-2h-14v2h-2v-2h-3v-4.99c.06845473-.2373411.11618355-.4028229.17121832-.5244772-.03980695-.1545176-.06051136-.3176429-.06051136-.4856039 0-.069934.00366807-.1398198.0109891-.2093696l1.87830394-17.8505493v-5.94zm0 26h-20v2h20zm-1.9000811-19.0000811-16.1999189.0000811-1.78929304 16.9999189h19.77842384zm-9.0999189 2.0000811v2h-5v-2zm7 0v2h-5v-2zm2-7h-16v2.999l16 .001z" fill="#000" fill-rule="nonzero"/></g></svg>