<svg height="32" viewBox="0 0 32 32" width="32" xmlns="http://www.w3.org/2000/svg"><g fill="none" fill-rule="evenodd"><path d="m0 0h32v32h-32z"/><path d="m21 1c1.6568542 0 3 1.34314575 3 3v3c0 2.61218135-1.6692877 4.8344797-3.9993141 5.6583461l-.0006859 13.3416539c0 2.209139-1.790861 4-4 4s-4-1.790861-4-4l.0003218-13.3412977c-2.33055284-.8235819-4.0003218-3.04614439-4.0003218-5.6587023v-3c0-1.65685425 1.34314575-3 3-3zm-5 14c-.5522847 0-1 .4477153-1 1v3c0 .5522847.4477153 1 1 1s1-.4477153 1-1v-3c0-.5522847-.4477153-1-1-1z" fill="#202327"/></g></svg>