<svg height="32" viewBox="0 0 32 32" width="32" xmlns="http://www.w3.org/2000/svg"><g fill="none" fill-rule="evenodd"><path d="m0 0h32v32h-32z"/><path d="m25 0c2.209139 0 4 1.790861 4 4v22c0 2.209139-1.790861 4-4 4v1c0 .5522847-.4477153 1-1 1s-1-.4477153-1-1v-1h-14v1c0 .5522847-.44771525 1-1 1s-1-.4477153-1-1v-1l-.19964034-.0048953c-2.11639119-.1040258-3.80035966-1.8529093-3.80035966-3.9951047v-22c0-2.209139 1.790861-4 4-4zm0 24h-18c-1.1045695 0-2 .8954305-2 2s.8954305 2 2 2h18c1.1045695 0 2-.8954305 2-2s-.8954305-2-2-2zm-15 1c.5522847 0 1 .4477153 1 1s-.4477153 1-1 1c-.55228475 0-1-.4477153-1-1s.44771525-1 1-1zm12 0c.5522847 0 1 .4477153 1 1s-.4477153 1-1 1-1-.4477153-1-1 .4477153-1 1-1zm5.0011092-17.53577067c-.5885973.34073717-1.272077.53577067-2.0011092.53577067h-8v14h8c.7290322 0 1.4125119.1950335 2.0011092.5357707zm-12.0011092.53477067-8 .001c-.728624 0-1.41174649-.19481516-2.00012044-.53519846v15.07039696c.58837395-.3403833 1.27149644-.5351985 2.00012044-.5351985h8zm-8-5.999-.14926234.00548574c-1.03485987.07634914-1.85073766.94015246-1.85073766 1.99451426 0 1.1045695.8954305 2 2 2h18c1.1045695 0 2-.8954305 2-2s-.8954305-2-2-2z" fill="#000" fill-rule="nonzero"/></g></svg>