<svg height="32" viewBox="0 0 32 32" width="32" xmlns="http://www.w3.org/2000/svg"><g fill="none" fill-rule="evenodd"><path d="m0 0h32v32h-32z"/><path d="m16 0c8.836556 0 16 7.163444 16 16s-7.163444 16-16 16-16-7.163444-16-16 7.163444-16 16-16zm4.5295977 13.7099741c-.5467643 0-1.0400516.0967484-1.4868589.2897466-.4498061.1934969-.8311417.4588071-1.1560016.791941-.3248599.3331338-.5687548.7291043-.7466781 1.1904049-.1780429.4753079-.2669839.9792308-.2623868 1.4866348 0 .5485737.0874623 1.0567524.2558896 1.5150608.1599267.4391089.4063306.8418283.7246876 1.1844205.3235727.3341623.7156888.5946106 1.1495044.7635149.4533045.1780371.9560877.2683024 1.5183453.2683024.8026539 0 1.4963548-.1870138 2.0616111-.5550569.5747522-.3675443.9935716-.9754637 1.2714518-1.8327348h-1.7242565c-.0654718.2179333-.2373977.4298823-.5217751.6293636-.2843774.1994814-.6277293.299222-1.0215595.299222-.549763 0-.9715811-.1436265-1.2649546-.430381-.2963722-.2832635-.4837914-.8163774-.4837914-1.3744265h5.1447817c.0371151-.5317159-.0092578-1.0659534-.1374407-1.5833832-.1279448-.5046878-.3343558-.9570117-.6247306-1.3494913-.2903748-.3924795-.6622145-.7071614-1.1120206-.9410533-.4533045-.2368841-.981077-.3520845-1.5838171-.3520845zm-7.8910976-2.5099741h-4.6385001v9.818472h4.7699434c.4433088 0 .8716242-.0558548 1.2869451-.1650708.4183196-.1092161.793158-.2777778 1.1180179-.5081788.3260479-.230441.5925836-.5348582.7776647-.8881907.1904179-.3615599.2873761-.78845.2873761-1.2871534 0-.6173948-.1434381-1.1410333-.4433088-1.5773987-.2998707-.4333733-.7461783-.7385797-1.3524169-.9131259.4433089-.211949.774666-.4802514 1.0025677-.810393.2249031-.3301416.3373546-.7415719.3373546-1.2372831 0-.4583084-.0749677-.8448035-.2249031-1.1535009-.1559327-.3116896-.3683411-.5610413-.6432226-.748055-.27838-.1870138-.6062386-.3246559-.9935716-.4054459-.387333-.0842808-.8121499-.1246758-1.2839464-.1246758zm-.1244464 5.438859c.4682981 0 .8461352.1062238 1.1305126.3211649.2843774.2179334.4278155.5799921.4278155 1.0846799 0 .258827-.0404825.470776-.1279448.6358468-.0874623.1685617-.2094097.2962298-.3528479.3929782-.1439379.0997407-.3158638.1655695-.5092804.2089567-.1909177.0433872-.3938302.062338-.6062386.062338l.0004998-.003491h-2.3115034v-2.7024735zm7.9525712-1.4582087c.4777939 0 .8746228.1406344 1.1055233.3959705.2343989.2583283.4063248.6263714.4533045 1.1250748h-3.1861262c.0089961-.1371434.0404825-.2962298.090461-.4677838.0499784-.1775384.1374407-.3456014.2623868-.5016956.1373909-.1629016.3063716-.2964028.4967859-.3924795.2059112-.1062238.4652993-.1590864.7776647-.1590864zm-8.2779309-2.3094953c.1865874-.0010626.3728509.0156364.5562602.0498703.1688846.0258135.3311468.0840744.4777939.171554.1403135.0823265.2558116.2008479.3343559.3431079.0814649.1461201.1219474.3366248.1219474.5640335 0 .4109316-.1189487.7101536-.368841.891183-.2498922.1840215-.568255.2742868-.9525892.2742868h-2.1930545v-2.2940355zm10.2390853-.879214h-3.9887802v.9694793h3.9887802z" fill="#202327"/></g></svg>