<svg height="32" viewBox="0 0 32 32" width="32" xmlns="http://www.w3.org/2000/svg"><g fill="none" fill-rule="evenodd"><path d="m0 0h32v32h-32z"/><path d="m28 5c2.1421954 0 3.8910789 1.68396847 3.9951047 3.80035966l.0048953.19964034v14c0 2.1421954-1.6839685 3.8910789-3.8003597 3.9951047l-.1996403.0048953-.1262135.0007613c-.4443075 1.7248409-2.0102213 2.9992387-3.8737865 2.9992387s-3.429479-1.2743978-3.8737865-2.9992387h-8.252427c-.4443075 1.7248409-2.01022125 2.9992387-3.8737865 2.9992387s-3.42947895-1.2743978-3.87378648-2.9992387l-.12621352-.0007613c-2.14219539 0-3.89107888-1.6839685-3.99510469-3.8003597l-.00489531-.1996403v-14c0-2.14219539 1.68396847-3.89107888 3.80035966-3.99510469l.19964034-.00489531zm-20 19c-1.1045695 0-2 .8954305-2 2s.8954305 2 2 2 2-.8954305 2-2-.8954305-2-2-2zm16 0c-1.1045695 0-2 .8954305-2 2s.8954305 2 2 2 2-.8954305 2-2-.8954305-2-2-2zm4-17h-24c-1.0543618 0-1.91816512.81587779-1.99451426 1.85073766l-.00548574.14926234v14c0 1.0543618.81587779 1.9181651 1.85073766 1.9945143l.14926234.0054857.12595483.0002435c.44395811-1.7253508 2.01011806-3.0002435 3.87404517-3.0002435s3.4300871 1.2748927 3.8740452 3.0002435h8.2519096c.4439581-1.7253508 2.0101181-3.0002435 3.8740452-3.0002435s3.4300871 1.2748927 3.8740452 3.0002435l.1259548-.0002435c1.0543618 0 1.9181651-.8158778 1.9945143-1.8507377l.0054857-.1492623v-14c0-1.0543618-.8158778-1.91816512-1.8507377-1.99451426zm-3 2c1.6568542 0 3 1.3431458 3 3v4c0 1.6568542-1.3431458 3-3 3h-18c-1.65685425 0-3-1.3431458-3-3v-4c0-1.6568542 1.34314575-3 3-3zm-14 2h-4c-.55228475 0-1 .4477153-1 1v4c0 .5522847.44771525 1 1 1h4zm8 0h-6v6h6zm6 0h-4v6h4c.5128358 0 .9355072-.3860402.9932723-.8833789l.0067277-.1166211v-4c0-.5522847-.4477153-1-1-1z" fill="#000" fill-rule="nonzero"/></g></svg>