<svg height="32" viewBox="0 0 32 32" width="32" xmlns="http://www.w3.org/2000/svg"><g fill="none" fill-rule="evenodd"><path d="m0 0h32v32h-32z"/><path d="m16 0c8.836556 0 16 7.163444 16 16s-7.163444 16-16 16-16-7.163444-16-16 7.163444-16 16-16zm0 2c-7.7319865 0-14 6.2680135-14 14s6.2680135 14 14 14 14-6.2680135 14-14-6.2680135-14-14-14zm-4.9728932 11.4579733 4.9708932 4.971228 4.9717475-4.971228c.3905243-.3905243 1.0236892-.3905243 1.4142135 0s.3905243 1.0236893 0 1.4142136l-5.6568542 5.6568542c-.180242.180242-.4121708.2772954-.6480754.2911602h-.1612085c-.2359047-.0138648-.4678335-.1109182-.6480754-.2911602l-5.65685428-5.6568542c-.39052429-.3905243-.39052429-1.0236893 0-1.4142136.39052428-.3905243 1.02368928-.3905243 1.41421358 0z" fill="#000" fill-rule="nonzero"/></g></svg>