<svg height="32" viewBox="0 0 32 32" width="32" xmlns="http://www.w3.org/2000/svg"><g fill="none" fill-rule="evenodd"><path d="m0 0h32v32h-32z"/><path d="m22.5 0c1.9329966 0 3.5 1.56700338 3.5 3.5v2.5c0 .10373602-.0157956.2037828-.0451127.29786639l1.9251719 18.53430641c.0770991.1735465.1199408.3656838.1199408.5678272v3.6c0 .5522847-.4477153 1-1 1h-2v1c0 .5522847-.4477153 1-1 1s-1-.4477153-1-1v-1h-14v1c0 .5522847-.44771525 1-1 1s-1-.4477153-1-1v-1h-2c-.55228475 0-1-.4477153-1-1v-3.6c0-.2021434.04284173-.3942807.11994076-.5678272l1.92517198-18.53430641c-.02931718-.09408359-.04511274-.19413037-.04511274-.29786639v-2.5c0-1.93299662 1.56700338-3.5 3.5-3.5zm-8.5 9h-4c-.55228475 0-1 .44771525-1 1v1c0 .5522847.44771525 1 1 1h4c.5522847 0 1-.4477153 1-1v-1c0-.55228475-.4477153-1-1-1zm8 0h-4c-.5522847 0-1 .44771525-1 1v1c0 .5522847.4477153 1 1 1h4c.5522847 0 1-.4477153 1-1v-1c0-.55228475-.4477153-1-1-1z" fill="#202327"/></g></svg>