<svg height="32" viewBox="0 0 32 32" width="32" xmlns="http://www.w3.org/2000/svg"><g fill="none" fill-rule="evenodd"><path d="m0 0h32v32h-32z"/><path d="m28 6c1.6568542 0 3 1.34314575 3 3v14c0 1.6568542-1.3431458 3-3 3h-1c0 1.6568542-1.3431458 3-3 3s-3-1.3431458-3-3h-10c0 1.6568542-1.34314575 3-3 3s-3-1.3431458-3-3h-1c-1.65685425 0-3-1.3431458-3-3v-14c0-1.65685425 1.34314575-3 3-3zm-20 6h-2c-.55228475 0-1 .4477153-1 1v5c0 .5522847.44771525 1 1 1h2c.55228475 0 1-.4477153 1-1v-5c0-.5522847-.44771525-1-1-1zm6 0h-2c-.5522847 0-1 .4477153-1 1v5c0 .5522847.4477153 1 1 1h2c.5522847 0 1-.4477153 1-1v-5c0-.5522847-.4477153-1-1-1zm6 0h-2c-.5522847 0-1 .4477153-1 1v5c0 .5522847.4477153 1 1 1h2c.5522847 0 1-.4477153 1-1v-5c0-.5522847-.4477153-1-1-1zm6 0h-2c-.5522847 0-1 .4477153-1 1v5c0 .5522847.4477153 1 1 1h2c.5522847 0 1-.4477153 1-1v-5c0-.5522847-.4477153-1-1-1z" fill="#202327"/></g></svg>