<svg height="32" viewBox="0 0 32 32" width="32" xmlns="http://www.w3.org/2000/svg"><g fill="none" fill-rule="evenodd"><path d="m0 0h32v32h-32z"/><path d="m16 0c8.836556 0 16 7.163444 16 16s-7.163444 16-16 16-16-7.163444-16-16 7.163444-16 16-16zm1 6h-2v7.586l-5.27157288-5.27178644-1.41421356 1.41421356 5.27178644 5.27157288h-7.586v2h7.587l-5.26278644 5.2642136 1.41421356 1.4142135 5.26157288-5.2624271v7.584h2v-7.585l5.2642136 5.2634271 1.4142135-1.4142135-5.2634271-5.2642136h7.585v-2h-7.584l5.2724271-5.27157288-1.4142135-1.41421356-5.2742136 5.27278644z" fill="#202327"/></g></svg>