<svg height="32" viewBox="0 0 32 32" width="32" xmlns="http://www.w3.org/2000/svg"><g fill="none" fill-rule="evenodd"><path d="m0 0h32v32h-32z"/><path d="m20.272603 2c1.5807548 0 3.0132408.93093408 3.6552461 2.37544614l.361012.81227693c.1175643.26451967.1730992.54089006.1728754.81280728l.5382635-.00053035c3.8659932 0 7 3.13400675 7 7v10c0 3.8659932-3.1340068 7-7 7h-18c-3.86599325 0-7-3.1340068-7-7v-10c0-3.86599325 3.13400675-7 7-7h.53876198c0-.27983669.05872446-.55655894.1723769-.81227693l.36101197-.81227693c.64200536-1.44451206 2.07449135-2.37544614 3.65524615-2.37544614zm3.6655093 15.0000487c.0408465.3275786.0618877.6613077.0618877.9999513 0 4.418278-3.581722 8-8 8s-8-3.581722-8-8c0-.3386436.02104125-.6723727.06188768-.9999513l-6.06188768-.0000487v6c0 2.6887547 2.12230671 4.8818181 4.78311038 4.9953805l.21688962.0046195h18c2.7614237 0 5-2.2385763 5-5v-6zm-7.9381123-5.0000487c-3.3137085 0-6 2.6862915-6 6s2.6862915 6 6 6 6-2.6862915 6-6-2.6862915-6-6-6zm6.2456806 1.0003863c.4821119.6014904.8791344 1.2741225 1.1728143 1.9996432l6.5815051-.0000295v-2zm-13.66417549 1.9996432c.29367991-.7255207.69070242-1.3981528 1.17281427-1.9996432l-7.75431938-.0003863v2zm16.41849489-7.0000295h-18c-2.05049747 0-3.81270639 1.23431003-4.58415773 3.0004611l9.58415773-.0004611.1121614.0065784c1.1509997-.6412433 2.4767549-1.0065784 3.8878386-1.0065784s2.7368389.3653351 3.8878386 1.0065784l.1121614-.0065784 9.5841577.0004611c-.7714513-1.76615107-2.5336602-3.0004611-4.5841577-3.0004611zm-4.727397-4h-8.545206c-.7903774 0-1.5066204.46546704-1.82762305 1.18772307l-.36101197.81227693h12.92247602l-.3610119-.81227693c-.3210027-.72225603-1.0372457-1.18772307-1.8276231-1.18772307z" fill="#000" fill-rule="nonzero"/></g></svg>