<svg height="32" viewBox="0 0 32 32" width="32" xmlns="http://www.w3.org/2000/svg"><g fill="none" fill-rule="evenodd"><path d="m0 0h32v32h-32z"/><path d="m13 2c1.1045695 0 2 .8954305 2 2v1h10c3.8659932 0 7 3.13400675 7 7v10c0 3.8659932-3.1340068 7-7 7h-18c-3.86599325 0-7-3.1340068-7-7v-10c0-3.17829253 2.11819276-5.86185463 5.01990491-6.71601294-.01300285-.09164607-.01990491-.18701053-.01990491-.28398706v-1c0-1.1045695.8954305-2 2-2zm12 5h-18c-2.76142375 0-5 2.23857625-5 5v10c0 2.7614237 2.23857625 5 5 5h18c2.7614237 0 5-2.2385763 5-5v-10c0-2.76142375-2.2385763-5-5-5zm-9 5c2.7614237 0 5 2.2385763 5 5s-2.2385763 5-5 5-5-2.2385763-5-5 2.2385763-5 5-5zm0 2c-1.6568542 0-3 1.3431458-3 3s1.3431458 3 3 3 3-1.3431458 3-3-1.3431458-3-3-3zm10-4c.5522847 0 1 .4477153 1 1s-.4477153 1-1 1-1-.4477153-1-1 .4477153-1 1-1zm-13-6h-6v1h6z" fill="#000" fill-rule="nonzero"/></g></svg>