<svg height="32" viewBox="0 0 32 32" width="32" xmlns="http://www.w3.org/2000/svg"><g fill="none" fill-rule="evenodd"><path d="m0 0h32v32h-32z"/><path d="m21 0c2.209139 0 4 1.790861 4 4v24c0 2.209139-1.790861 4-4 4h-17c-2.209139 0-4-1.790861-4-4v-24c0-2.209139 1.790861-4 4-4zm2 9h-21v19c0 1.0543618.81587779 1.9181651 1.85073766 1.9945143l.14926234.0054857h17c1.0543618 0 1.9181651-.8158778 1.9945143-1.8507377l.0054857-.1492623zm-16.5 15c.82842712 0 1.5.6715729 1.5 1.5s-.67157288 1.5-1.5 1.5-1.5-.6715729-1.5-1.5.67157288-1.5 1.5-1.5zm6 0c.8284271 0 1.5.6715729 1.5 1.5s-.6715729 1.5-1.5 1.5-1.5-.6715729-1.5-1.5.6715729-1.5 1.5-1.5zm6 0c.8284271 0 1.5.6715729 1.5 1.5s-.6715729 1.5-1.5 1.5-1.5-.6715729-1.5-1.5.6715729-1.5 1.5-1.5zm-12-6c.82842712 0 1.5.6715729 1.5 1.5s-.67157288 1.5-1.5 1.5-1.5-.6715729-1.5-1.5.67157288-1.5 1.5-1.5zm6 0c.8284271 0 1.5.6715729 1.5 1.5s-.6715729 1.5-1.5 1.5-1.5-.6715729-1.5-1.5.6715729-1.5 1.5-1.5zm6 0c.8284271 0 1.5.6715729 1.5 1.5s-.6715729 1.5-1.5 1.5-1.5-.6715729-1.5-1.5.6715729-1.5 1.5-1.5zm-12-6c.82842712 0 1.5.6715729 1.5 1.5s-.67157288 1.5-1.5 1.5-1.5-.6715729-1.5-1.5.67157288-1.5 1.5-1.5zm6 0c.8284271 0 1.5.6715729 1.5 1.5s-.6715729 1.5-1.5 1.5-1.5-.6715729-1.5-1.5.6715729-1.5 1.5-1.5zm6 0c.8284271 0 1.5.6715729 1.5 1.5s-.6715729 1.5-1.5 1.5-1.5-.6715729-1.5-1.5.6715729-1.5 1.5-1.5zm2.5-10h-17c-1.0543618 0-1.91816512.81587779-1.99451426 1.85073766l-.00548574.14926234v3h21v-3c0-1.0543618-.8158778-1.91816512-1.8507377-1.99451426z" fill="#000" fill-rule="nonzero" transform="translate(3.5)"/></g></svg>