<svg height="32" viewBox="0 0 32 32" width="32" xmlns="http://www.w3.org/2000/svg"><g fill="none" fill-rule="evenodd"><path d="m0 0h32v32h-32z"/><path d="m8.15527624 27.803115-.10179834-.0022665c-.02572552-.0008984-.05144402-.0020438-.07715164-.003436-.05490457-.0029647-.11038165-.007115-.16576927-.0124169-.01026565-.0009817-.02089561-.0020411-.03152201-.0031429-.05265773-.005467-.10467654-.0118973-.15657702-.0193481-.01814551-.002604-.0364916-.0053666-.05482145-.008257-.04151201-.0065461-.08291311-.0137421-.12421438-.0215923-.02765712-.0052565-.0553164-.0108164-.08292574-.0166706-.05186388-.0109982-.10347374-.0230154-.15487478-.0360683-.01275858-.0032414-.02507501-.0064331-.03737897-.0096845-.04193166-.0110737-.08428614-.0230095-.126473-.0356561-.02920242-.008756-.0581172-.0177853-.08694667-.0271504-.03144972-.0102154-.06288398-.0208609-.09420816-.0319082-.03642881-.0128504-.07245135-.0261451-.10831474-.0399755-.02144414-.0082675-.04317794-.0168671-.06485023-.0256645-.04401468-.0178695-.08758831-.0364711-.13088749-.0558816-.02928885-.01313-.05843785-.0266233-.08745431-.0404864-.02747853-.013126-.05508748-.0267097-.08256925-.0406312-.04514198-.0228753-.0894658-.0463982-.13342714-.0708131-.01692848-.009401-.03389745-.0189884-.05081053-.0287095-.01369113-.0078684-.02751087-.015922-.04129226-.0240654l-3.08968852 3.0895448c-.39052429.3905243-1.02368927.3905243-1.41421356 0s-.39052429-1.0236893 0-1.4142136l3.08967879-3.0903772-.01880817-.0322174c-.01807528-.0312988-.0356917-.0627902-.05284926-.0944642l.07165743.1266816c-.04363395-.0739426-.08468492-.1489876-.12315289-.2250046-.01486682-.0293705-.02953337-.0592763-.04380407-.0893233-.01517658-.0319712-.02957147-.0633487-.04353895-.0948697-.01623348-.03662-.03211275-.0739809-.0473979-.111527-.00885929-.0217589-.01758553-.0437521-.02610907-.0658055-.02028128-.0524985-.03922111-.1047686-.05703691-.1573358-.00602517-.0177747-.01198576-.0357812-.01781497-.053821-.00888225-.0274948-.01737732-.0547928-.02557323-.0821613-.01097654-.036643-.0215008-.0737256-.03147961-.1109241-.0080259-.0299282-.01562145-.0596141-.02287135-.089367-.02576275-.105683-.0472254-.2125977-.06429535-.3200748-.02889619-.1817846-.0452361-.3657074-.04893732-.5498371-.00028925-.0143419-.00050433-.0289529-.00063984-.0435645l-.00017308-.0373274c0-.1098594.00449765-.2197187.01349295-.3292782.0015971-.0194825.00338525-.0394593.00532308-.0594243.01002399-.1031936.02399382-.2057702.041939-.3077842.01761133-.1001477.03910709-.1999622.06445017-.2989952.01330309-.0520196.02785327-.1044439.04349059-.1566118.02494372-.0831793.05248486-.165259.08275979-.2465517.01257253-.0337619.02565712-.0674886.03921608-.1010684.06424632-.1591277.13921668-.3150873.22485707-.4666492.1745189-.3088116.39316149-.5991815.65604415-.8620642l12.02081529-12.02081525-.7071068-.70710678c-.3905243-.39052429-.3905243-1.02368927 0-1.41421356s1.0236893-.39052429 1.4142136 0l.7067576.70689322 4.2429898-4.24242713c1.5620972-1.56209716 4.0947571-1.56209716 5.6568543 0 1.5620972 1.56209717 1.5620972 4.09475709 0 5.65685425l-4.2428441 4.24257285.7073102.7071746c.3905243.3905243.3905243 1.0236893 0 1.4142136s-1.0236893.3905243-1.4142136 0l-.7066251-.7075886-12.0212969 12.0212971c-.0807873.0807872-.1641705.1573964-.2498811.2298275-.2262061.1911437-.4684835.3531163-.7220256.4860198-.0243664.0127718-.048748.0252309-.07322867.0374235-.0206337.0102755-.04117919.0202861-.06179137.0301102-.1687671.0804436-.34211813.1484215-.51855375.2038827-.02815859.008849-.0560993.0172932-.08411143.0254253-.04169287.0121068-.08381233.0235905-.12607367.0343738-.01312237.0033476-.02608773.006586-.03906588.0097587-.04919147.0120267-.09867567.0231306-.14831541.0332851-.05096535.0104279-.10224993.0198805-.15366773.0283263-.01566223.0025714-.0310254.0050021-.04639959.0073429-.11946269.0182001-.23994035.031003-.36068785.0383561-.01655105.0010085-.03324165.0019211-.04993636.0027296-.04643923.0022481-.0928309.0036899-.13923157.0043293-.0181716.0002525-.03681439.0003821-.05545719.0003821z" fill="#202327"/></g></svg>