<svg height="32" viewBox="0 0 32 32" width="32" xmlns="http://www.w3.org/2000/svg"><g fill="none" fill-rule="evenodd"><path d="m0 0h32v32h-32z"/><path d="m20.8377223 2c1.2912913 0 2.4377078.82629028 2.8460499 2.0513167l.6492278 1.9486833h1.667c3.3137085 0 6 2.6862915 6 6v12c0 3.3137085-2.6862915 6-6 6h-20c-3.3137085 0-6-2.6862915-6-6v-12c0-3.3137085 2.6862915-6 6-6h1.666l.65022777-1.9486833c.40834214-1.22502642 1.55475867-2.0513167 2.84604993-2.0513167zm-4.8377223 8c-3.8659932 0-7 3.1340068-7 7s3.1340068 7 7 7 7-3.1340068 7-7-3.1340068-7-7-7zm0 2c2.7614237 0 5 2.2385763 5 5s-2.2385763 5-5 5-5-2.2385763-5-5 2.2385763-5 5-5z" fill="#202327"/></g></svg>