<svg height="32" viewBox="0 0 32 32" width="32" xmlns="http://www.w3.org/2000/svg"><g fill="none" fill-rule="evenodd"><path d="m0 0h32v32h-32z"/><path d="m23.5747526 2c1.8861512 0 3.5160062 1.31760051 3.9112097 3.16188365l2.3479627 10.95554275c1.2511241.3613077 2.166075 1.5150915 2.166075 2.8825736v6c0 1.6568542-1.3431458 3-3 3h-2v1c0 .5522847-.4477153 1-1 1s-1-.4477153-1-1v-1h-18v1c0 .5522847-.44771525 1-1 1s-1-.4477153-1-1v-1h-2c-1.65685425 0-3-1.3431458-3-3v-6c0-1.3674821.91495093-2.5212659 2.16607498-2.8825736l2.34796273-10.95554275c.39520353-1.84428314 2.02505853-3.16188365 3.91120966-3.16188365zm5.4252474 16h-26c-.55228475 0-1 .4477153-1 1v6c0 .5522847.44771525 1 1 1h26c.5522847 0 1-.4477153 1-1v-6c0-.5522847-.4477153-1-1-1zm-20 1c1.6568542 0 3 1.3431458 3 3s-1.3431458 3-3 3c-1.65685425 0-3-1.3431458-3-3s1.34314575-3 3-3zm14 0c1.6568542 0 3 1.3431458 3 3s-1.3431458 3-3 3-3-1.3431458-3-3 1.3431458-3 3-3zm-14 2c-.55228475 0-1 .4477153-1 1s.44771525 1 1 1 1-.4477153 1-1-.44771525-1-1-1zm14 0c-.5522847 0-1 .4477153-1 1s.4477153 1 1 1 1-.4477153 1-1-.4477153-1-1-1zm.5747526-17h-15.14950523c-.94307557 0-1.75800306.65880026-1.95560483 1.58094182l-2.23264254 10.41905818h23.526l-2.2326425-10.41905818c-.1859782-.86789794-.9187916-1.50252469-1.7906096-1.57418356z" fill="#000" fill-rule="nonzero"/></g></svg>