<svg height="32" viewBox="0 0 32 32" width="32" xmlns="http://www.w3.org/2000/svg"><g fill="none" fill-rule="evenodd"><path d="m0 0h32v32h-32z"/><path d="m24.3144516 2c1.4279587 0 2.658016 1.00650631 2.9406495 2.40621501l2.3408989 11.59278499.404.001c1.1045695 0 2 .8954305 2 2v8c0 1.1045695-.8954305 2-2 2h-3v1c0 .5522847-.4477153 1-1 1s-1-.4477153-1-1v-1h-18v1c0 .5522847-.44771525 1-1 1s-1-.4477153-1-1v-1h-3c-1.1045695 0-2-.8954305-2-2v-8c0-1.1045695.8954305-2 2-2h.404l2.34089889-11.59378499c.28263349-1.3997087 1.51269076-2.40621501 2.94064949-2.40621501zm-15.3144516 17c-1.65685425 0-3 1.3431458-3 3s1.34314575 3 3 3c1.6568542 0 3-1.3431458 3-3s-1.3431458-3-3-3zm14 0c-1.6568542 0-3 1.3431458-3 3s1.3431458 3 3 3 3-1.3431458 3-3-1.3431458-3-3-3zm-14 2c.55228475 0 1 .4477153 1 1s-.44771525 1-1 1-1-.4477153-1-1 .44771525-1 1-1zm14 0c.5522847 0 1 .4477153 1 1s-.4477153 1-1 1-1-.4477153-1-1 .4477153-1 1-1z" fill="#202327"/></g></svg>