<svg height="32" viewBox="0 0 32 32" width="32" xmlns="http://www.w3.org/2000/svg"><g fill="none" fill-rule="evenodd"><path d="m0 0h32v32h-32z"/><path d="m18.8184373 6c2.93594 0 5.635997 1.60818632 7.0343357 4.1897348l2.6220558 4.8381542c1.9853267.2348123 3.5251712 1.9236367 3.5251712 3.972111 0 2.209139-1.790861 4-4 4l-.1262135.0007613c-.4443075 1.7248409-2.0102213 2.9992387-3.8737865 2.9992387s-3.429479-1.2743978-3.8737865-2.9992387h-8.252427c-.4443075 1.7248409-2.01022125 2.9992387-3.8737865 2.9992387s-3.42947895-1.2743978-3.87378648-2.9992387l-.12621352-.0007613c-2.209139 0-4-1.790861-4-4 0-2.0488176 1.54036061-3.7378648 3.52616936-3.972229l2.62105762-4.8380362c1.39833876-2.58154848 4.09839572-4.1897348 7.03433572-4.1897348zm-4.8184373 3h-1.527864c-1.5150883 0-2.90014075.8560095-3.57770881 2.2111456l-1.17082039 2.3416408c-.06942772.1388554-.10557281.2919685-.10557281.4472136 0 .5522847.44771525 1 1 1h5.38196601c.5522847 0 1-.4477153 1-1v-4c0-.55228475-.4477153-1-1-1zm6.145898 0h-2.145898c-.5522847 0-1 .44771525-1 1v4c0 .5522847.4477153 1 1 1h5.381966c.1552451 0 .3083582-.0361451.4472136-.1055728.4939785-.2469893.6942029-.8476623.4472136-1.3416408l-1.4472136-2.8944272c-.508176-1.01635207-1.5469654-1.6583592-2.6832816-1.6583592z" fill="#202327"/></g></svg>