<svg height="32" viewBox="0 0 32 32" width="32" xmlns="http://www.w3.org/2000/svg"><g fill="none" fill-rule="evenodd"><path d="m0 0h32v32h-32z"/><path d="m22 0c3.8659932 0 7 3.13400675 7 7v23c0 1.1045695-.8954305 2-2 2h-22c-1.1045695 0-2-.8954305-2-2v-23c0-3.86599325 3.13400675-7 7-7 2.5467063 0 4.77577 1.35998921 6.00055 3.39332625 1.22368-2.03333704 3.4527437-3.39332625 5.99945-3.39332625zm-7 26h-10v4h10zm12 0h-10v4h10zm-17-24c-2.76142375 0-5 2.23857625-5 5v17h10v-17l-.0046195-.21688962c-.1135624-2.66080367-2.3066258-4.78311038-4.9953805-4.78311038zm12 0c-2.7614237 0-5 2.23857625-5 5v17h10v-17c0-2.76142375-2.2385763-5-5-5zm-2 10c.5522847 0 1 .4477153 1 1v4c0 .5522847-.4477153 1-1 1s-1-.4477153-1-1v-4c0-.5522847.4477153-1 1-1zm-8 0c.5522847 0 1 .4477153 1 1v4c0 .5522847-.4477153 1-1 1s-1-.4477153-1-1v-4c0-.5522847.4477153-1 1-1z" fill="#000" fill-rule="nonzero"/></g></svg>