<svg height="32" viewBox="0 0 32 32" width="32" xmlns="http://www.w3.org/2000/svg"><g fill="none" fill-rule="evenodd"><path d="m0 0h32v32h-32z"/><path d="m29.3847763 2.61522369c.3905243.39052429.3905243 1.02368927 0 1.41421356l-3.3868927 3.38587135c1.8414407 2.01896601 3.0847785 4.6068755 3.431859 7.4992135l.7644728 6.3706066c.3948126 3.2901044-1.9522852 6.2773198-5.2423897 6.6721323-.2372269.0284673-.4759424.042739-.7148713.042739l-3.3372135.0011864c-.4637287 2.2816492-2.4812022 3.9988136-4.8997409 3.9988136s-4.4360122-1.7171644-4.8997409-3.9988136l-3.33721351-.0011864c-.70313204 0-1.37801519-.1209479-2.00497974-.343174l-1.82913366 1.8284554c-.39052429.3905243-1.02368927.3905243-1.41421356 0-.3905243-.3905243-.3905243-1.0236893 0-1.4142136l25.45584407-25.45584411c.3905243-.39052429 1.0236893-.39052429 1.4142136 0zm-4.8026632 6.21635402-17.15323918 17.15461159c.04485377.0037155.08991773.0066915.13517964.0089155l.19970304.0048952 4.9710247.0017674.3254074 1.6010775c.2813274 1.3841942 1.5071663 2.3971551 2.9398113 2.3971551 1.3729515 0 2.5559716-.9303061 2.8997794-2.2261108l.0400319-.1710443.3254074-1.6010775 4.9717357-.0017674c.1592859 0 .3184296-.0095145.4765809-.0284926 2.1269362-.2552324 3.6627253-2.1355768 3.5138522-4.2492868l-.0189257-.1988015-.7644728-6.3706066c-.291814-2.4317833-1.3271171-4.6110283-2.8618759-6.32123479zm-8.5821131-8.83157771c.5522847 0 1 .44771525 1 1v2l-.0024003.03640053c2.131299.15602971 4.1353557.80803702 5.8893159 1.84702886l-1.4679949 1.46855075c-1.6213715-.86488908-3.4687425-1.35198014-5.4189207-1.35198014-5.7356297 0-10.58198255 4.21331369-11.405022 9.8595046l-.03896697.2933079-.76447279 6.3706066c-.01897816.1581513-.02849265.317295-.02849265.4765809 0 .589133.12736278 1.1485189.35606969 1.6521254l-1.47663459 1.47679c-.55786568-.9110165-.8794351-1.9824126-.8794351-3.1289154 0-.2389289.01427174-.4776444.04273897-.7148713l.76447279-6.3706066c.77579844-6.46498705 6.02945071-11.4089972 12.43131865-11.87806121-.0013436-.01134949-.001576-.02387805-.001576-.03646089v-2c0-.55228475.4477153-1 1-1z" fill="#000" fill-rule="nonzero"/></g></svg>