<svg height="32" viewBox="0 0 32 32" width="32" xmlns="http://www.w3.org/2000/svg"><g fill="none" fill-rule="evenodd"><path d="m0 0h32v32h-32z"/><path d="m3.47106781 2.872583c.03125802.03951954.0612124.07391077.09390335.10660172l25.45180394 25.45213148c.2979246.3919399.2679702.9534911-.0898632 1.3113245-.3905243.3905243-1.0236892.3905243-1.4142135 0l-3.7752175-3.7758638c-2.2931142 1.2278416-4.9309095 2.0332231-7.7374809 2.0332231-8.836556 0-16-7.983908-16-12 0-2.2018894 2.15330503-5.5964897 5.55507022-8.21407378l-3.49821597-3.49912966c-.39052429-.39052429-.39052429-1.02368927 0-1.41421356s1.02368927-.39052429 1.41421356 0zm12.52893219 1.127417c8.836556 0 16 7.983908 16 12 0 2.0564855-1.878304 5.1533596-4.8977471 7.685912l-5.5089842-5.5099784c.2626273-.6746.4067313-1.4084382.4067313-2.1759336 0-3.3137085-2.6862915-6-6-6-.7678799 0-1.5020689.1442485-2.1769475.4071261l-4.77341696-4.77188255c2.10190236-1.00095094 4.45967206-1.63524355 6.95036446-1.63524355zm-5.2096924 9.0215137c-.5028478.877641-.7903076 1.8944937-.7903076 2.9784863 0 3.3137085 2.6862915 6 6 6 1.0841554 0 2.1011507-.2875462 2.9788817-.7905342l-1.4942742-1.494031c-.4590315.183584-.9600268.2845652-1.4846075.2845652-2.209139 0-4-1.790861-4-4 0-.5246423.1010049-1.0256937.2846299-1.4847692z" fill="#202327"/></g></svg>