<svg height="32" viewBox="0 0 32 32" width="32" xmlns="http://www.w3.org/2000/svg"><g fill="none" fill-rule="evenodd"><path d="m0 0h32v32h-32z"/><path d="m17 2 .000188 4.10005628c2.2821466.46334296 3.999812 2.48105222 3.999812 4.89994372 0 1.6296706-.7796604 3.0772418-1.986327 3.9900595l7.9994667 13.856728-1.7320508 1-4.4808617-7.7620195c-1.5126731.6013999-3.134934.915232-4.8002272.915232-1.7195434 0-3.369411-.3362367-4.8823608-.949866l-4.5016138 7.7966535-1.7320508-1 4.44056817-7.6907532c-3.02001693-1.8088867-5.26190567-4.8148049-6.0343974-8.4128211l-.06231291-.3083281-.18625508-.9825014 1.96500285-.3725101.18625508.9825014c.59670435 3.1476343 2.51759937 5.7854752 5.13227789 7.3614046l2.5908972-4.4878971c-1.166553-.9153411-1.9160104-2.3380892-1.9160104-3.9358825 0-2.4188915 1.7176654-4.43660076 3.999812-4.89994372l.000188-4.10005628zm-2.2923861 13.831369-2.5784614 4.4665728c1.208278.4545529 2.5139587.7020582 3.8708475.7020582 1.3101997 0 2.5866969-.228807 3.7864902-.6687335l-2.5840342-4.4768014c-.3851669.0950886-.7879203.1455349-1.202456.1455349-.4469146 0-.8801344-.0586347-1.2923861-.168631z" fill="#202327" fill-rule="nonzero"/></g></svg>