<svg height="32" viewBox="0 0 32 32" width="32" xmlns="http://www.w3.org/2000/svg"><g fill="none" fill-rule="evenodd"><path d="m0 0h32v32h-32z"/><path d="m21.4462967 0c1.6654635 0 3.2215973.82925913 4.1503556 2.21171235l3.5537033 5.28967395c.553858.82441552.8496444 1.79510106.8496444 2.7882877v12.710326c0 2.5326379-1.8830073 4.625476-4.3253852 4.9548774-.7868346 2.285705-2.9179139 3.9476728-5.4496765 4.0409841l-.2249383.0041385h-12c-3.23839694 0-5.87757176-2.5655749-5.99586153-5.7750617l-.00413847-.2249383v-16c0-2.62987956 1.69198401-4.86457509 4.04676442-5.67489895.3277596-2.44209376 2.42059763-4.32510105 4.95323558-4.32510105zm-17.44140139 9.80035966-.00489531.19964034v16c0 2.1421954 1.68396847 3.8910789 3.80035966 3.9951047l.19964034.0048953h12c1.4799576 0 2.7721921-.8037377 3.4640201-1.9985293l-12.4640201-.0014707c-2.76142375 0-5-2.2385763-5-5l-.00027-16.46471502c-1.14139743.66038169-1.92619413 1.86859172-1.99483469 3.26507468zm17.44140139-7.80035966h-10.4462967c-1.59768088 0-2.90366088 1.24891996-2.99490731 2.82372721l-.00509269.17627279v18c0 1.5976809 1.24891996 2.9036609 2.8237272 2.9949073l.1762728.0050927h14c1.5976809 0 2.9036609-1.24892 2.9949073-2.8237272l.0050927-.1762728v-12.710326c0-.52142301-.1358769-1.03250955-.392471-1.48351034l-.1173156-.1894623-3.5537033-5.28967395c-.5201047-.7741738-1.3681176-1.2592115-2.2913245-1.32044242z" fill="#000" fill-rule="nonzero"/></g></svg>