<svg height="32" viewBox="0 0 32 32" width="32" xmlns="http://www.w3.org/2000/svg"><g fill="none" fill-rule="evenodd"><path d="m0 0h32v32h-32z"/><path d="m24.5 0c2.209139 0 4 1.790861 4 4v24c0 2.209139-1.790861 4-4 4h-17c-2.209139 0-4-1.790861-4-4v-24c0-2.209139 1.790861-4 4-4zm-14.5 24c-.82842712 0-1.5.6715729-1.5 1.5s.67157288 1.5 1.5 1.5c.8284271 0 1.5-.6715729 1.5-1.5s-.6715729-1.5-1.5-1.5zm6 0c-.8284271 0-1.5.6715729-1.5 1.5s.6715729 1.5 1.5 1.5 1.5-.6715729 1.5-1.5-.6715729-1.5-1.5-1.5zm6 0c-.8284271 0-1.5.6715729-1.5 1.5s.6715729 1.5 1.5 1.5 1.5-.6715729 1.5-1.5-.6715729-1.5-1.5-1.5zm-12-6c-.82842712 0-1.5.6715729-1.5 1.5s.67157288 1.5 1.5 1.5c.8284271 0 1.5-.6715729 1.5-1.5s-.6715729-1.5-1.5-1.5zm6 0c-.8284271 0-1.5.6715729-1.5 1.5s.6715729 1.5 1.5 1.5 1.5-.6715729 1.5-1.5-.6715729-1.5-1.5-1.5zm6 0c-.8284271 0-1.5.6715729-1.5 1.5s.6715729 1.5 1.5 1.5 1.5-.6715729 1.5-1.5-.6715729-1.5-1.5-1.5zm-12-6c-.82842712 0-1.5.6715729-1.5 1.5s.67157288 1.5 1.5 1.5c.8284271 0 1.5-.6715729 1.5-1.5s-.6715729-1.5-1.5-1.5zm6 0c-.8284271 0-1.5.6715729-1.5 1.5s.6715729 1.5 1.5 1.5 1.5-.6715729 1.5-1.5-.6715729-1.5-1.5-1.5zm6 0c-.8284271 0-1.5.6715729-1.5 1.5s.6715729 1.5 1.5 1.5 1.5-.6715729 1.5-1.5-.6715729-1.5-1.5-1.5zm1.5-9h-15c-1.1045695 0-2 .8954305-2 2v2c0 1.1045695.8954305 2 2 2h15c1.1045695 0 2-.8954305 2-2v-2c0-1.1045695-.8954305-2-2-2z" fill="#202327"/></g></svg>