<svg height="32" viewBox="0 0 32 32" width="32" xmlns="http://www.w3.org/2000/svg"><g fill="none" fill-rule="evenodd"><path d="m0 0h32v32h-32z"/><path d="m23.5542476 7 4.9997524 7.999 3.446.001v8l-4.1262135.0007613c-.4443075 1.7248409-2.0102213 2.9992387-3.8737865 2.9992387s-3.429479-1.2743978-3.8737865-2.9992387h-8.252427c-.4443075 1.7248409-2.01022125 2.9992387-3.8737865 2.9992387s-3.42947895-1.2743978-3.87378648-2.9992387l-4.12621352-.0007613v-8h3.445l5.00075236-8zm-15.5542476 13c-1.1045695 0-2 .8954305-2 2s.8954305 2 2 2 2-.8954305 2-2-.8954305-2-2-2zm16 0c-1.1045695 0-2 .8954305-2 2s.8954305 2 2 2 2-.8954305 2-2-.8954305-2-2-2zm6-3h-28v4l2.12595483.0002435c.44395811-1.7253508 2.01011806-3.0002435 3.87404517-3.0002435s3.4300871 1.2748927 3.8740452 3.0002435h8.2519096c.4439581-1.7253508 2.0101181-3.0002435 3.8740452-3.0002435s3.4300871 1.2748927 3.8740452 3.0002435l2.1259548-.0002435zm-15-8.001-5.447.001-3.75 6 9.197-.001zm7.446.001-5.4460005-.00101139.0000005 6.00001139 9.196.001z" fill="#000" fill-rule="nonzero"/></g></svg>