<svg height="32" viewBox="0 0 32 32" width="32" xmlns="http://www.w3.org/2000/svg"><g fill="none" fill-rule="evenodd"><path d="m0 0h32v32h-32z"/><path d="m22.8720953 2 1.7769047 4h7.351v24h-32v-24h7.35l1.77790469-4zm1.066017 15.0000487c.0408465.3275786.0618877.6613077.0618877.9999513 0 4.418278-3.581722 8-8 8s-8-3.581722-8-8c0-.3386436.02104125-.6723727.06188768-.9999513l-6.06188768-.0000487v11h28v-11zm-7.9381123-5.0000487c-3.3137085 0-6 2.6862915-6 6s2.6862915 6 6 6 6-2.6862915 6-6-2.6862915-6-6-6zm6.2456806 1.0003863c.4821119.6014904.8791344 1.2741225 1.1728143 1.9996432l6.5815051-.0000295v-2zm-13.66417549 1.9996432c.29367991-.7255207.69070242-1.3981528 1.17281427-1.9996432l-7.75431938-.0003863v2zm21.41849489-7.0000295h-28v3h10l.1121614.0065784c1.1509997-.6412433 2.4767549-1.0065784 3.8878386-1.0065784s2.7368389.3653351 3.8878386 1.0065784l.1121614-.0065784h10zm-8.428-4h-11.145l-.889 2h12.923z" fill="#000" fill-rule="nonzero"/></g></svg>