<svg height="32" viewBox="0 0 32 32" width="32" xmlns="http://www.w3.org/2000/svg"><g fill="none" fill-rule="evenodd"><path d="m0 0h32v32h-32z"/><path d="m28.7000577 3.2972042c1.5620972 1.56209717 1.5620972 4.09475709 0 5.65685425l-4.2428441 4.24257285.7073102.7071746c.3905243.3905243.3905243 1.0236893 0 1.4142136s-1.0236893.3905243-1.4142136 0l-.7070966-.7073882-.0000102.0002814-12.0208152 12.0208153c-.7289787.7289787-1.6693244 1.1177673-2.62376121 1.1663659l-.20466596.005207c-.70395133 0-1.40790266-.1846703-2.03295217-.5540109l-3.08968852 3.0895448c-.39052429.3905243-1.02368927.3905243-1.41421356 0s-.39052429-1.0236893 0-1.4142136l3.08967879-3.0903772c-.9050711-1.5337442-.69882165-3.5418003.61874834-4.8593703l12.02067969-12.02124237-.7069712-.70667966c-.3905243-.39052429-.3905243-1.02368927 0-1.41421356s1.0236893-.39052429 1.4142136 0l.7067576.70689322 4.2429898-4.24242713c1.5620972-1.56209716 4.0947571-1.56209716 5.6568543 0zm-9.899495 7.0710678-12.02081523 12.0208153c-.78104859.7810486-.78104859 2.0473785 0 2.8284271.37277319.3727732.85608826.5676319 1.34442796.5845762l.16282125-.0009414c.43391432-.020082.8625352-.1807385 1.2117545-.4819694l.10942341-.1016654 12.02081531-12.0208153zm5.7662777-5.75851965-.1094234.10166542-4.2426407 4.24264068 2.8284271 2.82842715 4.2426407-4.24264071c.7810486-.78104858.7810486-2.04737854 0-2.82842712-.7455464-.74554638-1.9332603-.77943485-2.7190037-.10166542z" fill="#000" fill-rule="nonzero"/></g></svg>