<svg height="32" viewBox="0 0 32 32" width="32" xmlns="http://www.w3.org/2000/svg"><g fill="none" fill-rule="evenodd"><path d="m0 0h32v32h-32z"/><path d="m22.5 0c3.5898509 0 6.5 2.91014913 6.5 6.5v24.5c0 .5522847-.4477153 1-1 1h-24c-.55228475 0-1-.4477153-1-1v-24.5c0-3.58985087 2.91014913-6.5 6.5-6.5 3.5118106 0 6.3731506 2.78499621 6.495897 6.26686587l.004103.23313413c0-3.58985087 2.9101491-6.5 6.5-6.5zm-2.5 13c-.5522847 0-1 .4477153-1 1v4c0 .5522847.4477153 1 1 1s1-.4477153 1-1v-4c0-.5522847-.4477153-1-1-1zm-8 0c-.5522847 0-1 .4477153-1 1v4c0 .5522847.4477153 1 1 1s1-.4477153 1-1v-4c0-.5522847-.4477153-1-1-1z" fill="#202327"/></g></svg>