<svg height="32" viewBox="0 0 32 32" width="32" xmlns="http://www.w3.org/2000/svg"><g fill="none" fill-rule="evenodd"><path d="m0 0h32v32h-32z"/><path d="m18.5660189 7c3.1031103 0 5.9873395 1.59857727 7.6319847 4.2300095l2.3831916 3.8119077c1.9336901.2814676 3.4188048 1.9463416 3.4188048 3.9580828 0 2.1421954-1.6839685 3.8910789-3.8003597 3.9951047l-.1996403.0048953-.1262135.0007613c-.4443075 1.7248409-2.0102213 2.9992387-3.8737865 2.9992387s-3.429479-1.2743978-3.8737865-2.9992387h-8.252427c-.4443075 1.7248409-2.01022125 2.9992387-3.8737865 2.9992387s-3.42947895-1.2743978-3.87378648-2.9992387l-.12621352-.0007613c-2.209139 0-4-1.790861-4-4 0-2.0115906 1.48489238-3.676366 3.41837054-3.9580195l2.38362586-3.811971c1.64464516-2.63143223 4.5288744-4.2300095 7.6319847-4.2300095zm-10.5660189 13c-1.1045695 0-2 .8954305-2 2s.8954305 2 2 2 2-.8954305 2-2-.8954305-2-2-2zm16 0c-1.1045695 0-2 .8954305-2 2s.8954305 2 2 2 2-.8954305 2-2-.8954305-2-2-2zm4-3h-24c-1.1045695 0-2 .8954305-2 2 0 1.0543618.81587779 1.9181651 1.85073766 1.9945143l.14926234.0054857.12595483.0002435c.44395811-1.7253508 2.01011806-3.0002435 3.87404517-3.0002435s3.4300871 1.2748927 3.8740452 3.0002435h8.2519096c.4439581-1.7253508 2.0101181-3.0002435 3.8740452-3.0002435s3.4300871 1.2748927 3.8740452 3.0002435l.1259548-.0002435c1.1045695 0 2-.8954305 2-2 0-1.0543618-.8158778-1.9181651-1.8507377-1.9945143zm-13-8.001-1.5660189.001c-2.4135302 0-4.65681963 1.2433379-5.9359881 3.2900074l-1.694993 2.7099926 9.197-.001zm3.5660189.001-1.5660194-.00101139.0000005 6.00001139 9.196.001-1.693993-2.7099926c-1.2317919-1.9708669-3.3576108-3.19680633-5.668559-3.28491314z" fill="#000" fill-rule="nonzero"/></g></svg>