<svg height="32" viewBox="0 0 32 32" width="32" xmlns="http://www.w3.org/2000/svg"><g fill="none" fill-rule="evenodd"><path d="m0 0h32v32h-32z"/><path d="m16 2c.5522847 0 1 .44771525 1 1v3l-.0048052.09904517c2.2846339.46141173 4.0048052 2.48029952 4.0048052 4.90095483 0 1.6298629-.7798443 3.0775834-1.9867541 3.9903825l7.4998938 12.9903796c.2761424.4782926.1122672 1.089883-.3660254 1.3660254s-1.089883.1122672-1.3660254-.3660254l-3.9808617-6.8959941c-1.5126731.6013999-3.134934.915232-4.8002272.915232-1.71961 0-3.369539-.3362628-4.8825368-.9499374l-4.0014378 6.9306995c-.27614237.4782926-.88773278.6421678-1.3660254.3660254s-.64216778-.8877328-.3660254-1.3660254l3.94039855-6.8248294c-3.10579822-1.8603308-5.38860661-4.9866729-6.09654069-8.7210476-.10286584-.5426205.25362579-1.0658906.79624635-1.1687565.54262055-.1028658 1.06589066.2536258 1.1687565.7962464.59662814 3.1472323 2.51710875 5.7848015 5.13127609 7.3608007l2.591886-4.4873034c-1.1665455-.9153414-1.9159974-2.3380849-1.9159974-3.9358723 0-2.4208973 1.7205152-4.43994675 4.0054904-4.90109316-.0038266-.03196023-.0054904-.06523924-.0054904-.09890684v-3c0-.55228475.4477153-1 1-1zm-1.2923861 13.831369-2.5794017 4.466219c1.2085409.4547783 2.514547.702412 3.8717878.702412 1.3101997 0 2.5866969-.228807 3.7864902-.6687335l-2.5847337-4.4766288c-.384955.094977-.7874717.1453623-1.2017565.1453623-.4469146 0-.8801344-.0586347-1.2923861-.168631z" fill="#202327" fill-rule="nonzero"/></g></svg>