<svg height="32" viewBox="0 0 32 32" width="32" xmlns="http://www.w3.org/2000/svg"><g fill="none" fill-rule="evenodd"><path d="m0 0h32v32h-32z"/><path d="m25 0c2.209139 0 4 1.790861 4 4v24c0 2.209139-1.790861 4-4 4h-18c-2.209139 0-4-1.790861-4-4v-24c0-2.209139 1.790861-4 4-4zm0 26h-18c-1.1045695 0-2 .8954305-2 2s.8954305 2 2 2h18c1.1045695 0 2-.8954305 2-2s-.8954305-2-2-2zm-3-20h-12c-.55228475 0-1 .44771525-1 1s.44771525 1 1 1h12c.5522847 0 1-.44771525 1-1s-.4477153-1-1-1z" fill="#202327"/></g></svg>