<svg height="32" viewBox="0 0 32 32" width="32" xmlns="http://www.w3.org/2000/svg"><path d="m16 0c8.836556 0 16 7.163444 16 16s-7.163444 16-16 16-16-7.163444-16-16 7.163444-16 16-16zm0 2c-7.7319865 0-14 6.2680135-14 14s6.2680135 14 14 14 14-6.2680135 14-14-6.2680135-14-14-14zm1.3 18.5v2.6h-2.6v-2.6zm-1.3-11.5c2.209139 0 4 1.790861 4 4 0 1.8636009-1.2744465 3.4295388-2.9993376 3.873812l-.0006624 2.126188h-2v-4h1c1.1045695 0 2-.8954305 2-2s-.8954305-2-2-2c-1.0543618 0-1.9181651.8158778-1.9945143 1.8507377l-.0054857.1492623h-2c0-2.209139 1.790861-4 4-4z"/></svg>