<svg height="32" viewBox="0 0 32 32" width="32" xmlns="http://www.w3.org/2000/svg"><g fill="none" fill-rule="evenodd"><path d="m0 0h32v32h-32z"/><path d="m10.0209247 2c.5522847 0 1 .44771525 1 1 0 .51283584-.3860402.93550716-.8833789.99327227l-.1166211.00672773h-3.0209247c-1.59768088 0-2.90366088 1.24891996-2.99490731 2.82372721l-.00509269.17627279v18c0 1.5976809 1.24891996 2.9036609 2.82372721 2.9949073l.17627279.0050927h18c1.5976809 0 2.9036609-1.24892 2.9949073-2.8237272l.0050927-.1762728v-18c0-1.59768088-1.24892-2.90366088-2.8237272-2.99490731l-.1762728-.00509269h-2.993963c-.5522848 0-1-.44771525-1-1 0-.51283584.3860402-.93550716.8833788-.99327227l.1166212-.00672773h2.993963c2.6887547 0 4.8818181 2.12230671 4.9953805 4.78311038l.0046195.21688962v18c0 2.6887547-2.1223067 4.8818181-4.7831104 4.9953805l-.2168896.0046195h-18c-2.6887547 0-4.88181811-2.1223067-4.99538049-4.7831104l-.00461951-.2168896v-18c0-2.6887547 2.12230671-4.88181811 4.78311038-4.99538049l.21688962-.00461951zm5.9469974-.02512627c.5522847 0 1 .44771525 1 1l.000755 15.24188567 3.2418856-3.2418857c.3905243-.3905243 1.0236893-.3905243 1.4142136 0s.3905243 1.0236893 0 1.4142136l-4.9497475 4.9497475c-.3905242.3905243-1.0236892.3905243-1.4142135 0l-4.9497475-4.9497475c-.39052428-.3905243-.39052428-1.0236893 0-1.4142136.3905243-.3905243 1.0236893-.3905243 1.4142136 0l3.2436977 3.2432999-.001057-15.24329987c0-.55228475.4477152-1 1-1z" fill="#000" fill-rule="nonzero"/></g></svg>