<svg height="32" viewBox="0 0 32 32" width="32" xmlns="http://www.w3.org/2000/svg"><g fill="none" fill-rule="evenodd"><path d="m0 0h32v32h-32z"/><path d="m23 0c3.8659932 0 7 3.13400675 7 7v18c0 3.8659932-3.1340068 7-7 7h-14c-3.86599325 0-7-3.1340068-7-7v-18c0-3.86599325 3.13400675-7 7-7zm5 22h-24v3c0 2.6887547 2.12230671 4.8818181 4.78311038 4.9953805l.21688962.0046195h14c2.7614237 0 5-2.2385763 5-5zm-10 3c.5522847 0 1 .4477153 1 1s-.4477153 1-1 1h-4c-.5522847 0-1-.4477153-1-1s.4477153-1 1-1zm10-13h-24v8h24zm-10 3c.5522847 0 1 .4477153 1 1s-.4477153 1-1 1h-4c-.5522847 0-1-.4477153-1-1s.4477153-1 1-1zm5-13h-14c-2.76142375 0-5 2.23857625-5 5v3h24v-3c0-2.6887547-2.1223067-4.88181811-4.7831104-4.99538049zm-5 3c.5522847 0 1 .44771525 1 1s-.4477153 1-1 1h-4c-.5522847 0-1-.44771525-1-1s.4477153-1 1-1z" fill="#000" fill-rule="nonzero"/></g></svg>