<svg height="32" viewBox="0 0 32 32" width="32" xmlns="http://www.w3.org/2000/svg"><g fill="none" fill-rule="evenodd"><path d="m0 0h32v32h-32z"/><path d="m15.9646594.10014698c-2.1131827-.00091775-4.2048748.42422292-6.14997115 1.25014235-.07518679.01252033-.14487072.04736229-.19999906.09999953-7.47402684 3.29012101-11.24965875 11.69919374-8.74233392 19.47089214 2.50732484 7.7716983 10.48547343 12.3887369 18.47310353 10.6905793 7.9876301-1.6981575 13.397515-9.1614709 12.5263853-17.2810217-.8711297-8.11955092-7.7411114-14.26538299-15.9071847-14.23059162zm13.9999344 16.00007322v.3499983c-3.3470018-.8176918-6.8375621-.851913-10.1999522-.0999995-.3999981-.9499955-.8999958-1.9499909-1.3999934-2.9499861-.0499998-.0999996-.0999995-.1499994-.1499993-.2499989 5.1499759-1.9999906 7.2999658-4.6499782 8.1999616-6.29997045 2.3017611 2.52883822 3.5688805 5.83048735 3.5499833 9.24995665zm-5.0999761-10.79994937c-.4499979 1.09999484-2.1499899 3.9499815-7.6499641 5.99997187-1.5995356-2.99862025-3.4212831-5.87330439-5.4499745-8.59995968 1.3594938-.42598297 2.7753187-.64509874 4.1999803-.64999697 3.2518325.02920775 6.3945158 1.17681685 8.8999583 3.24998478zm-14.99992967-1.79999156c2.05459847 2.65587283 3.87792157 5.48285992 5.44997447 8.44996033-4.2352206 1.3110082-8.67799234 1.8197225-13.09993862 1.499993.84604067-4.33392555 3.67899172-8.01861351 7.64996415-9.94995333zm-7.89996296 12.59994093v-.649997c.59999718.0499998 1.54999275.1499993 2.74998709.1499993 3.91718279-.0332626 7.80840594-.639687 11.54994584-1.7999915.1030548.1560532.1869891.3239218.2499989.5.4499979.8499937.849996 1.6999897 1.2499941 2.5499857-.8905627.2675155-1.7596886.6017947-2.5999878.9999953-5.69997329 2.5999878-8.39996063 6.2499707-9.3499562 7.899963-2.44947799-2.6191314-3.82385354-6.0639948-3.84998193-9.6499548zm5.39997468 10.9999484c.5-.9499955 2.84998665-4.7999775 8.64995945-7.4499651.827513-.3740191 1.6794687-.6914144 2.5499881-.9499955 1.3299601 3.3267034 2.2533069 6.8018452 2.7499871 10.3499515-1.6942901.7071327-3.5140961 1.0642909-5.349975 1.0499951-3.1179746-.0304069-6.13958566-1.0844573-8.59995965-2.999986zm15.84992575.9499956c-.5382756-3.3719173-1.4436521-6.6748651-2.6999874-9.8499538 3.0638356-.6021147 6.2231168-.5167287 9.2499567.2499988-.6942815 3.9958241-3.0825652 7.4962093-6.5499693 9.599955z" fill="#000" fill-rule="nonzero"/></g></svg>