<svg height="32" viewBox="0 0 32 32" width="32" xmlns="http://www.w3.org/2000/svg"><g fill="none" fill-rule="evenodd"><path d="m0 0h32v32h-32z"/><path d="m16 0c8.836556 0 16 7.163444 16 16s-7.163444 16-16 16-16-7.163444-16-16 7.163444-16 16-16zm-.017663 8.01132247c-4.402174 0-7.97101453 3.56884053-7.97101453 7.97101453 0 4.4021739 3.56884053 7.9710144 7.97101453 7.9710144 4.4021739 0 7.9710144-3.5688405 7.9710144-7.9710144 0-4.402174-3.5688405-7.97101453-7.9710144-7.97101453zm1.0536231 9.15507243c.6934783 1.6666667 1.1695653 3.2826087 1.4304348 4.8478261-.765942.315942-1.6043478.4898628-2.4840579.4898628-1.4837102.0022823-2.9234696-.5035515-4.0797102-1.4333411 1.4811594-2.0036231 3.1862319-3.3028985 5.1333333-3.9043478zm1.4369566-.3130435c1.223913-.1601449 2.5333333-.0768115 3.9347826.2492754-.2920459 1.6744035-1.2262362 3.16864-2.6036232 4.1644928-.2775363-1.4391305-.7210145-2.910145-1.3311594-4.4137682zm-2.4586957-1.8768115c.1466306.2840439.2889177.5703091.4268116.8586956-2.1094203.6934783-3.9717391 2.0956522-5.5710145 4.1978261-1.00689839-1.2660179-1.50461001-2.8630365-1.39565215-4.4775362l.08550723.0007246c2.27246382.0326087 3.67391302-.0246377 5.28985512-.3202899.4014492-.0731884.789855-.1594202 1.1644927-.2594202zm4.968116-3.1804348c.9084449 1.0816095 1.4393918 2.4299653 1.5123188 3.8405797-1.6391304-.3536232-3.1811594-.4050725-4.6202899-.157971-.1492753-.3202899-.3057971-.642029-.4688405-.9652174 1.4927536-.6036232 2.7021739-1.4913044 3.5768116-2.7173913zm-7.9333334-1.6398551c.806958 1.1307988 1.5578634 2.3005668 2.25 3.5050725-.2297101.0543478-.4666666.1036232-.7101449.1485507-1.4615942.2673913-2.7623189.3253623-4.85507247.2992754.51718467-1.7161643 1.71537907-3.1451435 3.31521737-3.9528986zm2.9333334-.69566041c1.4219625-.0022555 2.8053486.46235248 3.9376811 1.32247201-.734058 1.107971-1.8123188 1.9057971-3.2014493 2.4434783-.693913-1.2322621-1.4484614-2.4293822-2.2608695-3.58695656.4884058-.11666668.9992753-.17899375 1.5246377-.17899375z" fill="#202327"/></g></svg>