<svg height="32" viewBox="0 0 32 32" width="32" xmlns="http://www.w3.org/2000/svg"><g fill="none" fill-rule="evenodd"><path d="m0 0h32v32h-32z"/><path d="m1 32c-.55228475 0-1-.4477153-1-1s.44771525-1 1-1h4v-19c0-6.07513225 4.92486775-11 11-11 6.0751322 0 11 4.92486775 11 11v19h4c.5522847 0 1 .4477153 1 1s-.4477153 1-1 1zm15-30c-4.9705627 0-9 4.02943725-9 9v19h18v-19c0-4.97056275-4.0294373-9-9-9zm5 11c.5522847 0 1 .4477153 1 1v6c0 .5522847-.4477153 1-1 1s-1-.4477153-1-1v-6c0-.5522847.4477153-1 1-1z" fill="#000" fill-rule="nonzero"/></g></svg>