<svg height="32" viewBox="0 0 32 32" width="32" xmlns="http://www.w3.org/2000/svg"><g fill="none" fill-rule="evenodd"><path d="m0 0h32v32h-32z"/><path d="m29 2c1.6568542 0 3 1.34314575 3 3v12c0 1.6568542-1.3431458 3-3 3h-3v11c0 .5522847-.4477153 1-1 1s-1-.4477153-1-1v-11h-16v11c0 .5522847-.44771525 1-1 1s-1-.4477153-1-1v-11h-3c-1.65685425 0-3-1.3431458-3-3v-12c0-1.65685425 1.34314575-3 3-3zm-14 11h-11c-1.0543618 0-1.91816512.8158778-1.99451426 1.8507377l-.00548574.1492623v1c0 1.0543618.81587779 1.9181651 1.85073766 1.9945143l.14926234.0054857h11zm13 0h-11v5h11c1.0543618 0 1.9181651-.8158778 1.9945143-1.8507377l.0054857-.1492623v-1c0-1.1045695-.8954305-2-2-2z" fill="#202327"/></g></svg>