<svg height="32" viewBox="0 0 32 32" width="32" xmlns="http://www.w3.org/2000/svg"><g fill="none" fill-rule="evenodd"><path d="m0 0h32v32h-32z"/><path d="m28 2c2.209139 0 4 1.790861 4 4v10c0 2.209139-1.790861 4-4 4h-2v11c0 .5522847-.4477153 1-1 1s-1-.4477153-1-1v-11h-16v11c0 .5522847-.44771525 1-1 1s-1-.4477153-1-1v-11h-2c-2.209139 0-4-1.790861-4-4v-10c0-2.209139 1.790861-4 4-4zm-13 12h-11c-1.1045695 0-2 .8954305-2 2v-.001c0 1.0553618.81587779 1.9191651 1.85073766 1.9955143l.14926234.0054857 11-.001zm13 0-11-.001v4l11 .001c1.0543618 0 1.9181651-.8158778 1.9945143-1.8507377l.0054857-.1492623c0-1.1045695-.8954305-2-2-2zm0-10h-24c-1.1045695 0-2 .8954305-2 2l-.00012044 6.5351985c.58837395-.3403833 1.27149644-.5351985 2.00012044-.5351985h24c.7290322 0 1.4125119.1950335 2.0011092.5357707l-.0011092-6.5357707c0-1.1045695-.8954305-2-2-2z" fill="#000" fill-rule="nonzero"/></g></svg>