<svg height="32" viewBox="0 0 32 32" width="32" xmlns="http://www.w3.org/2000/svg"><g fill="none" fill-rule="evenodd"><path d="m0 0h32v32h-32z"/><path d="m19.120106 0c1.8257724 0 3.5522076.83131873 4.6906771 2.25867017l4.8798939 6.11814718c.847677 1.06277155 1.309323 2.38190365 1.309323 3.74132985v13.8818528c0 3.3137085-2.6862915 6-6 6h-16c-3.3137085 0-6-2.6862915-6-6v-20c0-3.3137085 2.6862915-6 6-6zm-3.120106 9c-.5522847 0-1 .44771525-1 1l-.000767 9.085-2.5598932-2.5598737c-.3905243-.3905243-1.0236892-.3905243-1.4142135 0s-.3905243 1.0236892 0 1.4142135l4.2426407 4.2426407c.1802419.180242.4121707.2772954.6480753.2911601h.1683154c.2359046-.0138647.4678334-.1109181.6480753-.2911601l4.2426407-4.2426407c.3905243-.3905243.3905243-1.0236892 0-1.4142135s-1.0236892-.3905243-1.4142135 0l-2.5614272 2.5598737.000767-9.085c0-.55228475-.4477153-1-1-1z" fill="#202327"/></g></svg>