<svg height="32" viewBox="0 0 32 32" width="32" xmlns="http://www.w3.org/2000/svg"><g fill="none" fill-rule="evenodd"><path d="m0 0h32v32h-32z"/><path d="m20.7552862 0c1.7061867 0 3.2162825 1.08080967 3.7750274 2.6773149l.0624346.1940198 2.98993 10.1622543c2.4868997.288633 4.4173218 2.4020849 4.4173218 4.966411 0 2.7614237-2.2385763 5-5 5-2.4185405 0-4.4360152-1.7171669-4.8997419-3.9988186l-12.20051719.000005c-.46372867 2.2816492-2.48120217 3.9988136-4.89974091 3.9988136-2.76142375 0-5-2.2385763-5-5 0-.146193.03137105-.2850589.08774858-.4102332-.05670518-.1856861-.08774858-.3841012-.08774858-.5897668v-3c0-2.209139 1.790861-4 4-4h8c2.209139 0 4 1.790861 4 4v3h9.3270535c.0955134 0 .1905341-.0136838.2821663-.0406345.491997-.144705.7885658-.6343223.7036514-1.1277512l-.0264522-.1137806-3.6124018-12.28216635c-.2346964-.79796764-.9359411-1.36156296-1.7537243-1.42889532l-.1650067-.00677203h-3.74733c-.5522848 0-1-.44771525-1-1 0-.51283584.3860402-.93550716.8833789-.99327227l.1166211-.00672773zm-12.92631043 19.0009007h-5.65795154c.41209062 1.1647219 1.52309355 1.9990993 2.82897577 1.9990993s2.41688515-.8343774 2.82897577-1.9990993zm20.40713263-3.7352124-.0309584-.1121873c.4675085 1.5895288-.4420687 3.257087-2.0315975 3.7245955-.2061725.060639-.4180631.0988902-.6320068.1142259l-.2144922.0076776-1.1560293.0009007c.4120906 1.1647219 1.5230936 1.9990993 2.8289758 1.9990993 1.6568542 0 3-1.3431458 3-3 0-1.2161684-.7236723-2.2633141-1.7638916-2.7343117zm-16.2361084-3.2656883h-8c-1.1045695 0-2 .8954305-2 2v3h12v-3c0-1.1045695-.8954305-2-2-2zm2-5c.5522847 0 1 .44771525 1 1s-.4477153 1-1 1h-8c-.55228475 0-1-.44771525-1-1s.44771525-1 1-1z" fill="#000" fill-rule="nonzero" transform="translate(0 3)"/></g></svg>