<svg height="32" viewBox="0 0 32 32" width="32" xmlns="http://www.w3.org/2000/svg"><g fill="none" fill-rule="evenodd"><path d="m0 0h32v32h-32z"/><path d="m23.7920147 0 3.0587186 13.0021939c.0496641-.0014614.0994237-.0021939.1492667-.0021939 2.7614237 0 5 2.2385763 5 5s-2.2385763 5-5 5c-2.4185405 0-4.4360152-1.7171669-4.8997419-3.9988186l-12.20051719.000005c-.46372867 2.2816492-2.48120217 3.9988136-4.89974091 3.9988136-2.41854049 0-4.43601517-1.7171669-4.89974192-3.9988186l-.10025808-.0011814v-9h16v7h9.737l-3.53-15h-6.0652901v-2zm-15.96303893 19.0009007h-5.65795154c.41209062 1.1647219 1.52309355 1.9990993 2.82897577 1.9990993s2.41688515-.8343774 2.82897577-1.9990993zm19.49697633-3.9833978.9366508 3.9824971-4.0915787.0009007c.4120906 1.1647219 1.5230936 1.9990993 2.8289758 1.9990993 1.6568542 0 3-1.3431458 3-3 0-1.5467165-1.1705123-2.8200453-2.6740479-2.9824971zm-13.3259521-3.0175029h-12v5h12zm1-5v2h-10v-2z" fill="#000" fill-rule="nonzero" transform="translate(0 3)"/></g></svg>