<svg height="32" viewBox="0 0 32 32" width="32" xmlns="http://www.w3.org/2000/svg"><g fill="none" fill-rule="evenodd"><path d="m0 0h32v32h-32z"/><path d="m24 2c3.3137085 0 6 2.6862915 6 6v16c0 3.3137085-2.6862915 6-6 6h-16c-3.3137085 0-6-2.6862915-6-6v-16c0-3.3137085 2.6862915-6 6-6zm-.3436508 6.42893219c-.7810486-.78104859-2.0473786-.78104859-2.8284271 0l-8.6888868 8.68888671c-.2761731.2761732-.5104094.5913054-.6952518.9353643l-2.03239132 3.78302c-.09385337.1746953-.09532506.3844806-.00393188.5604754.15271557.2940827.51491707.4086833.8089997.2559678l3.5680876-1.8528891c.4541422-.2358337.8693897-.5399861 1.231234-.9018304l8.6405676-8.6405676c.7810486-.7810486.7810486-2.04737853 0-2.82842711z" fill="#202327"/></g></svg>