<svg height="32" viewBox="0 0 32 32" width="32" xmlns="http://www.w3.org/2000/svg"><g fill="none" fill-rule="evenodd"><path d="m0 0h32v32h-32z"/><path d="m20.7552862 0c1.7061867 0 3.2162825 1.08080967 3.7750274 2.6773149l.0624346.1940198 2.98993 10.1622543c2.4868997.288633 4.4173218 2.4020849 4.4173218 4.966411 0 2.7614237-2.2385763 5-5 5-2.4185387 0-4.4360122-1.7171644-4.8997409-3.9988136h-12.20051819c-.46372867 2.2816492-2.48120217 3.9988136-4.89974091 3.9988136-2.76142375 0-5-2.2385763-5-5v-5c0-1.6568542 1.34314575-3 3-3h10c1.6568542 0 3 1.3431458 3 3v4l6.1000563-.000188c.3668085-1.8066767 1.7077701-3.2595815 3.4507353-3.7865651l-2.8767744-9.77757955c-.2346964-.79796764-.9359411-1.36156296-1.7537243-1.42889532l-.1650067-.00677203h-3.74733c-.5522848 0-1-.44771525-1-1 0-.51283584.3860402-.93550716.8833789-.99327227l.1166211-.00672773zm-6.7552862 7c.5522847 0 1 .44771525 1 1s-.4477153 1-1 1h-8c-.55228475 0-1-.44771525-1-1s.44771525-1 1-1z" fill="#202327" transform="translate(0 3)"/></g></svg>