<svg height="32" viewBox="0 0 32 32" width="32" xmlns="http://www.w3.org/2000/svg"><g fill="none" fill-rule="evenodd"><path d="m0 0h32v32h-32z"/><path d="m19.120106 0c1.8257724 0 3.5522076.83131873 4.6906771 2.25867017l4.8798939 6.11814718c.847677 1.06277155 1.309323 2.38190365 1.309323 3.74132985v13.8818528c0 3.3137085-2.6862915 6-6 6h-16c-3.3137085 0-6-2.6862915-6-6v-20c0-3.3137085 2.6862915-6 6-6zm0 2h-11.120106c-2.14219539 0-3.89107888 1.68396847-3.99510469 3.80035966l-.00489531.19964034v20c0 2.1421954 1.68396847 3.8910789 3.80035966 3.9951047l.19964034.0048953h16c2.1421954 0 3.8910789-1.6839685 3.9951047-3.8003597l.0048953-.1996403v-13.8818528c0-.8238947-.2543504-1.6255887-.7251774-2.29685957l-.1477046-.19736034-4.8798939-6.11814718c-.7115434-.89209465-1.767598-1.43495138-2.8997521-1.49932373z" fill="#000" fill-rule="nonzero"/></g></svg>