<svg height="32" viewBox="0 0 32 32" width="32" xmlns="http://www.w3.org/2000/svg"><g fill="none" fill-rule="evenodd"><path d="m0 0h32v32h-32z"/><path d="m23.7920147 0 3.0589853 13.003.149-.003c2.6887547 0 4.8818181 2.1223067 4.9953805 4.7831104l.0046195.2168896c0 2.7614237-2.2385763 5-5 5-2.4185387 0-4.4360122-1.7171644-4.8997409-3.9988136h-12.20051819c-.46372867 2.2816492-2.48120217 3.9988136-4.89974091 3.9988136-2.76142375 0-5-2.2385763-5-5v-8h16v7l6.1000563-.000188c.3199305-1.5757839 1.3809316-2.8824417 2.8033756-3.5403457l-2.6964319-11.4594663h-6.0652901v-2zm-8.7920147 7v2h-10v-2z" fill="#202327" transform="translate(0 3)"/></g></svg>