<svg height="32" viewBox="0 0 32 32" width="32" xmlns="http://www.w3.org/2000/svg"><g fill="none" fill-rule="evenodd"><path d="m0 0h32v32h-32z"/><path d="m22.8134874 9.36880578c4.4910294 4.49102932 6.6764277 9.84225252 4.7238062 11.79487402-.1787611.1787611-.3860068.3228404-.6184694.4336437l-14.5761222 9.8281526-11.30760366-11.3076036 9.72126696-14.82064481c.1052268-.19413453.2349175-.36967331.3898602-.52461599 1.9526215-1.95262145 7.1762326.10516473 11.6672619 4.59619408zm5.1872476 12.83119422 2.6132495 3.9198743c.9621719 1.4432578.5721747 3.3932439-.8710831 4.3554158-.5159208.3439472-1.1221068.5274855-1.7421664.5274855-1.73458 0-3.140735-1.4061549-3.140735-3.140735 0-.6200596.1835384-1.2262456.5274855-1.7421663z" fill="#202327" fill-rule="nonzero"/></g></svg>