<svg height="32" viewBox="0 0 32 32" width="32" xmlns="http://www.w3.org/2000/svg"><g fill="none" fill-rule="evenodd"><path d="m0 0h32v32h-32z"/><path d="m28.000735 22.2 2.6132495 3.9198743c.9621719 1.4432578.5721747 3.3932439-.8710831 4.3554158-.5159208.3439472-1.1221068.5274855-1.7421664.5274855-1.73458 0-3.140735-1.4061549-3.140735-3.140735 0-.6200596.1835384-1.2262456.5274855-1.7421663zm-5.1872476-12.83119422c4.4910294 4.49102932 6.6764277 9.84225252 4.7238062 11.79487402-.1409463.1409463-.2996006.2603318-.4743613.3588458l-11.2859854 7.9273491c-1.9300694 1.4301953-4.5934806 1.2808401-6.35036118-.3267591l-.16200166-.1549809-6.05042559-6.0504256c-1.69862095-1.6986209-1.94278878-4.3550186-.61783908-6.3202401l.12881455-.1821643 8.04691746-11.14655466c.1023446-.18285504.2268435-.34880774.3741741-.49613834 1.9526215-1.95262145 7.1762326.10516473 11.6672619 4.59619408z" fill="#202327" fill-rule="nonzero"/></g></svg>