<svg height="32" viewBox="0 0 32 32" width="32" xmlns="http://www.w3.org/2000/svg"><g fill="none" fill-rule="evenodd"><path d="m0 0h32v32h-32z"/><path d="m16 32c-8.8375 0-16-7.1625-16-16s7.1625-16 16-16 16 7.1625 16 16-7.1625 16-16 16zm4.43125-23.884375c-.553125-.078125-1.334375-.115625-2.340625-.115625-1.184375 0-2.13125.328125-2.84375.984375s-1.06875 1.58125-1.06875 2.771875v2.09375h-2.615625v2.84375h2.61875v7.2875h3.140625v-7.29375h2.60625l.4-2.840625h-3.00625v-1.815625c0-.4625.103125-.80625.309375-1.0375.20625-.228125.6-.34375 1.1875-.34375h1.6125z" fill="#202327" fill-rule="nonzero"/></g></svg>