<svg height="32" viewBox="0 0 32 32" width="32" xmlns="http://www.w3.org/2000/svg"><g fill="none" fill-rule="evenodd"><path d="m0 0h32v32h-32z"/><path d="m22.8134874 9.36880578c4.4910294 4.49102932 6.6764277 9.84225252 4.7238062 11.79487402-.1787611.1787611-.3860068.3228404-.6184694.4336437l-14.5761222 9.8281526-11.30760366-11.3076036 9.72126696-14.82064481c.1052268-.19413453.2349175-.36967331.3898602-.52461599 1.9526215-1.95262145 7.1762326.10516473 11.6672619 4.59619408zm5.1872476 12.83119422 2.6132495 3.9198743c.9621719 1.4432578.5721747 3.3932439-.8710831 4.3554158-.5159208.3439472-1.1221068.5274855-1.7421664.5274855-1.73458 0-3.140735-1.4061549-3.140735-3.140735 0-.6200596.1835384-1.2262456.5274855-1.7421663zm0 3.6057756-.9491489 1.4234991c-.099939.1499085-.1625907.3207994-.1836538.4984668l-.0079323.1342991c0 .6300106.5107245 1.140735 1.140735 1.140735.2252096 0 .4453803-.0666623.632766-.1915861.5242005-.349467.6658499-1.0577144.316383-1.5819148zm-17.2311689-16.87817569-7.16348832 10.93236179 8.97601352 8.9760135 10.8625671-7.3115451c-2.3250236-.7279494-5.1522872-2.5346049-7.7022388-5.0845565-2.50805-2.50805-4.2572322-5.2445739-4.9728535-7.51227369zm1.790873-2.74077464c-.2550497.2550497-.2683428 1.21983152.3283312 2.73446538.7494529 1.90245745 2.2660792 4.10258565 4.2678629 6.10436935 3.8126715 3.8126716 8.1356078 5.5546453 8.9664468 4.7238062.8308391-.8308391-.9111346-5.1537753-4.7238062-8.9664469-2.0017836-2.00178364-4.2019119-3.51840989-6.1043693-4.26786283-1.5146339-.59667394-2.4794157-.58338091-2.7344654-.3283312z" fill="#000" fill-rule="nonzero"/></g></svg>