<svg height="32" viewBox="0 0 32 32" width="32" xmlns="http://www.w3.org/2000/svg"><g fill="none" fill-rule="evenodd"><path d="m0 0h32v32h-32z"/><path d="m13.5080329.61133571c2.4135522-2.27485676 15.6664666 6.30304992 16.4919671 15.38866429.8255005 9.0856144-6.2680135 16-14 16s-14.84340524-7.2244694-14-16c.6389822-6.64853334 6.98865962-12.17174862 7.53826445-9.52353499l.13245842.61713478c.67599873 3.04013881 1.78077213 6.31763461 3.83731003 5.41064341 3.657102-1.6128851-1.8004574-10.19591387 0-11.89290749zm1.7161737 1.7020544-.0452066-.00939011.0589921.34810027c.0610854.32234587.1476489.67949335.310865 1.28473168l.5343476 1.9378484.040642.1510313c.4771048 1.78290341.7037028 3.03053547.6737164 4.21000885-.0474679 1.8670792-.8205389 3.365497-2.4824769 4.0984585-2.2077753.9736912-4.0151896-.1805981-5.14424317-2.3659023-.43068318-.8335953-.78474646-1.820445-1.10365033-3.00678804l-.1311927-.50648866-.02336468.02163694c-.15265416.13590236-.31260413.28910346-.47596257.45788805l-.16435062.17391556c-1.7238548 1.86769305-3.03703728 4.53933655-3.28149552 7.08289525-.70445502 7.3297703 5.18496446 13.8086642 12.00917339 13.8086642 6.9238958 0 12.6942342-6.2684558 12.0082044-13.8190295-.3163622-3.481942-3.0149821-7.43692774-6.9134996-10.57811006-1.6725516-1.34763779-3.4117909-2.40247915-4.8386973-2.96280341-.3897076-.15303221-.7385776-.26168017-1.0318009-.32666692z" fill="#000" fill-rule="nonzero"/></g></svg>