<svg height="32" viewBox="0 0 32 32" width="32" xmlns="http://www.w3.org/2000/svg"><g fill="none" fill-rule="evenodd"><path d="m0 0h32v32h-32z"/><g fill="#000" fill-rule="nonzero"><path d="m32 16c0-8.83636363-7.1636364-16-16-16-8.83636362 0-16 7.16363638-16 16 0 8.8363636 7.16363638 16 16 16 8.8363636 0 16-7.1636364 16-16zm-30.54545453 0c0-8.03345453 6.512-14.54545453 14.54545453-14.54545453 8.0334545 0 14.5454545 6.512 14.5454545 14.54545453 0 8.0334545-6.512 14.5454545-14.5454545 14.5454545-8.03345453 0-14.54545453-6.512-14.54545453-14.5454545z"/><path d="m16.6138182 25.2349091v-9.2349091h3.0472727l.4814545-3.0603636h-3.5287272v-1.5345455c0-.7985455.2618182-1.56072727 1.408-1.56072727h2.2909091v-3.05454547h-3.2523636c-2.7345455 0-3.4807273 1.80072728-3.4807273 4.29672724v1.8516364h-1.8763637v3.0618182h1.8763636v9.2349091z"/></g></g></svg>