<svg height="32" viewBox="0 0 32 32" width="32" xmlns="http://www.w3.org/2000/svg"><g fill="none" fill-rule="evenodd"><path d="m0 0h32v32h-32z"/><path d="m14.5 0c3.8659932 0 7 3.13400675 7 7 0 3.5261219-2.6071882 6.4433024-5.9989899 6.9289666l-.0010101 12.0710334h13v6h-28v-6h13l-.0000082-12.07089c-3.3148132-.4741509-5.8804672-3.2706475-5.99593278-6.68846025l-.00405902-.24064975c0-3.86599325 3.1340068-7 7-7zm12 28h-24v2h24zm-12-26c-2.7614237 0-5 2.23857625-5 5s2.2385763 5 5 5 5-2.23857625 5-5-2.2385763-5-5-5z" fill="#000" fill-rule="nonzero" transform="translate(1.5)"/></g></svg>