<svg height="32" viewBox="0 0 32 32" width="32" xmlns="http://www.w3.org/2000/svg"><g fill="none" fill-rule="evenodd"><path d="m0 0h32v32h-32z"/><path d="m7 26c-3.86599325 0-7-3.1340068-7-7v-6c0-3.86599325 3.13400675-7 7-7h18c3.8659932 0 7 3.13400675 7 7v6c0 3.8659932-3.1340068 7-7 7zm17-18h-16v16h16zm-18.00018797.10005628c-2.28214667.46334296-3.99981203 2.48105222-3.99981203 4.89994372v6c0 2.4188915 1.71766536 4.4366008 3.99981203 4.8999437zm20.00137437.00020281v15.79948181c2.2816492-.4637287 3.9988136-2.4812022 3.9988136-4.8997409v-6c0-2.4185387-1.7171644-4.43601224-3.9988136-4.89974091z" fill="#000" fill-rule="nonzero"/></g></svg>