<svg height="32" viewBox="0 0 32 32" width="32" xmlns="http://www.w3.org/2000/svg"><g fill="none" fill-rule="evenodd"><path d="m0 0h32v32h-32z"/><path d="m16 3c.5522847 0 1 .44771525 1 1v6h6c4.9705627 0 9 4.0294373 9 9s-4.0294373 9-9 9h-14c-4.97056275 0-9-4.0294373-9-9s4.02943725-9 9-9h6v-6c0-.55228475.4477153-1 1-1zm-7 12c-.55228475 0-1 .4477153-1 1v2h-2c-.55228475 0-1 .4477153-1 1s.44771525 1 1 1h2v2c0 .5522847.44771525 1 1 1s1-.4477153 1-1v-2h2c.5522847 0 1-.4477153 1-1s-.4477153-1-1-1h-2v-2c0-.5522847-.44771525-1-1-1zm16.5 5c-.8284271 0-1.5.6715729-1.5 1.5s.6715729 1.5 1.5 1.5 1.5-.6715729 1.5-1.5-.6715729-1.5-1.5-1.5zm-2-5c-.8284271 0-1.5.6715729-1.5 1.5s.6715729 1.5 1.5 1.5 1.5-.6715729 1.5-1.5-.6715729-1.5-1.5-1.5z" fill="#202327"/></g></svg>