<svg height="32" viewBox="0 0 32 32" width="32" xmlns="http://www.w3.org/2000/svg"><g fill="none" fill-rule="evenodd"><path d="m0 0h32v32h-32z"/><path d="m24 0c2.209139 0 4 1.790861 4 4v24c0 2.209139-1.790861 4-4 4h-16c-2.209139 0-4-1.790861-4-4v-24c0-2.209139 1.790861-4 4-4zm-13 21.5c-.5522847 0-1 .4477153-1 1v1.5h-1.5c-.55228475 0-1 .4477153-1 1s.44771525 1 1 1h1.5v1.5c0 .5522847.4477153 1 1 1s1-.4477153 1-1v-1.5h1.5c.5522847 0 1-.4477153 1-1s-.4477153-1-1-1h-1.5v-1.5c0-.5522847-.4477153-1-1-1zm11.5 4c-.8284271 0-1.5.6715729-1.5 1.5s.6715729 1.5 1.5 1.5 1.5-.6715729 1.5-1.5-.6715729-1.5-1.5-1.5zm-1-4c-.8284271 0-1.5.6715729-1.5 1.5s.6715729 1.5 1.5 1.5 1.5-.6715729 1.5-1.5-.6715729-1.5-1.5-1.5zm.5-17.5h-12c-1.1045695 0-2 .8954305-2 2v11c0 1.1045695.8954305 2 2 2h12c1.1045695 0 2-.8954305 2-2v-11c0-1.1045695-.8954305-2-2-2z" fill="#202327"/></g></svg>