<svg height="32" viewBox="0 0 32 32" width="32" xmlns="http://www.w3.org/2000/svg"><g fill="none" fill-rule="evenodd"><path d="m0 0h32v32h-32z"/><path d="m23 0c2.7614237 0 5 2.23857625 5 5v22c0 2.7614237-2.2385763 5-5 5h-14c-2.76142375 0-5-2.2385763-5-5v-22c0-2.76142375 2.23857625-5 5-5zm0 2h-14c-1.65685425 0-3 1.34314575-3 3v22c0 1.6568542 1.34314575 3 3 3h14c1.6568542 0 3-1.3431458 3-3v-22c0-1.65685425-1.3431458-3-3-3zm-12 19.5c.5522847 0 1 .4477153 1 1v1.5h1.5c.5522847 0 1 .4477153 1 1s-.4477153 1-1 1h-1.5v1.5c0 .5522847-.4477153 1-1 1s-1-.4477153-1-1v-1.5h-1.5c-.55228475 0-1-.4477153-1-1s.44771525-1 1-1h1.5v-1.5c0-.5522847.4477153-1 1-1zm11.5 4c.8284271 0 1.5.6715729 1.5 1.5s-.6715729 1.5-1.5 1.5-1.5-.6715729-1.5-1.5.6715729-1.5 1.5-1.5zm-1-4c.8284271 0 1.5.6715729 1.5 1.5s-.6715729 1.5-1.5 1.5-1.5-.6715729-1.5-1.5.6715729-1.5 1.5-1.5zm-.5-17.5c1.6568542 0 3 1.34314575 3 3v10c0 1.6568542-1.3431458 3-3 3h-10c-1.65685425 0-3-1.3431458-3-3v-10c0-1.65685425 1.34314575-3 3-3zm0 2h-10c-.5522847 0-1 .44771525-1 1v10c0 .5522847.4477153 1 1 1h10c.5522847 0 1-.4477153 1-1v-10c0-.55228475-.4477153-1-1-1z" fill="#000" fill-rule="nonzero"/></g></svg>