<svg height="32" viewBox="0 0 32 32" width="32" xmlns="http://www.w3.org/2000/svg"><g fill="none" fill-rule="evenodd"><path d="m0 0h32v32h-32z"/><path d="m16 0c8.836556 0 16 7.163444 16 16s-7.163444 16-16 16-16-7.163444-16-16 7.163444-16 16-16zm-.0080357 7.00602603c-4.9680804-.00200817-8.9919643 4.01986687-8.9919643 8.98392937 0 3.9254464 2.5171875 7.2622767 6.0227679 8.4877232.4720982.1185268.3997767-.2169643.3997767-.4459822v-1.5569196c-2.726116.3194196-2.8366071-1.4845982-3.0194196-1.7859375-.3696429-.6308036-1.24352679-.7915179-.98236607-1.0928572.62075897-.3194196 1.25357147.0803572 1.98683037 1.1631697.5303571.7854911 1.5649553.6529018 2.0892857.5223214.1145089-.4720982.3595982-.8939732.6970982-1.2214286-2.8245536-.50625-4.0017857-2.2299107-4.0017857-4.2790178 0-.9944197.3274554-1.9084822.9703125-2.6457589-.4098214-1.2154018.0381696-2.2560268.0984375-2.4107143 1.1671875-.1044643 2.3805804.8357143 2.475.9100446.6629464-.1787946 1.4203125-.2732143 2.2680804-.2732143.8517857 0 1.6111607.0984375 2.2801339.2792411.2270089-.1727679 1.3520089-.9803571 2.4368303-.8819196.058259.1546875.4962054 1.1712053.1104911 2.3705357.6508929.7392857.9823661 1.6613839.9823661 2.6578125 0 2.053125-1.1852679 3.7787946-4.0178572 4.2770089.4720983.4660714.7654018 1.1129464.7654018 1.828125v2.2600446c.0160715.1808036 0 .3595983.3013393.3595983 3.5578125-1.1993304 6.1191964-4.5602679 6.1191964-8.5198661 0-4.9660714-4.0258928-8.98593827-8.9899553-8.98593827z" fill="#202327"/></g></svg>