<svg height="32" viewBox="0 0 32 32" width="32" xmlns="http://www.w3.org/2000/svg"><g fill="none" fill-rule="evenodd"><path d="m0 0h32v32h-32z"/><path d="m14.5 0c4.418278 0 8 3.581722 8 8 0 4.0806722-3.0552673 7.4477484-7.0030603 7.9384873.002398.0191839.0030603.040271.0030603.0615127v10h10c1.6568542 0 3 1.3431458 3 3s-1.3431458 3-3 3h-22c-1.65685425 0-3-1.3431458-3-3s1.34314575-3 3-3h10v-10l.0030603-.0615127c-3.94779302-.4907389-7.0030603-3.8578151-7.0030603-7.9384873 0-4.418278 3.581722-8 8-8z" fill="#202327" transform="translate(1.5)"/></g></svg>