<svg height="32" viewBox="0 0 32 32" width="32" xmlns="http://www.w3.org/2000/svg"><g fill="none" fill-rule="evenodd"><path d="m0 0h32v32h-32z"/><path d="m16 3c.5522847 0 1 .44771525 1 1v5h5c5.4292399 0 9.8479317 4.3266708 9.9961582 9.7200952l.0038418.2799048c0 5.4292399-4.3266708 9.8479317-9.7200952 9.9961582l-.2799048.0038418h-12c-5.5228475 0-10-4.4771525-10-10 0-5.4292399 4.32667079-9.84793172 9.72009516-9.9961582l.27990484-.0038418h5v-5c0-.55228475.4477153-1 1-1zm6 8h-12c-4.418278 0-8 3.581722-8 8 0 4.3349143 3.44783777 7.8645429 7.75082067 7.9961932l.24917933.0038068h12c4.418278 0 8-3.581722 8-8s-3.581722-8-8-8zm-12 4c.5522847 0 1 .4477153 1 1v2h2c.5522847 0 1 .4477153 1 1s-.4477153 1-1 1h-2v2c0 .5522847-.4477153 1-1 1-.55228475 0-1-.4477153-1-1v-2h-2c-.55228475 0-1-.4477153-1-1s.44771525-1 1-1h2v-2c0-.5522847.44771525-1 1-1zm14.5 5c.8284271 0 1.5.6715729 1.5 1.5s-.6715729 1.5-1.5 1.5-1.5-.6715729-1.5-1.5.6715729-1.5 1.5-1.5zm-2-5c.8284271 0 1.5.6715729 1.5 1.5s-.6715729 1.5-1.5 1.5-1.5-.6715729-1.5-1.5.6715729-1.5 1.5-1.5z" fill="#000" fill-rule="nonzero"/></g></svg>