<svg height="32" viewBox="0 0 32 32" width="32" xmlns="http://www.w3.org/2000/svg"><g fill="none" fill-rule="evenodd"><path d="m0 0h32v32h-32z"/><path d="m14.0787368 1.72185281c1.1290109-.96461213 2.8034221-.96220407 3.9295901.00565135l12.6157966 10.84231384c.8740064.7511418 1.3758765 1.8399284 1.3758765 2.9849077v16.4452743l-10-.001v-5.999c0-3.2383969-2.5655749-5.8775718-5.7750617-5.9958615l-.2249383-.0041385c-3.3137085 0-6 2.6862915-6 6v5.999l-10 .001v-16.4400602c0-1.1489958.50538353-2.241192 1.38466997-2.9924428zm1.9212632 7.27814719c-2.209139 0-4 1.790861-4 4s1.790861 4 4 4 4-1.790861 4-4-1.790861-4-4-4z" fill="#202327" fill-rule="nonzero"/></g></svg>