<svg height="32" viewBox="0 0 34 32" width="34" xmlns="http://www.w3.org/2000/svg"><g fill="none" fill-rule="evenodd"><path d="m1 0h32v32h-32z"/><path d="m32.5 24c0 1.6568542-1.3431458 3-3 3h-1c-2.209139 0-4-1.790861-4-4v-4c0-2.209139 1.790861-4 4-4h1c.3413564 0 .6693967.0570126.9751184.162035-.4331912-7.34185769-6.5244672-13.162035-13.9751184-13.162035-7.45071277 0-13.54202783 5.82027349-13.97534686 13.1622221.30595015-.1052095.6339905-.1622221.97534686-.1622221h1c2.209139 0 4 1.790861 4 4v4c0 2.209139-1.790861 4-4 4h-1c-1.65685425 0-3-1.3431458-3-3v-8c0-8.836556 7.163444-16 16-16 8.7313589 0 15.8292047 6.99390104 15.9969636 15.6851293l.0030364.3148707z" fill="#202327" transform="translate(.5 2)"/></g></svg>