<svg height="32" viewBox="0 0 32 32" width="32" xmlns="http://www.w3.org/2000/svg"><g fill="none" fill-rule="evenodd"><path d="m0 0h32v32h-32z"/><path d="m11.146391 1.18166525 1.1143877.19649662 15.1572486 4.30944492c1.479402.42061732 2.4010684 1.89191199 2.1339916 3.40657997l-1.3557725 7.68896774c-.2670768 1.5146679-1.6363724 2.5820042-3.1704151 2.4712699l-7.6798762-.5553145 2.3409567 7.7318957c.470442 1.5537966-.3804995 3.1999166-1.9202111 3.7145891l-2.9627642.9903499c-1.4659642.4900212-3.0642946-.2140076-3.692299-1.6263752l-5.43128447-12.2148346c-.0399264-.0897936-.06555553-.1823212-.07786833-.275031-3.11744498-1.6980798-4.95377656-5.25227-4.30296915-8.94318216.81517754-4.62310158 5.22377383-7.71003394 9.84687545-6.89485639zm-1.646391 5.31833475c-1.65685425 0-3 1.34314575-3 3 0 1.6568542 1.34314575 3 3 3 1.6568542 0 3-1.3431458 3-3 0-1.65685425-1.3431458-3-3-3zm0 2c.5522847 0 1 .44771525 1 1 0 .5522847-.4477153 1-1 1-.55228475 0-1-.4477153-1-1 0-.55228475.44771525-1 1-1z" fill="#202327"/></g></svg>