<svg height="32" viewBox="0 0 32 32" width="32" xmlns="http://www.w3.org/2000/svg"><g fill="none" fill-rule="evenodd"><path d="m0 0h32v32h-32z"/><path d="m25 1c3.3137085 0 6 2.6862915 6 6v7c0 3.3137085-2.6862915 6-6 6h-5v7c0 2.209139-1.790861 4-4 4s-4-1.790861-4-4v-7h-5c-3.3137085 0-6-2.6862915-6-6v-7c0-3.3137085 2.6862915-6 6-6zm-2 5c-.5522847 0-1 .44771525-1 1v7c0 .5522847.4477153 1 1 1s1-.4477153 1-1v-7c0-.55228475-.4477153-1-1-1zm-14 0c-.55228475 0-1 .44771525-1 1v7c0 .5522847.44771525 1 1 1s1-.4477153 1-1v-7c0-.55228475-.44771525-1-1-1z" fill="#202327"/></g></svg>