<svg height="32" viewBox="0 0 32 32" width="32" xmlns="http://www.w3.org/2000/svg"><g fill="none" fill-rule="evenodd"><path d="m0 0h32v32h-32z"/><path d="m19.5548639 2.6028224 8.9944388 6.59912643c1.5405939 1.13031777 2.4506973 2.92683637 2.4506973 4.83760787v11.9604433c0 3.3137085-2.6862915 6-6 6h-18c-3.3137085 0-6-2.6862915-6-6v-11.958697c0-1.9117507.91103125-3.7090683 2.45293825-4.83925127l9.00556125-6.60087271c2.1123042-1.54827125 4.9847775-1.54760604 7.0963644.00164338zm-3.5548639 13.3971776c-2.209139 0-4 1.790861-4 4v3c0 .5522847.4477153 1 1 1h6c.5522847 0 1-.4477153 1-1v-3c0-2.209139-1.790861-4-4-4z" fill="#202327"/></g></svg>