<svg height="32" viewBox="0 0 32 32" width="32" xmlns="http://www.w3.org/2000/svg"><g fill="none" fill-rule="evenodd"><path d="m0 0h32v32h-32z"/><path d="m1.29951555 8.07652164c.81517754-4.62310158 5.22377383-7.71003394 9.84687545-6.89485639l1.5166286.27223587 13.8867061 3.87225988c1.9828267.55290437 3.2222829 2.52040178 2.8648331 4.54760052l-1.0808523 6.12981818c-.3574499 2.0271987-2.1950815 3.4521225-4.2474336 3.293516l-6.6443127-.5169858 2.1524936 6.9894816c.6201494 2.0143651-.4295656 4.151056-2.3732745 4.9051028l-.1908656.0686055-1.3826806.4584182c-1.9611748.650214-4.0948396-.3002236-4.9232245-2.1930424l-5.28925694-12.0837513c-3.01627633-1.7330076-4.77457234-5.2248152-4.13563611-8.84840266zm6.74271021 9.81864646 4.51439914 10.311645c.4141924.9464094 1.4810248 1.4216282 2.4616122 1.0965212l1.3826806-.4584182c1.0325567-.342337 1.6021472-1.4471818 1.2820701-2.4868542l-2.3513261-7.6363804-2.4677015-.2965716-3.24791091-.2510328-1.42167735-.2506801c-.05090268-.0089755-.10161912-.0183866-.15214618-.0282289zm2.75686884-14.74388735c-3.53531297-.62337106-6.90659248 1.73722427-7.52996355 5.27253724-.58839342 3.33694491 1.48171077 6.52774801 4.68884815 7.39953271l5.211981.6237592 11.070414.8559315c.9748672.0753381 1.8528419-.5638919 2.0914364-1.497038l.0322804-.1497201 1.0808523-6.12981813c.1787249-1.01359938-.4410032-1.99734808-1.4324166-2.27380027l-13.7917547-3.85070407zm-1.2990946 3.34871925c1.6568542 0 3 1.34314575 3 3 0 1.6568542-1.3431458 3-3 3-1.65685425 0-3-1.3431458-3-3 0-1.65685425 1.34314575-3 3-3zm0 2c-.55228475 0-1 .44771525-1 1 0 .5522847.44771525 1 1 1 .5522847 0 1-.4477153 1-1 0-.55228475-.4477153-1-1-1z" fill="#000" fill-rule="nonzero"/></g></svg>