<svg height="32" viewBox="0 0 32 32" width="32" xmlns="http://www.w3.org/2000/svg"><g fill="none" fill-rule="evenodd"><path d="m0 0h32v32h-32z"/><path d="m25 1c3.3137085 0 6 2.6862915 6 6v7c0 3.3137085-2.6862915 6-6 6h-5v7c0 2.209139-1.790861 4-4 4s-4-1.790861-4-4v-7h-5c-3.3137085 0-6-2.6862915-6-6v-7c0-3.3137085 2.6862915-6 6-6zm-7 19h-4v7c0 1.0543618.8158778 1.9181651 1.8507377 1.9945143l.1492623.0054857c1.0543618 0 1.9181651-.8158778 1.9945143-1.8507377l.0054857-.1492623zm-10-17h-1c-2.14219539 0-3.89107888 1.68396847-3.99510469 3.80035966l-.00489531.19964034v7c0 2.1421954 1.68396847 3.8910789 3.80035966 3.9951047l.19964034.0048953h1zm14 0h-12v15h12zm3 0h-1v15h1c2.1421954 0 3.8910789-1.6839685 3.9951047-3.8003597l.0048953-.1996403v-7c0-2.14219539-1.6839685-3.89107888-3.8003597-3.99510469z" fill="#000" fill-rule="nonzero"/></g></svg>