<svg height="32" viewBox="0 0 34 32" width="34" xmlns="http://www.w3.org/2000/svg"><g fill="none" fill-rule="evenodd"><path d="m1 0h32v32h-32z"/><path d="m32.5 23c0 2.209139-1.790861 4-4 4s-4-1.790861-4-4v-4c0-2.209139 1.790861-4 4-4 .7253585 0 1.4056224.1930728 1.9922038.5306307-.2471876-7.51441726-6.4171147-13.5306307-13.9922038-13.5306307-7.57503591 0-13.74492959 6.01612901-13.99229209 13.5309981.58666974-.3379253 1.26693363-.5309981 1.99229209-.5309981 2.209139 0 4 1.790861 4 4v4c0 2.209139-1.790861 4-4 4s-4-1.790861-4-4v-7c0-8.836556 7.163444-16 16-16 8.7313589 0 15.8292047 6.99390104 15.9969636 15.6851293l.0030364.3148707zm-28-6c-1.1045695 0-2 .8954305-2 2v4c0 1.1045695.8954305 2 2 2s2-.8954305 2-2v-4c0-1.1045695-.8954305-2-2-2zm24 0c-1.1045695 0-2 .8954305-2 2v4c0 1.1045695.8954305 2 2 2s2-.8954305 2-2v-4c0-1.1045695-.8954305-2-2-2z" fill="#000" fill-rule="nonzero" transform="translate(.5 2)"/></g></svg>