<svg height="32" viewBox="0 0 32 32" width="32" xmlns="http://www.w3.org/2000/svg"><g fill="none" fill-rule="evenodd"><path d="m0 0h32v32h-32z"/><path d="m3.77552506.2 9.88749454 1.74824539 17.3815679 4.84678999-2.3409098 13.27595902-11.2401717-.8719944 3.2249672 9.7147143-8.5603016 2.8400165-6.49166556-13.9637308-4.813-.8482682zm4.27119922 18.0316389 5.14265042 11.062245 4.9705938-1.6495216-2.8412129-8.5605098-1.2732496-.1498525-3.4294567-.2655786-2.29754326-.4054214zm-2.64862543-15.71384534-2.25742631 12.80250084 5.4188335.9577056 5.76699996.675 12.72189.9845896 1.7107819-9.70232602-15.5384059-4.33895849zm5.10190115 3.23391002 4.2426407 4.24264068-4.2426407 4.24264074-4.24264069-4.24264074zm0 2.82842712-1.41421356 1.41421356 1.41421356 1.41421354 1.4142136-1.41421354z" fill="#000" fill-rule="nonzero"/></g></svg>