<svg height="32" viewBox="0 0 32 32" width="32" xmlns="http://www.w3.org/2000/svg"><g fill="none" fill-rule="evenodd"><path d="m0 0h32v32h-32z"/><path d="m19.120106 0c1.8257724 0 3.5522076.83131873 4.6906771 2.25867017l4.8798939 6.11814718c.847677 1.06277155 1.309323 2.38190365 1.309323 3.74132985v13.8818528c0 3.3137085-2.6862915 6-6 6h-16c-3.3137085 0-6-2.6862915-6-6v-20c0-3.3137085 2.6862915-6 6-6zm.1466814 11.099674c-.4962138-.2424671-1.095033-.0367647-1.3375001.4594491l-2.0300359 4.1545091-.0070291.0079619c-.0092466.0060422-.0216406.0034445-.0276828-.005802l-1.9619341-3.0024068c-.1031584-.1578665-.2488535-.2833457-.4202707-.3619564-.5020134-.2302195-1.0956054-.009887-1.3258249.4921264l-3.30195785 7.2002018c-.0599763.1307834-.09102439.2729692-.09102439.4168493 0 .5522847.44771525 1 1 1h12.38787024c.1251124 0 .2491138-.0234779.3655665-.0692148.5140585-.2018968.7671155-.7822933.5652187-1.2963517l-3.3236359-8.4624578c-.0914736-.2329049-.2669398-.4230533-.4917597-.5329081zm-.5389294 3.3808607 1.9558574 4.9808602h-9.3620938l1.8971675-4.1372818.9715103 1.4857175.087104.1231692c.6363017.8327828 1.8174037 1.0453581 2.7088574.4628343l.2294278-.1841322c.1514039-.1264115.2195737-.2036276.3262412-.3695343l.1542707-.2504843z" fill="#202327"/></g></svg>