<svg height="32" viewBox="0 0 32 32" width="32" xmlns="http://www.w3.org/2000/svg"><g fill="none" fill-rule="evenodd"><path d="m0 0h32v32h-32z"/><path d="m9.36132034 10.3 4.94974746 4.9497475c.180242.1802419.2772954.4121707.2911601.6480754v.1612085c-.0138647.2359046-.1109181.4678334-.2911601.6480754l-4.94974746 4.9497474c-.39052429.3905243-1.02368927.3905243-1.41421356 0-.39052429-.3905242-.39052429-1.0236892 0-1.4142135l3.27112112-3.2708932-9.4182279-.0006797c-.55228475 0-1-.4477152-1-1 0-.5522847.44771525-1 1-1l9.4042279.0006797-3.25712112-3.2575339c-.39052429-.3905243-.39052429-1.0236893 0-1.4142136.39052429-.39052429 1.02368927-.39052429 1.41421356 0zm14.66066016-.0071068c.3905243.3905243.3905243 1.0236893 0 1.4142136l-3.2711211 3.2708932 9.442694.0006797c.5522847 0 1 .4477152 1 1 0 .5522847-.4477153 1-1 1l-9.428694-.0006797 3.2571211 3.2575339c.3905243.3905243.3905243 1.0236893 0 1.4142136s-1.0236893.3905243-1.4142135 0l-4.9497475-4.9497475c-.180242-.180242-.2772954-.4121707-.2911601-.6480754v-.1612085c.0138647-.2359047.1109181-.4678334.2911601-.6480754l4.9497475-4.9497475c.3905242-.39052427 1.0236892-.39052427 1.4142135 0z" fill="#000"/></g></svg>