<svg height="32" viewBox="0 0 32 32" width="32" xmlns="http://www.w3.org/2000/svg"><g fill="none" fill-rule="evenodd"><path d="m0 0h32v32h-32z"/><path d="m18.1428571 0c1.709147 0 3.2294659 1.08594207 3.7837838 2.7027027l1.0077032 2.94015647c2.4002879 1.10978078 4.0656559 3.53897704 4.0656559 6.35714083v8c0 2.817769-1.6649014 5.2466794-4.0646472 6.3566743l-1.0087119 2.940623c-.5543179 1.6167606-2.0746368 2.7027027-3.7837838 2.7027027h-4.2857142c-1.709147 0-3.2294659-1.0859421-3.7837838-2.7027027l-1.00871193-2.940623c-2.3997458-1.1099949-4.06464717-3.5389053-4.06464717-6.3566743v-8c0-2.81816379 1.66536796-5.24736005 4.06565594-6.35714083l1.00770316-2.94015647c.5543179-1.61676063 2.0746368-2.7027027 3.7837838-2.7027027zm2.4561429 27h-9.199l.565251 1.6486486c.2598365.7578566.9441852 1.2824433 1.7328606 1.3450562l.1590313.0062952h4.2857142c.8545735 0 1.614733-.542971 1.8918919-1.3513514zm-.599-20h-8c-2.76142375 0-5 2.23857625-5 5v8c0 2.7614237 2.23857625 5 5 5h8c2.7614237 0 5-2.2385763 5-5v-8c0-2.76142375-2.2385763-5-5-5zm9 5c.5522847 0 1 .4477153 1 1v6c0 .5522847-.4477153 1-1 1s-1-.4477153-1-1v-6c0-.5522847.4477153-1 1-1zm-10.8571429-10h-4.2857142c-.8545735 0-1.614733.54297104-1.8918919 1.35135135l-.566251 1.64864865h9.201l-.565251-1.64864865c-.2598365-.75785654-.9441852-1.28244322-1.7328606-1.34505617z" fill="#000" fill-rule="nonzero"/></g></svg>