<svg height="32" viewBox="0 0 32 32" width="32" xmlns="http://www.w3.org/2000/svg"><g fill="none" fill-rule="evenodd"><path d="m0 0h32v32h-32z"/><path d="m18.7370958 0c1.339441 0 2.516599.88793194 2.8845718 2.17583662l.8601381 3.0085373c2.5970676.65971493 4.5181943 3.01331891 4.5181943 5.81562608v10c0 2.8023072-1.9211267 5.1559111-4.5181943 5.8156261l-.8601381 3.0085373c-.3679728 1.2879047-1.5451308 2.1758366-2.8845718 2.1758366h-5.4741916c-1.339441 0-2.516599-.8879319-2.8845718-2.1758366l-.86013815-3.0085373c-2.59706754-.659715-4.51819425-3.0133189-4.51819425-5.8156261v-10c0-2.80230717 1.92112671-5.15591115 4.51819425-5.81562608l.86013815-3.0085373c.3679728-1.28790468 1.5451308-2.17583662 2.8845718-2.17583662zm10.2629042 12c.5522847 0 1 .4477153 1 1v6c0 .5522847-.4477153 1-1 1s-1-.4477153-1-1v-6c0-.5522847.4477153-1 1-1z" fill="#202327"/></g></svg>