<svg height="32" viewBox="0 0 32 32" width="32" xmlns="http://www.w3.org/2000/svg"><g fill="none" fill-rule="evenodd"><path d="m0 0h32v32h-32z"/><path d="m23.6190476.13999994.2518496.00400082c4.4330352.13698982 7.9850489 3.77162206 7.9891029 8.23707871v15.23796813l-.0040009.2518496c-.1369898 4.4330352-3.771622 7.9850489-8.2370787 7.9891029h-15.23796812l-.25184954-.0040009c-4.43303524-.1369898-7.98504891-3.771622-7.9891029-8.2370787v-15.23796812l.00400082-.25184954c.13698982-4.43303524 3.77162206-7.98504891 8.23707871-7.9891029zm0 2.00571434h-15.23809522l-.2285857.00411224c-3.33773425.12028135-6.0066524 2.86402399-6.0066524 6.23112586v15.23809522l.00411224.2285857c.12028135 3.3377343 2.86402399 6.0066524 6.23112586 6.0066524h15.23809522l.2285857-.0041122c3.3377343-.1202814 6.0066524-2.864024 6.0066524-6.2311259v-15.23809522l-.0041122-.2285857c-.1202814-3.33773425-2.864024-6.0066524-6.2311259-6.0066524zm-7.6191758 4.85142851.2653486.00407526c4.8475552.14463612 8.7331682 4.11734025 8.7376368 8.99891015 0 4.9720125-4.0307165 9.002729-9.0028572 9.002729s-9.00285716-4.0307165-9.00285716-9.0028572c0-4.8833525 3.88804756-8.8586028 8.73741066-8.99901883zm.0001282 2.00571437c-3.8644153 0-6.99714284 3.13272754-6.99714284 6.99714284s3.13272754 6.9971428 6.99714284 6.9971428 6.9971428-3.1327275 6.9971428-6.9971428-3.1327275-6.99714284-6.9971428-6.99714284zm8.7619048-3.91047622c.7642569 0 1.3838095.61955263 1.3838095 1.38380953s-.6195526 1.38380953-1.3838095 1.38380953c-.764257 0-1.3838096-.61955263-1.3838096-1.38380953s.6195526-1.38380953 1.3838096-1.38380953z" fill="#000" fill-rule="nonzero"/></g></svg>