<svg height="32" viewBox="0 0 32 32" width="32" xmlns="http://www.w3.org/2000/svg"><g fill="none" fill-rule="evenodd"><path d="m0 0h32v32h-32z"/><path d="m17.0830929.03277248c8.1190907 0 14.7619831 6.64289236 14.7619831 14.76198302v2.3064326c0 8.1190906-6.6429288 14.761983-14.7619831 14.761983h-2.3064325c-8.11909069 0-14.76198306-6.6428924-14.76198306-14.761983v-2.3064326c0-8.11909066 6.64289237-14.76198302 14.76198306-14.76198302zm-.8630324 8.0002641-.2053832-.0002641c-1.7102378 0-3.4204757.05652851-3.4204757.05652851-2.4979736 0-4.52299562 2.02501761-4.52299562 4.52298561 0 0-.05191606 1.4685349-.05624239 3.0447858l-.00028625.2060969c0 1.7648596.05652864 3.590089.05652864 3.5900891 0 2.497968 2.02502202 4.5229856 4.52299562 4.5229856 0 0 1.5990132.0565285 3.2508899.0565285 1.7648634 0 3.6466255-.0565285 3.6466255-.0565285 2.4979736 0 4.4664317-1.9684539 4.4664317-4.4664219 0 0 .0565286-1.8046833.0565286-3.5335605l-.0010281-.4057303c-.0076601-1.5511586-.0555357-3.0148084-.0555357-3.0148084 0-2.4979681-1.9684582-4.46642191-4.4664317-4.46642191 0 0-1.6282521-.05209668-3.2716213-.05626441zm-.2053831 1.43969747c1.4024317 0 3.2005639.04637875 3.2005638.04637875 2.0483524 0 3.3130573 1.2647021 3.3130573 3.31305 0 0 .0463789 1.7674322.0463789 3.1541781 0 1.4176885-.0463789 3.2469355-.0463789 3.2469355 0 2.048348-1.2647049 3.31305-3.3130573 3.31305 0 0-1.5901757.0389711-2.9699093.0454662l-.3697206.0009126c-1.3545375 0-3.0049692-.0463788-3.0049692-.0463788-2.0483172 0-3.36958592-1.321301-3.36958592-3.3695785 0 0-.04637885-1.8359078-.04637885-3.2830941 0-1.3545344.04637885-3.061491.04637885-3.061491 0-2.0483479 1.32130402-3.31305 3.36958592-3.31305 0 0 1.7416035-.04637875 3.1440353-.04637875zm-.0000353 2.46195055c-2.2632951 0-4.0980441 1.8347448-4.0980441 4.098035s1.8347489 4.098035 4.0980441 4.098035 4.0980441-1.8347448 4.0980441-4.098035c0-2.2632901-1.8347489-4.098035-4.0980441-4.098035zm0 1.4313625c1.4727754 0 2.6666784 1.1939004 2.6666784 2.6666725s-1.193903 2.6666726-2.6666784 2.6666726c-1.4727401 0-2.6666784-1.1939005-2.6666784-2.6666726s1.1939031-2.6666725 2.6666784-2.6666725zm4.2941322-2.5685935c-.5468547 0-.9902027.4455321-.9902027.9950991 0 .5495671.443348.9950639.9902027.9950639.5468546 0 .9901674-.4454968.9901674-.9950639 0-.5496023-.4433128-.9950991-.9901674-.9950991z" fill="#202327" fill-rule="nonzero"/></g></svg>