<svg height="32" viewBox="0 0 32 32" width="32" xmlns="http://www.w3.org/2000/svg"><g fill="none" fill-rule="evenodd"><path d="m0 0h32v32h-32z"/><path d="m22.0092457 0 7.9907543 10.0183757v21.9816243h-28v-32zm-.9632457 2h-17.046v28h24v-19.282zm-9.0939154 11.9768476 1.4142136 1.4142135-1.6089389 1.6089389c-1.1715729 1.1715729-1.1715729 3.0710678 0 4.2426407 1.129731 1.129731 2.9363181 1.1700785 4.1143959.1210426l.1282448-.1210426 1.4032435-1.4032435 1.4142135 1.4142136-1.4032434 1.4032434c-1.9526215 1.9526215-5.1184464 1.9526215-7.0710678 0-1.90123673-1.9012366-1.95126928-4.9526641-.1500977-6.9144372l.1500977-.1566306zm5.4576629.2102592 1.4142135 1.4142135-4.2426407 4.2426407-1.4142135-1.4142135zm4.2471067-2.843961c1.9012367 1.9012366 1.9512693 4.9526641.1500977 6.9144372l-.1500977.1566306-1.2683221 1.2683221-1.4142136-1.4142135 1.2683222-1.2683222c1.1715729-1.1715729 1.1715729-3.0710678 0-4.2426407-1.129731-1.129731-2.9363181-1.1700785-4.1143959-.1210426l-.1282448.1210426-1.066864 1.066864-1.4142136-1.4142135 1.066864-1.066864c1.9526215-1.95262151 5.1184464-1.95262151 7.0710678 0z" fill="#000" fill-rule="nonzero"/></g></svg>