<svg height="32" viewBox="0 0 32 32" width="32" xmlns="http://www.w3.org/2000/svg"><g fill="none" fill-rule="evenodd"><path d="m0 0h32v32h-32z"/><path d="m19.120106 0c1.8257724 0 3.5522076.83131873 4.6906771 2.25867017l4.8798939 6.11814718c.847677 1.06277155 1.309323 2.38190365 1.309323 3.74132985v13.8818528c0 3.3137085-2.6862915 6-6 6h-16c-3.3137085 0-6-2.6862915-6-6v-20c0-3.3137085 2.6862915-6 6-6zm-3.120106 10c-2.209139 0-4 1.790861-4 4l.0000889.1706743c-1.1652388.4118113-2.0000889 1.5230736-2.0000889 2.8293257v4c0 1.6568542 1.3431458 3 3 3h6c1.6568542 0 3-1.3431458 3-3v-4c0-1.3058822-.8343774-2.4168852-1.9990993-2.8289758l-.0009007-.1710242c0-2.209139-1.790861-4-4-4zm3 6 .1166211.0067277c.4973387.0577651.8833789.4804365.8833789.9932723v4l-.0067277.1166211c-.0577651.4973387-.4804365.8833789-.9932723.8833789h-6l-.1166211-.0067277c-.4973387-.0577651-.8833789-.4804365-.8833789-.9932723v-4l.0067277-.1166211c.0577651-.4973387.4804365-.8833789.9932723-.8833789zm-3-4c1.1045695 0 2 .8954305 2 2h-4l.0054857-.1492623c.0763492-1.0348599.9401525-1.8507377 1.9945143-1.8507377z" fill="#202327"/></g></svg>