<svg height="32" viewBox="0 0 32 32" width="32" xmlns="http://www.w3.org/2000/svg"><g fill="none" fill-rule="evenodd"><path d="m0 0h32v32h-32z"/><path d="m26 1c3.3137085 0 6 2.6862915 6 6v18c0 3.3137085-2.6862915 6-6 6h-20c-3.3137085 0-6-2.6862915-6-6v-18c0-3.3137085 2.6862915-6 6-6zm-20 2c-2.209139 0-4 1.790861-4 4v18c0 2.209139 1.790861 4 4 4s4-1.790861 4-4v-18c0-2.209139-1.790861-4-4-4zm20 0-15.5276693.0001315c.9500099 1.06149725 1.5276693 2.46322308 1.5276693 3.9998685v18c0 1.5371282-.5780225 2.939252-1.5285648 4.0008689l15.5285648-.0008689c2.209139 0 4-1.790861 4-4v-18c0-2.209139-1.790861-4-4-4zm-8.5 20c.5522847 0 1 .4477153 1 1s-.4477153 1-1 1h-1c-.5522847 0-1-.4477153-1-1s.4477153-1 1-1zm4 0c.5522847 0 1 .4477153 1 1s-.4477153 1-1 1h-1c-.5522847 0-1-.4477153-1-1s.4477153-1 1-1zm4 0c.5522847 0 1 .4477153 1 1s-.4477153 1-1 1h-1c-.5522847 0-1-.4477153-1-1s.4477153-1 1-1zm-8-4c.5522847 0 1 .4477153 1 1s-.4477153 1-1 1h-1c-.5522847 0-1-.4477153-1-1s.4477153-1 1-1zm4 0c.5522847 0 1 .4477153 1 1s-.4477153 1-1 1h-1c-.5522847 0-1-.4477153-1-1s.4477153-1 1-1zm4 0c.5522847 0 1 .4477153 1 1s-.4477153 1-1 1h-1c-.5522847 0-1-.4477153-1-1s.4477153-1 1-1zm-8-4c.5522847 0 1 .4477153 1 1s-.4477153 1-1 1h-1c-.5522847 0-1-.4477153-1-1s.4477153-1 1-1zm4 0c.5522847 0 1 .4477153 1 1s-.4477153 1-1 1h-1c-.5522847 0-1-.4477153-1-1s.4477153-1 1-1zm4 0c.5522847 0 1 .4477153 1 1s-.4477153 1-1 1h-1c-.5522847 0-1-.4477153-1-1s.4477153-1 1-1zm-1-10c1.9329966 0 3.5 1.56700338 3.5 3.5 0 1.9329966-1.5670034 3.5-3.5 3.5h-7c-1.9329966 0-3.5-1.5670034-3.5-3.5 0-1.93299662 1.5670034-3.5 3.5-3.5zm0 2h-7c-.8284271 0-1.5.67157288-1.5 1.5s.6715729 1.5 1.5 1.5h7c.8284271 0 1.5-.67157288 1.5-1.5s-.6715729-1.5-1.5-1.5z" fill="#000" fill-rule="nonzero"/></g></svg>