<svg height="32" viewBox="0 0 32 32" width="32" xmlns="http://www.w3.org/2000/svg"><g fill="none" fill-rule="evenodd"><path d="m0 0h32v32h-32z"/><path d="m16 0c8.836556 0 16 7.163444 16 16s-7.163444 16-16 16-16-7.163444-16-16 7.163444-16 16-16zm0 2c-7.7319865 0-14 6.2680135-14 14s6.2680135 14 14 14 14-6.2680135 14-14-6.2680135-14-14-14zm1 22v4h-2v-4zm5.2642136-3.15 2.8284271 2.8284271-1.4142136 1.4142136-2.8284271-2.8284271zm-12.52578648 0 1.41421358 1.4142136-2.82842714 2.8284271-1.41421356-1.4142136zm-1.73842712-5.85v2h-4v-2zm20 0v2h-4v-2zm-19.68578644-8.1 2.82842714 2.82842712-1.41421358 1.41421358-2.82842712-2.82842714zm15.37421354 0 1.4142136 1.41421356-2.8284271 2.82842714-1.4142136-1.41421358zm-6.6884271-2.9v4h-2v-4z" fill="#000" fill-rule="nonzero"/></g></svg>