<svg height="32" viewBox="0 0 32 32" width="32" xmlns="http://www.w3.org/2000/svg"><g fill="none" fill-rule="evenodd"><path d="m0 0h32v32h-32z"/><path d="m21.3976443 0c2.1431453 0 4.4846026 1.84790991 6.620489 4.64279757.8158709 1.06759763 1.5223847 2.19181454 1.9561703 3.09686275.2287194.4771992.3789783.88574041.4373777 1.22589677.130692.76123499-.1581883 1.53444291-1.1287675 1.53444291l-.3022308-.0070024c-.1493249-.0080425-.3454471-.0248792-.7362058-.0593706-1.0156448-.0896488-1.7787277-.0849352-2.5620878.0882224l.2735604.5873181c.3367329-.0715316.6859964-.1091675 1.0440502-.1091675 2.7614237 0 5 2.2385763 5 5s-2.2385763 5-5 5-5-2.2385763-5-5c0-1.6905344.8389842-3.1851135 2.1232925-4.0900772l-.2916803-.625527c-.4172771.3178525-.9010289.8204435-1.5953421 1.6317997l-.8840221 1.0540812-.4179711.4911367c-1.484606 1.7133031-2.4655634 2.4716217-3.7300048 2.5343236l-.1742549.004263-7.13027629.0011864c-.46372867 2.2816492-2.48120217 3.9988136-4.89974091 3.9988136-2.76142375 0-5-2.2385763-5-5s2.23857625-5 5-5c2.4188915 0 4.43660076 1.7176654 4.89994372 3.999812l.88605628.000188-.000345-.0290143c-.0497943-.8320167-.4146223-1.7355376-1.32459674-2.7640258l-.1893317-.2073797c-.119662-.1271682-.24019224-.2472788-.36160859-.3605633-1.38230621-1.289726-2.51871932-1.6113203-4.62612344-1.62684l-.57566044.0006719c-2.06724456 0-3.61327656-2.85671996-3.27069651-4.34970728.17873809-.77895284.76108039-.99029217 1.51676779-.99479568.28648067-.00170727.5990043.02939162 1.02027779.09317291l1.15127949.1858323c.12217216.0173275.1963501.02467046.25189154.02607361l.03132336.00016148c2.03249295-.0334605 3.59649412.23374583 5.03398892.74394772l.34491374.1301715c.40499099.15777225.93693679.37501138 1.11634269.44169872l.1365799.04853214c.017887.00772939.0250971.01293291.0264317.017012l-.0014345.00205178.2520675-.21480094c1.3983183-1.17874425 2.3342246-1.67969943 3.3796944-1.89386135l.1857485-.03489577c1.3428643-.23020797 2.7036501-.1926031 4.0660112.03703614l.2674784.04852192-1.286413-2.00288608c-.1189313-.18803701-.2051957-.32782303-.2755979-.44656326l-.1107182-.19403828c-.031387-.05809474-.0576236-.11051642-.0798155-.15999987-.0485409-.10823645-.0819689-.20464986-.1002331-.3350623-.0700045-.49985777.1936393-1.08240916.8619173-1.15327552l.1390718-.00717469zm-1.3976443 8h-6v2h6z" fill="#202327" transform="translate(0 5)"/></g></svg>