<svg height="32" viewBox="0 0 32 32" width="32" xmlns="http://www.w3.org/2000/svg"><g fill="none" fill-rule="evenodd"><path d="m0 0h32v32h-32z"/><path d="m26 1c2.1421954 0 3.8910789 1.68396847 3.9951047 3.80035966l.0048953.19964034v11.862069c0 7.795991-6.2556551 14.137931-14 14.137931-7.63969163 0-13.83065638-6.1716943-13.99658463-13.822686l-.00341537-.315245v-11.862069c0-2.209139 1.790861-4 4-4 2.14219539 0 3.89107888 1.68396847 3.99510469 3.80035966l.00489531.19964034v11.862069c0 3.4020583 2.6986499 6.137931 6 6.137931 3.2263194 0 5.8770228-2.612928 5.9958428-5.9070291l.0041572-.2309019v-11.862069c0-2.209139 1.790861-4 4-4zm1 10h-2c-.5522847 0-1 .4477153-1 1s.4477153 1 1 1h2c.5522847 0 1-.4477153 1-1s-.4477153-1-1-1zm-20 0h-2c-.55228475 0-1 .4477153-1 1s.44771525 1 1 1h2c.55228475 0 1-.4477153 1-1s-.44771525-1-1-1zm20-6h-2c-.5522847 0-1 .44771525-1 1s.4477153 1 1 1h2c.5522847 0 1-.44771525 1-1s-.4477153-1-1-1zm-20 0h-2c-.55228475 0-1 .44771525-1 1s.44771525 1 1 1h2c.55228475 0 1-.44771525 1-1s-.44771525-1-1-1z" fill="#202327" fill-rule="nonzero"/></g></svg>