<svg height="32" viewBox="0 0 32 32" width="32" xmlns="http://www.w3.org/2000/svg"><g fill="none" fill-rule="evenodd"><path d="m0 0h32v32h-32z"/><path d="m12.5 5h5c2.7614237 0 5 2.23857625 5 5v17c0 2.7614237-2.2385763 5-5 5h-12c-2.76142375 0-5-2.2385763-5-5v-17c0-2.76142375 2.23857625-5 5-5h5v-3h-4v-2h6zm5 2h-12c-1.65685425 0-3 1.34314575-3 3v17c0 1.6568542 1.34314575 3 3 3h12c1.6568542 0 3-1.3431458 3-3v-17c0-1.65685425-1.3431458-3-3-3zm-5 2v8h-2v-8z" fill="#000" fill-rule="nonzero" transform="translate(4.5)"/></g></svg>