<svg height="32" viewBox="0 0 32 32" width="32" xmlns="http://www.w3.org/2000/svg"><path d="m16 0c8.836556 0 16 7.163444 16 16s-7.163444 16-16 16-16-7.163444-16-16 7.163444-16 16-16zm0 2c-7.7319865 0-14 6.2680135-14 14s6.2680135 14 14 14 14-6.2680135 14-14-6.2680135-14-14-14zm-5.6 12.6c.7731986 0 1.4.6268014 1.4 1.4s-.6268014 1.4-1.4 1.4c-.77319865 0-1.4-.6268014-1.4-1.4s.62680135-1.4 1.4-1.4zm5.6 0c.7731986 0 1.4.6268014 1.4 1.4s-.6268014 1.4-1.4 1.4-1.4-.6268014-1.4-1.4.6268014-1.4 1.4-1.4zm5.6 0c.7731986 0 1.4.6268014 1.4 1.4s-.6268014 1.4-1.4 1.4-1.4-.6268014-1.4-1.4.6268014-1.4 1.4-1.4z"/></svg>