<svg height="32" viewBox="0 0 32 32" width="32" xmlns="http://www.w3.org/2000/svg"><g fill="none" fill-rule="evenodd"><path d="m0 0h32v32h-32z"/><path d="m0 32v-32h21v6h11v26zm19-30h-17v28h5v-6h7v6h5zm-7 24h-3v4h3zm18-18h-9v22h9zm-2 18v2h-5v-2zm0-4v2h-5v-2zm-21-3v3h-3v-3zm5 0v3h-3v-3zm5 0v3h-3v-3zm11-1v2h-5v-2zm-21-4v3h-3v-3zm5 0v3h-3v-3zm5 0v3h-3v-3zm11 0v2h-5v-2zm-21-5v3h-3v-3zm5 0v3h-3v-3zm5 0v3h-3v-3zm11 1v2h-5v-2zm-21-6v3h-3v-3zm5 0v3h-3v-3zm5 0v3h-3v-3z" fill="#000" fill-rule="nonzero"/></g></svg>