<svg height="32" viewBox="0 0 32 32" width="32" xmlns="http://www.w3.org/2000/svg"><g fill="none" fill-rule="evenodd"><path d="m0 0h32v32h-32z"/><path d="m17.0923184 0 4.9076816 6.98205081v1.01794919h3.1092169l4.8907831 7.1162516v16.8837484h-20v-8h-8v-24zm6.9636816 10h-2.056v14h-10v6h16v-14.262zm-8.003-8h-12.053v20h16v-14.385zm7.9289818-1.2560195c2.4074978.38131019 4.3179363 2.11929502 4.9446679 4.36160478l.7714265-1.33763609 1.7320508 1-2.5 4.33012702-4.330127-2.5 1-1.73205081 1.4099036.81257908c-.4085786-1.51391807-1.7011752-2.69955772-3.3407907-2.9592473-.4269597-.06762378-.8538595-.06956277-1.2699049-.00830674l-.2482383.04431711-.4113416-1.95724246c.7310283-.15363574 1.4887051-.17351082 2.2423537-.05414459z" fill="#000" fill-rule="nonzero"/></g></svg>