<svg height="32" viewBox="0 0 32 32" width="32" xmlns="http://www.w3.org/2000/svg"><g fill="none" fill-rule="evenodd"><path d="m0 0h32v32h-32z"/><path d="m10 1v15.862069c0 3.4020583 2.6986499 6.137931 6 6.137931 3.2263194 0 5.8770228-2.612928 5.9958428-5.9070291l.0041572-.2309019v-15.862069h8v15.862069c0 7.795991-6.2556551 14.137931-14 14.137931-7.63969163 0-13.83065638-6.1716943-13.99658463-13.822686l-.00341537-.315245v-15.862069zm18 10h-4v2h4zm-20 0h-4v2h4zm20-6h-4v2h4zm-20 0h-4v2h4z" fill="#202327" fill-rule="nonzero"/></g></svg>