<svg height="32" viewBox="0 0 32 32" width="32" xmlns="http://www.w3.org/2000/svg"><g fill="none" fill-rule="evenodd"><path d="m0 0h32v32h-32z"/><path d="m17 0c2.1421954 0 3.8910789 1.68396847 3.9951047 3.80035966l.0048953.19964034-.0001204 2.53519846c.5148272-.29783539 1.1021962-.48422017 1.7291155-.52616269l.2710049-.00903577h5c2.1421954 0 3.8910789 1.68396847 3.9951047 3.80035966l.0048953.19964034v22h-18v-6c0-1.1045695-.8954305-2-2-2h-3c-1.1045695 0-2 .8954305-2 2v6h-7v-28c0-2.14219539 1.68396847-3.89107888 3.80035966-3.99510469l.19964034-.00489531zm10 26h-3c-.5522847 0-1 .4477153-1 1s.4477153 1 1 1h3c.5522847 0 1-.4477153 1-1s-.4477153-1-1-1zm0-4h-3c-.5522847 0-1 .4477153-1 1s.4477153 1 1 1h3c.5522847 0 1-.4477153 1-1s-.4477153-1-1-1zm-21-3h-1c-.55228475 0-1 .4477153-1 1v1c0 .5522847.44771525 1 1 1h1c.55228475 0 1-.4477153 1-1v-1c0-.5522847-.44771525-1-1-1zm5 0h-1c-.55228475 0-1 .4477153-1 1v1c0 .5522847.44771525 1 1 1h1c.5522847 0 1-.4477153 1-1v-1c0-.5522847-.4477153-1-1-1zm5 0h-1c-.5522847 0-1 .4477153-1 1v1c0 .5522847.4477153 1 1 1h1c.5522847 0 1-.4477153 1-1v-1c0-.5522847-.4477153-1-1-1zm11-1h-3c-.5522847 0-1 .4477153-1 1s.4477153 1 1 1h3c.5522847 0 1-.4477153 1-1s-.4477153-1-1-1zm-21-4h-1c-.55228475 0-1 .4477153-1 1v1c0 .5522847.44771525 1 1 1h1c.55228475 0 1-.4477153 1-1v-1c0-.5522847-.44771525-1-1-1zm5 0h-1c-.55228475 0-1 .4477153-1 1v1c0 .5522847.44771525 1 1 1h1c.5522847 0 1-.4477153 1-1v-1c0-.5522847-.4477153-1-1-1zm5 0h-1c-.5522847 0-1 .4477153-1 1v1c0 .5522847.4477153 1 1 1h1c.5522847 0 1-.4477153 1-1v-1c0-.5522847-.4477153-1-1-1zm11 0h-3c-.5522847 0-1 .4477153-1 1s.4477153 1 1 1h3c.5522847 0 1-.4477153 1-1s-.4477153-1-1-1zm-21-5h-1c-.55228475 0-1 .44771525-1 1v1c0 .5522847.44771525 1 1 1h1c.55228475 0 1-.4477153 1-1v-1c0-.55228475-.44771525-1-1-1zm5 0h-1c-.55228475 0-1 .44771525-1 1v1c0 .5522847.44771525 1 1 1h1c.5522847 0 1-.4477153 1-1v-1c0-.55228475-.4477153-1-1-1zm5 0h-1c-.5522847 0-1 .44771525-1 1v1c0 .5522847.4477153 1 1 1h1c.5522847 0 1-.4477153 1-1v-1c0-.55228475-.4477153-1-1-1zm11 1h-3c-.5522847 0-1 .4477153-1 1s.4477153 1 1 1h3c.5522847 0 1-.4477153 1-1s-.4477153-1-1-1zm-21-6h-1c-.55228475 0-1 .44771525-1 1v1c0 .55228475.44771525 1 1 1h1c.55228475 0 1-.44771525 1-1v-1c0-.55228475-.44771525-1-1-1zm5 0h-1c-.55228475 0-1 .44771525-1 1v1c0 .55228475.44771525 1 1 1h1c.5522847 0 1-.44771525 1-1v-1c0-.55228475-.4477153-1-1-1zm5 0h-1c-.5522847 0-1 .44771525-1 1v1c0 .55228475.4477153 1 1 1h1c.5522847 0 1-.44771525 1-1v-1c0-.55228475-.4477153-1-1-1z" fill="#202327" fill-rule="nonzero"/></g></svg>