<svg height="32" viewBox="0 0 32 32" width="32" xmlns="http://www.w3.org/2000/svg"><g fill="none" fill-rule="evenodd"><path d="m0 0h32v32h-32z"/><path d="m4 3v5h4v-5h2v13.3636364c0 3.6836507 2.7066535 6.6363636 6 6.6363636 3.220161 0 5.8794146-2.8229393 5.9960134-6.3918942l.0039866-.2444694v-13.3636364h2v5h4v-5h2v13.9655172c0 7.7504387-6.2674196 14.0344828-14 14.0344828-7.62808604 0-13.83034272-6.1153526-13.99657828-13.721091l-.00342172-.3133918v-13.9655172zm4 7h-4v6.9655172c0 6.6470535 5.37317687 12.0344828 12 12.0344828 6.5264167 0 11.8368887-5.2254107 11.9963138-11.7332258l.0036862-.301257v-6.9655172h-4v6.3636364c0 4.7512436-3.56136 8.6363636-8 8.6363636-4.3564429 0-7.86779693-3.742559-7.9963531-8.3733159l-.0036469-.2630477zm20-9c1.0543618 0 1.9181651.81587779 1.9945143 1.85073766l.0054857.14926234h-8c0-1.1045695.8954305-2 2-2zm-20 0c1.0543618 0 1.91816512.81587779 1.99451426 1.85073766l.00548574.14926234h-8c0-1.1045695.8954305-2 2-2z" fill="#000" fill-rule="nonzero"/></g></svg>