<svg height="32" viewBox="0 0 32 32" width="32" xmlns="http://www.w3.org/2000/svg"><g fill="none" fill-rule="evenodd"><path d="m0 0h32v32h-32z"/><path d="m0 32v-28c0-2.209139 1.790861-4 4-4h13c2.209139 0 4 1.790861 4 4l-.0001204 2.53519846c.5883739-.3403833 1.2714964-.53519846 2.0001204-.53519846h5c2.209139 0 4 1.790861 4 4v22zm19-28c0-1.0543618-.8158778-1.91816512-1.8507377-1.99451426l-.1492623-.00548574h-13c-1.1045695 0-2 .8954305-2 2v26h5v-4c0-1.1045695.8954305-2 2-2h3c1.1045695 0 2 .8954305 2 2v4h5zm-7 22h-3v4h3zm16-18h-5c-1.1045695 0-2 .8954305-2 2v20h9v-20c0-1.0543618-.8158778-1.91816512-1.8507377-1.99451426zm-1 18c.5522847 0 1 .4477153 1 1s-.4477153 1-1 1h-3c-.5522847 0-1-.4477153-1-1s.4477153-1 1-1zm0-4c.5522847 0 1 .4477153 1 1s-.4477153 1-1 1h-3c-.5522847 0-1-.4477153-1-1s.4477153-1 1-1zm-21-3c.55228475 0 1 .4477153 1 1v1c0 .5522847-.44771525 1-1 1h-1c-.55228475 0-1-.4477153-1-1v-1c0-.5522847.44771525-1 1-1zm5 0c.5522847 0 1 .4477153 1 1v1c0 .5522847-.4477153 1-1 1h-1c-.55228475 0-1-.4477153-1-1v-1c0-.5522847.44771525-1 1-1zm5 0c.5522847 0 1 .4477153 1 1v1c0 .5522847-.4477153 1-1 1h-1c-.5522847 0-1-.4477153-1-1v-1c0-.5522847.4477153-1 1-1zm11-1c.5522847 0 1 .4477153 1 1s-.4477153 1-1 1h-3c-.5522847 0-1-.4477153-1-1s.4477153-1 1-1zm-21-4c.55228475 0 1 .4477153 1 1v1c0 .5522847-.44771525 1-1 1h-1c-.55228475 0-1-.4477153-1-1v-1c0-.5522847.44771525-1 1-1zm5 0c.5522847 0 1 .4477153 1 1v1c0 .5522847-.4477153 1-1 1h-1c-.55228475 0-1-.4477153-1-1v-1c0-.5522847.44771525-1 1-1zm5 0c.5522847 0 1 .4477153 1 1v1c0 .5522847-.4477153 1-1 1h-1c-.5522847 0-1-.4477153-1-1v-1c0-.5522847.4477153-1 1-1zm11 0c.5522847 0 1 .4477153 1 1s-.4477153 1-1 1h-3c-.5522847 0-1-.4477153-1-1s.4477153-1 1-1zm-21-5c.55228475 0 1 .44771525 1 1v1c0 .5522847-.44771525 1-1 1h-1c-.55228475 0-1-.4477153-1-1v-1c0-.55228475.44771525-1 1-1zm5 0c.5522847 0 1 .44771525 1 1v1c0 .5522847-.4477153 1-1 1h-1c-.55228475 0-1-.4477153-1-1v-1c0-.55228475.44771525-1 1-1zm5 0c.5522847 0 1 .44771525 1 1v1c0 .5522847-.4477153 1-1 1h-1c-.5522847 0-1-.4477153-1-1v-1c0-.55228475.4477153-1 1-1zm11 1c.5522847 0 1 .4477153 1 1s-.4477153 1-1 1h-3c-.5522847 0-1-.4477153-1-1s.4477153-1 1-1zm-21-6c.55228475 0 1 .44771525 1 1v1c0 .55228475-.44771525 1-1 1h-1c-.55228475 0-1-.44771525-1-1v-1c0-.55228475.44771525-1 1-1zm5 0c.5522847 0 1 .44771525 1 1v1c0 .55228475-.4477153 1-1 1h-1c-.55228475 0-1-.44771525-1-1v-1c0-.55228475.44771525-1 1-1zm5 0c.5522847 0 1 .44771525 1 1v1c0 .55228475-.4477153 1-1 1h-1c-.5522847 0-1-.44771525-1-1v-1c0-.55228475.4477153-1 1-1z" fill="#000" fill-rule="nonzero"/></g></svg>