<svg height="32" viewBox="0 0 32 32" width="32" xmlns="http://www.w3.org/2000/svg"><g fill="none" fill-rule="evenodd"><path d="m0 0h32v32h-32z"/><path d="m20 3v26l-11.00666105-7h-8.99333895v-12h9.01289946zm2.8397839 5.41218916c2.5016544 1.59726704 4.1602161 4.39885004 4.1602161 7.58781084 0 3.2004097-1.6704922 6.0106551-4.1871083 7.606368-.8360774-2.4152745-.2196031-.6369626-.6733828-1.9614693 1.7349608-1.2741679 2.8604911-3.3280925 2.8604911-5.6448987 0-2.3078072-1.1168036-4.3547709-2.8394447-5.6299253.4570016-1.31803091-.1676017.4733102.6792286-1.95788554zm7.5125561.99260232.00466.00920852.024.045.032.061.01.02.017.032.033302.06404196.1538392.31037221.1461633.31428513.0978227.2225493.0939193.2242185.1131871.2859795.0877664.2385534-.035944-.101095.047944.131095-.004-.009.035.099.0097905.0251857.0130228.0374123.0651867.194402.02.061.0137456.0408482.0392544.1251518.011.035c.017737.0570463.0340984.1113512.0501378.1657941l.0008622.0032059.018.063.01.034.001.002.008.029.0372198.1332745c.0670059.2452339.1275431.4932993.1813751.7438547.0631084.2937424.1169852.5908016.1613356.8909637l.0505029.3772232.0295666.2826839.008.071h-.001l.002.012.0018227.0142844.0041773.0537156.0090246.0978334c.0041321.0505929.0079952.101262.0115879.1520057l.0017899.0256115.0015976.0325494.006.092.002.028.0093744.1793106.0103398.2958448.0042858.3498446c0 .2554629-.0068423.5093277-.0203537.7614211l-.0166463.2445789-.009.128.0003991.0042111-.0141037.1633865-.0019495.0209745-.0013459.0134279-.008.073-.0058745.0669503-.0168663.1528883-.0190952.1570474-.003164.022114-.01766.1343937.0199373-.1495574c-.0151225.1183025-.0317215.2361434-.049778.3535038-.0457317.2972394-.1008623.591653-.1650308.8826008l-.1029729.4337139-.0919055.3428389-.0915901.3085063-.008696.0307481-.010304.0302519-.03.096-.002.007-.021.065-.0178735.0553905-.0110634.0333182-.0520486.1531128c-.0758521.2189492-.1569991.4354636-.2432808.6493687l-.1335988.3196766-.0401349.0901332-.0321331.0740075.0021331-.0080075-.058.129-.009.019-.02.044-.0112488.0258681-.0017512.0011319-.038.081.032-.069-.059.125.024-.049-.0298468.0635552-.0311532.0614448-.001.003-.0032845.008395-.0087155.016605-.003.005-.012.025-.004.007-.001.003-.002.003-.004.009-.006.011-.02.04-.0135282.029615-.0024718.002385-.022.044-.012.023-.015.029-.022.043-.0024887.0068202-.0095113.0161798-.043.082-.049.092-.004.007-.032.059-.019.035-.0228302.0425084c-.2132035.3841022-.4438856.7570302-.6910196 1.1178011l-.1569225.2243531c-.0617917.0865349-.124544.1723366-.1882413.2573897l-.0148852.0198393-.0041012.0041084-.076.1-.0882828.1153741-.0057172.0056259-.0014374.0035047-.1094682.1377963-.0610944.073699-.003.004-.0470606.0586827c-.0508012.0615408-.1021182.1226402-.1539443.1832914l.000192-.0002246c-.1111637.130093-.2244697.2579069-.3400451.3836011-.1180455.128372-.2381231.2541946-.3604864.3777497l-.2430575.2395529-.2255981.2113468-.0292255.0277708-.0127745.0102292-.0987135.0907284-.0762865.0662716-.011.01-.0311393.0286299c-.073329.0642233-.1473345.1276934-.2220041.1903981l.0291434-.026028-.1240946.1050564-.0469054.0379436h-.001l-.079.064.076-.061-.074811.0615482c-.0421067.0339259-.0844139.0676128-.1269195.101059l-.0456269.03575-.0966426.0736428-.1421301.1085805c-.1521886.1135908-.3066719.2240963-.4634512.3314949l.0004892-.0003352c-.1938023.1327605-.3906059.2604621-.5907338.3832737l.0004569-.0002803c-.1719356.1055109-.3458549.2071514-.5221102.305097-.086063.0478254-.1726679.0947619-.2598173.1408056l-.0529233.0278161c-.249041-.7192852-.4691859-1.355093-.6637869-1.9171185 3.6895691-2.0450975 6.1860067-5.9796785 6.1860067-10.4973338 0-4.5041965-2.4815852-8.42878773-6.1521116-10.48112956.1948199-.55980712.4162132-1.19532314.6665967-1.91406164l.0312217.01649341c.0936729.04963597.1867149.10030406.2791109.15198914l.0534119.03003181.098475.05618181c.4083514.23516031.8039546.49049811 1.1852197.76452885l-.1429197-.10137581c.0747679.05233611.1490008.1053842.2226889.15913443l.045315.03319307.0409915.03001449.0291007.02187946.0539439.0403996.0039554.00272094.1279407.09777728.0680593.05322272.1399677.11037664.123946.10053705.1229429.10205828c.1337347.11230171.2655041.22720806.3950677.34450601.2847531.25779249.5589133.52720224.8216744.80742937.1337891.14267183.2649591.28853735.3930603.43712347l.118341.13896918.0741665.08917007.0668335.08182993-.0242198-.02997695.0612198.07697695.029.035.081.102.024.031-.0148691-.01977989c.0469867.05991978.0934954.12023228.1395203.18093176l-.0001767-.00023313c.4066299.53627904.7753578 1.10250454 1.1024065 1.69495575l.003119.00712551.062.112z" fill="#202327"/></g></svg>