<svg height="32" viewBox="0 0 32 32" width="32" xmlns="http://www.w3.org/2000/svg"><g fill="none" fill-rule="evenodd"><path d="m0 0h32v32h-32z"/><path d="m19.120106 0c1.8257724 0 3.5522076.83131873 4.6906771 2.25867017l4.8798939 6.11814718c.847677 1.06277155 1.309323 2.38190365 1.309323 3.74132985v13.8818528c0 3.3137085-2.6862915 6-6 6h-16c-3.3137085 0-6-2.6862915-6-6v-20c0-3.3137085 2.6862915-6 6-6zm-8.820106 19.9c-.60751322 0-1.1.4924868-1.1 1.1s.49248678 1.1 1.1 1.1c.6075132 0 1.1-.4924868 1.1-1.1s-.4924868-1.1-1.1-1.1zm11.3.1h-8c-.5522847 0-1 .4477153-1 1s.4477153 1 1 1h8c.5522847 0 1-.4477153 1-1s-.4477153-1-1-1zm-11.3-4.1c-.60751322 0-1.1.4924868-1.1 1.1s.49248678 1.1 1.1 1.1c.6075132 0 1.1-.4924868 1.1-1.1s-.4924868-1.1-1.1-1.1zm11.3.1h-8c-.5522847 0-1 .4477153-1 1s.4477153 1 1 1h8c.5522847 0 1-.4477153 1-1s-.4477153-1-1-1zm-11.3-4.1c-.60751322 0-1.1.4924868-1.1 1.1s.49248678 1.1 1.1 1.1c.6075132 0 1.1-.4924868 1.1-1.1s-.4924868-1.1-1.1-1.1zm11.3.1h-8c-.5522847 0-1 .4477153-1 1s.4477153 1 1 1h8c.5522847 0 1-.4477153 1-1s-.4477153-1-1-1z" fill="#202327"/></g></svg>