<svg height="32" viewBox="0 0 32 32" width="32" xmlns="http://www.w3.org/2000/svg"><g fill="none" fill-rule="evenodd"><path d="m0 0h32v32h-32z"/><path d="m7 28c-3.86599325 0-7-3.1340068-7-7v-10c0-3.86599325 3.13400675-7 7-7h18c3.8659932 0 7 3.13400675 7 7v10c0 3.8659932-3.1340068 7-7 7zm13-22h-13c-2.76142375 0-5 2.23857625-5 5v10c0 2.7614237 2.23857625 5 5 5h13zm5 0h-3v20h3c2.6887547 0 4.8818181-2.1223067 4.9953805-4.7831104l.0046195-.2168896v-10c0-2.76142375-2.2385763-5-5-5zm-9 16c.5522847 0 1 .4477153 1 1s-.4477153 1-1 1h-10c-.55228475 0-1-.4477153-1-1s.44771525-1 1-1zm11-3c.5522847 0 1 .4477153 1 1s-.4477153 1-1 1h-2c-.5522847 0-1-.4477153-1-1s.4477153-1 1-1zm-12.9655742-8.6664008c1.2773966 1.4295231 1.3220767 3.4268648.1890105 5.0789783l-.1359619.1890445c-.6544042.8686699-.6544042 1.8414298.025762 2.832402.3125334.4553475.1967597 1.0778379-.2585877 1.3903713-.4553475.3125334-1.0778379.1967597-1.3903713-.2585877-1.1105358-1.6180019-1.1549573-3.4451998-.1104718-4.9776175l.1362338-.1899805c.6769847-.8986438.7158454-1.8727411.1577284-2.6052781l-.1046799-.1266991c-.3679965-.4118216-.3324692-1.0439891.0793524-1.4119856.4118216-.36799647 1.043989-.33246921 1.4119855.0793524zm-4.79235282-.899491c1.11552572 1.625272 1.15887572 3.530354.09037003 5.0140809l-.13356012.1759798c-.68907051.8625285-.6461809 1.8991469.01547235 2.7715376.3337421.4400393.24757114 1.0673132-.19246824 1.4010553s-1.06731321.2475711-1.40105531-.1924683c-1.19016157-1.5692295-1.27474095-3.6134669.01547236-5.2284624.63485247-.7946623.63460417-1.8224228-.0431901-2.8099393-.31253341-.4553475-.19675974-1.07783791.25858772-1.39037132s1.0778379-.19675974 1.39037131.25858772zm17.75792702 5.5658918c.5522847 0 1 .4477153 1 1s-.4477153 1-1 1h-2c-.5522847 0-1-.4477153-1-1s.4477153-1 1-1zm0-4c.5522847 0 1 .4477153 1 1s-.4477153 1-1 1h-2c-.5522847 0-1-.4477153-1-1s.4477153-1 1-1z" fill="#000" fill-rule="nonzero"/></g></svg>