<svg height="32" viewBox="0 0 32 32" width="32" xmlns="http://www.w3.org/2000/svg"><g fill="none" fill-rule="evenodd"><path d="m0 0h32v32h-32z"/><path d="m26 4c3.3137085 0 6 2.6862915 6 6v12c0 3.3137085-2.6862915 6-6 6h-20c-3.3137085 0-6-2.6862915-6-6v-12c0-3.3137085 2.6862915-6 6-6zm-5 3c-.5522847 0-1 .44771525-1 1v16c0 .5522847.4477153 1 1 1s1-.4477153 1-1v-16c0-.55228475-.4477153-1-1-1zm-5 15h-10c-.55228475 0-1 .4477153-1 1s.44771525 1 1 1h10c.5522847 0 1-.4477153 1-1s-.4477153-1-1-1zm11-3h-2c-.5522847 0-1 .4477153-1 1s.4477153 1 1 1h2c.5522847 0 1-.4477153 1-1s-.4477153-1-1-1zm-12.9655742-8.6664008c-.3679965-.41182161-1.0001639-.44734887-1.4119855-.0793524-.4118216.3679965-.4473489 1.000164-.0793524 1.4119856l.1046799.1266991c.558117.732537.5192563 1.7066343-.1577284 2.6052781l-.1362338.1899805c-1.0444855 1.5324177-1.000064 3.3596156.1104718 4.9776175.3125334.4553474.9350238.5711211 1.3903713.2585877.4553474-.3125334.5711211-.9350238.2585877-1.3903713-.6801662-.9909722-.6801662-1.9637321-.025762-2.832402l.1359619-.1890445c1.1330662-1.6521135 1.0883861-3.6494552-.1890105-5.0789783zm-4.79235282-.899491c-.31253341-.45534746-.93502385-.57112113-1.39037131-.25858772s-.57112113.93502382-.25858772 1.39037132c.67779427.9875165.67804257 2.015277.0431901 2.8099393-1.29021331 1.6149955-1.20563393 3.6592329-.01547236 5.2284624.3337421.4400394.96101593.5262104 1.40105531.1924683s.52621034-.961016.19246824-1.4010553c-.66165325-.8723907-.70454286-1.9090091-.01547235-2.7715376l.13356012-.1759798c1.06850569-1.4837269 1.02515569-3.3888089-.09037003-5.0140809zm17.75792702 5.5658918h-2c-.5522847 0-1 .4477153-1 1s.4477153 1 1 1h2c.5522847 0 1-.4477153 1-1s-.4477153-1-1-1zm0-4h-2c-.5522847 0-1 .4477153-1 1s.4477153 1 1 1h2c.5522847 0 1-.4477153 1-1s-.4477153-1-1-1z" fill="#202327"/></g></svg>