<svg height="32" viewBox="0 0 32 32" width="32" xmlns="http://www.w3.org/2000/svg"><g fill="none" fill-rule="evenodd"><path d="m0 0h32v32h-32z"/><path d="m32 4v24h-32v-24zm-10 3h-2v18h2zm-5 15h-12v2h12zm11-3h-4v2h4zm-14.6318908-9.39037131-1.4913379 1.33263321.6663166.7456689.1046799.1266992c.558117.732537.5192563 1.7066342-.1577284 2.6052781l-.1362338.1899804c-1.0444855 1.5324178-1.000064 3.3596156.1104718 4.9776175l.5658918.8244796 1.648959-1.1317836-.5658918-.8244796-.112974-.1746709c-.5649278-.9303835-.5286978-1.8401594.087212-2.6577311l.1359619-.1890444c1.1330662-1.6521136 1.0883861-3.6494552-.1890105-5.0789784zm-4.69192802-1-1.64895903 1.13178359.5658918.82447952.11258604.1746297c.56303986.9329932.52811226 1.8873921-.06939594 2.6353096-1.29021331 1.6149955-1.20563393 3.6592329-.01547236 5.2284624l.60429353.7967618 1.59352355-1.2085871-.60429353-.7967617-.11031614-.1555872c-.55385022-.8381562-.55369316-1.8041588.09484379-2.6159504l.13356012-.1759798c1.06850569-1.4837269 1.02515569-3.3888089-.09037003-5.0140809zm19.32381882 6.39037131h-4v2h4zm0-4h-4v2h4z" fill="#202327"/></g></svg>