<svg height="32" viewBox="0 0 32 32" width="32" xmlns="http://www.w3.org/2000/svg"><g fill="none" fill-rule="evenodd"><path d="m0 0h32v32h-32z"/><path d="m0 28v-24h32v24zm20-22h-18v20h18zm10 0h-8v20h8zm-13 16v2h-12v-2zm11-3v2h-4v-2zm-14.6318908-9.39037131.6663166.74566891c1.2773966 1.4295232 1.3220767 3.4268648.1890105 5.0789784l-.1359619.1890444c-.6159098.8175717-.6521398 1.7273476-.087212 2.6577311l.112974.1746709.5658918.8244796-1.648959 1.1317836-.5658918-.8244796c-1.1105358-1.6180019-1.1549573-3.4451997-.1104718-4.9776175l.1362338-.1899804c.6769847-.8986439.7158454-1.8727411.1577284-2.6052781l-.1046799-.1266992-.6663166-.7456689zm-4.69192802-1 .5658918.82447951c1.11552572 1.625272 1.15887572 3.530354.09037003 5.0140809l-.13356012.1759798c-.64853695.8117916-.64869401 1.7777942-.09484379 2.6159504l.11031614.1555872.60429353.7967617-1.59352355 1.2085871-.60429353-.7967618c-1.19016157-1.5692295-1.27474095-3.6134669.01547236-5.2284624.5975082-.7479175.6324358-1.7023164.06939594-2.6353096l-.11258604-.1746297-.5658918-.82447952zm19.32381882 6.39037131v2h-4v-2zm0-4v2h-4v-2z" fill="#000" fill-rule="nonzero"/></g></svg>