<svg height="32" viewBox="0 0 32 32" width="32" xmlns="http://www.w3.org/2000/svg"><g fill="none" fill-rule="evenodd"><path d="m0 0h32v32h-32z"/><path d="m28 9c0 2.209139-1.790861 4-4 4h-16c-2.209139 0-4-1.790861-4-4v-4c0-2.209139 1.790861-4 4-4h16c2.209139 0 4 1.790861 4 4v1h.4c1.3807119 0 2.5100548 1.07623858 2.5948848 2.43557191l.0051152.16442809v5.8c0 1.3807119-1.0762386 2.5100548-2.4355719 2.5948848l-.1644281.0051152h-11.8c-.2982338 0-.5456468.2175896-.592147.5026769l-.007853.0973231.0009007 2.5710242c1.1647219.4120906 1.9990993 1.5230936 1.9990993 2.8289758v5c0 1.6568542-1.3431458 3-3 3s-3-1.3431458-3-3v-5c0-1.3062521.8348501-2.4175144 2.0000889-2.8293257l-.0000889-2.5706743c0-1.3807119 1.0762386-2.5100548 2.4355719-2.5948848l.1644281-.0051152h11.8c.2982338 0 .5456468-.2175896.592147-.5026769l.007853-.0973231v-5.8c0-.29823376-.2175896-.54564675-.5026769-.59214701l-.0973231-.00785299h-.4zm-13 13c-.5128358 0-.9355072.3860402-.9932723.8833789l-.0067277.1166211v5c0 .5522847.4477153 1 1 1 .5128358 0 .9355072-.3860402.9932723-.8833789l.0067277-.1166211v-5c0-.5522847-.4477153-1-1-1zm11-17c0-1.0543618-.8158778-1.91816512-1.8507377-1.99451426l-.1492623-.00548574h-16c-1.0543618 0-1.91816512.81587779-1.99451426 1.85073766l-.00548574.14926234v4c0 1.0543618.81587779 1.9181651 1.85073766 1.9945143l.14926234.0054857h16c1.0543618 0 1.9181651-.8158778 1.9945143-1.85073766l.0054857-.14926234z" fill="#000" fill-rule="nonzero"/></g></svg>