<svg height="32" viewBox="0 0 32 32" width="32" xmlns="http://www.w3.org/2000/svg"><g fill="none" fill-rule="evenodd"><path d="m0 0h32v32h-32z"/><path d="m11.5 0c.5522847 0 1 .44771525 1 1l.0011864 4.10025909c2.2816492.46372867 3.9988136 2.48120217 3.9988136 4.89974091v2c0 3.8659932-3.1340068 7-7 7h-.026l-.00664471.0892721c-.11749201 1.5280462-.02761913 2.6499058.24075204 3.3394665.43432687 1.1159722 1.36767897 1.3178179 3.59364557.8892433l.5952651-.1219157 1.1175252-.2372369c1.4135917-.287813 2.0432706-.3399677 2.81458-.1989917 2.0400359.3728675 3.2626231 1.5049151 4.9336431 4.0650199l.5472937.8608834.1977153.3159989c.2931675.4680505.1513969 1.0851396-.3166536 1.3783071-.4346183.2722269-.9977444.1694307-1.3106999-.2213908l-.0676072-.0952629c.0112666.0179875-.2827371-.452073-.3641146-.5815445l-.3424981-.5356884c-1.386878-2.128004-2.2955719-2.9737955-3.6366716-3.218915-.4475641-.0818035-.9584097-.0319444-2.1274338.2064996l-1.3870528.2935067c-3.2714439.6688267-5.17431369.3329894-6.11075512-2.0731305-.39137198-1.0056026-.50727495-2.3817133-.37594199-4.1538713-3.85165476-.0175943-6.96834659-3.1449509-6.96834659-7.0002498v-2c0-2.4188915 1.71766536-4.43660076 3.99981203-4.89994372l.00018797-4.10005628c0-.55228475.44771525-1 1-1s1 .44771525 1 1v4h4v-4c0-.55228475.4477153-1 1-1zm0 7h-6c-1.65685425 0-3 1.34314575-3 3v2c0 2.7614237 2.23857625 5 5 5h2c2.7614237 0 5-2.2385763 5-5v-2c0-1.65685425-1.3431458-3-3-3z" fill="#000" fill-rule="nonzero" transform="translate(7.5 1)"/></g></svg>