<svg height="32" viewBox="0 0 32 32" width="32" xmlns="http://www.w3.org/2000/svg"><g fill="none" fill-rule="evenodd"><path d="m0 0h32v32h-32z"/><path d="m32 2v28h-32v-28zm-22.50096314 9.9637881-6.32958786 6.3570401 1.41727042 1.4111501 4.91786532-4.9399476 9.93126386 9.8925843 1.4114408-1.4169862-1.2998404-1.2946288 8.4284769-8.5417549-1.4237069-1.4046561-8.42177 8.535411zm9.10096314-4.9637881c-2.209139 0-4 1.790861-4 4s1.790861 4 4 4 4-1.790861 4-4-1.790861-4-4-4zm0 2c1.1045695 0 2 .8954305 2 2s-.8954305 2-2 2-2-.8954305-2-2 .8954305-2 2-2z" fill="#202327"/></g></svg>