<svg height="32" viewBox="0 0 32 32" width="32" xmlns="http://www.w3.org/2000/svg"><g fill="none" fill-rule="evenodd"><path d="m0 0h32v32h-32z"/><path d="m21 27c.5522847 0 1 .4477153 1 1s-.4477153 1-1 1h-10c-.5522847 0-1-.4477153-1-1s.4477153-1 1-1zm6-24c2.7614237 0 5 2.23857625 5 5v12c0 2.7614237-2.2385763 5-5 5h-22c-2.76142375 0-5-2.2385763-5-5v-12c0-2.76142375 2.23857625-5 5-5zm0 2h-22c-1.65685425 0-3 1.34314575-3 3v12c0 1.6568542 1.34314575 3 3 3h22c1.6568542 0 3-1.3431458 3-3v-12c0-1.65685425-1.3431458-3-3-3z" fill="#000" fill-rule="nonzero"/></g></svg>