<svg height="32" viewBox="0 0 32 32" width="32" xmlns="http://www.w3.org/2000/svg"><g fill="none" fill-rule="evenodd"><path d="m0 0h32v32h-32z"/><path d="m25 6c3.8659932 0 7 3.13400675 7 7v6c0 3.5261219-2.6071882 6.4433024-5.9989899 6.9289666l-.0010101 1.0710334c0 .5522847-.4477153 1-1 1s-1-.4477153-1-1v-1h-16v1c0 .5522847-.44771525 1-1 1s-1-.4477153-1-1l-.00000823-1.07089c-3.39229013-.4852332-5.99999177-3.4026409-5.99999177-6.92911v-6c0-3.86599325 3.13400675-7 7-7zm0 2h-18c-2.76142375 0-5 2.2385763-5 5v6c0 2.7614237 2.23857625 5 5 5h18c2.7614237 0 5-2.2385763 5-5v-6c0-2.7614237-2.2385763-5-5-5zm-15 3c2.7614237 0 5 2.2385763 5 5s-2.2385763 5-5 5c-2.76142375 0-5-2.2385763-5-5s2.23857625-5 5-5zm10 1c.5522847 0 1 .4477153 1 1v6c0 .5522847-.4477153 1-1 1s-1-.4477153-1-1v-6c0-.5522847.4477153-1 1-1zm5 0c.5522847 0 1 .4477153 1 1v6c0 .5522847-.4477153 1-1 1s-1-.4477153-1-1v-6c0-.5522847.4477153-1 1-1zm-15 1c-1.65685425 0-3 1.3431458-3 3s1.34314575 3 3 3c1.6568542 0 3-1.3431458 3-3s-1.3431458-3-3-3z" fill="#000" fill-rule="nonzero"/></g></svg>