<svg height="32" viewBox="0 0 32 32" width="32" xmlns="http://www.w3.org/2000/svg"><g fill="none" fill-rule="evenodd"><path d="m0 0h32v32h-32z"/><path d="m26 6c3.3137085 0 6 2.6862915 6 6v8c0 3.3137085-2.6862915 6-6 6v1c0 .5522847-.4477153 1-1 1s-1-.4477153-1-1v-1h-16v1c0 .5522847-.44771525 1-1 1s-1-.4477153-1-1v-1c-3.3137085 0-6-2.6862915-6-6v-8c0-3.3137085 2.6862915-6 6-6zm-16 5c-2.76142375 0-5 2.2385763-5 5s2.23857625 5 5 5c2.7614237 0 5-2.2385763 5-5s-2.2385763-5-5-5zm10 1c-.5522847 0-1 .4477153-1 1v6c0 .5522847.4477153 1 1 1s1-.4477153 1-1v-6c0-.5522847-.4477153-1-1-1zm5 0c-.5522847 0-1 .4477153-1 1v6c0 .5522847.4477153 1 1 1s1-.4477153 1-1v-6c0-.5522847-.4477153-1-1-1zm-15 1c1.6568542 0 3 1.3431458 3 3s-1.3431458 3-3 3c-1.65685425 0-3-1.3431458-3-3s1.34314575-3 3-3z" fill="#202327"/></g></svg>