<svg height="32" viewBox="0 0 33 32" width="33" xmlns="http://www.w3.org/2000/svg"><g fill="none" fill-rule="evenodd"><path d="m0 0h32v32h-32z"/><path d="m6.5 0v5h4v-5h2v5h4v14h-7.026l-.00664471.0892721c-.11749201 1.5280462-.02761913 2.6499058.24075204 3.3394665.43432687 1.1159722 1.36767897 1.3178179 3.59364557.8892433l.5952651-.1219157 1.1175252-.2372369c1.4135917-.287813 2.0432706-.3399677 2.81458-.1989917 2.0400359.3728675 3.2626231 1.5049151 4.9336431 4.0650199l.5472937.8608834.7285421 1.1634793-1.6949608 1.0616534-.8949413-1.4290249-.3424981-.5356884c-1.386878-2.128004-2.2955719-2.9737955-3.6366716-3.218915-.4475641-.0818035-.9584097-.0319444-2.1274338.2064996l-1.3870528.2935067c-3.2714439.6688267-5.17431369.3329894-6.11075512-2.0731305-.39129916-1.0054155-.50723181-2.3812013-.37601527-4.1528822l-6.96827331-.0012389v-14h4v-5z" fill="#202327" transform="translate(7.5 1)"/></g></svg>