<svg height="32" viewBox="0 0 32 32" width="32" xmlns="http://www.w3.org/2000/svg"><g fill="none" fill-rule="evenodd"><path d="m0 0h32v32h-32z"/><path d="m21 0c3.8659932 0 7 3.13400675 7 7v18c0 3.8659932-3.1340068 7-7 7h-10c-3.86599325 0-7-3.1340068-7-7v-18c0-3.86599325 3.13400675-7 7-7zm5 24h-20v1c0 2.6887547 2.12230671 4.8818181 4.7831104 4.9953805l.2168896.0046195h10c2.7614237 0 5-2.2385763 5-5zm-10 1.5c.8284271 0 1.5.6715729 1.5 1.5s-.6715729 1.5-1.5 1.5-1.5-.6715729-1.5-1.5.6715729-1.5 1.5-1.5zm5-23.5h-10c-2.76142375 0-5 2.23857625-5 5v15h20v-15c0-2.6887547-2.1223067-4.88181811-4.7831104-4.99538049z" fill="#000" fill-rule="nonzero"/></g></svg>