<svg height="32" viewBox="0 0 32 32" width="32" xmlns="http://www.w3.org/2000/svg"><g fill="none" fill-rule="evenodd"><path d="m0 0h32v32h-32z"/><path d="m20 0c3.3137085 0 6 2.6862915 6 6v2c3.3137085 0 6 2.6862915 6 6v6c0 3.2383969-2.5655749 5.8775718-5.7750617 5.9958615l-.2249383.0041385c0 3.3137085-2.6862915 6-6 6h-8c-3.3137085 0-6-2.6862915-6-6-3.3137085 0-6-2.6862915-6-6v-6c0-3.3137085 2.6862915-6 6-6v-2c0-3.3137085 2.6862915-6 6-6zm0 13h-8l-.2168896.0046195c-2.66080369.1135624-4.7831104 2.3066258-4.7831104 4.9953805 0 .5522847.44771525 1 1 1s1-.4477153 1-1l.00509269-.1762728c.09124643-1.5748072 1.39722641-2.8237272 2.99490731-2.8237272h8l.1762728.0050927c1.5748072.0912464 2.8237272 1.3972264 2.8237272 2.9949073 0 .5522847.4477153 1 1 1s1-.4477153 1-1c0-2.7614237-2.2385763-5-5-5z" fill="#202327"/></g></svg>