<svg height="32" viewBox="0 0 32 32" width="32" xmlns="http://www.w3.org/2000/svg"><g fill="none" fill-rule="evenodd"><path d="m0 0h32v32h-32z"/><path d="m19 1.73205081 7.8564065 4.53589838c1.8564064 1.07179677 3 3.05255889 3 5.19615241v9.0717968c0 2.1435935-1.1435936 4.1243556-3 5.1961524l-7.8564065 4.5358984c-1.8564065 1.0717968-4.1435935 1.0717968-6 0l-7.85640646-4.5358984c-1.85640646-1.0717968-3-3.0525589-3-5.1961524v-9.0717968c0-2.14359352 1.14359354-4.12435564 3-5.19615241l7.85640646-4.53589838c1.8564065-1.07179677 4.1435935-1.07179677 6 0zm-4.791172 1.6195783-.208828.11247251-7.85640646 4.53589838c-1.17246724.67692428-1.91843145 1.89771701-1.99370617 3.2394348l-.00629383.2246668v9.0717968c0 1.3538485.68425541 2.6102689 1.80857977 3.3463176l.19142023.117784 7.85640646 4.5358984c1.1688485.674835 2.5938608.7123258 3.791172.1124725l.208828-.1124725 7.8564065-4.5358984c1.1724672-.6769243 1.9184314-1.897717 1.9937061-3.2394348l.0062939-.2246668v-9.0717968c0-1.3538485-.6842555-2.61026887-1.8085798-3.34631759l-.1914202-.11778401-7.8564065-4.53589838c-1.1688485-.67483501-2.5938608-.71232584-3.791172-.11247251zm8.8114886 8.20574889c.259282.4876385.0741624 1.0931371-.4134761 1.3524191l-5.6183556 2.9868539.0000413 6.7689186c0 .5522848-.4477152 1-1 1-.5522847 0-1-.4477152-1-1l-.0000413-6.7689186-5.61827304-2.9868539c-.48763849-.259282-.67275801-.8647806-.41347603-1.3524191.25928199-.4876385.86478067-.672758 1.35241917-.4134761l5.6793299 3.0187491 5.6794125-3.0187491c.4876385-.2592819 1.0931372-.0741624 1.3524192.4134761z" fill="#000" fill-rule="nonzero"/></g></svg>