<svg height="32" viewBox="0 0 32 32" width="32" xmlns="http://www.w3.org/2000/svg"><g fill="none" fill-rule="evenodd"><path d="m0 0h32v32h-32z"/><path d="m24 2c2.7614237 0 5 2.23857625 5 5l-.0009991 13.819 1.9239857 5.1276297c.5609832 1.4959552-.1498568 3.1573075-1.592356 3.7956959l-.1632612.0666619c-.3368312.1263117-.6936345.1910125-1.0533703.1910125h-24.22799816c-1.65685425 0-3-1.3431458-3-3 0-.3597359.06470077-.7165391.19101246-1.0533703l1.92198754-5.1276297.00099906-13.819c0-2.6887547 2.12230671-4.88181811 4.78311038-4.99538049l.21688962-.00461951zm3.306 20h-22.613l-1.74332824 4.6488766c-.02806927.0748513-.04701099.1526615-.05651999.2317477l-.00715083.1193757c0 .5522847.44771525 1 1 1h24.22799816c.1199119 0 .2388463-.0215669.3511234-.0636708.5171203-.1939201.7791259-.7703323.5852057-1.2874526zm-3.306-18h-16c-1.65685425 0-3 1.34314575-3 3v13h22v-13c0-1.59768088-1.24892-2.90366088-2.8237272-2.99490731z" fill="#000" fill-rule="nonzero"/></g></svg>