<svg height="32" viewBox="0 0 32 32" width="32" xmlns="http://www.w3.org/2000/svg"><g fill="none" fill-rule="evenodd"><path d="m0 0h32v32h-32z"/><path d="m25.9586964 2.84798668 2.8284271 2.82842713c.7810486.78104858.7810486 2.04737854 0 2.82842712l-16.732367 16.73236707c-.4554.4553999-1.0140285.7941045-1.628395.9873196l-6.19049386 1.9468775c-.31610681.0994139-.65295291-.0762504-.75236683-.3923572-.03814987-.1213053-.03677286-.2515946.00393232-.3720665l2.20922707-6.5384738c.19700958-.5830736.52591015-1.112822.96110414-1.548016l16.47250496-16.47250492c.7810486-.78104858 2.0473785-.78104858 2.8284271 0zm-15.7628336 15.76221352-2.1238849 2.124505c-.17407759.1740776-.31414129.3784126-.41363812.6024503l-.06691395.1715577-1.32644251 3.9275114 3.5613621-1.1195704c.24574658-.077286.47365708-.2011287.67157378-.3641567l.1426237-.1295031 2.3833199-2.3847942zm10.25-10.24999995-8.836 8.83499995 2.828 2.829 8.836-8.836zm4.09862-4.098-2.68462 2.683 2.829 2.829 2.6840472-2.68357288z" fill="#000" fill-rule="nonzero"/></g></svg>