<svg height="32" viewBox="0 0 32 32" width="32" xmlns="http://www.w3.org/2000/svg"><g fill="none" fill-rule="evenodd"><path d="m0 0h32v32h-32z"/><path d="m16 4c11.0150135 0 16 12 16 12l-.1998001.4424215c-1.0256067 2.167046-6.0333728 11.5575785-15.8001999 11.5575785-11.04076111 0-16-12-16-12l.20597836-.4534962c1.04172335-2.1877586 6.06647721-11.5465038 15.79402164-11.5465038zm0 2c-4.1722275 0-7.69502608 1.96552691-10.62501002 5.3164757-1.05260055 1.2038327-1.94868398 2.5010175-2.68522749 3.7968323-.10258904.1804868-.19889524.3554408-.28892371.5240975l-.18983878.3645945.05882917.1151222c.08340368.1620928.17307493.3308648.26902115.5055516l.14862647.2663707c.73394455 1.2953171 1.6277449 2.5920162 2.6786584 3.7953959 2.92580077 3.3502752 6.45027301 5.3155596 10.63386481 5.3155596s7.708064-1.9652844 10.6338648-5.3155596c1.0509135-1.2033797 1.9447139-2.5000788 2.6786584-3.7953959.1533346-.2706157.2925421-.5287831.4176476-.7719223l.0578292-.1151222-.0585037-.116428c-.0837521-.1621683-.1737792-.3310161-.2700867-.505779l-.1491721-.266485c-.7365435-1.2958148-1.6326269-2.5929996-2.6852275-3.7968323-2.9299839-3.35094879-6.4527825-5.3164757-10.62501-5.3164757zm0 4c3.3137085 0 6 2.6862915 6 6s-2.6862915 6-6 6-6-2.6862915-6-6 2.6862915-6 6-6zm0 2c-2.209139 0-4 1.790861-4 4s1.790861 4 4 4 4-1.790861 4-4-1.790861-4-4-4z" fill="#000" fill-rule="nonzero"/></g></svg>