<svg height="32" viewBox="0 0 32 32" width="32" xmlns="http://www.w3.org/2000/svg"><g fill="none" fill-rule="evenodd"><path d="m0 0h32v32h-32z"/><path d="m21 0c3.8659932 0 7 3.13400675 7 7v18c0 3.8659932-3.1340068 7-7 7h-10c-3.86599325 0-7-3.1340068-7-7v-18c0-3.86599325 3.13400675-7 7-7zm-1 3c0 .55228475-.4477153 1-1 1h-6c-.5522847 0-1-.44771525-1-1v-1h-1c-2.76142375 0-5 2.23857625-5 5v18c0 2.7614237 2.23857625 5 5 5h10c2.7614237 0 5-2.2385763 5-5v-18c0-2.76142375-2.2385763-5-5-5h-1z" fill="#000" fill-rule="nonzero"/></g></svg>