<svg height="32" viewBox="0 0 32 32" width="32" xmlns="http://www.w3.org/2000/svg"><g fill="none" fill-rule="evenodd"><path d="m0 0h32v32h-32z"/><path d="m28 9c0 2.209139-1.790861 4-4 4h-16c-2.209139 0-4-1.790861-4-4v-4c0-2.209139 1.790861-4 4-4h16c2.209139 0 4 1.790861 4 4v1h.4c1.3807119 0 2.5100548 1.07623858 2.5948848 2.43557191l.0051152.16442809v5.8c0 1.3807119-1.0762386 2.5100548-2.4355719 2.5948848l-.1644281.0051152h-11.8c-.2982338 0-.5456468.2175896-.592147.5026769l-.007853.0973231.0009007 2.5710242c1.1647219.4120906 1.9990993 1.5230936 1.9990993 2.8289758v5c0 1.6568542-1.3431458 3-3 3s-3-1.3431458-3-3v-5c0-1.3062521.8348501-2.4175144 2.0000889-2.8293257l-.0000889-2.5706743c0-1.3807119 1.0762386-2.5100548 2.4355719-2.5948848l.1644281-.0051152h11.8c.2982338 0 .5456468-.2175896.592147-.5026769l.007853-.0973231v-5.8c0-.29823376-.2175896-.54564675-.5026769-.59214701l-.0973231-.00785299h-.4z" fill="#202327"/></g></svg>