<svg height="32" viewBox="0 0 32 32" width="32" xmlns="http://www.w3.org/2000/svg"><g fill="none" fill-rule="evenodd"><path d="m0 0h32v32h-32z"/><path d="m19.120106 0c1.8257724 0 3.5522076.83131873 4.6906771 2.25867017l4.8798939 6.11814718c.847677 1.06277155 1.309323 2.38190365 1.309323 3.74132985v13.8818528c0 3.3137085-2.6862915 6-6 6h-16c-3.3137085 0-6-2.6862915-6-6v-20c0-3.3137085 2.6862915-6 6-6zm-5.9469177 11.202749c-.5522847 0-1 .4477152-1 1v9.7176633c0 .194291.0565991.3843743.16288.5470193.3021104.4623286.9218107.5922111 1.3841393.2901007l7.4356163-4.8588316c.1157105-.0756115.2144892-.1743903.2901007-.2901008.3021104-.4623286.1722279-1.0820289-.2901007-1.3841393l-7.4356163-4.8588316c-.1626449-.106281-.3527282-.16288-.5470193-.16288zm.9990415 2.847971 4.6075077 3.0108606-4.6075077 3.0108607z" fill="#202327"/></g></svg>