<svg height="32" viewBox="0 0 32 32" width="32" xmlns="http://www.w3.org/2000/svg"><g fill="none" fill-rule="evenodd"><path d="m0 0h32v32h-32z"/><path d="m19 1.73205081 7.8564065 4.53589838c1.8564064 1.07179677 3 3.05255889 3 5.19615241v9.0717968c0 2.1435935-1.1435936 4.1243556-3 5.1961524l-7.8564065 4.5358984c-1.8564065 1.0717968-4.1435935 1.0717968-6 0l-7.85640646-4.5358984c-1.85640646-1.0717968-3-3.0525589-3-5.1961524v-9.0717968c0-2.14359352 1.14359354-4.12435564 3-5.19615241l7.85640646-4.53589838c1.8564065-1.07179677 4.1435935-1.07179677 6 0zm4.0203166 9.82532719c-.259282-.4876385-.8647807-.672758-1.3524192-.4134761l-5.6794125 3.0187491-5.6793299-3.0187491c-.4876385-.2592819-1.09313718-.0741624-1.35241917.4134761-.25928198.4876385-.07416246 1.0931371.41347603 1.3524191l5.61827304 2.9868539.0000413 6.7689186c0 .5522848.4477153 1 1 1 .5522848 0 1-.4477152 1-1l-.0000413-6.7689186 5.6183556-2.9868539c.4876385-.259282.6727581-.8647806.4134761-1.3524191z" fill="#202327"/></g></svg>