<svg height="32" viewBox="0 0 32 32" width="32" xmlns="http://www.w3.org/2000/svg"><g fill="none" fill-rule="evenodd"><path d="m0 0h32v32h-32z"/><path d="m24 3c2.209139 0 4 1.790861 4 4v14l1.9866574 5.2977531c.3878403 1.0342407-.1361708 2.187065-1.1704115 2.5749053-.2245541.0842077-.4624229.1273416-.7022468.1273416h-24.22799816c-1.1045695 0-2-.8954305-2-2 0-.2398239.04313385-.4776928.12734164-.7022469l1.98665742-5.2977531v-14c0-2.209139 1.790861-4 4-4zm1.5 17h-19c-.27614237 0-.5.2238576-.5.5s.22385763.5.5.5h19c.2761424 0 .5-.2238576.5-.5s-.2238576-.5-.5-.5z" fill="#202327"/></g></svg>