<svg height="32" viewBox="0 0 32 32" width="32" xmlns="http://www.w3.org/2000/svg"><g fill="none" fill-rule="evenodd"><path d="m0 0h32v32h-32z"/><path d="m16 0c8.836556 0 16 7.163444 16 16s-7.163444 16-16 16-16-7.163444-16-16 7.163444-16 16-16zm0 8c-3.7399769.0001875-5.3104861 3.0644648-5.2111485 6.7175538-.5901401 1.4156544-.97168742 2.2735907-1.30533812 3.3055894-.70791437 2.1893722-.47854375 3.0954335-.30393072 3.115746.37475143.0435311 1.45865284-1.6481541 1.45865284-1.6481541 0 .9795924.5247821 2.2579032 1.6602545 3.1809958-.5483889.162531-1.7828087.5989055-1.488698 1.0754674.23789.3857182 4.0811325.2462809 5.1906568.126156 1.1095244.1201249 4.9527669.2595622 5.1906569-.126156.2939481-.4766869-.9417073-.9134051-1.4893484-1.0756549 1.1353099-.9230925 1.6599944-2.2012784 1.6599944-3.1808083 0 0 1.0839014 1.6916852 1.4586854 1.6481541.174613-.0203438.4039186-.9263738-.3038982-3.115746-.3327078-1.0289987-.7162061-1.8923413-1.3053381-3.3055582.0940374-3.7134327-1.5128902-6.7173975-5.2112008-6.717585z" fill="#202327"/></g></svg>