<svg height="32" viewBox="0 0 32 32" width="32" xmlns="http://www.w3.org/2000/svg"><g fill="none" fill-rule="evenodd"><path d="m0 0h32v32h-32z"/><path d="m15.9998867 0-.3175962.00373031c-6.8340705.16105657-10.59798873 5.52198001-10.62328209 13.09956699l.00099159.2727027-.86256398 2.1053645c-.34339269.8459887-.59479858 1.4918602-.8236549 2.1249911-.16246446.4494579-.31092035.8862129-.4515632 1.3302912-1.41043336 4.4529342-1.46997142 7.7313526 1.14979123 8.0424546l.19586827.0182568c.69853306.0462522 1.18775172-.1357889 1.69345756-.5695745l.04666502-.0427837.10703497.1859114.16295747.2641667.09000756.1369219-.10203891.0725127c-1.18457469.8599516-1.78515849 2.0422997-.8749963 3.5478041.72014893 1.1919865 1.68579016 1.3851809 4.67654251 1.4059241h1.2781117l.7210113-.0101194c1.4578857-.0287327 2.9764342-.1065736 3.9343697-.2001215l.2555297.0243167c1.1291243.09698 2.8606159.1735357 4.3993902.1859242h1.2781118c2.9907546-.0207471 3.95642-.2139816 4.6768437-1.4064227l.0983227-.1723424c.764361-1.4241985.1648309-2.548721-.9747412-3.3755348l-.1034569-.072941.0912293-.1362605.1629318-.2641511.1068389-.1855884.0466679.0427821c.5516504.4732059 1.0836451.6468525 1.8890001.5513616 2.6200145-.3116105 2.5604594-3.5895097 1.1502083-8.0424822-.136678-.4315245-.2810058-.8567817-.4385987-1.2939849l-.1781698-.4846461c-.0923296-.2464665-.1903348-.5013359-.2976536-.7744519l-.3954267-.9868956-.8290275-2.020683.0009399-.279262c-.038761-7.60576089-3.8169423-12.93053326-10.6187985-13.09291824zm.0001023 2c6.339972.00032813 9.0947051 5.25726658 8.9334981 11.7557738l.8516442 2.0748544c.5606846 1.3708665.9939584 2.4718584 1.3860782 3.7098724 1.2134003 3.8314013.8203049 5.4169539.5209683 5.4525554-.6424867.0761796-2.5006035-2.8842697-2.5006035-2.8842697 0 1.7141775-.8994592 3.9510027-2.8457046 5.5664147l.3377045.1073023c1.0249215.341207 2.6653848 1.0302704 2.2154641 1.7750936-.4078113.675007-6.9962271.4309917-8.8982689.2207732l-.4753503.0452169c-2.33636.195172-8.04423656.3608021-8.42291849-.2659901-.50418989-.8339832 1.61195836-1.5976385 2.55205373-1.8820678-1.94652419-1.615412-2.84615056-3.852456-2.84615056-5.5667428l-.32111727.4924567c-.56063792.838483-1.70355568 2.4482423-2.17943051 2.391813-.29933663-.0355468-.69254342-1.6211541.52102408-5.4525554l.21887662-.6654718c.52220361-1.5311231 1.13363576-2.9515889 2.01884579-5.1193097-.17029299-6.39290578 2.5220086-11.75539097 8.93338651-11.7557191z" fill="#000" fill-rule="nonzero"/></g></svg>