<svg height="32" viewBox="0 0 32 32" width="32" xmlns="http://www.w3.org/2000/svg"><g fill="none" fill-rule="evenodd"><path d="m0 0h32v32h-32z"/><path d="m19.120106 0c1.8257724 0 3.5522076.83131873 4.6906771 2.25867017l4.8798939 6.11814718c.847677 1.06277155 1.309323 2.38190365 1.309323 3.74132985v13.8818528c0 3.3137085-2.6862915 6-6 6h-16c-3.3137085 0-6-2.6862915-6-6v-20c0-3.3137085 2.6862915-6 6-6zm-3.120106 21.5c-.7731986 0-1.4.6268014-1.4 1.4s.6268014 1.4 1.4 1.4 1.4-.6268014 1.4-1.4-.6268014-1.4-1.4-1.4zm0-11.5c-2.209139 0-4 1.790861-4 4 0 .5522847.4477153 1 1 1s1-.4477153 1-1c0-1.1045695.8954305-2 2-2s2 .8954305 2 2-.8954305 2-2 2c-.5522847 0-1 .4477153-1 1v2c0 .5522847.4477153 1 1 1s1-.4477153 1-1l.0007613-1.1262135c1.7248409-.4443075 2.9992387-2.0102213 2.9992387-3.8737865 0-2.209139-1.790861-4-4-4z" fill="#202327"/></g></svg>