<svg height="32" viewBox="0 0 32 32" width="32" xmlns="http://www.w3.org/2000/svg"><g fill="none" fill-rule="evenodd"><path d="m0 0h32v32h-32z"/><path d="m22.0092457 0 7.9907543 10.0183757v21.9816243h-28v-32zm-4.7092457 21.5h-2.6v2.6h2.6zm-1.3-11.5c-2.209139 0-4 1.790861-4 4h2l.0054857-.1492623c.0763492-1.0348599.9401525-1.8507377 1.9945143-1.8507377 1.1045695 0 2 .8954305 2 2s-.8954305 2-2 2h-1v4h2l.0006624-2.126188c1.7248911-.4442732 2.9993376-2.0102111 2.9993376-3.873812 0-2.209139-1.790861-4-4-4z" fill="#202327"/></g></svg>