<svg height="32" viewBox="0 0 32 32" width="32" xmlns="http://www.w3.org/2000/svg"><g fill="none" fill-rule="evenodd"><path d="m0 0h32v32h-32z"/><path d="m16 2c2.2211638 0 4.2129315 1.36794426 5.0102828 3.44105774l8.6767172 22.55894226h1.313c.5522847 0 1 .4477153 1 1s-.4477153 1-1 1h-30c-.55228475 0-1-.4477153-1-1s.44771525-1 1-1h1.312l8.6777172-22.55894226c.7688745-1.99907371 2.6483734-3.34244799 4.7732227-3.43585345zm8.851 19h-17.703l-2.693 7h23.089zm-2.308-6h-13.087l-1.539 4h16.165zm-6.543-11c-1.3936203 0-2.6433111.8582865-3.1435916 2.1590159l-2.6314084 6.8409841h11.549l-2.6304084-6.8409841c-.4513809-1.17359044-1.5128307-1.98700349-2.7396267-2.13480413l-.2059208-.01841799z" fill="#000" fill-rule="nonzero"/></g></svg>