<svg height="32" viewBox="0 0 32 32" width="32" xmlns="http://www.w3.org/2000/svg"><g fill="none" fill-rule="evenodd"><path d="m0 0h32v32h-32z"/><path d="m16.9028679 19.540186c1.2154177 2.3472741 1.358419 4.0012965.0968461 6.0741641l-.1459717.2320988c-1.1925978 1.8380578-1.1197499 2.5522342-.0097061 4.1988692.3087142.4579454.1877383 1.0794458-.2702072 1.38816-.4579454.3087141-1.0794458.1877382-1.3881599-.2702072-1.4751336-2.1882078-1.67213-3.7235762-.1660108-6.1588416l.1563048-.2465837c.9708066-1.4962285.9106639-2.444439-.0491257-4.2980316-.2539483-.4904373-.062236-1.093881.4282013-1.3478293.4904373-.2539482 1.093881-.062236 1.3478292.4282013zm3.4979959-19.540186c2.7598181.00238441 4.9973426 2.2388423 5.0010433 4.99952273l.0010929 2.83047727 3.5104982 5.5704703c.8506775 1.3497903.4925588 3.1175463-.7867928 4.0354709l-.1516895.1020708c-.4789105.3018234-1.0334443.461988-1.5995297.461988l-2.3410509.0007435c1.1393515 1.9036393 1.1832873 3.3765931-.1911966 5.5990155l-.1563047.2465837c-.9708067 1.4962286-.910664 2.444439.0491256 4.2980317.2539483.4904373.062236 1.093881-.4282013 1.3478292-.4904373.2539483-1.093881.062236-1.3478292-.4282013-1.2154177-2.3472741-1.358419-4.0012965-.0968461-6.074164l.1459718-.2320988c1.1925977-1.8380578 1.1197498-2.5522342.009706-4.1988693-.1156676-.1715808-.1710146-.3661218-.1709179-.5585685l-11.7310525.0008238c.9993726 2.1089303 1.0453648 3.6786701-.13202903 5.6132246l-.14597177.2320988c-1.19259773 1.8380578-1.11974987 2.5522342-.00970603 4.1988692.30871413.4579454.18773823 1.0794458-.27020718 1.38816-.45794544.3087141-1.07944582.1877382-1.38815996-.2702072-1.47513354-2.1882078-1.67212999-3.7235762-.16601074-6.1588416l.15630471-.2465837c.97080668-1.4962285.91066394-2.444439-.04912566-4.2980316-.07618448-.1471312-.11225951-.304433-.11219235-.4594178l-2.37378775-.0003962c-1.65685425 0-3-1.3431458-3-3 0-.5664402.16036527-1.1213069.46254461-1.6004125l3.50045075-5.5525875.00508754-2.8544029c.00397675-2.68593726 2.12525125-4.87465143 4.78332956-4.98798684l.216665-.00461026zm3.3751408 9h-15.54899996l-3.44681846 5.4665292c-.08058116.1277615-.13090865.2716853-.1478164.4208169l-.00636514.1126539c0 .5522847.44771525 1 1 1h20.74948156c.1886952 0 .3735398-.0533882.5331766-.153996.4672351-.2944653.6072927-.9119455.3128274-1.3791806zm-3.3760046-7h-8.8059179c-1.65511995 0-2.99754622 1.34044017-2.99999676 2.99555826l-.0040807 2.00444174h14.81199996l-.0000965-1.99865981c-.002142-1.59779202-1.2515425-2.90358439-2.8257109-2.99610035z" fill="#000" fill-rule="nonzero"/></g></svg>