<svg height="32" viewBox="0 0 32 32" width="32" xmlns="http://www.w3.org/2000/svg"><g fill="none" fill-rule="evenodd"><path d="m0 0h32v32h-32z"/><path d="m22.1906215 3.93969262c.1888925.5189779-.0786945 1.09282026-.5976725 1.28171276l-7.634949 2.77803523 12.042.00055939c3.3137085 0 6 2.6862915 6 6v8c0 3.3137085-2.6862915 6-6 6h-20c-3.3137085 0-6-2.6862915-6-6v-8c0-3.3137085 2.6862915-6 6-6l2.11-.00055939 12.7989088-4.65742047c.5189779-.18889251 1.0928202.07869458 1.2817127.59767248zm-12.1906215 9.06030738c-2.76142375 0-5 2.2385763-5 5s2.23857625 5 5 5c2.7614237 0 5-2.2385763 5-5s-2.2385763-5-5-5zm15 6.5h-6c-.5522847 0-1 .4477153-1 1s.4477153 1 1 1h6c.5522847 0 1-.4477153 1-1s-.4477153-1-1-1zm-15-4.5c1.6568542 0 3 1.3431458 3 3s-1.3431458 3-3 3c-1.65685425 0-3-1.3431458-3-3s1.34314575-3 3-3zm15-.5h-6c-.5522847 0-1 .4477153-1 1s.4477153 1 1 1h6c.5522847 0 1-.4477153 1-1s-.4477153-1-1-1z" fill="#202327"/></g></svg>