<svg height="32" viewBox="0 0 32 32" width="32" xmlns="http://www.w3.org/2000/svg"><g fill="none" fill-rule="evenodd"><path d="m0 0h32v32h-32z"/><path d="m22.1906215 3.93969262c.1888925.5189779-.0786945 1.09282026-.5976725 1.28171276l-7.634949 2.77803523 11.042.00055939c3.7854517 0 6.8690987 3.0047834 6.995941 6.7593502l.004059.2406498v6c0 3.8659932-3.1340068 7-7 7h-18c-3.86599325 0-7-3.1340068-7-7v-6c0-3.8659932 3.13400675-7 7-7l1.11-.00055939 12.7989088-4.65742047c.5189779-.18889251 1.0928202.07869458 1.2817127.59767248zm2.8093785 6.06030738h-18c-2.76142375 0-5 2.2385763-5 5v6c0 2.7614237 2.23857625 5 5 5h18c2.7614237 0 5-2.2385763 5-5v-6c0-2.7614237-2.2385763-5-5-5zm-15 3c2.7614237 0 5 2.2385763 5 5s-2.2385763 5-5 5c-2.76142375 0-5-2.2385763-5-5s2.23857625-5 5-5zm15 6.5c.5522847 0 1 .4477153 1 1s-.4477153 1-1 1h-6c-.5522847 0-1-.4477153-1-1s.4477153-1 1-1zm-15-4.5c-1.65685425 0-3 1.3431458-3 3s1.34314575 3 3 3c1.6568542 0 3-1.3431458 3-3s-1.3431458-3-3-3zm15-.5c.5522847 0 1 .4477153 1 1s-.4477153 1-1 1h-6c-.5522847 0-1-.4477153-1-1s.4477153-1 1-1z" fill="#000" fill-rule="nonzero"/></g></svg>