<svg height="32" viewBox="0 0 32 32" width="32" xmlns="http://www.w3.org/2000/svg"><g fill="none" fill-rule="evenodd"><path d="m0 0h32v32h-32z"/><path d="m16 0c8.836556 0 16 7.163444 16 16s-7.163444 16-16 16-16-7.163444-16-16 7.163444-16 16-16zm0 2c-7.7319865 0-14 6.2680135-14 14s6.2680135 14 14 14 14-6.2680135 14-14-6.2680135-14-14-14zm-.8769466 7.60710678 5.6568543 5.65685422c.180242.180242.2772953.4121708.2911601.6480754v.1612085c-.0138648.2359047-.1109181.4678335-.2911601.6480754l-5.6568543 5.6568543c-.3905243.3905243-1.0236892.3905243-1.4142135 0s-.3905243-1.0236893 0-1.4142136l4.9712279-4.9708932-4.9712279-4.9717475c-.3905243-.3905242-.3905243-1.02368923 0-1.41421352s1.0236892-.39052429 1.4142135 0z" fill="#000" fill-rule="nonzero"/></g></svg>