<svg height="32" viewBox="0 0 32 32" width="32" xmlns="http://www.w3.org/2000/svg"><g fill="none" fill-rule="evenodd"><path d="m0 0h32v32h-32z"/><path d="m16.4430539 18.6521708.459814.8880152c1.2154177 2.3472741 1.358419 4.0012965.0968461 6.0741641l-.1459717.2320988c-1.1191344 1.7248344-1.1107726 2.4861016-.215292 3.8873107l.1117004.1713194.5531475.8330834-1.6661667 1.1062949-.5531475-.8330833c-1.3719956-2.0663327-1.5285929-3.6339324-.0652016-6.0052945l.1571807-.2482339c.9303564-1.4338857.9138859-2.36447.0661528-4.0709429l-.5750925-1.115104zm8.5569461-18.6521708.0036372 8.00969933 5.9963628 9.99030067-6.9896193.0011943c1.1627225 1.9230684 1.2169503 3.4010432-.167142 5.6390016l-.1563047.2465837c-.9303564 1.4338857-.913886 2.36447-.0661529 4.070943l.5750925 1.1151039-1.7760305.919628-.459814-.8880153c-1.2154177-2.3472741-1.358419-4.0012965-.0968461-6.0741641l.1459718-.2320987c1.1467285-1.7673633 1.1234815-2.4956351.133172-4.0128941l-.5283268-.7852823-11.4971096.0011255c.9993726 2.1089303 1.0453648 3.6786701-.13202903 5.6132246l-.14597177.2320988c-1.14672858 1.7673632-1.12348159 2.495635-.13317208 4.012894l.68244248 1.0151588-1.65836718 1.1179528-.55897639-.8291836c-1.47513354-2.1882078-1.67212999-3.7235762-.16601074-6.1588416l.15630471-.2465837c.9303564-1.4338857.91388599-2.36447.06615288-4.0709429l-.35426328-.6869027h-6.873l5.9886768-9.96980479.0113232-8.03019521z" fill="#202327"/></g></svg>