<svg height="32" viewBox="0 0 32 32" width="32" xmlns="http://www.w3.org/2000/svg"><g fill="none" fill-rule="evenodd"><path d="m0 0h32v32h-32z"/><path d="m16 2c2.1418365 0 4.0703698 1.27197878 4.9203258 3.22166698l.089957.21939076 8.6767172 22.55894226h1.313c.5522847 0 1 .4477153 1 1s-.4477153 1-1 1h-30c-.55228475 0-1-.4477153-1-1s.44771525-1 1-1h1.312l8.6777172-22.55894226c.7688745-1.99907371 2.6483734-3.34244799 4.7732227-3.43585345zm7 17h-14c-.55228475 0-1 .4477153-1 1s.44771525 1 1 1h14c.5522847 0 1-.4477153 1-1s-.4477153-1-1-1zm-2-6h-10c-.5522847 0-1 .4477153-1 1s.4477153 1 1 1h10c.5522847 0 1-.4477153 1-1s-.4477153-1-1-1z" fill="#202327" fill-rule="nonzero"/></g></svg>