<svg height="32" viewBox="0 0 32 32" width="32" xmlns="http://www.w3.org/2000/svg"><g fill="none" fill-rule="evenodd"><path d="m0 0h32v32h-32z"/><path d="m22 0c3.3137085 0 6 2.6862915 6 6v20c0 3.3137085-2.6862915 6-6 6h-12c-3.3137085 0-6-2.6862915-6-6v-20c0-3.3137085 2.6862915-6 6-6zm-12 20c-.55228475 0-1 .4477153-1 1v2c0 .5522847.44771525 1 1 1 .5522847 0 1-.4477153 1-1v-2c0-.5522847-.4477153-1-1-1zm15-5h-18c-.55228475 0-1 .4477153-1 1s.44771525 1 1 1h18c.5522847 0 1-.4477153 1-1s-.4477153-1-1-1zm-15-7c-.55228475 0-1 .44771525-1 1v2c0 .5522847.44771525 1 1 1 .5522847 0 1-.4477153 1-1v-2c0-.55228475-.4477153-1-1-1z" fill="#202327"/></g></svg>