<svg height="32" viewBox="0 0 32 32" width="32" xmlns="http://www.w3.org/2000/svg"><g fill="none" fill-rule="evenodd"><path d="m0 0h32v32h-32z"/><path d="m16 2v2h-1c-7.17970175 0-13 5.82029825-13 13 0 7.1797017 5.82029825 13 13 13 7.1797017 0 13-5.8202983 13-13 0-4.2891241-2.0939701-8.21220379-5.4976197-10.61865099l-.0010284 5.61865099h-2v-9h9v2l-5.4992882-.00033065c3.7221733 2.79318402 5.9979363 7.19873195 5.9979363 12.00033065 0 8.2842712-6.7157288 15-15 15-8.28427125 0-15-6.7157288-15-15 0-8.17940705 6.54678637-14.82973022 14.6861718-14.99678224l.3138282-.00321776z" fill="#000" fill-rule="nonzero"/></g></svg>