<svg height="32" viewBox="0 0 32 32" width="32" xmlns="http://www.w3.org/2000/svg"><g fill="none" fill-rule="evenodd"><path d="m0 0h32v32h-32z"/><path d="m16.9028679 19.540186c1.2154177 2.3472741 1.358419 4.0012965.0968461 6.0741641l-.1459717.2320988c-1.1925978 1.8380578-1.1197499 2.5522342-.0097061 4.1988692.3087142.4579454.1877383 1.0794458-.2702072 1.38816-.4579454.3087141-1.0794458.1877382-1.3881599-.2702072-1.4751336-2.1882078-1.67213-3.7235762-.1660108-6.1588416l.1563048-.2465837c.9708066-1.4962285.9106639-2.444439-.0491257-4.2980316-.2539483-.4904373-.062236-1.093881.4282013-1.3478293.4904373-.2539482 1.093881-.062236 1.3478292.4282013zm4.0971321-19.540186c2.2084297.00181683 3.9989967 1.79157096 4.0018164 3.99999959l.0018208 4.00969974 4.1781409 6.96103377c.5684484.9470692.2615156 2.175639-.6855536 2.7440875-.3108944.1866045-.66667.2851794-1.029267.2851794l-3.4325222.0007435c1.1393515 1.9036393 1.1832873 3.3765931-.1911966 5.5990155l-.1563047.2465837c-.9708067 1.4962286-.910664 2.444439.0491256 4.2980317.2539483.4904373.062236 1.093881-.4282013 1.3478292-.4904373.2539483-1.093881.062236-1.3478292-.4282013-1.2154177-2.3472741-1.358419-4.0012965-.0968461-6.074164l.1459718-.2320988c1.1925977-1.8380578 1.1197498-2.5522342.009706-4.1988693-.1156676-.1715808-.1710146-.3661218-.1709179-.5585685l-11.7310525.0008238c.9993726 2.1089303 1.0453648 3.6786701-.13202903 5.6132246l-.14597177.2320988c-1.19259773 1.8380578-1.11974987 2.5522342-.00970603 4.1988692.30871413.4579454.18773823 1.0794458-.27020718 1.38816-.45794544.3087141-1.07944582.1877382-1.38815996-.2702072-1.47513354-2.1882078-1.67212999-3.7235762-.16601074-6.1588416l.15630471-.2465837c.97080668-1.4962285.91066394-2.444439-.04912566-4.2980316-.07618448-.1471312-.11225951-.304433-.11219235-.4594178l-3.46534723-.0003962c-1.1045695 0-2-.8954305-2-2 0-.362828.0987005-.7188215.2855298-1.0298504l4.16870184-6.93995439.00569084-4.03583552c.00311195-2.20693445 1.79305938-3.99435969 3.99999606-3.99435969z" fill="#202327"/></g></svg>