<svg height="32" viewBox="0 0 32 32" width="32" xmlns="http://www.w3.org/2000/svg"><g fill="none" fill-rule="evenodd"><path d="m0 0h32v32h-32z"/><path d="m21.4686484 0c3.0276048 0 5.5808678 2.25563007 5.9542077 5.26012804l1.739645 13.99999996c.4016237 3.2321142-1.8467784 6.1827442-5.0462718 6.6708257l2.3858215 4.1312241c.2761424.4782926.1122672 1.0898831-.3660254 1.3660254-.4782926.2761424-1.089883.1122672-1.3660254-.3660254l-1.1912934-2.0621778h-15.156l-1.19065579 2.0621778c-.27614238.4782926-.88773278.6421678-1.36602541.3660254-.47829262-.2761423-.64216777-.8877328-.3660254-1.3660254l2.38498913-4.1302424c-2.88347315-.4370861-5.09328253-2.9264464-5.09328253-5.9319354 0-.2473321.01529327-.4944275.04579228-.739872l1.73964497-13.99999996c.37333999-3.00449797 2.92660292-5.26012804 5.95420775-5.26012804zm.3780582 26h-11.692l-.577 1h12.847zm-11.3467066-7c-.82842712 0-1.5.6715729-1.5 1.5s.67157288 1.5 1.5 1.5c.8284271 0 1.5-.6715729 1.5-1.5s-.6715729-1.5-1.5-1.5zm11 0c-.8284271 0-1.5.6715729-1.5 1.5s.6715729 1.5 1.5 1.5 1.5-.6715729 1.5-1.5-.6715729-1.5-1.5-1.5zm-.4049494-11h-10.1901012c-1.00715847 0-1.85719318.74891978-1.98406749 1.74805493l-.63492063 4.99999997c-.0106111.0835624-.01593254.1677117-.01593254.2519451 0 1.1045695.8954305 2 1.99999996 2h11.4599426c.0842334 0 .1683827-.0053214.251945-.0159325 1.0957702-.1391455 1.8712678-1.1402424 1.7321224-2.2360126l-.6349206-4.99999997c-.1268743-.99913515-.976909-1.74805493-1.9840675-1.74805493zm-2.0950506-4h-6c-.5522847 0-1 .44771525-1 1s.4477153 1 1 1h6c.5522847 0 1-.44771525 1-1s-.4477153-1-1-1z" fill="#202327"/></g></svg>