<svg height="32" viewBox="0 0 32 32" width="32" xmlns="http://www.w3.org/2000/svg"><g fill="none" fill-rule="evenodd"><path d="m0 0h32v32h-32z"/><path d="m18 0c1.1045695 0 2 .8954305 2 2l-.000552 5h2.000552c1.1045695 0 2 .8954305 2 2l-.000552 4.941 4.071476 1.503602c1.5542531.5739889 2.3489143 2.2992699 1.7749254 3.853523-.0138542.0375146-.0284572.0747484-.0438001.1116792l-4.462441 10.7411737c-.4650845 1.1194666-1.558191 1.8490221-2.7704241 1.8490221h-13.13836837c-1.21223309 0-2.3053396-.7295555-2.77042412-1.8490221l-4.46058391-10.7367037c-.63566757-1.530063.08938318-3.2857345 1.61944617-3.921402.03836017-.0159368.0770472-.0310752.11603607-.0454053l4.064158-1.4944669.00055196-4.953c0-1.1045695.8954305-2 2-2h1.999448l.000552-5c0-1.1045695.8954305-2 2-2zm-.235486 16.5723245c-1.1153821-.4119129-2.3410495-.4128614-3.4570678-.0026753l-7.66791595 2.8182983c-.51837988.1905276-.78415672.7652106-.59362918 1.2835905s.76521055.7841567 1.28359043.5936292l7.6679159-2.8182984c.669611-.2461116 1.4050115-.2455425 2.0742407.0016052l7.603749 2.8080802c.5180844.1913296 1.0931781-.0735574 1.2845077-.5916418s-.0735574-1.0931781-.5916418-1.2845077z" fill="#202327"/></g></svg>