<svg height="33" viewBox="0 0 32 33" width="32" xmlns="http://www.w3.org/2000/svg"><g fill="none" fill-rule="evenodd"><path d="m0 0h32v32h-32z"/><path d="m20 0-.0002898 6.993 4.0002898.00030961-.0002898 6.79769039 7.3547821 2.6358809-6.6721244 15.5831843h-17.30223952l-6.67275834-15.5846649 7.29234018-2.6014003.00028978-6.83069039 3.9997102-.00030961.0002898-6.993zm-3.9078934 18.1052656-10.83839638 3.8637344 3.44355424 8.0410652h14.66696834l3.4514774-8.0630652zm-.028889-5.0332004-12.68186749 4.523 1.08336011 2.5329348 11.62897828-4.1472935 11.5110217 4.1242935 1.0754369-2.5109348zm5.9367824-4.08066713h-12l-.00028978 4.11960193 6.06570608-2.1627972 5.9342939 2.1257972zm-4-6.99330961h-4v4.99522115h4z" fill="#000" fill-rule="nonzero"/></g></svg>