<svg height="32" viewBox="0 0 32 32" width="32" xmlns="http://www.w3.org/2000/svg"><g fill="none" fill-rule="evenodd"><path d="m0 0h32v32h-32z"/><path d="m16.0275044 1.99992198c1.2342801 0 2.4684964.0450412 3.7026018.13511847 4.1421858.30234233 7.5395913 3.39983589 8.2223739 7.49653117l.7955491 4.76958508c1.333183.6487584 2.2519708 2.0165037 2.2519708 3.5988433v1c0 2.209139-1.790861 4-4 4l-.501-.000078.9845639 3.6731106c.1429418.5334661-.1736407 1.0818031-.7071068 1.2247449s-1.081803-.1736407-1.2247448-.7071068l-1.0352762-3.8637033c-.0293541-.1095511-.0393294-.2197293-.0320271-.326895h-16.96881796c.00730227.1071657-.002673.2173439-.03202712.326895l-1.03527618 3.8637033c-.14294182.5334661-.69127877.8500486-1.22474488.7071068-.5334661-.1429418-.85004859-.6912788-.70710678-1.2247449l.98356392-3.6731106-.5.000078c-2.14219539 0-3.89107888-1.6839685-3.99510469-3.8003597l-.00489531-.1996403v-1c0-1.5823396.91878778-2.9500849 2.25197085-3.5988433l.79511746-4.76605898c.68234895-4.09409196 4.07600567-7.19061094 8.21531939-7.49601221 1.2574036-.09277206 2.512452-.13916353 3.7650967-.13916353zm-11.0275044 14.00007802c-.11481063 0-.22736175.0096741-.33688268.0282516l-.3546722.1278276c-.78617729.2897144-1.30844512 1.0387654-1.30844512 1.8766234v.9672974c0 1.1045695.8954305 2 2 2s2-.8954305 2-2v-1c0-1.1045695-.8954305-2-2-2zm10.999588-2c-2.7537052 0-5.5088934.3591987-8.26723102 1.07862.7804731.7307409 1.26764302 1.7691682 1.26764302 2.92138v1c0 .7290322-.1950335 1.4125119-.53577067 2.0011092h15.07154137c-.3407372-.5885973-.5357707-1.272077-.5357707-2.0011092v-1c0-1.1522118.4871699-2.1906391 1.2667647-2.9205366-2.7581066-.720255-5.5134348-1.0794634-8.2671767-1.0794634zm11.000412 2c-1.1045695 0-2 .8954305-2 2v1c0 1.1045695.8954305 2 2 2l.1492623-.0054857c1.0348599-.0763492 1.8507377-.9401525 1.8507377-1.9945143v-.9672089c0-.8378855-.5222875-1.5869524-1.3084978-1.8766521-.118594-.0436992-.2371808-.0867332-.3557605-.1291022-.1090684-.0174218-.2212822-.0270368-.3357417-.0270368zm-10.9724956-12.00007802c-1.2034584 0-2.4094206.04457705-3.6179353.13374206-3.21946631.23753433-5.85897711 2.645938-6.38969295 5.83023173l-.61848802 3.70547583c3.52832992-1.1123104 7.06204607-1.6693716 10.59819987-1.6693716 3.5359864 0 7.0696822.5570084 10.5981402 1.6692122l-.618036-3.70884261c-.5310531-3.18631846-3.1734799-5.59548044-6.3951796-5.83063555-1.1856855-.08654311-2.3713388-.12981206-3.5570082-.12981206z" fill="#000" fill-rule="nonzero"/></g></svg>