<svg height="32" viewBox="0 0 32 32" width="32" xmlns="http://www.w3.org/2000/svg"><g fill="none" fill-rule="evenodd"><path d="m0 0h32v32h-32z"/><path d="m4.16987298 3.97205081 7.79422862 4.5-2.50122862 4.33099999 3.53700002 2.041 15.9546097-9.2100762 1 1.7320508-14.9546097 8.6330254 14.9546097 8.6349238-1 1.7320508-15.9546097-9.2119746-3.53400002 2.04 2.49822862 4.328127-7.79422862 4.5-3.5-6.0621778 7.79422864-4.5.00177136.0020508 2.53400002-1.463-7.16012704-4.1330254.00012702-.0019746-3.17-1.8298222zm3.563 16.22199999-2.89312702 1.6719746-.00287298-.0039746-1.43536584.8291005 1.5 2.5980762 4.33012702-2.5zm-2.83156384-13.48916402-1.5 2.59807621 4.33012702 2.50000001 1.5-2.59807622z" fill="#000" fill-rule="nonzero"/></g></svg>