<svg height="32" viewBox="0 0 32 32" width="32" xmlns="http://www.w3.org/2000/svg"><g fill="none" fill-rule="evenodd"><path d="m0 0h32v32h-32z"/><path d="m16 .16 8 5.30378363v4.53521637l8 .001v22l-8-.001v.0016161h-16v-.0016161l-8 .001v-22l8-.001v-4.53521637zm.0005947 2.65849739-6 3.977v23.46400001l1.9994053-.0004974v-7.259h8v7.259l2.0005947.0004974v-23.46300001zm1.9994053 22.18150261h-4v5h4zm12-13h-6v18h6zm-22 .001h-6v17.999h6zm20 13.999v2h-2v-2zm-22 0v2h-2v-2zm22-4v2h-2v-2zm-22 0v2h-2v-2zm13-3v2h-6v-2zm9-1v2h-2v-2zm-22 0v2h-2v-2zm13-3v2h-6v-2zm9-1v2h-2v-2zm-22 0v2h-2v-2zm13-7v6h-6v-6zm-2 2h-2v2h2z" fill="#000" fill-rule="nonzero"/></g></svg>