<svg height="32" viewBox="0 0 32 32" width="32" xmlns="http://www.w3.org/2000/svg"><g fill="none" fill-rule="evenodd"><path d="m0 0h32v32h-32z"/><path d="m20.7029382.00036851c3.5302629 0 6.5080699 2.62875509 6.9459451 6.13175685l1.5 12.00000004c.4389805 3.5118437-1.8043714 6.7407471-5.1299807 7.629471l2.4831482 4.3005814c.2761424.4782926.1122672 1.0898831-.3660254 1.3660254-.4782926.2761424-1.089883.1122672-1.3660254-.3660254l-1.1916752-2.0628093h-15.15599999l-1.190274 2.0628093c-.27614238.4782926-.88773278.6421678-1.36602541.3660254-.47829262-.2761423-.64216777-.8877328-.3660254-1.3660254l2.48234519-4.2991322c-2.98663129-.7990996-5.18602038-3.5240409-5.18602038-6.7626771 0-.2902552.01805314-.5802294.05405486-.8682431l1.5-12.00000004c.43787522-3.50300176 3.41568225-6.13175685 6.94594513-6.13175685zm1.1443866 25.99999999h-11.694l-.57699999.999h12.84799999zm-1.1443866-23.99999999h-9.4066134c-2.52161634 0-4.64862136 1.87768221-4.96138938 4.37982632l-1.5 11.99999997c-.02571551.2057242-.03861061.4128486-.03861061.6201737 0 2.7614238 2.23857625 5 5 5h12.40661339c.2073251 0 .4144495-.0128951.6201737-.0386106 2.7400997-.3425125 4.6837281-2.8414634 4.3412157-5.5815631l-1.5-11.99999997c-.312768-2.50214411-2.4397731-4.37982632-4.9613894-4.37982632zm-10.2029382 16.99963149c.8284271 0 1.5.6715729 1.5 1.5s-.6715729 1.5-1.5 1.5c-.82842712 0-1.5-.6715729-1.5-1.5s.67157288-1.5 1.5-1.5zm11 0c.8284271 0 1.5.6715729 1.5 1.5s-.6715729 1.5-1.5 1.5-1.5-.6715729-1.5-1.5.6715729-1.5 1.5-1.5zm-1.2345908-11c1.4929511 0 2.7587133 1.09778972 2.9698485 2.5757359l.4285714 3c.2343146 1.6402021-.9053824 3.159798-2.5455844 3.3941126-.1405299.0200757-.2823075.0301515-.4242641.0301515h-9.3879612c-1.65685427 0-3.00000003-1.3431458-3.00000003-3 0-.1419566.01007583-.2837342.03015152-.4242641l.42857143-3c.21113518-1.47794618 1.47689738-2.5757359 2.96984848-2.5757359zm0 2h-8.5308184c-.4976504 0-.9195711.3659299-.9899495.8585786l-.4285714 3c-.0066919.0468433-.0100505.0941025-.0100505.1414214 0 .5522847.4477152 1 1 1h9.3879612c.0473189 0 .0945781-.0033586.1414214-.0100505.546734-.0781049.926633-.5846368.8485281-1.1313709l-.4285714-3c-.0703784-.4926487-.4922991-.8585786-.9899495-.8585786zm-1.2654092-6c.5522847 0 1 .44771525 1 1s-.4477153 1-1 1h-6c-.5522847 0-1-.44771525-1-1s.4477153-1 1-1z" fill="#000"/></g></svg>