<svg height="32" viewBox="0 0 32 32" width="32" xmlns="http://www.w3.org/2000/svg"><g fill="none" fill-rule="evenodd"><path d="m0 0h32v32h-32z"/><path d="m16 1c6.627417 0 12 5.372583 12 12 0 4.5898174-2.5768276 8.5777845-6.3627123 10.5961309 1.2735141.6093533 2.3223607 1.6551196 2.9246338 2.9935044.7087223 1.5749385.0065154 3.4262113-1.5684231 4.1349336-.4034518.1815533-.8408358.2754311-1.2832552.2754311h-11.4204864c-1.72705482 0-3.1271094-1.4000546-3.1271094-3.1271094 0-.4424195.09387778-.8798035.27543109-1.2832553.60227316-1.3383848 1.6511197-2.3841511 2.92416231-2.993513-3.7854132-2.0183378-6.3622408-6.0063049-6.3622408-10.5961223 0-6.627417 5.372583-12 12-12zm3.0102432 24h-6.0204864c-1.6086279 0-3.0677112.9434222-3.72783529 2.4103647-.06543758.1454168-.09927411.3030639-.09927411.4625259 0 .6224853.50462408 1.1271094 1.1271094 1.1271094h11.4204864c.159462 0 .317109-.0338365.4625259-.0992741.5676577-.255446.8207554-.9227034.5653094-1.4903612-.6601241-1.4669425-2.1192074-2.4103647-3.7278353-2.4103647zm-3.0102432-22c-5.5228475 0-10 4.4771525-10 10s4.4771525 10 10 10 10-4.4771525 10-10-4.4771525-10-10-10zm0 6c2.209139 0 4 1.790861 4 4s-1.790861 4-4 4-4-1.790861-4-4 1.790861-4 4-4zm0 2c-1.1045695 0-2 .8954305-2 2s.8954305 2 2 2 2-.8954305 2-2-.8954305-2-2-2z" fill="#000" fill-rule="nonzero"/></g></svg>