<svg height="32" viewBox="0 0 32 32" width="32" xmlns="http://www.w3.org/2000/svg"><g fill="none" fill-rule="evenodd"><path d="m0 0h32v32h-32z"/><path d="m0 32v-19c0-1.6568542 1.34314575-3 3-3h4c.35097203 0 .6878673.0602698 1.00090072.1710242l-.00090072-2.97642476c0-1.31480286.6278904-2.54812284 1.68471243-3.30915951l4.61558467-3.32376612c1.0453204-.75275412 2.4465928-.74851958 3.4874744.0105389l4.5469067 3.31581248c1.0455062.76243099 1.6653218 1.988836 1.6653218 3.29510765l.0000889 2.98754146c.3127538-.1105315.6493089-.1706743.9999111-.1706743h4c1.6568542 0 3 1.3431458 3 3v19zm16.6208807-29.80886612c-.3469316-.25354521-.8139835-.25495966-1.1623946-.00352026l-4.6152001 3.33067225c-.528367.38130898-.842286.99925027-.842286 1.65801765v22.82369648h1.999v-2c0-2.209139 1.790861-4 4-4s4 1.790861 4 4v2l2-.000091.0000001-22.8350959c0-.5354942-.2074417-1.04420064-.5691674-1.42071131l-.1262166-.12046282-.1372075-.10980299zm-.6208807 23.80886612c-1.1045695 0-2 .8954305-2 2v2h4v-2c0-1.1045695-.8954305-2-2-2zm13-14h-4c-.5522847 0-1 .4477153-1 1v17h6v-17c0-.5128358-.3860402-.9355072-.8833789-.9932723zm-22 0h-4c-.55228475 0-1 .4477153-1 1v17h6v-17c0-.5128358-.38604019-.9355072-.88337887-.9932723zm20 14c.5522847 0 1 .4477153 1 1s-.4477153 1-1 1-1-.4477153-1-1 .4477153-1 1-1zm-22 0c.55228475 0 1 .4477153 1 1s-.44771525 1-1 1-1-.4477153-1-1 .44771525-1 1-1zm22-4c.5522847 0 1 .4477153 1 1s-.4477153 1-1 1-1-.4477153-1-1 .4477153-1 1-1zm-22 0c.55228475 0 1 .4477153 1 1s-.44771525 1-1 1-1-.4477153-1-1 .44771525-1 1-1zm13-2c.5522847 0 1 .4477153 1 1s-.4477153 1-1 1h-4c-.5522847 0-1-.4477153-1-1s.4477153-1 1-1zm9-2c.5522847 0 1 .4477153 1 1s-.4477153 1-1 1-1-.4477153-1-1 .4477153-1 1-1zm-22 0c.55228475 0 1 .4477153 1 1s-.44771525 1-1 1-1-.4477153-1-1 .44771525-1 1-1zm13-2c.5522847 0 1 .4477153 1 1s-.4477153 1-1 1h-4c-.5522847 0-1-.4477153-1-1s.4477153-1 1-1zm9-2c.5522847 0 1 .4477153 1 1s-.4477153 1-1 1-1-.4477153-1-1 .4477153-1 1-1zm-22 0c.55228475 0 1 .4477153 1 1s-.44771525 1-1 1-1-.4477153-1-1 .44771525-1 1-1zm11-7.5c1.9329966 0 3.5 1.56700338 3.5 3.5 0 1.9329966-1.5670034 3.5-3.5 3.5s-3.5-1.5670034-3.5-3.5c0-1.93299662 1.5670034-3.5 3.5-3.5zm0 2c-.8284271 0-1.5.67157288-1.5 1.5 0 .8284271.6715729 1.5 1.5 1.5s1.5-.6715729 1.5-1.5c0-.82842712-.6715729-1.5-1.5-1.5z" fill="#000" fill-rule="nonzero"/></g></svg>