<svg height="32" viewBox="0 0 32 32" width="32" xmlns="http://www.w3.org/2000/svg"><g fill="none" fill-rule="evenodd"><path d="m0 0h32v32h-32z"/><path d="m16 1c6.627417 0 12 5.372583 12 12 0 4.6267479-2.6184617 8.6419214-6.4543322 10.6444675 1.3165021.6639993 2.373442 1.8064919 2.9143045 3.2487919l.0400277.1067406c.5741004 1.5309344-.2015668 3.2374022-1.7325012 3.8115026-.3323961.1246485-.6845014.1884974-1.0395007.1884974h-11.4559962c-1.63503864 0-2.96049933-1.3254607-2.96049933-2.9604993 0-.3549992.06384887-.7071045.18849743-1.0395007l.04002774-.1067406c.54086248-1.4423 1.59780241-2.5847926 2.91426186-3.2496833-3.83582795-2.0016547-6.4542896-6.0168282-6.4542896-10.6435761 0-6.627417 5.372583-12 12-12zm0 8c-2.209139 0-4 1.790861-4 4s1.790861 4 4 4 4-1.790861 4-4-1.790861-4-4-4zm0 2c1.1045695 0 2 .8954305 2 2s-.8954305 2-2 2-2-.8954305-2-2 .8954305-2 2-2z" fill="#202327"/></g></svg>