<svg height="32" viewBox="0 0 32 32" width="32" xmlns="http://www.w3.org/2000/svg"><g fill="none" fill-rule="evenodd"><path d="m0 0h32v32h-32z"/><path d="m16.0112963 2.41055728c3.1082838 0 6.2158918.28564184 9.32211.85670555l.8471154.16282106.6657528.13352886 1.9781915 10.88145475c.52328.1997129 1.0464301.4116426 1.5694415.6357824l.6060925.2597448v7.6594053l-4.501-.0004427 1.243383 4.6394011-1.9318517.5176381-1.3825313-5.1570392h-16.857l-1.38153131 5.1570392-1.93185165-.5176381 1.24238296-4.6394011-4.5.0004427v-7.6593748l.60605328-.2597585c.51129477-.2191444 1.02272519-.4266168 1.53428308-.6224112l1.98140343-10.89635252.66753682-.13242971c3.42406496-.6792853 6.83169219-1.01911599 10.22201969-1.01911599zm-9.01055447 12.86730292c-1.1399077.3235615-2.28039188.708638-3.42155883 1.1553089l-.579183.2318309v4.335h4zm8.99884617-1.2778602c-2.3314478 0-4.6641407.2574982-6.99899367.7731755l-.00059433 6.2268245h14l-.000733-6.2267214c-2.1379728-.4721962-4.2740733-.727945-6.4090034-.7677694zm9.0000384 1.2780961.0003736 5.7219039h4v-4.336l-.5792845-.2308171c-1.1410274-.4465682-2.2813551-.8315708-3.4210891-1.1550868zm-8.9883301-10.86753882c-2.9871028 0-5.9898903.27463301-9.00902648.82418871l-.15739991.02981129-1.53325318 8.43324032c3.5579701-1.1311851 7.12154077-1.6977976 10.68797127-1.6977976 3.5553852 0 7.1080767.5631083 10.6553609 1.6873029l-1.532079-8.42474562-.1504939-.02815c-2.7160654-.49936969-5.4314008-.77166226-8.1465425-.81704297z" fill="#000" fill-rule="nonzero"/></g></svg>