<svg height="32" viewBox="0 0 32 32" width="32" xmlns="http://www.w3.org/2000/svg"><g fill="none" fill-rule="evenodd"><path d="m0 0h32v32h-32z"/><path d="m9.0669873 4.49c2.1523168 1.24264069 2.889755 3.99479751 1.6471143 6.1471143-.4628274.8016405-1.13505859 1.4070056-1.90770779 1.7868924l4.19284209 2.4203562 15.0892214-8.7103883c.4782926-.27614238 1.089883-.11226722 1.3660254.3660254.2761423.47829262.1122672 1.08988303-.3660254 1.3660254l-14.0892214 8.1333375 14.0892214 8.1346117c.4782926.2761424.6421677.8877328.3660254 1.3660254-.2761424.4782926-.8877328.6421678-1.3660254.3660254l-15.0892214-8.7116625-4.18885169 2.4178235c.77097322.3800077 1.44168699.9846677 1.90371739 1.7849279 1.2426407 2.1523168.5052025 4.9044736-1.6471143 6.1471143-2.15231681 1.2426407-4.90447363.5052025-6.14711432-1.6471143s-.50520249-4.9044736 1.64711432-6.1471143l.13044953-.0711608c.00276747-.0016329.00554566-.0032544.00833454-.0048646l6.29346453-3.6346117-6.29346453-3.6333375-.05747178-.0359468c-.02719579-.0149722-.05430128-.0302551-.08131229-.04585-2.15231681-1.2426407-2.88975501-3.99479748-1.64711432-6.14711428 1.24264069-2.15231681 3.99479751-2.88975501 6.14711432-1.64711432z" fill="#202327"/></g></svg>