<svg height="32" viewBox="0 0 32 32" width="32" xmlns="http://www.w3.org/2000/svg"><g fill="none" fill-rule="evenodd"><path d="m0 0h32v32h-32z"/><path d="m26.8827822 0 3.25 26h-5.9765644l2.845833 4.9282032-1.7320508 1-1.6907822-2.9282032h-15.15800002l-1.68916697 2.9282032-1.73205081-1 2.84421778-4.9282032h-5.977l3.25-26zm-5.0355644 26h-11.694l-.57700002 1h12.84800002zm3.2687822-24h-18.233l-2.75 22h4.86521778.00178222.00121778 13.99800002.002833.000167 4.8637822zm-13.116 17v3h-3v-3zm11 0v3h-3v-3zm-.1327046-11 1.2857143 9h-16.30601939l1.28571429-9zm-1.7342954 2h-10.267l-.714 5h11.695zm-1.133-6v2h-8v-2z" fill="#000"/></g></svg>