<svg height="32" viewBox="0 0 32 32" width="32" xmlns="http://www.w3.org/2000/svg"><g fill="none" fill-rule="evenodd"><path d="m0 0h32v32h-32z"/><path d="m16.44769 1.81163555c.1931499.09670361.3497952.2533489.4464988.44649881l3.8157728 7.62139263c.1467639.29313741.4278859.49572441.7523987.54220671l8.5084136 1.2187218c.5467049.0783085.9264152.584982.8481067 1.1316869-.0316299.2208213-.1361864.4247266-.2970405.5792856l-6.1383271 5.8981019c-.2397734.2303897-.3493424.5648941-.2923421.8924939l1.4515597 8.3426061c.0946716.5441101-.2696702 1.0619449-.8137802 1.1566166-.2154934.0374944-.4373368.0033007-.6315385-.0973418l-7.6372916-3.957929c-.2885253-.1495246-.6317153-.1495246-.9202406 0l-7.63729157 3.957929c-.49034963.2541174-1.09385945.0626134-1.3479769-.4277363-.10064257-.1942017-.13483627-.4160451-.0973418-.6315385l1.45155972-8.3426061c.05700026-.3275998-.05256879-.6621042-.29234213-.8924939l-6.13832708-5.8981019c-.39823914-.3826539-.41087345-1.0156928-.02821951-1.413932.15455902-.1608541.35846426-.2654106.57928565-.2970405l8.50841362-1.2187218c.3245128-.0464823.6056348-.2490693.7523987-.54220671l3.8157728-7.62139263c.2472523-.49384685.848032-.69375117 1.3418788-.44649881zm-.44769 3.12736445-2.921584 5.835907c-.410939.8207847-1.1730003 1.4049311-2.0643049 1.5925449l-.1928912.0340753-6.4802199.9274728 4.6611995 4.4783784c.67136534.6450913 1.0024635 1.5622687.90459608 2.4807444l-.02756971.1967374-1.10622587 6.3551398 5.846639-3.0297375c.8037492-.4165327 1.7489012-.4462851 2.5728509-.089257l.1878711.089257 5.845639 3.0297375-1.1052259-6.3551398c-.1596007-.9172796.1160997-1.8526029.7384029-2.535182l.1386235-.1422998 4.6601995-4.4783784-6.4792199-.9274728c-.9086359-.1301505-1.703877-.6682546-2.1638443-1.454418l-.0933518-.1722022z" fill="#000" fill-rule="nonzero"/></g></svg>