<svg height="32" viewBox="0 0 32 32" width="32" xmlns="http://www.w3.org/2000/svg"><g fill="none" fill-rule="evenodd"><path d="m0 0h32v32h-32z"/><path d="m22.0092457 0 7.9907543 10.0183757v21.9816243h-28v-32zm-.9632457 2h-17.046v28h24v-19.282zm-6.046 9c2.7614237 0 5 2.2385763 5 5 0 1.0191072-.3048917 1.9670032-.8284349 2.7574478l3.5355417 3.5354454-1.4142136 1.4142136-3.5354454-3.5355417c-.7904446.5235432-1.7383406.8284349-2.7574478.8284349-2.7614237 0-5-2.2385763-5-5s2.2385763-5 5-5zm0 2c-1.6568542 0-3 1.3431458-3 3s1.3431458 3 3 3 3-1.3431458 3-3-1.3431458-3-3-3z" fill="#000" fill-rule="nonzero"/></g></svg>