<svg height="32" viewBox="0 0 32 32" width="32" xmlns="http://www.w3.org/2000/svg"><g fill="none" fill-rule="evenodd"><path d="m0 0h32v32h-32z"/><path d="m17 0c1.6568542 0 3 1.34314575 3 3l-.0001196 4h1.0001196c1.5976809 0 2.9036609 1.24891996 2.9949073 2.82372721l.0050927.17627279-.0001196 3.711 3.2098976 1.149864c2.0148794.7213206 3.0937112 2.8926738 2.482228 4.9185961l-.0644778.1955494c-.0274652.0767191-.0572684.152581-.0893677.2274796l-3.9644774 9.2504472c-.6303152 1.4707354-2.0764677 2.4243229-3.6765802 2.4243229h-12.04362301c-1.60011243 0-3.04626495-.9535875-3.67658012-2.4243229l-3.96257378-9.2460055c-.87022249-2.0305191.07038379-4.3820348 2.10090292-5.2522573.07675105-.0328933.15451328-.0633752.23317238-.0914008l3.45147913-1.2302727.00011958-3.633c0-1.59768088 1.24891996-2.90366088 2.8237272-2.99490731l.1762728-.00509269h.9998804l.0001196-4c0-1.59768088 1.24892-2.90366088 2.8237272-2.99490731l.1762728-.00509269zm-1.7285184 18.3825505-.2196263.0688813-9.90297488 3.5275682 2.86630941 6.6860978c.29414708.6863431.94363665 1.1474396 1.67940327 1.2058688l.15888679.0062926h12.04362301c.8000563 0 1.5231325-.4767938 1.8382901-1.2121614l2.9074874-6.7860978-9.5729983-3.4260433c-.5798374-.20758-1.2076538-.2310702-1.7984005-.0704062zm1.645147-5.0823028c-.652317-.2335275-1.3653576-.2340663-2.0180268-.0015249l-9.73759896 3.4704779-.05793533.0237629-.14129097.0670998c-.91670628.4796244-1.32355215 1.592115-.90916049 2.5590289l.30726437.7179077 10.02072248-3.5695587c1.0041065-.357756 2.0939474-.3845105 3.1107822-.0803836l.2525958.082925 9.6878995 3.4680173.26799-.6233495.0446839-.1137398c.3722945-1.0399378-.1689373-2.1847783-1.2088751-2.5570728zm4.0833714-4.3002477h-10c-.5128358 0-.9355072.38604019-.9932723.88337887l-.0067277.11662113-.00011958 2.92 4.22746898-1.5052677c1.0041065-.357756 2.0939474-.3845105 3.1107822-.0803836l.2525958.0829251 4.409153 1.5787262.0001196-2.996c0-.51283584-.3860402-.93550716-.8833789-.99327227zm-4-7h-2c-.5522847 0-1 .44771525-1 1v4h4v-4c0-.51283584-.3860402-.93550716-.8833789-.99327227z" fill="#000" fill-rule="nonzero"/></g></svg>