<svg height="32" viewBox="0 0 32 32" width="32" xmlns="http://www.w3.org/2000/svg"><g fill="none" fill-rule="evenodd"><path d="m0 0h32v32h-32z"/><path d="m16.0297119 2c1.5052192 0 3.0103814.06718173 4.5154865.2015452 3.6585414.32660185 6.6246139 3.10258068 7.1924741 6.73151003l.9145258 5.84561327c.056625.0159203.1132501.0319474.1698752.0480814 1.2889437.3672655 2.1779265 1.5449249 2.1779265 2.8851711v2.288079c0 1.6568542-1.3431458 3-3 3h-1.501l.9845639 3.6730326c.1429418.5334661-.1736407 1.0818031-.7071068 1.2247449s-1.081803-.1736407-1.2247448-.7071068l-1.0352762-3.8637033c-.0293541-.1095511-.0393294-.2197293-.0320271-.326895h-16.96881796c.00730227.1071657-.002673.2173439-.03202712.326895l-1.03527618 3.8637033c-.14294182.5334661-.69127877.8500486-1.22474488.7071068-.5334661-.1429418-.85004859-.6912788-.70710678-1.2247449l.98356392-3.6730326h-1.5c-1.65685425 0-3-1.3431458-3-3v-2.2881495c-.00000016-1.3402255.88895275-2.5178731 2.17787095-2.8851525l.16912905-.047698.91463268-5.84150468c.56756202-3.62698403 3.53086023-6.40219704 7.18722532-6.73103425 1.5304372-.13764071 3.0573885-.20646107 4.5808539-.20646107z" fill="#202327"/></g></svg>