<svg height="32" viewBox="0 0 32 32" width="32" xmlns="http://www.w3.org/2000/svg"><g fill="none" fill-rule="evenodd"><path d="m0 0h32v32h-32z"/><path d="m17.8399861.90621586.1766944.11781031 4.5469068 3.26837376c.9840058.7073158 1.5909293 1.81974586 1.6589272 3.02163888l.0063945.22632628-.0011658 2.55996831c.1848-.0490897.376606-.0809824.5736003-.0938606l.1986565-.0064728h4c1.5976809 0 2.9036609 1.24892 2.9949073 2.8237272l.0050927.1762728v19l-7.772-.001.000909.0031819h-15.99999995l-.00090905-.0031819-8.228.001v-19c0-1.5976809 1.24891996-2.9036609 2.82372721-2.9949073l.17627279-.0050927h4c.43796077 0 .85400217.093848 1.22911111.2625309l-.00020206-2.71086327c0-1.21975737.55619357-2.36836879 1.50270749-3.12468275l.18200493-.13713322 4.61558473-3.27621361c.987247-.70076325 2.2919944-.73597147 3.3107799-.10742219zm-1.8399861 23.09378414c-2.209139 0-4 1.790861-4 4v4h8v-4l-.0048953-.1996403c-.1040258-2.1163912-1.8529093-3.8003597-3.9951047-3.8003597zm11 2c-.5522847 0-1 .4477153-1 1s.4477153 1 1 1 1-.4477153 1-1-.4477153-1-1-1zm-22 0c-.55228475 0-1 .4477153-1 1s.44771525 1 1 1 1-.4477153 1-1-.44771525-1-1-1zm22-4c-.5522847 0-1 .4477153-1 1s.4477153 1 1 1 1-.4477153 1-1-.4477153-1-1-1zm-22 0c-.55228475 0-1 .4477153-1 1s.44771525 1 1 1 1-.4477153 1-1-.44771525-1-1-1zm13-3h-4c-.5522847 0-1 .4477153-1 1s.4477153 1 1 1h4c.5522847 0 1-.4477153 1-1s-.4477153-1-1-1zm9-1c-.5522847 0-1 .4477153-1 1s.4477153 1 1 1 1-.4477153 1-1-.4477153-1-1-1zm-22 0c-.55228475 0-1 .4477153-1 1s.44771525 1 1 1 1-.4477153 1-1-.44771525-1-1-1zm13-3h-4c-.5522847 0-1 .4477153-1 1s.4477153 1 1 1h4c.5522847 0 1-.4477153 1-1s-.4477153-1-1-1zm9-1c-.5522847 0-1 .4477153-1 1s.4477153 1 1 1 1-.4477153 1-1-.4477153-1-1-1zm-22 0c-.55228475 0-1 .4477153-1 1s.44771525 1 1 1 1-.4477153 1-1-.44771525-1-1-1zm11-6.5c-1.3807119 0-2.5 1.11928813-2.5 2.5 0 1.3807119 1.1192881 2.5 2.5 2.5s2.5-1.1192881 2.5-2.5c0-1.38071187-1.1192881-2.5-2.5-2.5z" fill="#202327" fill-rule="nonzero"/></g></svg>