<svg height="32" viewBox="0 0 32 32" width="32" xmlns="http://www.w3.org/2000/svg"><g fill="none" fill-rule="evenodd"><path d="m0 0h32v32h-32z"/><path d="m19 2c1.6568542 0 3 1.34314575 3 3h2.2355319c1.4911796 0 2.7560049 1.09525505 2.9691851 2.57111771l1.5531565 10.74663589c1.8941968.7114812 3.2421265 2.5394509 3.2421265 4.6822464 0 2.7614237-2.2385763 5-5 5v1c0 .5522847-.4477153 1-1 1s-1-.4477153-1-1v-1h-18v1c0 .5522847-.44771525 1-1 1s-1-.4477153-1-1v-1c-2.76142375 0-5-2.2385763-5-5 0-2.1431721 1.34840348-3.9714076 3.24312507-4.6826213l1.55215793-10.74626099c.21318016-1.47586266 1.47800554-2.57111771 2.96918507-2.57111771h2.23553193c0-1.65685425 1.3431458-3 3-3zm5.5 19.5c-.8284271 0-1.5.6715729-1.5 1.5s.6715729 1.5 1.5 1.5 1.5-.6715729 1.5-1.5-.6715729-1.5-1.5-1.5zm-17 0c-.82842712 0-1.5.6715729-1.5 1.5s.67157288 1.5 1.5 1.5 1.5-.6715729 1.5-1.5-.67157288-1.5-1.5-1.5zm12.5.5h-8c-.5522847 0-1 .4477153-1 1s.4477153 1 1 1h8c.5522847 0 1-.4477153 1-1s-.4477153-1-1-1z" fill="#202327"/></g></svg>