<svg height="32" viewBox="0 0 32 32" width="32" xmlns="http://www.w3.org/2000/svg"><g fill="none" fill-rule="evenodd"><path d="m0 0h32v32h-32z"/><path d="m16 0c8.836556 0 16 7.163444 16 16s-7.163444 16-16 16-16-7.163444-16-16 7.163444-16 16-16zm0 2c-7.7319865 0-14 6.2680135-14 14s6.2680135 14 14 14 14-6.2680135 14-14-6.2680135-14-14-14zm.7781746 7.60710678c.3905243.39052429.3905243 1.02368932 0 1.41421352l-3.9782279 3.9778933 9.442694.0007864c.5522847 0 1 .4477153 1 1s-.4477153 1-1 1l-9.428694-.0007864 3.9642279 3.9647474c.3905243.3905243.3905243 1.0236893 0 1.4142136s-1.0236893.3905243-1.4142136 0l-5.65685422-5.6568543c-.18024198-.1802419-.27729535-.4121707-.29116012-.6480754v-.1612085c.01386477-.2359046.11091814-.4678334.29116012-.6480754l5.65685422-5.65685422c.3905243-.39052429 1.0236893-.39052429 1.4142136 0z" fill="#000" fill-rule="nonzero"/></g></svg>