<svg height="32" viewBox="0 0 32 32" width="32" xmlns="http://www.w3.org/2000/svg"><g fill="none" fill-rule="evenodd"><path d="m0 0h32v32h-32z"/><path d="m10 2c1.1045695 0 2 .8954305 2 2v4c1.1045695 0 2 .8954305 2 2v3h4v-3c0-1.1045695.8954305-2 2-2v-4c0-1.1045695.8954305-2 2-2h3c1.1045695 0 2 .8954305 2 2v4c1.1045695 0 2 .8954305 2 2v17c0 1.5976809-1.24892 2.9036609-2.8237272 2.9949073l-.1762728.0050927h-5c-1.6568542 0-3-1.3431458-3-3v-6h-4v6c0 1.5976809-1.24892 2.9036609-2.8237272 2.9949073l-.1762728.0050927h-5c-1.65685425 0-3-1.3431458-3-3v-17c0-1.1045695.8954305-2 2-2v-4c0-1.1045695.8954305-2 2-2zm2 24h-7v1c0 .5128358.38604019.9355072.88337887.9932723l.11662113.0067277h5c.5128358 0 .9355072-.3860402.9932723-.8833789l.0067277-.1166211zm15 0h-7v1c0 .5128358.3860402.9355072.8833789.9932723l.1166211.0067277h5c.5128358 0 .9355072-.3860402.9932723-.8833789l.0067277-.1166211zm-7-2h7v-14h-7zm-8-14h-7v14h7zm6 5h-4v4h4zm-8-11h-3v4h3zm15 0h-3v4h3z" fill="#000" fill-rule="nonzero"/></g></svg>