<svg height="32" viewBox="0 0 32 32" width="32" xmlns="http://www.w3.org/2000/svg"><g fill="none" fill-rule="evenodd"><path d="m0 0h32v32h-32z"/><path d="m18 2c1.850101 0 3.4169566 1.25939016 3.8697301 2.9996047l1.556513.0003953c1.9742844 0 3.6532827 1.44044451 3.9534868 3.39177126l1.5369629 9.98877424c1.8102779.7519658 3.0833072 2.5370442 3.0833072 4.6194545 0 2.7614237-2.2385763 5-5 5v1c0 .5522847-.4477153 1-1 1s-1-.4477153-1-1v-1h-18v1c0 .5522847-.44771525 1-1 1s-1-.4477153-1-1v-1l-.21688962-.0046195c-2.66080367-.1135624-4.78311038-2.3066258-4.78311038-4.9953805 0-2.0824103 1.27302931-3.8674887 3.08330722-4.6194545l1.53696286-9.98877424c.30020412-1.95132675 1.97920247-3.39177126 3.95348679-3.39177126l1.55245663-.00076134c.4443075-1.7248409 2.0102213-2.99923866 3.8737865-2.99923866zm9 18h-22c-1.65685425 0-3 1.3431458-3 3s1.34314575 3 3 3h22c1.6568542 0 3-1.3431458 3-3s-1.3431458-3-3-3zm-2.5 1.5c.8284271 0 1.5.6715729 1.5 1.5s-.6715729 1.5-1.5 1.5-1.5-.6715729-1.5-1.5.6715729-1.5 1.5-1.5zm-17 0c.82842712 0 1.5.6715729 1.5 1.5s-.67157288 1.5-1.5 1.5-1.5-.6715729-1.5-1.5.67157288-1.5 1.5-1.5zm12.5.5c.5522847 0 1 .4477153 1 1s-.4477153 1-1 1h-8c-.5522847 0-1-.4477153-1-1s.4477153-1 1-1zm-10.001-15.001-1.42524313.001c-.98714216 0-1.82664134.72022226-1.9767434 1.69588563l-1.43201347 9.30411437h21.669l-1.4310135-9.30411437c-.141763-.92145985-.8984513-1.61507254-1.8136796-1.6892966l-.1630638-.00658903-1.3972431-.001.0003082.001h-12.0293082zm8.001-2.999h-4c-.7029079 0-1.3211231.36261235-1.6777876.91097906l-.0542124.08802094h7.462l-.0424679-.0732854c-.3004166-.47061914-.7922878-.80634987-1.3636572-.89956309l-.1736838-.02058082z" fill="#000" fill-rule="nonzero"/></g></svg>