<svg height="32" viewBox="0 0 32 32" width="32" xmlns="http://www.w3.org/2000/svg"><g fill="none" fill-rule="evenodd"><path d="m0 0h32v32h-32z"/><path d="m28 2c2.209139 0 4 1.790861 4 4v8c0 2.209139-1.790861 4-4 4l-2-.001v13.001c0 .5522847-.4477153 1-1 1s-1-.4477153-1-1v-13.001h-16v13.001c0 .5522847-.44771525 1-1 1s-1-.4477153-1-1v-13.001l-2 .001c-2.14219539 0-3.89107888-1.6839685-3.99510469-3.8003597l-.00489531-.1996403v-8c0-2.209139 1.790861-4 4-4zm0 2h-24c-1.1045695 0-2 .8954305-2 2v8c0 1.1045695.8954305 2 2 2h24c1.1045695 0 2-.8954305 2-2v-8c0-1.1045695-.8954305-2-2-2z" fill="#000" fill-rule="nonzero"/></g></svg>