<svg height="32" viewBox="0 0 32 32" width="32" xmlns="http://www.w3.org/2000/svg"><g fill="none" fill-rule="evenodd"><path d="m0 0h32v32h-32z"/><path d="m31.6077652 3.228125c-.2761173-.33233799-.7399183-.43984565-1.1340909-.2628788l-.0606061.0257576c.2248535-.40533218.4090829-.83190175.55-1.27348487.1233259-.3842613-.0050411-.80470095-.3219697-1.05454546-.3155849-.24725686-.7501705-.27668974-1.0962121-.0742424-.9622108.57252097-2.0045086.99817273-3.0924243 1.26287877-1.3125376-1.18164326-3.0142371-1.83859096-4.780303-1.84545455-3.9151515 0-7.1 3.18484847-7.1 7.09924244 0 .10909091.0030303.21742425.0075757.32727272-4.1833333-.51439392-8.09242422-2.66969698-10.76590905-5.94924243-.19950096-.2469857-.50867328-.37871752-.825-.35151513-.31818182.02424244-.6030303.20378789-.7621212.47878786-.62973005 1.08343621-.96142019 2.31427065-.96136364 3.56742425 0 1.19545455.29469698 2.35530302.85833334 3.39090909-.15203919.01971871-.29845825.07024359-.43030305.14848484-.28560607.16893938-.47727273.51969698-.47727273.87348487.0077009 2.0704127.91211705 4.035922 2.47954546 5.3886364-.28857182.2547581-.39992616.6556338-.28409091 1.0227272.64533448 2.0163292 2.15715386 3.639271 4.12272727 4.4257576-1.99024306.9848405-4.22313062 1.372162-6.42878785 1.1151515-.45084459-.0588117-.88159748.2050047-1.03409091.6333333-.15303029.4280303.00757574.8977273.38939393 1.1431819 2.96018407 1.900181 6.40438966 2.9089596 9.92196974 2.9060668 11.5242424 0 18.4113636-9.3606123 18.4113636-18.41136986 0-.10681819-.0015152-.2128788-.0030303-.32045455 1.1174687-.87638769 2.0890986-1.92421385 2.8787879-3.10454545.2384811-.3582397.2132142-.83060793-.0621212-1.16136364zm-4.3659091 3.00833335c-.2647893.18936482-.4158649.49978237-.4015152.825.0098485.25.0166667.50378789.0166667.75303029 0 8.09772726-6.1621212 16.47348486-16.4734849 16.47348486-1.89545452 0-3.74393935-.3189394-5.50909088-.9477273 2.11069505-.3887278 4.09537321-1.2843548 5.78333338-2.6098485.3219697-.2522727.4515151-.6810606.3219696-1.0689394-.1287733-.3889148-.4888802-.6542886-.8984848-.6621212-1.65817762-.036986-3.19937067-.8623136-4.14924244-2.2219697.48334499-.0308719.9621765-.111862 1.42878789-.2416667.43484848-.1196969.72651517-.5181818.70984848-.9681818-.01416265-.4489123-.33657246-.8285137-.77727273-.9151515-1.8871212-.3795454-3.38409091-1.7810606-3.92348484-3.6295454.51700296.1348986 1.04770572.2103865 1.58181819.225.4340909-.0159091.8090909-.2863637.93257574-.6727273.12970956-.4116591-.02689835-.85959477-.38484847-1.10075759-1.43561496-.9578642-2.29689457-2.57038208-2.29470118-4.29621211 0-.43636364.05454965-.86742425.16212543-1.28636364 3.22348484 3.32045455 7.67348483 5.34696971 12.25606063 5.57424244.2984848.04469698.6037878-.08106062.8212121-.34242425.194697-.23181819.269697-.54621211.2015151-.83939393-.357882-1.53475084.0041488-3.14892453.9832141-4.38382158.9790654-1.23489705 2.4681344-1.95551926 4.0440587-1.95708751 1.4234848 0 2.7977272.59469698 3.7681818 1.62954545.2280303.24545455.5727272.35606062.894697.28863637.3530302-.06969699.705303-.1537879 1.0545454-.25303033-.1730572.1362133-.3544727.26145828-.5431818.375-.3893703.23728408-.5629029.71229813-.4181818 1.14469698.1515151.44015153.5901515.71136364 1.0318182.64696971.15-.01742426.3-.0378788.45-.06136364-.2166667.18257575-.439394.35681818-.6689394.52272728z" fill="#000" fill-rule="nonzero" transform="translate(0 3)"/></g></svg>