<svg height="32" viewBox="0 0 32 32" width="32" xmlns="http://www.w3.org/2000/svg"><g fill="none" fill-rule="evenodd"><path d="m0 0h32v32h-32z"/><path d="m10 2c1.1045695 0 2 .8954305 2 2v4c1.1045695 0 2 .8954305 2 2v3h4v-3c0-1.1045695.8954305-2 2-2v-4c0-1.1045695.8954305-2 2-2h3c1.1045695 0 2 .8954305 2 2v4c1.1045695 0 2 .8954305 2 2v17c0 1.6568542-1.3431458 3-3 3h-5c-1.6568542 0-3-1.3431458-3-3v-6h-4v6c0 1.6568542-1.3431458 3-3 3h-5c-1.65685425 0-3-1.3431458-3-3v-17c0-1.1045695.8954305-2 2-2v-4c0-1.1045695.8954305-2 2-2zm8 13h-4v4h4z" fill="#202327"/></g></svg>