<svg height="32" viewBox="0 0 32 32" width="32" xmlns="http://www.w3.org/2000/svg"><g fill="none" fill-rule="evenodd"><path d="m0 0h32v32h-32z"/><path d="m16.4736842 0c7.3480004 0 13.3475857 5.86643922 13.52262 13.2100598l.0036958.316256v1.4736842c0 2.209139-1.790861 4-4 4h-9v8h4.5014289c1.4050514 0 2.7070787.7371953 3.4299717 1.942017l.0260923.0434872c.5655767.9426278.2599164 2.165269-.6827114 2.7308456-.3093432.185606-.6633139.2836502-1.0240671.2836502h-14.50142883c-1.0992834 0-1.99042866-.8911453-1.99042866-1.9904287 0-.3607531.0980442-.7147238.28365016-1.0240671l.1449767-.2297968c.74134954-1.0940695 1.97998603-1.7557074 3.31108733-1.7557074h4.5014289v-8h-9c-2.14219539 0-3.89107888-1.6839685-3.99510469-3.8003597l-.00489531-.1996403v-1.4736842c0-7.47037794 6.05593786-13.5263158 13.5263158-13.5263158zm5.0277447 29h-11.0028578c-.70252567 0-1.35353932.3685977-1.71498581.9710085l-.01858529.0289915h14.469l-.1060279-.1637975c-.3423426-.4786202-.8788975-.7824124-1.4654447-.8297207zm-5.0277447-27h-.9473684c-6.36580844 0-11.5263158 5.16050736-11.5263158 11.5263158v1.4736842c0 1.1045695.8954305 2 2 2h20c1.1045695 0 2.0000709-.8954305 2.0000709-2v-1.4617747l-.0034116-.2924182c-.1489481-6.24662653-5.2615913-11.2458071-11.5229751-11.2458071z" fill="#000" fill-rule="nonzero"/></g></svg>