<svg height="32" viewBox="0 0 32 32" width="32" xmlns="http://www.w3.org/2000/svg"><g fill="none" fill-rule="evenodd"><path d="m0 0h32v32h-32z"/><path d="m16 0c8.836556 0 16 7.163444 16 16s-7.163444 16-16 16-16-7.163444-16-16 7.163444-16 16-16zm0 2c-7.7319865 0-14 6.2680135-14 14s6.2680135 14 14 14 14-6.2680135 14-14-6.2680135-14-14-14zm.0073593 6.8c.5522848 0 1 .44771525 1 1l-.0007864 9.428694 3.9647474-3.9642279c.3905243-.3905243 1.0236893-.3905243 1.4142136 0s.3905243 1.0236893 0 1.4142136l-5.6568542 5.6568542c-.180242.180242-.4121708.2772954-.6480754.2911601h-.1612086c-.2359046-.0138647-.4678334-.1109181-.6480754-.2911601l-5.65685421-5.6568542c-.39052429-.3905243-.39052429-1.0236893 0-1.4142136.39052431-.3905243 1.02368931-.3905243 1.41421361 0l3.9778932 3.9782279.0007864-9.442694c0-.55228475.4477153-1 1-1z" fill="#000" fill-rule="nonzero"/></g></svg>