<svg height="32" viewBox="0 0 32 32" width="32" xmlns="http://www.w3.org/2000/svg"><g fill="none" fill-rule="evenodd"><path d="m0 0h32v32h-32z"/><path d="m16 0c8.836556 0 16 7.163444 16 16s-7.163444 16-16 16-16-7.163444-16-16 7.163444-16 16-16zm2.8844392 10c-.8155312-.00039875-1.5977768.3185138-2.1744446.8864965s-.9004568 1.338447-.9000516 2.1416957c0 .2345571.0290047.4683624.0763281.693898-2.4735114-.1243416-4.777484-1.275917-6.33981273-3.1687757-.26638508.4495677-.41827803.9652925-.41827803 1.5276281-.0010649 1.0136875.51366356 1.9604572 1.37085286 2.5214884-.50376554-.0187946-.97928966-.1593785-1.3891716-.3841624v.0375893c-.00205712 1.4426342 1.0296751 2.6862915 2.4653979 2.971808-.2572257.0654053-.5342967.1029946-.8098412.1029946-.1999797 0-.3907999-.0187947-.5808569-.0466107.404934 1.2327897 1.5599819 2.0762891 2.8752798 2.0997368-1.0887093.841353-2.4333459 1.2971153-3.81716869 1.2938228-.25722574 0-.49536944-.0097732-.74267251-.0375893 1.36169346.8630497 2.9798494 1.3599799 4.7216568 1.3599799 5.6536231 0 8.7472013-4.6129556 8.7472013-8.6162132 0-.1308107 0-.2616214-.0099226-.3931838.5995743-.4327694 1.1205962-.9622114 1.5410645-1.5659692-.5629708.2424151-1.1595866.4005355-1.7700488.4691142.6417355-.3758146 1.1223374-.9691898 1.3517708-1.6689638-.6025782.3529048-1.2626416.6003888-1.9509465.7314873-.5617749-.5909034-1.3609302-.9562715-2.2463363-.9562715z" fill="#202327"/></g></svg>