<svg height="32" viewBox="0 0 32 32" width="32" xmlns="http://www.w3.org/2000/svg"><g fill="none" fill-rule="evenodd"><path d="m0 0h32v32h-32z"/><path d="m22.2173913.65217391c1.9285178 0 3.5040522 1.51179714 3.6036928 3.41452853l.0050029.19153474-.0009027 5.52393673.012278.00039957c1.9462918.01252218 3.7795845 1.56896942 3.8958362 3.42252302l.0058423.1862996v15.6520797c0 1.2434577-1.0274146 2.2198992-2.2841222 2.2991105l-.1651532.0051919-6.6816811-.0006043.0005114-7.8254348-.004787-.2188462c-.114488-2.6118457-2.2681926-4.6941972-4.9082565-4.6941972-2.713399 0-4.9130435 2.1996444-4.9130435 4.9130434l-.0004244 7.8254348-6.68072468.0006043c-1.27513747 0-2.35568275-.9246308-2.44351441-2.1436784l-.00576095-.160624v-15.6520797c0-1.9174043 1.75459779-3.50347352 3.70898985-3.60378628l.1960476-.00503634.00796255-.00039957.00003313-5.52393673c0-1.92754827 1.5133242-3.50152438 3.41706208-3.60106546l.19163357-.00499781zm-6.5217391 5.86956522c-1.9930276 0-3.6086957 1.61566808-3.6086957 3.60869567 0 1.9930276 1.6156681 3.6086956 3.6086957 3.6086956 1.9930275 0 3.6086956-1.615668 3.6086956-3.6086956 0-1.99302759-1.6156681-3.60869567-3.6086956-3.60869567z" fill="#000" fill-rule="nonzero"/></g></svg>