<svg height="32" viewBox="0 0 32 32" width="32" xmlns="http://www.w3.org/2000/svg"><g fill="none" fill-rule="evenodd"><path d="m0 0h32v32h-32z"/><path d="m16 0c7.6275002 0 13.8303269 6.09975237 13.996578 13.687355l.003422.312645v2c0 1.6568542-1.3431458 3-3 3h-10v8h4.9689011c1.2267138 0 2.32984.7468528 2.7854301 1.885828l.2456688.614172c.373915.9347874-.080762 1.9957004-1.0155494 2.3696154-.2153294.0861317-.4451162.1303846-.677033.1303846h-14.6148352c-1.00679689 0-1.82296704-.8161701-1.82296704-1.822967 0-.2319169.04425289-.4617036.13038464-.677033l.24566881-.614172c.45559006-1.1389752 1.55871631-1.885828 2.78543009-1.885828h4.9689011v-8h-10c-1.65685425 0-3-1.3431458-3-3v-2c0-7.7319865 6.2680135-14 14-14z" fill="#202327"/></g></svg>