<svg height="32" viewBox="0 0 32 32" width="32" xmlns="http://www.w3.org/2000/svg"><g fill="none" fill-rule="evenodd"><path d="m0 0h32v32h-32z"/><path d="m25.6183316 3.93969262c.1888925.5189779-.0786946 1.09282026-.5976725 1.28171276l-4.8876591 1.77801219 5.867.00058243c3.3137085 0 6 2.6862915 6 6v10c0 3.3137085-2.6862915 6-6 6h-20c-3.3137085 0-6-2.6862915-6-6v-10c0-3.3137085 2.6862915-6 6-6l5.826-.00058243-4.88630738-1.77801219c-.5189779-.1888925-.78656499-.76273486-.59767248-1.28171276.18905982-.51883077.76277185-.78642956 1.28178372-.59786749l8.35819614 3.04059244 8.3546188-3.04039743c.5189779-.18889251 1.0928203.07869458 1.2817128.59767248zm-9.6183316 9.06030738c-2.7614237 0-5 2.2385763-5 5s2.2385763 5 5 5 5-2.2385763 5-5-2.2385763-5-5-5zm0 2c1.6568542 0 3 1.3431458 3 3s-1.3431458 3-3 3-3-1.3431458-3-3 1.3431458-3 3-3z" fill="#202327"/></g></svg>