<svg height="32" viewBox="0 0 32 32" width="32" xmlns="http://www.w3.org/2000/svg"><g fill="none" fill-rule="evenodd"><path d="m0 0h32v32h-32z"/><path d="m22.2173913.65217391c1.9285178 0 3.5040522 1.51179714 3.6036928 3.41452853l.0050029.19153474-.0009027 5.52393673.012278.00039957c1.9462918.01252218 3.7795845 1.56896942 3.8958362 3.42252302l.0058423.1862996v15.6520797c0 1.2434577-1.0274146 2.2198992-2.2841222 2.2991105l-.1651532.0051919h-23.18840578c-1.27513747 0-2.35568275-.9246308-2.44351441-2.1436784l-.00576095-.160624v-15.6520797c0-1.9174043 1.75459779-3.50347352 3.70898985-3.60378628l.1960476-.00503634.00796255-.00039957.00003313-5.52393673c0-1.92754827 1.5133242-3.50152438 3.41706208-3.60106546l.19163357-.00499781zm-16.65220704 11.12999999-.01444927.0003789c-.92922444 0-1.80636448.7216099-1.89175542 1.4876235l-.00679531.1212198v15.6520797c0 .1252988.1370563.2643062.35237551.2971003l.09689985.0072021 1.46372464-.0006043zm16.65220704-9.12999999h-13.04347826c-.83931262 0-1.52817376.64158459-1.60212341 1.45991239l-.00657224.14615088-.00003313 25.08893672h3.21700004l.0004244-6.8254348c0-2.6400639 2.0823515-4.7937685 4.6941973-4.9082565l.2188462-.0047869c2.713399 0 4.9130435 2.1996444 4.9130435 4.9130434l-.0005114 6.8254348h3.217l.0009027-25.08893672c0-.83751267-.6422327-1.52562574-1.462238-1.59949783zm3.6182082 9.13036839-.0104152-.0003684v17.565l1.4646811.0006043c.2364802 0 .4030965-.123345.4410556-.2501132l.0082198-.0541892v-15.6520797c0-.7315902-.8549326-1.5195424-1.7675659-1.601833zm-10.1399473 7.8261534c-1.6088295 0-2.9130435 1.3042139-2.9130435 2.9130434l.0003043 6.8258696h5.826l-.0002173-6.8258696c0-1.5513713-1.2127194-2.8194968-2.7418801-2.9080984zm0-13.08695657c1.9930275 0 3.6086956 1.61566808 3.6086956 3.60869567 0 1.9930276-1.6156681 3.6086956-3.6086956 3.6086956-1.9930276 0-3.6086957-1.615668-3.6086957-3.6086956 0-1.99302759 1.6156681-3.60869567 3.6086957-3.60869567zm0 2c-.8884581 0-1.6086957.72023758-1.6086957 1.60869567 0 .8884581.7202376 1.6086956 1.6086957 1.6086956.888458 0 1.6086956-.7202375 1.6086956-1.6086956 0-.88845809-.7202376-1.60869567-1.6086956-1.60869567z" fill="#000" fill-rule="nonzero"/></g></svg>