<svg height="32" viewBox="0 0 32 32" width="32" xmlns="http://www.w3.org/2000/svg"><g fill="none" fill-rule="evenodd"><path d="m0 0h32v32h-32z"/><path d="m27 0c2.7614237 0 5 2.23857625 5 5v22c0 2.6887547-2.1223067 4.8818181-4.7831104 4.9953805l-.2168896.0046195h-22c-2.76142375 0-5-2.2385763-5-5v-10c0-2.7614237 2.23857625-5 5-5h7v-7c0-2.76142375 2.2385763-5 5-5zm-17 17c-.55228475 0-1 .4477153-1 1v8c0 .5522847.44771525 1 1 1 .5522847 0 1-.4477153 1-1v-8c0-.5522847-.4477153-1-1-1zm16-2h-8c-.5522847 0-1 .4477153-1 1s.4477153 1 1 1h8c.5522847 0 1-.4477153 1-1s-.4477153-1-1-1zm-3-5h-5c-.5522847 0-1 .4477153-1 1s.4477153 1 1 1h5c.5522847 0 1-.4477153 1-1s-.4477153-1-1-1z" fill="#202327"/></g></svg>