<svg height="32" viewBox="0 0 32 32" width="32" xmlns="http://www.w3.org/2000/svg"><g fill="none" fill-rule="evenodd"><path d="m0 0h32v32h-32z"/><path d="m20 0c1.1045695 0 2 .8954305 2 2v5h3c1.1045695 0 2 .8954305 2 2v12c0 6.0751322-4.9248678 11-11 11-6.07513225 0-11-4.9248678-11-11v-12c0-1.1045695.8954305-2 2-2h3v-5c0-1.1045695.8954305-2 2-2zm5 9h-18v12c0 4.9705627 4.0294373 9 9 9 4.8818027 0 8.8557914-3.8868137 8.9961629-8.7346377l.0038371-.2653623zm-5-7h-8v5h8zm-6 2c.5522847 0 1 .44771525 1 1s-.4477153 1-1 1-1-.44771525-1-1 .4477153-1 1-1zm4 0c.5522847 0 1 .44771525 1 1s-.4477153 1-1 1-1-.44771525-1-1 .4477153-1 1-1z" fill="#000" fill-rule="nonzero"/></g></svg>