<svg height="32" viewBox="0 0 32 32" width="32" xmlns="http://www.w3.org/2000/svg"><g fill="none" fill-rule="evenodd"><path d="m0 0h32v32h-32z"/><path d="m16 2c7.6275002 0 13.8303269 6.09975237 13.996578 13.687355l.003422.312645v1h-13v10c0 1.6568542-1.3431458 3-3 3-1.5976809 0-2.9036609-1.24892-2.9949073-2.8237272l-.0050927-.1762728v-1.0199386h2v1.0199386c0 .5522847.4477153 1 1 1 .5128358 0 .9355072-.3860402.9932723-.8833789l.0067277-.1166211v-10h-13v-1c0-7.7319865 6.2680135-14 14-14z" fill="#202327" fill-rule="nonzero"/></g></svg>