<svg height="32" viewBox="0 0 32 32" width="32" xmlns="http://www.w3.org/2000/svg"><g fill="none" fill-rule="evenodd"><path d="m0 0h32v32h-32z"/><path d="m22.0092457 0 7.9907543 10.0183757v21.9816243h-28v-32zm-.9632457 2h-17.046v28h24v-19.282zm1.4553519 9v2l-2.4861752.0003892c1.24224 1.1376841 1.9848233 2.7722199 1.9848233 4.5361625 0 3.3663097-2.681656 6.1034483-6 6.1034483s-6-2.7371386-6-6.1034483c0-2.6353939 1.6572664-4.9449885 4.063341-5.7782934l.235153-.0759952.5752913 1.9154738c-1.6870648.5066911-2.8737853 2.1015522-2.8737853 3.9388148 0 2.2708036 1.7954965 4.1034483 4 4.1034483s4-1.8326447 4-4.1034483c0-1.2699108-.5662037-2.435897-1.4980887-3.2022671l-.0005594 2.6657154h-2v-6z" fill="#000" fill-rule="nonzero"/></g></svg>