<svg height="32" viewBox="0 0 32 32" width="32" xmlns="http://www.w3.org/2000/svg"><g fill="none" fill-rule="evenodd"><path d="m0 0h32v32h-32z"/><path d="m22.0092457 0 7.9907543 10.0183757v21.9816243h-28v-32zm.4921062 11h-6v6h2l.0005594-2.6657154c.931885.7663701 1.4980887 1.9323563 1.4980887 3.2022671 0 2.2708036-1.7954965 4.1034483-4 4.1034483s-4-1.8326447-4-4.1034483c0-1.8372626 1.1867205-3.4321237 2.8737853-3.9388148l-.5752913-1.9154738-.235153.0759952c-2.4060746.8333049-4.063341 3.1428995-4.063341 5.7782934 0 3.3663097 2.681656 6.1034483 6 6.1034483s6-2.7371386 6-6.1034483c0-1.7639426-.7425833-3.3984784-1.9848233-4.5361625l2.4861752-.0003892z" fill="#202327"/></g></svg>