<svg height="32" viewBox="0 0 32 32" width="32" xmlns="http://www.w3.org/2000/svg"><g fill="none" fill-rule="evenodd"><path d="m0 0h32v32h-32z"/><path d="m15 3c2.7614237 0 5 2.23857625 5 5 0 1.12614453-.3723009 2.1653335-1.0005351 3.0011995l.0005351-.0011995c2.209139 0 4 1.790861 4 4v.2l3-2.7c1.2298343-1.1068509 3.124092-1.0071531 4.2309428.2226812.4951041.5501156.7690572 1.264026.7690572 2.0041308v10.546376c0 1.6545728-1.3412963 2.9958692-2.9958692 2.9958692-.7401048 0-1.4540152-.2739532-2.0041308-.7690572l-3-2.701v.201c0 2.209139-1.790861 4-4 4h-14c-2.209139 0-4-1.790861-4-4v-10c0-2.0574002 1.55329281-3.7520093 3.55114844-3.9750976-.3505779-.5931313-.55114844-1.28559395-.55114844-2.0249024 0-2.209139 1.790861-4 4-4 .93675816 0 1.79830662.32201104 2.4799923.86138007.8000863-1.6910686 2.5233766-2.86138007 4.5200077-2.86138007z" fill="#202327"/></g></svg>