<svg height="32" viewBox="0 0 32 32" width="32" xmlns="http://www.w3.org/2000/svg"><g fill="none" fill-rule="evenodd"><path d="m0 0h32v32h-32z"/><path d="m15 3c2.7614237 0 5 2.23857625 5 5 0 1.1654819-.3987648 2.2378273-1.0673015 3.0880432 1.9599789.3687767 3.5155359 1.881996 3.947464 3.8188959l2.4019371-2.4780849c1.2796815-1.3196716 3.3868735-1.3520899 4.706545-.0724084.646476.6268858 1.0113554 1.4889674 1.0113554 2.3894767v10.508155c0 1.8382377-1.4901861 3.3284237-3.3284237 3.3284237-.9005093 0-1.7625909-.3648794-2.3894767-1.0113554l-2.4019371-2.4780849c-.4985637 2.2357152-2.4941955 3.9069391-4.8801625 3.9069391h-12c-2.76142375 0-5-2.2385763-5-5v-8c0-2.2934351 1.54411161-4.2262236 3.64943598-4.8154667-.41083052-.6275303-.64943598-1.37816714-.64943598-2.1845333 0-2.209139 1.790861-4 4-4 .93675816 0 1.79830662.32201104 2.4799923.86138007.8000863-1.6910686 2.5233766-2.86138007 4.5200077-2.86138007zm3 10h-12c-1.65685425 0-3 1.3431458-3 3v8c0 1.6568542 1.34314575 3 3 3h12c1.6568542 0 3-1.3431458 3-3v-8c0-1.6568542-1.3431458-3-3-3zm10.487013.697078c-.5280278-.4115629-1.2924219-.3675194-1.7691126.1240678l-3.1537012 3.2522544c-.3618425.37315-.5641992.8725119-.5641992 1.3922917v3.0686162c0 .5197798.2023567 1.0191417.5641992 1.3922917l3.1537012 3.2522544c.2501995.2580182.5942692.403647.9536759.403647.7336681 0 1.3284237-.5947555 1.3284237-1.3284237v-10.508155c0-.3594068-.1456288-.7034764-.4036471-.9536759zm-13.487013-8.697078c-1.6568542 0-3 1.34314575-3 3s1.3431458 3 3 3 3-1.34314575 3-3-1.3431458-3-3-3zm-7 2c-1.1045695 0-2 .8954305-2 2s.8954305 2 2 2 2-.8954305 2-2-.8954305-2-2-2z" fill="#000" fill-rule="nonzero"/></g></svg>