<svg height="32" viewBox="0 0 32 32" width="32" xmlns="http://www.w3.org/2000/svg"><g fill="none" fill-rule="evenodd"><path d="m0 0h32v32h-32z"/><path d="m11.1193503 8.98884181c0 .97457627-.7909605 1.76553669-1.76553674 1.76553669-.97457627 0-1.76553672-.79096042-1.76553672-1.76553669s.79096045-1.76553673 1.76553672-1.76553673c.97457624 0 1.76553674.79096046 1.76553674 1.76553673zm7.1327683 1.76553669c.9745763 0 1.7655368-.79096042 1.7655368-1.76553669s-.7909605-1.76553673-1.7655368-1.76553673c-.9745762 0-1.7655367.79096046-1.7655367 1.76553673s.7909605 1.76553669 1.7655367 1.76553669zm10.6603108 17.1327684.3990113 3.8665254-3.5310735-1.8891243c-1.3629943.5649718-2.8813559.8792373-4.4879943.8792373-4.9823447 0-9.1596045-3.0367232-10.289548-7.1292373-.960452-.1694915-1.88559326-.4272599-2.76129948-.7591808l-4.00423728 2.1433616.42725988-4.1172316c-2.83898305-2.1680791-4.63276836-5.3319209-4.63276836-8.8524012 0-6.53248583 6.16525424-11.829096 13.77118644-11.829096s13.7711864 5.29661017 13.7711864 11.829096c0 .5861582-.049435 1.1617232-.144774 1.726695 2.7012712 1.6949152 4.4597458 4.4809322 4.4597458 7.6306497 0 2.5247175-1.1334746 4.8199152-2.9766949 6.5007062zm-20.0423729-6.684322c.60028248.2259887 1.2146893.4096045 1.8396893.5508474-.0070622-.1235876-.0105933-.2436441-.0105933-.3672316 0-5.1694915 4.7422317-9.3573447 10.5932204-9.3573447 1.5960452 0 3.1108757.3107345 4.4668079.8721752.0282486-.286017.0459039-.5790961.0459039-.8721752 0-5.54731634-5.384887-10.06355928-12.0056497-10.06355928-6.62076268 0-12.00564969 4.51624294-12.00564969 10.06355928 0 1.4265537.34957627 2.8072034 1.04166667 4.1031074.68149717 1.2747175 1.65607344 2.4011299 2.8990113 3.3474576l.78742938.6002825-.10240113.9851695-.08474577.8086158 1.06991526-.5720339.70974576-.3778248zm18.3545198-7.5706215c.0670904.0388418.1341808.0812147.2012712.1235876-.0670904-.0423729-.1341808-.0847458-.2012712-.1235876zm-.2012712-.1200565c.0321428.03125.0678571.06875.1.1-.0357143-.03125-.0678572-.06875-.1-.1zm-.2048023-.1129944c.0333334.03.0666667.07.1.1-.0333333-.03-.0666666-.07-.1-.1zm-.2048022-.0965254c.0363636.02.0636363.04.1.06-.0363637-.02-.0727273-.04-.1-.06zm-.1953955-.0926977.06.03zm-.1989266-.0924012c.01 0 .01.01.02.01 0-.01-.01-.01-.02-.01zm3.9042091 8.2689125c0-4.1878531-3.9583334-7.5918079-8.8276836-7.5918079-4.8693503 0-8.8276837 3.4039548-8.8276837 7.5918079s3.9583334 7.5918079 8.8276837 7.5918079c1.3347457 0 2.6165254-.2507062 3.8100282-.7450565l.7733051-.3177966.7379943.3954802.5967515.3213277-.0564972-.5579096-.0918079-.8862994.6567796-.6002825c1.5466102-1.4194916 2.40113-3.266243 2.40113-5.2012712zm-12.2175142-3.3050848c-.7803672 0-1.4124293.6320622-1.4124293 1.4124294s.6320621 1.4124294 1.4124293 1.4124294c.7803673 0 1.4124294-.6320622 1.4124294-1.4124294s-.6320621-1.4124294-1.4124294-1.4124294zm6.7796611 0c-.7803673 0-1.4124294.6320622-1.4124294 1.4124294s.6320621 1.4124294 1.4124294 1.4124294c.7803672 0 1.4124293-.6320622 1.4124293-1.4124294s-.6320621-1.4124294-1.4124293-1.4124294z" fill="#000" fill-rule="nonzero"/></g></svg>