<svg height="32" viewBox="0 0 32 32" width="32" xmlns="http://www.w3.org/2000/svg"><g fill="none" fill-rule="evenodd"><path d="m0 0h32v32h-32z"/><path d="m19.120106 0c1.8257724 0 3.5522076.83131873 4.6906771 2.25867017l4.8798939 6.11814718c.847677 1.06277155 1.309323 2.38190365 1.309323 3.74132985v13.8818528c0 3.3137085-2.6862915 6-6 6h-16c-3.3137085 0-6-2.6862915-6-6v-20c0-3.3137085 2.6862915-6 6-6zm0 2h-11.120106c-2.14219539 0-3.89107888 1.68396847-3.99510469 3.80035966l-.00489531.19964034v20c0 2.1421954 1.68396847 3.8910789 3.80035966 3.9951047l.19964034.0048953h16c2.1421954 0 3.8910789-1.6839685 3.9951047-3.8003597l.0048953-.1996403v-13.8818528c0-.8238947-.2543504-1.6255887-.7251774-2.29685957l-.1477046-.19736034-4.8798939-6.11814718c-.7115434-.89209465-1.767598-1.43495138-2.8997521-1.49932373zm.7301342 19.124841c-.0117594.0190178-.0241819.0376785-.0372573.055944l-.0229773.0305862c-.015395.0201121-.0322301.040171-.0499162.0596133-.0108833.0118994-.0218126.0233706-.0329746.0345414l-.0340752.0324404c-.0195736.0178854-.0396325.0347205-.0602491.0506887-.0093607.0070655-.0194012.0145444-.0296152.0218577-.018732.0136218-.0373927.0260443-.0564105.0378037l-.0267648.0157852-.0184293.010549.0084293-.0056506-.059.03-.0432989.0209763c-.0215094.0089655-.0430917.0171538-.0649203.0245882-.0181256.0063846-.0361926.0119887-.0543363.0170574l-.0394471.0098844c-.023526.0058029-.0468648.0104086-.0702589.0141641l-.0281851.0038979c-.0266902.0037184-.0535181.0061311-.0803295.0074572l-.0923339.0002905c-.0026686-.000115-.0053364-.0002407-.0080031-.000377-.0263663-.0011897-.0534727-.0036159-.0805287-.0071692l-.0279526-.0043177c-.0235382-.0035372-.046877-.0081429-.0701165-.0136106-.0136872-.0034904-.0270216-.0069203-.0402806-.0106224-.0192938-.00514-.0390429-.0113231-.0586724-.0181538-.0189084-.0067418-.0369286-.0135834-.0547495-.0209435l-.0436887-.0193094c-.0187688-.0087959-.0367433-.0179252-.0544503-.0276044-.0062825-.0036031-.0128776-.0073132-.0194476-.0111064l-.0287439-.0170121-.0246537-.0158309-.0098635-.006848.0362611.0225894-.047-.03-.0485536-.0361747c-.0153747-.0120518-.0303378-.0246814-.0449592-.0377876l-.0399369-.0378467c-.0125116-.0125314-.0247977-.0255148-.0367698-.0388752-.0156682-.0173672-.0301838-.0347157-.0440527-.0524827l-.0241643-.0325816c-.0149834-.0206341-.0286244-.0412834-.0414558-.0623632-.0039265-.0067921-.0080662-.013768-.0121331-.0208121l-2.1341416-3.6963448-2.1338076 3.6963448-.0060254.0099238-.0097598.016841c-.0117594.0190178-.0241819.0376785-.0372573.055944l-.0229773.0305862c-.015395.0201121-.0322301.040171-.0499162.0596133-.0108833.0118994-.0218126.0233706-.0329746.0345414l-.0340752.0324404c-.0195736.0178854-.0396325.0347205-.0602491.0506887-.0093607.0070655-.0194012.0145444-.0296152.0218577-.017781.012941-.0354506.0247489-.0534428.0359615-.0094481.0056804-.0195186.0117304-.0297325.0176274l-.0184293.010549.0084293-.0056506-.059.03-.0432989.0209763c-.0215094.0089655-.0430917.0171538-.0649203.0245882-.0181256.0063846-.0361926.0119887-.0543363.0170574l-.0394471.0098844c-.023526.0058029-.0468648.0104086-.0702589.0141641l-.0281851.0038979c-.0266902.0037184-.0535181.0061311-.0803295.0074572l-.0923339.0002905c-.0343694-.0015667-.0614758-.0039929-.0885318-.0075462l-.0279526-.0043177c-.0235382-.0035372-.046877-.0081429-.0701165-.0136106-.0136872-.0034904-.0270216-.0069203-.0402806-.0106224-.0192938-.00514-.0390429-.0113231-.0586724-.0181538-.0189084-.0067418-.0369286-.0135834-.0547495-.0209435l-.0436887-.0193094c-.0187688-.0087959-.0367433-.0179252-.0544503-.0276044-.0062825-.0036031-.0128776-.0073132-.0194476-.0111064l-.0287439-.0170121-.0246537-.0158309-.0098635-.006848.0362611.0225894-.047-.03-.0485536-.0361747c-.0153747-.0120518-.0303378-.0246814-.0449592-.0377876l-.0399369-.0378467c-.0125116-.0125314-.0247977-.0255148-.0367698-.0388752-.0156682-.0173672-.0301838-.0347157-.0440527-.0524827l-.0241643-.0325816c-.0149834-.0206341-.0286244-.0412834-.0414558-.0623632-.0039265-.0067921-.0080662-.013768-.0121331-.0208121l-3.5-6.0621778c-.27614238-.4782926-.11226722-1.089883.3660254-1.3660254s1.089883-.1122672 1.3660254.3660254l2.6338076 4.561833 2.1341416-3.6958076.0080254-.0149238.0059284-.0088675.0176239-.0276933.0096044-.0139628.0038433-.0064764.0415061-.0547113.0299834-.0357674c.013726-.0154453.0277349-.0303638.0421313-.0447824.0146129-.0145908.0295315-.0285996.0449427-.0421939l.0358695-.0303336c.0158288-.0125286.0321976-.0248543.0490313-.0367328l.0537444-.0356265.0361231-.0211327.0297693-.0159361.020385-.0101176-.0174861.0083343.02-.01.0612304-.0267325.0364351-.0137505c.0232209-.0084939.0459944-.0157427.06889-.0221389.0166612-.004402.0339965-.0087482.0514389-.0126306.0158806-.003798.0315476-.0068833.0472427-.0095844.0247852-.0040321.049709-.0073831.0747537-.0097947.0122445-.0013197.0239503-.0022137.0356543-.0029002.0192276-.0010679.039269-.0016919.0593429-.0017109.0204059.0000269.0403756.0006542.0602857.0018748l.0321823.002332c.0259199.0025914.0516888.006023.0772696.0104427.0157324.0024574.0313994.0055427.047025.0090157.0176647.0042001.0349677.0085373.0521441.0133314.0204089.0054515.0411666.0119864.0617905.0192376.0163741.0059018.0326074.0120573.0486802.0186337.0144805.0058895.0285037.012043.0424399.0185453.0222397.0102914.044255.0215081.0658629.0335489.0038618.0023292.008102.0047369.0123318.007179l.0208121.0121331.0011879.0009685.0301025.0188841c.0103183.0068188.0205225.0138383.0306063.0210568l-.0237088-.0159409.0573928.0413265c.0171311.013194.0344796.0277096.0513717.0428614.0138355.0124884.0268189.0247745.0394204.0373567l.0378972.0401035c.0129855.0143843.0256151.0293473.0377616.0446274.0112555.0144019.0222659.0290871.0329181.0441453l.0332515.0497591c.0056013.0093527.0113765.0189828.0170121.0287439l2.1338076 3.6958076 2.6341416-4.561833c.2761424-.4782926.8877328-.6421678 1.3660254-.3660254s.6421678.8877328.3660254 1.3660254l-3.5 6.0621778-.0060254.0099238z" fill="#000" fill-rule="nonzero"/></g></svg>