<svg height="32" viewBox="0 0 32 32" width="32" xmlns="http://www.w3.org/2000/svg"><g fill="none" fill-rule="evenodd"><path d="m0 0h32v32h-32z"/><path d="m16 22.3333333c1.2886644 0 2.3333333 1.044669 2.3333333 2.3333334s-1.0446689 2.3333333-2.3333333 2.3333333-2.3333333-1.0446689-2.3333333-2.3333333 1.0446689-2.3333334 2.3333333-2.3333334zm0-5.6666666c2.7037102 0 5.1980912 1.6525044 6.2670831 4.1060026.2206013.5063136-.0110142 1.0955947-.5173278 1.3161961-.5063136.2206013-1.0955946-.0110142-1.316196-.5173278-.7527699-1.7277209-2.5296249-2.9048709-4.4335593-2.9048709-1.9053805 0-3.6913159 1.1861805-4.439699 2.9190246-.2189726.5070202-.807506.7405289-1.3145261.5215564-.50702023-.2189726-.74052896-.807506-.52155639-1.3145262 1.06332789-2.4620833 3.56863439-4.1260548 6.27578149-4.1260548zm.0064666-5.8333334c4.054741 0 8.5536949 2.7205747 10.2358217 6.3881165.2302444.5020019.0099413 1.0956049-.4920606 1.3258493-.502002.2302444-1.0956049.0099414-1.3258493-.4920606-1.3472-2.9373008-5.1251995-5.2219052-8.4179118-5.2219052-3.2959141 0-7.08966346 2.3001999-8.42946295 5.2472012-.22857289.5027652-.82143958.725042-1.32420482.4964691-.50276523-.2285728-.72504204-.8214395-.49646914-1.3242048 1.67347124-3.6809402 6.19015621-6.4194655 10.25013691-6.4194655zm.0032333-5.8333333c5.9688124 0 12.233305 3.72504638 14.8672789 8.5321224.2653889.4843421.0878922 1.092119-.3964498 1.3575079-.484342.2653888-1.092119.0878922-1.3575078-.3964499-2.2835599-4.1675606-7.876328-7.4931804-13.1133213-7.4931804-5.2372298 0-10.80804241 3.3240388-13.13434922 7.5357915-.26702335.4834428-.8753964.6588855-1.35883924.3918621-.48344283-.2670233-.65888548-.8753964-.39186212-1.3588392 2.6765344-4.84583593 8.91593678-8.5688144 14.88505058-8.5688144z" fill="#000" fill-rule="nonzero"/></g></svg>