<svg height="32" viewBox="0 0 32 32" width="32" xmlns="http://www.w3.org/2000/svg"><g fill="none" fill-rule="evenodd"><path d="m0 0h32v32h-32z"/><path d="m30 0v32h-28v-32zm-2 2h-24v28h24zm-12 7c4.9705627 0 9 4.0294373 9 9s-4.0294373 9-9 9-9-4.0294373-9-9 4.0294373-9 9-9zm1.6191294 9.2041076-.9139027.5450178c-.0774325.0451433-.1491358.0859889-.2204777.1255279-2.1296572 1.1802953-4.2113688 1.457414-7.32039095.6348714.68925461 3.1405744 3.48802385 5.4904753 6.83564195 5.4904753 3.7325437 0 6.7827633-2.9213766 6.9888958-6.6023667-2.2389342-1.3114944-3.5669567-1.2221884-5.3697664-.1935257zm-1.6191294-7.2041076c-3.6612267 0-6.66595424 2.8108067-6.97398042 6.3922177 2.99655382.911043 4.68252672.7344381 6.48923142-.266871l.8778954-.5212828c2.1249867-1.2674765 3.9589824-1.6019284 6.3207164-.5859062-.8526236-2.9004507-3.5359347-5.0181577-6.7138628-5.0181577zm9-6v2h-4v-2z" fill="#000" fill-rule="nonzero"/></g></svg>