<svg height="32" viewBox="0 0 32 32" width="32" xmlns="http://www.w3.org/2000/svg"><g fill="none" fill-rule="evenodd"><path d="m0 0h32v32h-32z"/><path d="m16 0c8.836556 0 16 7.163444 16 16s-7.163444 16-16 16-16-7.163444-16-16 7.163444-16 16-16zm2.8903377 13.5622942c2.7035551 0 5.1096623 1.9824369 5.1096623 4.4143798 0 1.3715697-.899922 2.5875411-2.1067647 3.5038419l.4509082 1.5194841-1.6501727-.9143798c-.5986849.1536773-1.2049482.3054336-1.8036331.3054336-2.8626992 0-5.1172406-1.978595-5.1172406-4.4143798 0-2.4319429 2.2545414-4.4143798 5.1172406-4.4143798zm-5.8731751-4.5622942c2.9574278 0 5.5492032 1.8191548 6.0702106 4.2722283-.1913518-.0230516-.3845982-.0364983-.5797392-.0364983-2.8570155 0-5.115346 2.1572448-5.115346 4.8139407 0 .4418222.0682046.8682766.1856681 1.2755214-.1856681.0134468-.3713362.0230516-.5607935.0230516-.7502508 0-1.3546194-.1536773-2.1086593-.3054336l-2.10297561 1.0661361.60247409-1.8287596c-1.50618522-1.0642151-2.40800178-2.4357848-2.40800178-4.1070252 0-2.8929748 2.70923883-5.1731614 6.0171626-5.1731614zm4.2135295 6.998079c-.2993425 0-.6024741.3054336-.6024741.6089462 0 .3073546.3031316.6089463.6024741.6089463.4546974 0 .7521453-.3015917.7521453-.6089463 0-.3035126-.2974479-.6089462-.7521453-.6089462zm3.3098183 0c-.2974479 0-.5967904.3054336-.5967904.6089462 0 .3073546.2993425.6089463.5967904.6089463.4509083 0 .7521453-.3015917.7521453-.6089463 0-.3035126-.301237-.6089462-.7521453-.6089462zm-5.2669118-4.4105378c-.4528029 0-.9037112.3015916-.9037112.7587815 0 .455269.4528029.7607025.9037112.7607025.4528028 0 .7521453-.3054335.7521453-.7607025 0-.4571899-.2993425-.7587815-.7521453-.7587815zm-4.2116349 0c-.4528029 0-.9075003.3015916-.9075003.7587815 0 .455269.456592.7607025.9075003.7607025.4528028 0 .7521453-.3073545.7502597-.7607025 0-.4571899-.2993515-.7587815-.7502597-.7587815z" fill="#202327"/></g></svg>