<svg height="32" viewBox="0 0 32 32" width="32" xmlns="http://www.w3.org/2000/svg"><g fill="none" fill-rule="evenodd"><path d="m0 0h32v32h-32z"/><path d="m24 0c3.3137085 0 6 2.6862915 6 6v20c0 3.3137085-2.6862915 6-6 6h-16c-3.3137085 0-6-2.6862915-6-6v-20c0-3.3137085 2.6862915-6 6-6zm-8 9c-4.9705627 0-9 4.0294373-9 9s4.0294373 9 9 9 9-4.0294373 9-9-4.0294373-9-9-9zm1.6145474 10.2580257c1.7701998-1.0100559 3.0826333-1.1144306 5.2488829.12484-.6419413 3.2036693-3.4708383 5.6171343-6.8634303 5.6171343-2.9262149 0-5.4330637-1.7955197-6.47752849-4.3444595 2.91040679.7072109 4.91192989.406832 6.95769559-.7269692.0713419-.039539.1430451-.0803846.2204777-.1255278zm-1.6145474-8.2580257c3.5889166 0 6.5470101 2.700875 6.9511 6.1799755-2.4796545-1.145507-4.3655769-.8323986-6.5625356.4780065l-.7873741.4703852-.284502.1554328c-1.7371374.9089865-3.4095511 1.041003-6.30286883.1596566-.00916719-.1466407-.01381947-.2945053-.01381947-.4434566 0-3.8659932 3.1340068-7 7-7zm8-6h-2c-.5522847 0-1 .44771525-1 1s.4477153 1 1 1h2c.5522847 0 1-.44771525 1-1s-.4477153-1-1-1z" fill="#202327"/></g></svg>