<svg height="32" viewBox="0 0 32 32" width="32" xmlns="http://www.w3.org/2000/svg"><g fill="none" fill-rule="evenodd"><path d="m0 0h32v32h-32z"/><path d="m30 0v32h-28v-32zm-14 9c-4.9705627 0-9 4.0294373-9 9s4.0294373 9 9 9 9-4.0294373 9-9-4.0294373-9-9-9zm1.6191294 9.2041076c1.8028097-1.0286627 3.1308322-1.1179687 5.3697664.1935257-.2061325 3.6809901-3.2563521 6.6023667-6.9888958 6.6023667-3.3476181 0-6.14638734-2.3499009-6.83564195-5.4904753 3.10902215.8225426 5.19073375.5454239 7.32039095-.6348714.0713419-.039539.1430452-.0803846.2204777-.1255279zm-1.6191294-7.2041076c3.1779281 0 5.8612392 2.117707 6.7138628 5.0181577-2.361734-1.0160222-4.1957297-.6815703-6.3207164.5859062l-.8778954.5212828c-1.8067047 1.0013091-3.4926776 1.177914-6.48923142.266871.30802618-3.581411 3.31275372-6.3922177 6.97398042-6.3922177zm9-6h-4v2h4z" fill="#202327"/></g></svg>